<?xml version="1.0" encoding="UTF-8" standalone="no"?><!DOCTYPE svg PUBLIC "-//W3C//DTD SVG 1.1//EN" "http://www.w3.org/Graphics/SVG/1.1/DTD/svg11.dtd"><svg width="100%" height="100%" viewBox="0 0 645 480" version="1.1" xmlns="http://www.w3.org/2000/svg" xmlns:xlink="http://www.w3.org/1999/xlink" xml:space="preserve" xmlns:serif="http://www.serif.com/" style="fill-rule:evenodd;clip-rule:evenodd;stroke-linejoin:round;stroke-miterlimit:2;"><path d="M196.14,41.901c-3.43,2.331 -19.145,15.415 -28.875,35.675c-9.626,20.044 -13.285,47.199 -13.289,62.002c-0,15.002 2.164,29.815 7.041,42.536c11.197,29.188 36.044,44.885 54.876,56.815c18.368,11.615 51.829,20.209 75.174,20.222c0.816,0 1.62,-0.013 2.407,-0.034c0.72,-0.021 1.423,-0.029 2.122,-0.029c7.601,0 14.094,1.071 24.24,1.071c5.015,0.004 10.909,-0.259 18.267,-1.046c27.045,-2.888 52.775,-17.991 76.007,-38.439c29.012,-25.559 49.46,-66.153 54.516,-99.28c1.285,-8.43 2.014,-17.589 2.014,-26.911c-0.009,-25.307 -5.354,-51.829 -19.745,-68.095c-9.791,-11.063 -19.477,-16.886 -28.522,-20.029c-9.046,-3.148 -17.438,-3.617 -24.651,-4.044c-7.371,-0.431 -17.187,-1.13 -29.075,-1.13c-5.311,0 -11.038,0.138 -17.149,0.502c-21.101,1.26 -46.702,6.25 -66.362,11.323c-19.498,5.031 -39.586,11.938 -62.792,18.209c-11.637,3.147 -19.385,6.044 -26.204,10.682Z" style="fill:#fff590;fill-rule:nonzero;"/><path d="M591.988,241.05c3.576,2.43 19.96,16.067 30.103,37.185c10.035,20.892 13.85,49.196 13.854,64.625c0,15.637 -2.256,31.077 -7.34,44.336c-11.673,30.423 -37.577,46.784 -57.21,59.219c-19.148,12.107 -54.033,21.064 -78.37,21.077c-0.85,0 -1.688,-0.013 -2.509,-0.035c-0.75,-0.021 -1.483,-0.03 -2.212,-0.03c-7.925,0 -14.693,1.117 -25.271,1.117c-5.228,0.004 -11.372,-0.271 -19.044,-1.091c-28.194,-3.01 -55.019,-18.752 -79.238,-40.065c-30.246,-26.64 -51.563,-68.952 -56.835,-103.481c-1.339,-8.787 -2.099,-18.333 -2.099,-28.049c0.009,-26.379 5.582,-54.023 20.585,-70.977c10.207,-11.531 20.305,-17.6 29.735,-20.877c9.43,-3.281 18.179,-3.769 25.698,-4.214c7.685,-0.45 17.918,-1.178 30.311,-1.178c5.538,0 11.508,0.144 17.879,0.523c21.998,1.313 48.687,6.514 69.184,11.802c20.327,5.244 41.269,12.443 65.462,18.979c12.131,3.281 20.209,6.3 27.317,11.134Z" style="fill:#fff590;fill-rule:nonzero;"/><path d="M316.211,432.744c3.85,-2.602 21.492,-17.199 32.414,-39.805c10.806,-22.363 14.913,-52.66 14.918,-69.176c0,-16.739 -2.43,-33.267 -7.904,-47.46c-12.569,-32.566 -40.462,-50.079 -61.602,-63.389c-20.618,-12.961 -58.181,-22.549 -84.387,-22.563c-0.916,0 -1.818,0.014 -2.702,0.038c-0.808,0.023 -1.597,0.032 -2.382,0.032c-8.533,0 -15.821,-1.195 -27.211,-1.195c-5.629,-0.005 -12.245,0.289 -20.506,1.167c-30.359,3.223 -59.243,20.073 -85.322,42.888c-32.568,28.516 -55.522,73.809 -61.198,110.769c-1.442,9.406 -2.26,19.625 -2.26,30.026c0.009,28.236 6.01,57.827 22.165,75.976c10.99,12.343 21.863,18.84 32.018,22.347c10.154,3.512 19.575,4.035 27.671,4.512c8.275,0.481 19.294,1.261 32.639,1.261c5.962,0 12.39,-0.155 19.251,-0.561c23.687,-1.406 52.425,-6.973 74.496,-12.633c21.887,-5.614 44.437,-13.32 70.487,-20.316c13.063,-3.512 21.761,-6.744 29.415,-11.918Z" style="fill:#fff590;fill-rule:nonzero;"/><path d="M175.554,62.83l0.98,0.779c7.894,-9.929 13.662,-16.154 20.309,-20.67c6.652,-4.521 14.232,-7.376 25.827,-10.507c23.257,-6.287 43.353,-13.193 62.779,-18.208c19.594,-5.057 45.157,-10.029 66.124,-11.281c6.082,-0.364 11.783,-0.502 17.074,-0.502c11.842,0 21.616,0.695 29,1.13c7.216,0.423 15.462,0.892 24.316,3.972c8.848,3.081 18.321,8.761 27.995,19.674c14.056,15.856 19.434,42.13 19.426,67.266c0,9.26 -0.724,18.355 -1.997,26.719c-4.989,32.8 -25.357,73.227 -54.106,98.526c-23.118,20.36 -48.652,35.295 -75.312,38.137c-7.317,0.779 -13.164,1.043 -18.133,1.043c-10.046,0 -16.509,-1.072 -24.24,-1.076c-0.707,0 -1.423,0.008 -2.156,0.029c-0.778,0.021 -1.569,0.034 -2.373,0.034c-23.043,0.008 -56.471,-8.59 -74.504,-20.03c-18.841,-11.929 -43.365,-27.471 -54.374,-56.203c-4.806,-12.528 -6.957,-27.204 -6.957,-42.084c-0.013,-29.519 8.497,-59.879 21.302,-75.969l-0.98,-0.779c-13.076,16.471 -21.569,46.982 -21.578,76.748c0,15.002 2.164,29.815 7.041,42.536c11.197,29.188 36.044,44.885 54.876,56.815c18.368,11.615 51.829,20.209 75.174,20.222c0.816,0 1.62,-0.013 2.407,-0.034c0.72,-0.021 1.423,-0.029 2.122,-0.029c7.601,0 14.094,1.071 24.24,1.071c5.015,0.004 10.909,-0.259 18.267,-1.046c27.045,-2.888 52.775,-17.991 76.007,-38.439c29.012,-25.559 49.46,-66.153 54.516,-99.28c1.285,-8.43 2.014,-17.589 2.014,-26.911c-0.009,-25.307 -5.354,-51.829 -19.745,-68.095c-9.791,-11.063 -19.477,-16.886 -28.522,-20.029c-9.046,-3.148 -17.438,-3.617 -24.651,-4.044c-7.371,-0.431 -17.187,-1.13 -29.075,-1.13c-5.311,0 -11.038,0.138 -17.149,0.502c-21.101,1.26 -46.702,6.25 -66.362,11.323c-19.498,5.031 -39.586,11.938 -62.792,18.209c-11.637,3.147 -19.385,6.044 -26.204,10.682c-6.823,4.638 -12.675,10.971 -20.586,20.929Z" style="fill-rule:nonzero;"/><path d="M614.112,262.343l-1.028,0.817c-8.282,-10.417 -14.334,-16.947 -21.307,-21.686c-6.978,-4.742 -14.931,-7.737 -27.096,-11.022c-24.399,-6.596 -45.482,-13.842 -65.863,-19.103c-20.557,-5.305 -47.376,-10.522 -69.373,-11.835c-6.38,-0.382 -12.362,-0.527 -17.912,-0.527c-12.424,0 -22.678,0.729 -30.425,1.185c-7.571,0.444 -16.222,0.936 -25.51,4.168c-9.283,3.232 -19.221,9.191 -29.37,20.64c-14.747,16.635 -20.39,44.2 -20.381,70.571c0,9.714 0.76,19.257 2.095,28.031c5.234,34.412 26.603,76.825 56.764,103.367c24.254,21.36 51.042,37.029 79.012,40.011c7.676,0.816 13.811,1.093 19.024,1.093c10.539,0 17.32,-1.124 25.431,-1.128c0.742,0 1.493,0.008 2.261,0.03c0.817,0.022 1.647,0.035 2.49,0.035c24.176,0.009 59.246,-9.011 78.164,-21.013c19.767,-12.516 45.496,-28.821 57.046,-58.964c5.041,-13.144 7.299,-28.541 7.299,-44.152c0.013,-30.969 -8.915,-62.821 -22.349,-79.701l1.028,-0.817c13.719,17.28 22.629,49.29 22.638,80.518c0,15.739 -2.27,31.28 -7.386,44.626c-11.748,30.622 -37.816,47.09 -57.573,59.606c-19.27,12.186 -54.375,21.202 -78.867,21.215c-0.856,0 -1.699,-0.013 -2.525,-0.035c-0.755,-0.022 -1.493,-0.031 -2.226,-0.031c-7.975,0 -14.786,1.124 -25.431,1.124c-5.261,0.005 -11.445,-0.272 -19.165,-1.098c-28.373,-3.03 -55.368,-18.874 -79.74,-40.327c-30.438,-26.814 -51.89,-69.403 -57.195,-104.157c-1.348,-8.844 -2.112,-18.453 -2.112,-28.233c0.008,-26.551 5.616,-54.375 20.714,-71.441c10.272,-11.606 20.434,-17.715 29.924,-21.013c9.49,-3.302 18.295,-3.794 25.861,-4.242c7.734,-0.452 18.032,-1.186 30.504,-1.186c5.572,0 11.58,0.145 17.991,0.527c22.138,1.322 48.996,6.557 69.623,11.879c20.456,5.279 41.53,12.525 65.877,19.103c12.208,3.303 20.337,6.341 27.491,11.207c7.158,4.866 13.297,11.51 21.597,21.958Z" style="fill:#231f20;fill-rule:nonzero;"/><path d="M339.638,409.706l-1.1,-0.874c-8.866,11.15 -15.344,18.14 -22.809,23.212c-7.469,5.077 -15.982,8.283 -29.003,11.799c-26.118,7.061 -48.687,14.817 -70.503,20.449c-22.005,5.678 -50.712,11.263 -74.259,12.668c-6.83,0.409 -13.232,0.565 -19.174,0.565c-13.299,0 -24.275,-0.781 -32.567,-1.27c-8.105,-0.474 -17.365,-1.001 -27.307,-4.461c-9.938,-3.46 -20.576,-9.839 -31.439,-22.094c-15.786,-17.806 -21.826,-47.313 -21.817,-75.541c-0,-10.399 0.813,-20.613 2.243,-30.006c5.603,-36.835 28.477,-82.235 60.762,-110.647c25.963,-22.865 54.638,-39.637 84.577,-42.829c8.217,-0.874 14.784,-1.171 20.364,-1.171c11.282,0 18.54,1.204 27.222,1.208c0.795,0 1.598,-0.009 2.421,-0.032c0.874,-0.024 1.763,-0.038 2.665,-0.038c25.878,-0.009 63.419,9.646 83.67,22.493c21.158,13.398 48.7,30.852 61.063,63.118c5.397,14.069 7.813,30.55 7.813,47.262c0.014,33.15 -9.542,67.245 -23.922,85.315l1.1,0.874c14.685,-18.498 24.223,-52.762 24.232,-86.189c0,-16.848 -2.43,-33.484 -7.906,-47.77c-12.575,-32.778 -40.479,-50.406 -61.628,-63.804c-20.627,-13.044 -58.205,-22.695 -84.422,-22.709c-0.916,0 -1.819,0.014 -2.703,0.037c-0.808,0.024 -1.598,0.033 -2.383,0.033c-8.537,0 -15.827,-1.203 -27.222,-1.203c-5.632,-0.005 -12.25,0.291 -20.515,1.175c-30.371,3.244 -59.267,20.204 -85.357,43.167c-32.581,28.704 -55.544,74.292 -61.223,111.494c-1.443,9.468 -2.261,19.753 -2.261,30.222c0.009,28.421 6.012,58.205 22.174,76.472c10.995,12.424 21.873,18.963 32.031,22.494c10.158,3.535 19.583,4.061 27.683,4.541c8.278,0.484 19.301,1.269 32.652,1.269c5.965,0 12.396,-0.155 19.259,-0.564c23.697,-1.415 52.447,-7.019 74.526,-12.716c21.897,-5.65 44.456,-13.407 70.517,-20.449c13.068,-3.535 21.77,-6.787 29.427,-11.996c7.663,-5.208 14.234,-12.321 23.119,-23.504Z" style="fill:#231f20;fill-rule:nonzero;"/><g><path d="M214.934,166.351l0,-26.625l4.2,0l0,22.912l14.288,0l-0,3.713l-18.488,0Z" style="fill:#231f20;fill-rule:nonzero;"/><path d="M255.097,162.639l-0.001,3.712l-18.262,0l0,-26.625l17.925,0l0,3.713l-13.725,-0l-0,7.575l11.887,-0l0,3.487l-11.887,0l-0,8.138l14.062,-0Z" style="fill:#231f20;fill-rule:nonzero;"/><path d="M291.097,166.351l-0,-18.975l-7.838,14.4l-2.475,0l-7.875,-14.4l0,18.975l-4.2,0l0,-26.625l4.5,0l8.813,16.275l8.812,-16.275l4.5,0l0,26.625l-4.237,0Z" style="fill:#231f20;fill-rule:nonzero;"/><path d="M319.597,162.639l-0,3.712l-18.263,0l0,-26.625l17.925,0l0,3.713l-13.725,-0l0,7.575l11.887,-0l0,3.487l-11.887,0l0,8.138l14.063,-0Z" style="fill:#231f20;fill-rule:nonzero;"/><path d="M328.147,147.526l-0,18.825l-4.2,0l-0,-26.625l3.45,0l15.075,19.238l-0,-19.201l4.237,0l0,26.588l-3.675,0l-14.887,-18.825Z" style="fill:#231f20;fill-rule:nonzero;"/><path d="M372.247,143.439l-8.851,-0l0,22.912l-4.237,0l0,-22.912l-8.887,-0l-0,-3.713l21.975,0l-0,3.713Z" style="fill:#231f20;fill-rule:nonzero;"/><path d="M380.984,139.726l3.975,0l10.35,26.625l-4.425,0l-2.813,-7.238l-10.274,0l-2.775,7.238l-4.463,0l10.425,-26.625Zm6.262,16.275l-4.274,-11.662l-4.425,11.662l8.7,0Z" style="fill:#231f20;fill-rule:nonzero;"/><path d="M398.609,166.351l0,-26.625l4.2,0l0,22.912l14.288,0l-0,3.713l-18.488,0Z" style="fill:#231f20;fill-rule:nonzero;"/></g><g><g><path d="M45.272,316.508l0,-24.85l3.92,-0l0,21.385l13.335,-0l0,3.465l-17.255,-0Z" style="fill:#231f20;fill-rule:nonzero;"/><path d="M82.758,313.043l0,3.465l-17.045,-0l0,-24.85l16.73,-0l0,3.465l-12.81,-0l0,7.07l11.095,-0l0,3.255l-11.095,-0l0,7.595l13.125,-0Z" style="fill:#231f20;fill-rule:nonzero;"/><path d="M100.991,297.503c-0.233,-0.257 -0.571,-0.531 -1.015,-0.823c-0.443,-0.291 -0.968,-0.566 -1.575,-0.822c-0.606,-0.257 -1.26,-0.467 -1.96,-0.63c-0.7,-0.164 -1.423,-0.245 -2.17,-0.245c-1.633,-0 -2.846,0.303 -3.64,0.91c-0.793,0.606 -1.19,1.446 -1.19,2.52c0,0.793 0.222,1.417 0.665,1.872c0.444,0.455 1.12,0.834 2.03,1.138c0.91,0.303 2.054,0.63 3.43,0.98c1.68,0.396 3.139,0.869 4.375,1.417c1.237,0.549 2.182,1.278 2.835,2.188c0.654,0.91 0.98,2.111 0.98,3.605c0,1.26 -0.233,2.345 -0.7,3.255c-0.466,0.91 -1.12,1.651 -1.96,2.222c-0.84,0.572 -1.808,0.992 -2.905,1.26c-1.096,0.269 -2.275,0.403 -3.535,0.403c-1.236,-0 -2.467,-0.129 -3.692,-0.385c-1.225,-0.257 -2.392,-0.636 -3.5,-1.138c-1.109,-0.501 -2.129,-1.114 -3.063,-1.837l1.785,-3.36c0.304,0.303 0.741,0.636 1.313,0.997c0.571,0.362 1.236,0.706 1.995,1.033c0.758,0.326 1.586,0.601 2.485,0.822c0.898,0.222 1.814,0.333 2.747,0.333c1.564,-0 2.759,-0.274 3.588,-0.823c0.828,-0.548 1.242,-1.336 1.242,-2.362c0,-0.84 -0.268,-1.511 -0.805,-2.013c-0.536,-0.501 -1.318,-0.927 -2.345,-1.277c-1.026,-0.35 -2.251,-0.7 -3.675,-1.05c-1.633,-0.444 -2.998,-0.928 -4.095,-1.453c-1.096,-0.525 -1.919,-1.201 -2.467,-2.03c-0.549,-0.828 -0.823,-1.884 -0.823,-3.167c0,-1.634 0.397,-3.016 1.19,-4.148c0.794,-1.131 1.873,-1.983 3.238,-2.555c1.365,-0.571 2.899,-0.857 4.602,-0.857c1.12,-0 2.182,0.122 3.185,0.367c1.004,0.245 1.943,0.578 2.818,0.998c0.875,0.42 1.674,0.898 2.397,1.435l-1.785,3.22Z" style="fill:#231f20;fill-rule:nonzero;"/><path d="M133.366,313.043l0,3.465l-17.045,-0l0,-24.85l16.73,-0l0,3.465l-12.81,-0l0,7.07l11.095,-0l0,3.255l-11.095,-0l0,7.595l13.125,-0Zm-6.965,-23.975l-2.52,-0.77l1.995,-3.85l3.675,-0l-3.15,4.62Z" style="fill:#231f20;fill-rule:nonzero;"/><path d="M158.321,316.508l0,-17.71l-7.315,13.44l-2.31,-0l-7.35,-13.44l0,17.71l-3.92,-0l0,-24.85l4.2,-0l8.225,15.19l8.225,-15.19l4.2,-0l0,24.85l-3.955,-0Z" style="fill:#231f20;fill-rule:nonzero;"/><path d="M178.204,316.683c-1.797,-0 -3.419,-0.35 -4.865,-1.05c-1.447,-0.7 -2.695,-1.651 -3.745,-2.853c-1.05,-1.201 -1.861,-2.555 -2.433,-4.06c-0.571,-1.505 -0.857,-3.051 -0.857,-4.637c-0,-1.657 0.303,-3.238 0.91,-4.743c0.606,-1.505 1.446,-2.846 2.52,-4.025c1.073,-1.178 2.339,-2.111 3.797,-2.8c1.459,-0.688 3.039,-1.032 4.743,-1.032c1.773,-0 3.389,0.361 4.847,1.085c1.459,0.723 2.707,1.691 3.745,2.905c1.039,1.213 1.844,2.566 2.415,4.06c0.572,1.493 0.858,3.021 0.858,4.585c-0,1.656 -0.298,3.237 -0.893,4.742c-0.595,1.505 -1.429,2.847 -2.502,4.025c-1.074,1.179 -2.339,2.106 -3.798,2.783c-1.458,0.676 -3.039,1.015 -4.742,1.015Zm-7.91,-12.6c-0,1.166 0.186,2.298 0.56,3.395c0.373,1.096 0.904,2.071 1.592,2.922c0.689,0.852 1.523,1.523 2.503,2.013c0.98,0.49 2.076,0.735 3.29,0.735c1.26,-0 2.38,-0.257 3.36,-0.77c0.98,-0.514 1.802,-1.208 2.467,-2.083c0.665,-0.875 1.173,-1.855 1.523,-2.94c0.35,-1.085 0.525,-2.176 0.525,-3.272c-0,-1.167 -0.181,-2.293 -0.543,-3.378c-0.361,-1.085 -0.892,-2.053 -1.592,-2.905c-0.7,-0.851 -1.534,-1.522 -2.503,-2.012c-0.968,-0.49 -2.047,-0.735 -3.237,-0.735c-1.26,-0 -2.38,0.256 -3.36,0.77c-0.98,0.513 -1.809,1.201 -2.485,2.065c-0.677,0.863 -1.196,1.831 -1.558,2.905c-0.361,1.073 -0.542,2.17 -0.542,3.29Z" style="fill:#231f20;fill-rule:nonzero;"/><path d="M211.276,295.123l-8.26,-0l0,21.385l-3.955,-0l0,-21.385l-8.295,-0l0,-3.465l20.51,-0l0,3.465Z" style="fill:#231f20;fill-rule:nonzero;"/><rect x="214.601" y="291.658" width="3.92" height="24.85" style="fill:#231f20;fill-rule:nonzero;"/><path d="M234.446,316.683c-1.796,-0 -3.418,-0.35 -4.865,-1.05c-1.446,-0.7 -2.695,-1.651 -3.745,-2.853c-1.05,-1.201 -1.861,-2.555 -2.432,-4.06c-0.572,-1.505 -0.858,-3.051 -0.858,-4.637c0,-1.657 0.304,-3.238 0.91,-4.743c0.607,-1.505 1.447,-2.846 2.52,-4.025c1.074,-1.178 2.339,-2.111 3.798,-2.8c1.458,-0.688 3.039,-1.032 4.742,-1.032c1.774,-0 3.389,0.361 4.848,1.085c1.458,0.723 2.706,1.691 3.745,2.905c1.038,1.213 1.843,2.566 2.415,4.06c0.571,1.493 0.857,3.021 0.857,4.585c0,1.656 -0.297,3.237 -0.892,4.742c-0.595,1.505 -1.429,2.847 -2.503,4.025c-1.073,1.179 -2.339,2.106 -3.797,2.783c-1.459,0.676 -3.039,1.015 -4.743,1.015Zm-7.91,-12.6c0,1.166 0.187,2.298 0.56,3.395c0.374,1.096 0.904,2.071 1.593,2.922c0.688,0.852 1.522,1.523 2.502,2.013c0.98,0.49 2.077,0.735 3.29,0.735c1.26,-0 2.38,-0.257 3.36,-0.77c0.98,-0.514 1.803,-1.208 2.468,-2.083c0.665,-0.875 1.172,-1.855 1.522,-2.94c0.35,-1.085 0.525,-2.176 0.525,-3.272c0,-1.167 -0.181,-2.293 -0.542,-3.378c-0.362,-1.085 -0.893,-2.053 -1.593,-2.905c-0.7,-0.851 -1.534,-1.522 -2.502,-2.012c-0.969,-0.49 -2.048,-0.735 -3.238,-0.735c-1.26,-0 -2.38,0.256 -3.36,0.77c-0.98,0.513 -1.808,1.201 -2.485,2.065c-0.676,0.863 -1.196,1.831 -1.557,2.905c-0.362,1.073 -0.543,2.17 -0.543,3.29Z" style="fill:#231f20;fill-rule:nonzero;"/><path d="M254.361,298.938l0,17.57l-3.92,-0l0,-24.85l3.22,-0l14.07,17.955l0,-17.92l3.955,-0l0,24.815l-3.43,-0l-13.895,-17.57Z" style="fill:#231f20;fill-rule:nonzero;"/><path d="M291.986,297.503c-0.233,-0.257 -0.571,-0.531 -1.015,-0.823c-0.443,-0.291 -0.968,-0.566 -1.575,-0.822c-0.606,-0.257 -1.26,-0.467 -1.96,-0.63c-0.7,-0.164 -1.423,-0.245 -2.17,-0.245c-1.633,-0 -2.846,0.303 -3.64,0.91c-0.793,0.606 -1.19,1.446 -1.19,2.52c0,0.793 0.222,1.417 0.665,1.872c0.444,0.455 1.12,0.834 2.03,1.138c0.91,0.303 2.054,0.63 3.43,0.98c1.68,0.396 3.139,0.869 4.375,1.417c1.237,0.549 2.182,1.278 2.835,2.188c0.654,0.91 0.98,2.111 0.98,3.605c0,1.26 -0.233,2.345 -0.7,3.255c-0.466,0.91 -1.12,1.651 -1.96,2.222c-0.84,0.572 -1.808,0.992 -2.905,1.26c-1.096,0.269 -2.275,0.403 -3.535,0.403c-1.236,-0 -2.467,-0.129 -3.692,-0.385c-1.225,-0.257 -2.392,-0.636 -3.5,-1.138c-1.109,-0.501 -2.129,-1.114 -3.063,-1.837l1.785,-3.36c0.304,0.303 0.741,0.636 1.313,0.997c0.571,0.362 1.236,0.706 1.995,1.033c0.758,0.326 1.586,0.601 2.485,0.822c0.898,0.222 1.814,0.333 2.747,0.333c1.564,-0 2.759,-0.274 3.588,-0.823c0.828,-0.548 1.242,-1.336 1.242,-2.362c0,-0.84 -0.268,-1.511 -0.805,-2.013c-0.536,-0.501 -1.318,-0.927 -2.345,-1.277c-1.026,-0.35 -2.251,-0.7 -3.675,-1.05c-1.633,-0.444 -2.998,-0.928 -4.095,-1.453c-1.096,-0.525 -1.919,-1.201 -2.467,-2.03c-0.549,-0.828 -0.823,-1.884 -0.823,-3.167c0,-1.634 0.397,-3.016 1.19,-4.148c0.794,-1.131 1.873,-1.983 3.238,-2.555c1.365,-0.571 2.899,-0.857 4.602,-0.857c1.12,-0 2.182,0.122 3.185,0.367c1.004,0.245 1.943,0.578 2.818,0.998c0.875,0.42 1.674,0.898 2.397,1.435l-1.785,3.22Z" style="fill:#231f20;fill-rule:nonzero;"/></g></g><g><path d="M226.159,83.655c0,1.056 0.4,1.584 1.2,1.584c0.608,-0 1.264,-0.408 1.968,-1.224c0.704,-0.816 1.312,-1.976 1.824,-3.48l0.768,0.192c-1.376,3.904 -3.168,5.856 -5.376,5.856c-1.984,-0 -2.976,-1.256 -2.976,-3.768c0,-2.512 2.096,-11.368 6.288,-26.568l-3.072,0.24l-0.048,-0.816c2.208,-0.288 4.272,-0.688 6.192,-1.2l0.672,0.48c-1.344,3.936 -2.92,9.272 -4.728,16.008c-1.808,6.736 -2.712,10.968 -2.712,12.696Z" style="fill:#231f20;fill-rule:nonzero;"/><path d="M236.335,64.071c2.08,-1.6 3.12,-3.28 3.12,-5.04c0,-0.96 -0.336,-1.744 -1.008,-2.352c0.16,-0.736 0.536,-1.376 1.128,-1.92c0.592,-0.544 1.224,-0.816 1.896,-0.816c1.312,-0 1.968,0.656 1.968,1.968c0,1.312 -0.648,2.872 -1.944,4.68c-1.296,1.808 -2.888,3.192 -4.776,4.152l-0.384,-0.672Z" style="fill:#231f20;fill-rule:nonzero;"/><path d="M252.223,59.895c-0.416,-0.416 -0.624,-0.928 -0.624,-1.536c0,-0.608 0.208,-1.12 0.624,-1.536c0.416,-0.416 0.928,-0.624 1.536,-0.624c0.608,-0 1.12,0.208 1.536,0.624c0.416,0.416 0.624,0.928 0.624,1.536c0,0.608 -0.208,1.12 -0.624,1.536c-0.416,0.416 -0.928,0.624 -1.536,0.624c-0.608,-0 -1.12,-0.208 -1.536,-0.624Zm-5.424,23.088c0,-1.696 1.168,-7.056 3.504,-16.08l-3.072,0.24l-0.048,-0.816c2.208,-0.288 4.272,-0.688 6.192,-1.2l0.672,0.48c-1.12,3.328 -2.176,6.896 -3.168,10.704c-0.992,3.808 -1.488,6.248 -1.488,7.32c0,1.072 0.4,1.608 1.2,1.608c0.608,-0 1.264,-0.408 1.968,-1.224c0.704,-0.816 1.312,-1.976 1.824,-3.48l0.768,0.192c-1.376,3.904 -3.168,5.856 -5.376,5.856c-1.984,-0 -2.976,-1.2 -2.976,-3.6Z" style="fill:#231f20;fill-rule:nonzero;"/><path d="M278.191,69.063c0,1.376 -0.776,3.904 -2.328,7.584c-1.552,3.68 -2.328,6.032 -2.328,7.056c0,1.024 0.4,1.536 1.2,1.536c0.608,-0 1.264,-0.408 1.968,-1.224c0.704,-0.816 1.312,-1.976 1.824,-3.48l0.768,0.192c-1.376,3.904 -3.168,5.856 -5.376,5.856c-1.984,-0 -2.976,-1.088 -2.976,-3.264c0,-0.928 0.728,-3.232 2.184,-6.912c1.456,-3.68 2.184,-6.048 2.184,-7.104c0,-2.016 -0.736,-3.024 -2.208,-3.024c-1.6,-0 -3.328,1.296 -5.184,3.888c-2.144,3.104 -4.048,8.384 -5.712,15.84l-3.36,0.288l4.704,-19.392l-3.072,0.24l-0.048,-0.816c2.208,-0.288 4.272,-0.688 6.192,-1.2l0.672,0.48c-1.536,3.52 -2.88,7.568 -4.032,12.144l0.384,-0l0.768,-2.112c1.728,-4.832 3.6,-7.968 5.616,-9.408c0.96,-0.64 1.752,-1.056 2.376,-1.248c0.624,-0.192 1.408,-0.288 2.352,-0.288c0.944,-0 1.752,0.384 2.424,1.152c0.672,0.768 1.008,1.84 1.008,3.216Z" style="fill:#231f20;fill-rule:nonzero;"/><path d="M284.047,66.999l0.24,-0.912l10.656,-0l-0.24,0.912l-10.656,-0Zm7.632,-6.816l0.672,0.48c-0.736,2.24 -1.72,5.76 -2.952,10.56c-1.232,4.8 -1.976,7.896 -2.232,9.288c-0.256,1.392 -0.384,2.44 -0.384,3.144c0,1.056 0.4,1.584 1.2,1.584c0.608,-0 1.264,-0.408 1.968,-1.224c0.704,-0.816 1.312,-1.976 1.824,-3.48l0.768,0.192c-1.376,3.904 -3.168,5.856 -5.376,5.856c-1.984,-0 -2.976,-1.2 -2.976,-3.6c0,-1.984 1.184,-7.52 3.552,-16.608l-3.456,-0.288c1.76,-0 3.184,-0.424 4.272,-1.272c1.088,-0.848 2.128,-2.392 3.12,-4.632Z" style="fill:#231f20;fill-rule:nonzero;"/><path d="M307.567,64.695c1.696,-0 2.968,0.408 3.816,1.224c0.848,0.816 1.272,1.984 1.272,3.504c0,1.52 -0.592,2.84 -1.776,3.96c-2.016,1.92 -5.008,2.88 -8.976,2.88c-1.184,-0 -2.208,-0.096 -3.072,-0.288l0,-0.912c1.12,0.16 2.048,0.24 2.784,0.24c2.656,-0 4.712,-0.672 6.168,-2.016c1.456,-1.344 2.184,-2.816 2.184,-4.416c0,-0.864 -0.232,-1.584 -0.696,-2.16c-0.464,-0.576 -1.232,-0.864 -2.304,-0.864c-1.072,-0 -2.16,0.496 -3.264,1.488c-1.104,0.992 -1.976,2.224 -2.616,3.696c-1.28,3.104 -1.92,5.792 -1.92,8.064c0,4.224 1.28,6.336 3.84,6.336c3.168,-0 5.488,-1.728 6.96,-5.184l0.768,0.192c-0.768,1.952 -1.88,3.464 -3.336,4.536c-1.456,1.072 -3.096,1.608 -4.92,1.608c-1.824,-0 -3.36,-0.672 -4.608,-2.016c-1.248,-1.344 -1.872,-3.152 -1.872,-5.424c0,-2.272 0.432,-4.472 1.296,-6.6c0.864,-2.128 2.208,-3.968 4.032,-5.52c1.824,-1.552 3.904,-2.328 6.24,-2.328Z" style="fill:#231f20;fill-rule:nonzero;"/><path d="M334.639,69.063c0,1.376 -0.776,3.904 -2.328,7.584c-1.552,3.68 -2.328,6.032 -2.328,7.056c0,1.024 0.4,1.536 1.2,1.536c0.608,-0 1.264,-0.408 1.968,-1.224c0.704,-0.816 1.312,-1.976 1.824,-3.48l0.768,0.192c-1.376,3.904 -3.168,5.856 -5.376,5.856c-1.984,-0 -2.976,-1.088 -2.976,-3.264c0,-0.928 0.728,-3.232 2.184,-6.912c1.456,-3.68 2.184,-6.048 2.184,-7.104c0,-2.016 -0.736,-3.024 -2.208,-3.024c-1.6,-0 -3.328,1.296 -5.184,3.888c-2.144,3.104 -4.048,8.384 -5.712,15.84l-3.36,0.288l4.704,-19.392l-3.072,0.24l-0.048,-0.816c2.208,-0.288 4.272,-0.688 6.192,-1.2l0.672,0.48c-1.536,3.52 -2.88,7.568 -4.032,12.144l0.384,-0l0.768,-2.112c1.728,-4.832 3.6,-7.968 5.616,-9.408c0.96,-0.64 1.752,-1.056 2.376,-1.248c0.624,-0.192 1.408,-0.288 2.352,-0.288c0.944,-0 1.752,0.384 2.424,1.152c0.672,0.768 1.008,1.84 1.008,3.216Z" style="fill:#231f20;fill-rule:nonzero;"/><path d="M340.495,66.999l0.24,-0.912l10.656,-0l-0.24,0.912l-10.656,-0Zm7.632,-6.816l0.672,0.48c-0.736,2.24 -1.72,5.76 -2.952,10.56c-1.232,4.8 -1.976,7.896 -2.232,9.288c-0.256,1.392 -0.384,2.44 -0.384,3.144c0,1.056 0.4,1.584 1.2,1.584c0.608,-0 1.264,-0.408 1.968,-1.224c0.704,-0.816 1.312,-1.976 1.824,-3.48l0.768,0.192c-1.376,3.904 -3.168,5.856 -5.376,5.856c-1.984,-0 -2.976,-1.2 -2.976,-3.6c0,-1.984 1.184,-7.52 3.552,-16.608l-3.456,-0.288c1.76,-0 3.184,-0.424 4.272,-1.272c1.088,-0.848 2.128,-2.392 3.12,-4.632Z" style="fill:#231f20;fill-rule:nonzero;"/><path d="M359.311,59.895c-0.416,-0.416 -0.624,-0.928 -0.624,-1.536c0,-0.608 0.208,-1.12 0.624,-1.536c0.416,-0.416 0.928,-0.624 1.536,-0.624c0.608,-0 1.12,0.208 1.536,0.624c0.416,0.416 0.624,0.928 0.624,1.536c0,0.608 -0.208,1.12 -0.624,1.536c-0.416,0.416 -0.928,0.624 -1.536,0.624c-0.608,-0 -1.12,-0.208 -1.536,-0.624Zm-5.424,23.088c0,-1.696 1.168,-7.056 3.504,-16.08l-3.072,0.24l-0.048,-0.816c2.208,-0.288 4.272,-0.688 6.192,-1.2l0.672,0.48c-1.12,3.328 -2.176,6.896 -3.168,10.704c-0.992,3.808 -1.488,6.248 -1.488,7.32c0,1.072 0.4,1.608 1.2,1.608c0.608,-0 1.264,-0.408 1.968,-1.224c0.704,-0.816 1.312,-1.976 1.824,-3.48l0.768,0.192c-1.376,3.904 -3.168,5.856 -5.376,5.856c-1.984,-0 -2.976,-1.2 -2.976,-3.6Z" style="fill:#231f20;fill-rule:nonzero;"/><path d="M365.695,79.047c0,-3.296 0.96,-6.448 2.88,-9.456c0.928,-1.44 2.144,-2.616 3.648,-3.528c1.504,-0.912 3.224,-1.368 5.16,-1.368c1.936,-0 3.512,0.656 4.728,1.968c1.216,1.312 1.824,3.104 1.824,5.376c0,2.272 -0.416,4.48 -1.248,6.624c-0.832,2.144 -2.144,4 -3.936,5.568c-1.792,1.568 -3.808,2.352 -6.048,2.352c-2.24,-0 -3.968,-0.656 -5.184,-1.968c-1.216,-1.312 -1.824,-3.168 -1.824,-5.568Zm11.28,-13.296c-1.728,-0 -3.256,0.864 -4.584,2.592c-1.328,1.728 -2.272,3.616 -2.832,5.664c-0.56,2.048 -0.84,3.96 -0.84,5.736c0,1.776 0.36,3.184 1.08,4.224c0.72,1.04 1.712,1.56 2.976,1.56c1.264,-0 2.448,-0.512 3.552,-1.536c1.104,-1.024 1.976,-2.288 2.616,-3.792c1.312,-3.072 1.968,-5.736 1.968,-7.992c0,-2.256 -0.352,-3.896 -1.056,-4.92c-0.704,-1.024 -1.664,-1.536 -2.88,-1.536Z" style="fill:#231f20;fill-rule:nonzero;"/><path d="M407.359,69.063c0,1.376 -0.776,3.904 -2.328,7.584c-1.552,3.68 -2.328,6.032 -2.328,7.056c0,1.024 0.4,1.536 1.2,1.536c0.608,-0 1.264,-0.408 1.968,-1.224c0.704,-0.816 1.312,-1.976 1.824,-3.48l0.768,0.192c-1.376,3.904 -3.168,5.856 -5.376,5.856c-1.984,-0 -2.976,-1.088 -2.976,-3.264c0,-0.928 0.728,-3.232 2.184,-6.912c1.456,-3.68 2.184,-6.048 2.184,-7.104c0,-2.016 -0.736,-3.024 -2.208,-3.024c-1.6,-0 -3.328,1.296 -5.184,3.888c-2.144,3.104 -4.048,8.384 -5.712,15.84l-3.36,0.288l4.704,-19.392l-3.072,0.24l-0.048,-0.816c2.208,-0.288 4.272,-0.688 6.192,-1.2l0.672,0.48c-1.536,3.52 -2.88,7.568 -4.032,12.144l0.384,-0l0.768,-2.112c1.728,-4.832 3.6,-7.968 5.616,-9.408c0.96,-0.64 1.752,-1.056 2.376,-1.248c0.624,-0.192 1.408,-0.288 2.352,-0.288c0.944,-0 1.752,0.384 2.424,1.152c0.672,0.768 1.008,1.84 1.008,3.216Z" style="fill:#231f20;fill-rule:nonzero;"/><path d="M203.873,122.093c0,1.006 0.381,1.509 1.143,1.509c0.579,-0 1.204,-0.389 1.875,-1.166c0.67,-0.777 1.249,-1.882 1.737,-3.314l0.731,0.182c-1.31,3.719 -3.017,5.578 -5.12,5.578c-1.889,-0 -2.834,-1.196 -2.834,-3.589c-0,-2.392 1.996,-10.827 5.989,-25.304l-2.926,0.229l-0.046,-0.777c2.103,-0.275 4.069,-0.656 5.897,-1.143l0.64,0.457c-1.28,3.749 -2.781,8.831 -4.503,15.246c-1.722,6.416 -2.583,10.446 -2.583,12.092Z" style="fill:#231f20;fill-rule:nonzero;"/><path d="M213.565,103.441c1.981,-1.524 2.972,-3.124 2.972,-4.8c-0,-0.915 -0.32,-1.661 -0.96,-2.24c0.152,-0.701 0.51,-1.311 1.074,-1.829c0.564,-0.518 1.166,-0.777 1.806,-0.777c1.249,-0 1.874,0.625 1.874,1.874c0,1.25 -0.617,2.735 -1.851,4.457c-1.235,1.722 -2.751,3.041 -4.549,3.955l-0.366,-0.64Z" style="fill:#231f20;fill-rule:nonzero;"/><path d="M233.177,104.035c1.616,0 2.827,0.389 3.635,1.166c0.808,0.777 1.211,1.89 1.211,3.337c0,1.448 -0.563,2.705 -1.691,3.772c-1.92,1.828 -4.77,2.743 -8.549,2.743c-1.128,-0 -2.103,-0.092 -2.926,-0.275l0,-0.868c1.067,0.152 1.951,0.228 2.652,0.228c2.529,0 4.487,-0.64 5.874,-1.92c1.387,-1.28 2.08,-2.682 2.08,-4.206c0,-0.822 -0.221,-1.508 -0.663,-2.057c-0.442,-0.548 -1.173,-0.823 -2.194,-0.823c-1.021,0 -2.057,0.473 -3.109,1.418c-1.051,0.944 -1.882,2.118 -2.491,3.52c-1.219,2.956 -1.829,5.516 -1.829,7.68c0,4.023 1.219,6.035 3.657,6.035c3.018,-0 5.227,-1.646 6.629,-4.938l0.732,0.183c-0.732,1.859 -1.791,3.299 -3.178,4.32c-1.386,1.021 -2.948,1.532 -4.685,1.532c-1.738,-0 -3.201,-0.64 -4.389,-1.92c-1.189,-1.28 -1.783,-3.002 -1.783,-5.166c-0,-2.164 0.411,-4.259 1.234,-6.286c0.823,-2.027 2.103,-3.779 3.84,-5.258c1.738,-1.478 3.719,-2.217 5.943,-2.217Zm3.338,-5.577l-5.989,3.52l-0.594,-0.732l5.074,-5.485c0.396,-0.427 0.831,-0.64 1.303,-0.64c0.472,-0 0.831,0.144 1.074,0.434c0.244,0.289 0.366,0.647 0.366,1.074c0,0.762 -0.411,1.372 -1.234,1.829Z" style="fill:#231f20;fill-rule:nonzero;"/><path d="M241.544,106.23l0.228,-0.869l10.149,-0l-0.228,0.869l-10.149,-0Zm7.268,-6.492l0.64,0.457c-0.701,2.133 -1.638,5.486 -2.811,10.058c-1.173,4.571 -1.882,7.52 -2.126,8.846c-0.244,1.325 -0.366,2.324 -0.366,2.994c0,1.006 0.381,1.509 1.143,1.509c0.579,-0 1.204,-0.389 1.875,-1.166c0.67,-0.777 1.249,-1.882 1.737,-3.314l0.731,0.182c-1.31,3.719 -3.017,5.578 -5.12,5.578c-1.89,-0 -2.834,-1.143 -2.834,-3.429c-0,-1.89 1.127,-7.162 3.383,-15.818l-3.292,-0.274c1.676,-0 3.033,-0.404 4.069,-1.212c1.036,-0.807 2.027,-2.278 2.971,-4.411Z" style="fill:#231f20;fill-rule:nonzero;"/><path d="M271.442,104.904c-1.067,3.169 -2.073,6.568 -3.017,10.194c-0.945,3.627 -1.418,5.951 -1.418,6.972c0,1.021 0.381,1.532 1.143,1.532c0.579,-0 1.204,-0.389 1.875,-1.166c0.67,-0.777 1.249,-1.882 1.737,-3.314l0.731,0.182c-1.31,3.719 -3.017,5.578 -5.12,5.578c-1.889,-0 -2.834,-1.143 -2.834,-3.429c-0,-0.457 0.076,-1.189 0.228,-2.194l-0.228,-0c-1.89,3.748 -4.084,5.623 -6.583,5.623c-1.433,-0 -2.629,-0.633 -3.589,-1.897c-0.96,-1.265 -1.44,-2.82 -1.44,-4.664c-0,-1.843 0.244,-3.558 0.731,-5.143c0.488,-1.584 1.174,-3.07 2.058,-4.457c0.883,-1.387 2.057,-2.514 3.52,-3.383c1.463,-0.869 3.063,-1.303 4.8,-1.303c2.255,0 4.038,0.96 5.349,2.88l1.417,-2.468l0.64,0.457Zm-12.389,18.606c1.28,0 2.575,-0.99 3.886,-2.971c1.493,-2.286 2.88,-6.02 4.16,-11.201c0.274,-1.219 0.488,-2.103 0.64,-2.651c-1.067,-1.037 -2.294,-1.555 -3.68,-1.555c-1.387,0 -2.621,0.473 -3.703,1.418c-1.082,0.944 -1.928,2.133 -2.537,3.565c-1.25,2.926 -1.875,5.684 -1.875,8.275c0,1.707 0.282,2.987 0.846,3.84c0.564,0.854 1.318,1.28 2.263,1.28Z" style="fill:#231f20;fill-rule:nonzero;"/><path d="M277.019,106.23l0.229,-0.869l10.149,-0l-0.229,0.869l-10.149,-0Zm7.269,-6.492l0.64,0.457c-0.701,2.133 -1.638,5.486 -2.811,10.058c-1.174,4.571 -1.882,7.52 -2.126,8.846c-0.244,1.325 -0.366,2.324 -0.366,2.994c0,1.006 0.381,1.509 1.143,1.509c0.579,-0 1.204,-0.389 1.874,-1.166c0.671,-0.777 1.25,-1.882 1.738,-3.314l0.731,0.182c-1.31,3.719 -3.017,5.578 -5.12,5.578c-1.89,-0 -2.835,-1.143 -2.835,-3.429c0,-1.89 1.128,-7.162 3.383,-15.818l-3.291,-0.274c1.676,-0 3.032,-0.404 4.069,-1.212c1.036,-0.807 2.026,-2.278 2.971,-4.411Z" style="fill:#231f20;fill-rule:nonzero;"/><path d="M313.912,122.093c0,1.006 0.381,1.509 1.143,1.509c0.579,-0 1.204,-0.389 1.875,-1.166c0.67,-0.777 1.249,-1.882 1.737,-3.314l0.731,0.182c-1.31,3.719 -3.017,5.578 -5.12,5.578c-1.89,-0 -2.834,-1.196 -2.834,-3.589c-0,-2.392 1.996,-10.827 5.988,-25.304l-2.925,0.229l-0.046,-0.777c2.103,-0.275 4.069,-0.656 5.897,-1.143l0.64,0.457c-1.28,3.749 -2.781,8.831 -4.503,15.246c-1.722,6.416 -2.583,10.446 -2.583,12.092Zm-2.011,-2.834l-0.457,-0c-1.89,3.748 -4.084,5.623 -6.584,5.623c-1.432,-0 -2.628,-0.633 -3.588,-1.897c-0.96,-1.265 -1.44,-2.82 -1.44,-4.664c-0,-1.843 0.244,-3.558 0.731,-5.143c0.488,-1.584 1.174,-3.07 2.057,-4.457c0.884,-1.387 2.058,-2.514 3.521,-3.383c1.462,-0.869 2.956,-1.303 4.48,-1.303c2.926,0 4.998,1.28 6.217,3.84l-0.64,0.823c-1.432,-2.377 -3.215,-3.566 -5.349,-3.566c-1.31,0 -2.506,0.473 -3.588,1.418c-1.082,0.944 -1.928,2.133 -2.538,3.565c-1.249,2.926 -1.874,5.684 -1.874,8.275c-0,1.707 0.282,2.987 0.846,3.84c0.564,0.854 1.318,1.28 2.263,1.28c1.31,0 2.651,-1.105 4.023,-3.314c1.371,-2.21 2.59,-5.372 3.657,-9.486l-1.737,8.549Z" style="fill:#231f20;fill-rule:nonzero;"/><path d="M323.604,103.441c1.981,-1.524 2.972,-3.124 2.972,-4.8c-0,-0.915 -0.32,-1.661 -0.96,-2.24c0.152,-0.701 0.51,-1.311 1.074,-1.829c0.564,-0.518 1.166,-0.777 1.806,-0.777c1.249,-0 1.874,0.625 1.874,1.874c0,1.25 -0.617,2.735 -1.851,4.457c-1.235,1.722 -2.751,3.041 -4.549,3.955l-0.366,-0.64Z" style="fill:#231f20;fill-rule:nonzero;"/><path d="M343.216,104.035c1.616,0 2.827,0.389 3.635,1.166c0.807,0.777 1.211,1.89 1.211,3.337c0,1.448 -0.564,2.705 -1.691,3.772c-1.92,1.828 -4.77,2.743 -8.549,2.743c-1.128,-0 -2.103,-0.092 -2.926,-0.275l0,-0.868c1.067,0.152 1.951,0.228 2.652,0.228c2.529,0 4.487,-0.64 5.874,-1.92c1.387,-1.28 2.08,-2.682 2.08,-4.206c0,-0.822 -0.221,-1.508 -0.663,-2.057c-0.442,-0.548 -1.173,-0.823 -2.194,-0.823c-1.021,0 -2.057,0.473 -3.109,1.418c-1.051,0.944 -1.882,2.118 -2.491,3.52c-1.219,2.956 -1.829,5.516 -1.829,7.68c0,4.023 1.219,6.035 3.657,6.035c3.018,-0 5.227,-1.646 6.629,-4.938l0.732,0.183c-0.732,1.859 -1.791,3.299 -3.178,4.32c-1.386,1.021 -2.948,1.532 -4.686,1.532c-1.737,-0 -3.2,-0.64 -4.388,-1.92c-1.189,-1.28 -1.783,-3.002 -1.783,-5.166c-0,-2.164 0.411,-4.259 1.234,-6.286c0.823,-2.027 2.103,-3.779 3.84,-5.258c1.738,-1.478 3.719,-2.217 5.943,-2.217Z" style="fill:#231f20;fill-rule:nonzero;"/><path d="M359.08,105.132c-1.158,0 -2.149,0.336 -2.972,1.006c-0.823,0.671 -1.234,1.524 -1.234,2.56c0,1.036 0.427,1.981 1.28,2.835c0.853,0.853 1.783,1.562 2.789,2.125c1.006,0.564 1.935,1.303 2.788,2.218c0.854,0.914 1.281,1.889 1.281,2.926c-0,1.95 -0.755,3.451 -2.263,4.503c-1.509,1.051 -3.33,1.577 -5.464,1.577c-2.133,-0 -4.007,-0.503 -5.623,-1.509c0.519,-1.036 1.006,-2.834 1.463,-5.394l0.777,0.137c-0.213,1.249 -0.32,2.232 -0.32,2.948c0,0.717 0.343,1.372 1.029,1.966c0.686,0.595 1.676,0.892 2.972,0.892c1.295,-0 2.392,-0.396 3.291,-1.189c0.899,-0.792 1.349,-1.829 1.349,-3.109c-0,-0.822 -0.404,-1.623 -1.212,-2.4c-0.807,-0.777 -1.691,-1.425 -2.651,-1.943c-0.96,-0.518 -1.844,-1.249 -2.652,-2.194c-0.807,-0.945 -1.211,-1.981 -1.211,-3.109c-0,-1.676 0.663,-3.086 1.988,-4.228c1.326,-1.143 3.071,-1.715 5.235,-1.715c1.676,0 3.337,0.412 4.983,1.235c-0.152,0.335 -0.404,1.097 -0.754,2.285c-0.351,1.189 -0.617,2.317 -0.8,3.383l-0.778,-0.137c0.183,-0.975 0.275,-1.912 0.275,-2.811c-0,-0.899 -0.297,-1.6 -0.892,-2.103c-0.594,-0.503 -1.485,-0.755 -2.674,-0.755Z" style="fill:#231f20;fill-rule:nonzero;"/><path d="M375.355,104.447l0.64,0.457c-1.463,3.352 -2.743,7.208 -3.84,11.566l0.365,-0l0.732,-2.012c2.53,-6.948 5.425,-10.423 8.686,-10.423c1.311,0 2.431,0.64 3.36,1.92c0.93,1.28 1.395,2.835 1.395,4.663c-0,1.829 -0.237,3.528 -0.709,5.098c-0.472,1.569 -1.151,3.032 -2.034,4.388c-0.884,1.357 -2.042,2.461 -3.475,3.315c-1.432,0.853 -3.017,1.28 -4.754,1.28c-2.652,-0 -4.724,-1.173 -6.218,-3.52l0.32,-0.777c1.463,2.224 3.383,3.337 5.76,3.337c1.372,-0 2.599,-0.457 3.681,-1.372c1.082,-0.914 1.912,-2.057 2.491,-3.428c1.158,-2.804 1.737,-5.547 1.737,-8.229c0,-1.555 -0.221,-2.766 -0.663,-3.635c-0.441,-0.868 -1.013,-1.303 -1.714,-1.303c-1.432,0 -3.04,1.387 -4.823,4.161c-1.783,2.773 -3.391,7.101 -4.823,12.983l-2.743,11.292l-3.2,0.274l6.903,-28.344l-2.926,0.229l-0.045,-0.777c2.102,-0.275 4.068,-0.656 5.897,-1.143Z" style="fill:#231f20;fill-rule:nonzero;"/><path d="M397.07,104.447l0.64,0.457c-1.463,3.352 -2.743,7.208 -3.84,11.566l0.366,-0l0.731,-2.012c1.433,-3.901 2.85,-6.613 4.252,-8.137c1.402,-1.524 2.621,-2.286 3.657,-2.286c1.036,0 1.806,0.335 2.309,1.006c0.503,0.67 0.754,1.539 0.754,2.606c0,1.066 -0.198,1.996 -0.594,2.788c-0.396,0.793 -0.968,1.189 -1.715,1.189c-0.746,0 -1.363,-0.244 -1.851,-0.731c0.305,-0.397 0.594,-0.976 0.868,-1.738c0.275,-0.762 0.412,-1.432 0.412,-2.011c-0,-0.884 -0.366,-1.326 -1.097,-1.326c-0.762,0 -1.707,0.747 -2.835,2.24c-2.468,3.231 -4.556,8.656 -6.263,16.275l-3.2,0.274l4.48,-18.469l-2.926,0.229l-0.045,-0.777c2.103,-0.275 4.068,-0.656 5.897,-1.143Z" style="fill:#231f20;fill-rule:nonzero;"/><path d="M412.934,99.464c-0.397,-0.397 -0.595,-0.884 -0.595,-1.463c0,-0.579 0.198,-1.067 0.595,-1.463c0.396,-0.396 0.883,-0.595 1.463,-0.595c0.579,0 1.066,0.199 1.462,0.595c0.397,0.396 0.595,0.884 0.595,1.463c-0,0.579 -0.198,1.066 -0.595,1.463c-0.396,0.396 -0.883,0.594 -1.462,0.594c-0.58,-0 -1.067,-0.198 -1.463,-0.594Zm-5.166,21.989c-0,-1.615 1.112,-6.72 3.337,-15.315l-2.926,0.229l-0.046,-0.777c2.103,-0.275 4.069,-0.656 5.898,-1.143l0.64,0.457c-1.067,3.169 -2.073,6.568 -3.017,10.194c-0.945,3.627 -1.418,5.951 -1.418,6.972c0,1.021 0.381,1.532 1.143,1.532c0.579,-0 1.204,-0.389 1.875,-1.166c0.67,-0.777 1.249,-1.882 1.737,-3.314l0.731,0.182c-1.31,3.719 -3.017,5.578 -5.12,5.578c-1.89,-0 -2.834,-1.143 -2.834,-3.429Z" style="fill:#231f20;fill-rule:nonzero;"/><path d="M420.248,106.23l0.229,-0.869l10.149,-0l-0.229,0.869l-10.149,-0Zm7.269,-6.492l0.64,0.457c-0.701,2.133 -1.638,5.486 -2.811,10.058c-1.174,4.571 -1.882,7.52 -2.126,8.846c-0.244,1.325 -0.366,2.324 -0.366,2.994c0,1.006 0.381,1.509 1.143,1.509c0.579,-0 1.204,-0.389 1.874,-1.166c0.671,-0.777 1.25,-1.882 1.738,-3.314l0.731,0.182c-1.311,3.719 -3.017,5.578 -5.12,5.578c-1.89,-0 -2.835,-1.143 -2.835,-3.429c0,-1.89 1.128,-7.162 3.383,-15.818l-3.291,-0.274c1.676,-0 3.032,-0.404 4.069,-1.212c1.036,-0.807 2.026,-2.278 2.971,-4.411Z" style="fill:#231f20;fill-rule:nonzero;"/></g><g><path d="M71.036,340.841c-1.312,-0 -2.52,0.496 -3.624,1.488c-1.104,0.992 -1.976,2.224 -2.616,3.696c-1.28,3.104 -1.92,5.792 -1.92,8.064c-0,4.224 1.28,6.336 3.84,6.336c3.168,-0 5.488,-1.728 6.96,-5.184l0.768,0.192c-0.768,1.952 -1.88,3.464 -3.336,4.536c-1.456,1.072 -3.096,1.608 -4.92,1.608c-1.824,-0 -3.36,-0.672 -4.608,-2.016c-1.248,-1.344 -1.872,-3.152 -1.872,-5.424c-0,-2.272 0.432,-4.472 1.296,-6.6c0.864,-2.128 2.208,-3.968 4.032,-5.52c1.824,-1.552 3.904,-2.328 6.24,-2.328c1.6,-0 2.808,0.408 3.624,1.224c0.816,0.816 1.224,1.792 1.224,2.928c-0,1.136 -0.2,2.152 -0.6,3.048c-0.4,0.896 -1.024,1.344 -1.872,1.344c-0.848,-0 -1.48,-0.256 -1.896,-0.768c0.928,-1.408 1.392,-2.784 1.392,-4.128c-0,-1.664 -0.704,-2.496 -2.112,-2.496Z" style="fill:#231f20;fill-rule:nonzero;"/><path d="M98.204,340.601c-1.12,3.328 -2.176,6.896 -3.168,10.704c-0.992,3.808 -1.488,6.248 -1.488,7.32c-0,1.072 0.4,1.608 1.2,1.608c0.608,-0 1.264,-0.408 1.968,-1.224c0.704,-0.816 1.312,-1.976 1.824,-3.48l0.768,0.192c-1.376,3.904 -3.168,5.856 -5.376,5.856c-1.984,-0 -2.976,-1.2 -2.976,-3.6c-0,-0.48 0.08,-1.248 0.24,-2.304l-0.24,-0c-1.984,3.936 -4.288,5.904 -6.912,5.904c-1.504,-0 -2.76,-0.664 -3.768,-1.992c-1.008,-1.328 -1.512,-2.96 -1.512,-4.896c-0,-1.936 0.256,-3.736 0.768,-5.4c0.512,-1.664 1.232,-3.224 2.16,-4.68c0.928,-1.456 2.16,-2.64 3.696,-3.552c1.536,-0.912 3.216,-1.368 5.04,-1.368c2.368,-0 4.24,1.008 5.616,3.024l1.488,-2.592l0.672,0.48Zm-13.008,19.536c1.344,-0 2.704,-1.04 4.08,-3.12c1.568,-2.4 3.024,-6.32 4.368,-11.76c0.288,-1.28 0.512,-2.208 0.672,-2.784c-1.12,-1.088 -2.408,-1.632 -3.864,-1.632c-1.456,-0 -2.752,0.496 -3.888,1.488c-1.136,0.992 -2.024,2.24 -2.664,3.744c-1.312,3.072 -1.968,5.968 -1.968,8.688c-0,1.792 0.296,3.136 0.888,4.032c0.592,0.896 1.384,1.344 2.376,1.344Z" style="fill:#231f20;fill-rule:nonzero;"/><path d="M106.316,358.649c-0,1.056 0.4,1.584 1.2,1.584c0.608,-0 1.264,-0.408 1.968,-1.224c0.704,-0.816 1.312,-1.976 1.824,-3.48l0.768,0.192c-1.376,3.904 -3.168,5.856 -5.376,5.856c-1.984,-0 -2.976,-1.256 -2.976,-3.768c-0,-2.512 2.096,-11.368 6.288,-26.568l-3.072,0.24l-0.048,-0.816c2.208,-0.288 4.272,-0.688 6.192,-1.2l0.672,0.48c-1.344,3.936 -2.92,9.272 -4.728,16.008c-1.808,6.736 -2.712,10.968 -2.712,12.696Z" style="fill:#231f20;fill-rule:nonzero;"/><path d="M119.084,358.649c-0,1.056 0.4,1.584 1.2,1.584c0.608,-0 1.264,-0.408 1.968,-1.224c0.704,-0.816 1.312,-1.976 1.824,-3.48l0.768,0.192c-1.376,3.904 -3.168,5.856 -5.376,5.856c-1.984,-0 -2.976,-1.256 -2.976,-3.768c-0,-2.512 2.096,-11.368 6.288,-26.568l-3.072,0.24l-0.048,-0.816c2.208,-0.288 4.272,-0.688 6.192,-1.2l0.672,0.48c-1.344,3.936 -2.92,9.272 -4.728,16.008c-1.808,6.736 -2.712,10.968 -2.712,12.696Z" style="fill:#231f20;fill-rule:nonzero;"/><path d="M135.164,334.889c-0.416,-0.416 -0.624,-0.928 -0.624,-1.536c-0,-0.608 0.208,-1.12 0.624,-1.536c0.416,-0.416 0.928,-0.624 1.536,-0.624c0.608,-0 1.12,0.208 1.536,0.624c0.416,0.416 0.624,0.928 0.624,1.536c-0,0.608 -0.208,1.12 -0.624,1.536c-0.416,0.416 -0.928,0.624 -1.536,0.624c-0.608,-0 -1.12,-0.208 -1.536,-0.624Zm-5.424,23.088c-0,-1.696 1.168,-7.056 3.504,-16.08l-3.072,0.24l-0.048,-0.816c2.208,-0.288 4.272,-0.688 6.192,-1.2l0.672,0.48c-1.12,3.328 -2.176,6.896 -3.168,10.704c-0.992,3.808 -1.488,6.248 -1.488,7.32c-0,1.072 0.4,1.608 1.2,1.608c0.608,-0 1.264,-0.408 1.968,-1.224c0.704,-0.816 1.312,-1.976 1.824,-3.48l0.768,0.192c-1.376,3.904 -3.168,5.856 -5.376,5.856c-1.984,-0 -2.976,-1.2 -2.976,-3.6Z" style="fill:#231f20;fill-rule:nonzero;"/><path d="M144.956,358.217l7.632,1.728c1.664,0.384 2.848,0.904 3.552,1.56c0.704,0.656 1.056,1.56 1.056,2.712c-0,1.856 -1.016,3.608 -3.048,5.256c-2.032,1.648 -4.344,2.472 -6.936,2.472c-2.592,-0 -4.696,-0.592 -6.312,-1.776c-1.616,-1.184 -2.424,-2.592 -2.424,-4.224c-0,-1.12 0.376,-2.192 1.128,-3.216c0.752,-1.024 1.864,-1.888 3.336,-2.592l0.96,0.288c-0.96,0.48 -1.696,1.208 -2.208,2.184c-0.512,0.976 -0.768,2.008 -0.768,3.096c-0,1.792 0.592,3.128 1.776,4.008c1.184,0.88 2.712,1.32 4.584,1.32c1.872,-0 3.6,-0.536 5.184,-1.608c1.584,-1.072 2.376,-2.36 2.376,-3.864c-0,-1.504 -0.976,-2.48 -2.928,-2.928l-8.256,-1.824c-0.928,-0.192 -1.648,-0.624 -2.16,-1.296c-0.512,-0.672 -0.768,-1.488 -0.768,-2.448c-0,-0.96 0.4,-1.84 1.2,-2.64c0.8,-0.8 1.904,-1.2 3.312,-1.2l4.848,-0l-0.144,0.672l-4.704,-0c-0.672,-0 -1.208,0.208 -1.608,0.624c-0.4,0.416 -0.6,0.912 -0.6,1.488c-0,1.184 0.64,1.92 1.92,2.208Zm8.064,-17.856l-0.048,-0.672c0.896,-0 1.648,-0.216 2.256,-0.648c0.608,-0.432 0.912,-1 0.912,-1.704c-0,-0.704 -0.512,-1.376 -1.536,-2.016c0.512,-1.088 1.128,-1.632 1.848,-1.632c0.72,-0 1.264,0.208 1.632,0.624c0.368,0.416 0.552,0.944 0.552,1.584c-0,1.12 -0.504,2.144 -1.512,3.072c-1.008,0.928 -2.376,1.392 -4.104,1.392Zm-8.784,8.304c-0,-2.368 0.84,-4.456 2.52,-6.264c1.68,-1.808 3.752,-2.712 6.216,-2.712c1.728,-0 3.096,0.456 4.104,1.368c1.008,0.912 1.512,2.2 1.512,3.864c-0,2.688 -0.864,4.856 -2.592,6.504c-1.728,1.648 -3.744,2.472 -6.048,2.472c-1.76,-0 -3.152,-0.456 -4.176,-1.368c-1.024,-0.912 -1.536,-2.2 -1.536,-3.864Zm8.688,-8.064c-1.76,-0 -3.2,0.968 -4.32,2.904c-1.12,1.936 -1.68,3.656 -1.68,5.16c-0,1.504 0.28,2.6 0.84,3.288c0.56,0.688 1.304,1.032 2.232,1.032c1.408,-0 2.752,-0.8 4.032,-2.4c1.28,-1.6 1.92,-3.616 1.92,-6.048c-0,-1.216 -0.28,-2.176 -0.84,-2.88c-0.56,-0.704 -1.288,-1.056 -2.184,-1.056Z" style="fill:#231f20;fill-rule:nonzero;"/><path d="M170.012,340.121l0.672,0.48c-1.536,3.52 -2.88,7.568 -4.032,12.144l0.384,-0l0.768,-2.112c1.504,-4.096 2.992,-6.944 4.464,-8.544c1.472,-1.6 2.752,-2.4 3.84,-2.4c1.088,-0 1.896,0.352 2.424,1.056c0.528,0.704 0.792,1.616 0.792,2.736c-0,1.12 -0.208,2.096 -0.624,2.928c-0.416,0.832 -1.016,1.248 -1.8,1.248c-0.784,-0 -1.432,-0.256 -1.944,-0.768c0.32,-0.416 0.624,-1.024 0.912,-1.824c0.288,-0.8 0.432,-1.504 0.432,-2.112c-0,-0.928 -0.384,-1.392 -1.152,-1.392c-0.8,-0 -1.792,0.784 -2.976,2.352c-2.592,3.392 -4.784,9.088 -6.576,17.088l-3.36,0.288l4.704,-19.392l-3.072,0.24l-0.048,-0.816c2.208,-0.288 4.272,-0.688 6.192,-1.2Z" style="fill:#231f20;fill-rule:nonzero;"/><path d="M199.244,340.601c-1.12,3.328 -2.176,6.896 -3.168,10.704c-0.992,3.808 -1.488,6.248 -1.488,7.32c-0,1.072 0.4,1.608 1.2,1.608c0.608,-0 1.264,-0.408 1.968,-1.224c0.704,-0.816 1.312,-1.976 1.824,-3.48l0.768,0.192c-1.376,3.904 -3.168,5.856 -5.376,5.856c-1.984,-0 -2.976,-1.2 -2.976,-3.6c-0,-0.48 0.08,-1.248 0.24,-2.304l-0.24,-0c-1.984,3.936 -4.288,5.904 -6.912,5.904c-1.504,-0 -2.76,-0.664 -3.768,-1.992c-1.008,-1.328 -1.512,-2.96 -1.512,-4.896c-0,-1.936 0.256,-3.736 0.768,-5.4c0.512,-1.664 1.232,-3.224 2.16,-4.68c0.928,-1.456 2.16,-2.64 3.696,-3.552c1.536,-0.912 3.216,-1.368 5.04,-1.368c2.368,-0 4.24,1.008 5.616,3.024l1.488,-2.592l0.672,0.48Zm-13.008,19.536c1.344,-0 2.704,-1.04 4.08,-3.12c1.568,-2.4 3.024,-6.32 4.368,-11.76c0.288,-1.28 0.512,-2.208 0.672,-2.784c-1.12,-1.088 -2.408,-1.632 -3.864,-1.632c-1.456,-0 -2.752,0.496 -3.888,1.488c-1.136,0.992 -2.024,2.24 -2.664,3.744c-1.312,3.072 -1.968,5.968 -1.968,8.688c-0,1.792 0.296,3.136 0.888,4.032c0.592,0.896 1.384,1.344 2.376,1.344Z" style="fill:#231f20;fill-rule:nonzero;"/><path d="M211.868,340.121l0.672,0.48c-1.536,3.52 -2.88,7.568 -4.032,12.144l0.384,-0l0.768,-2.112c2.656,-7.296 5.696,-10.944 9.12,-10.944c1.376,-0 2.552,0.672 3.528,2.016c0.976,1.344 1.464,2.976 1.464,4.896c-0,1.92 -0.248,3.704 -0.744,5.352c-0.496,1.648 -1.208,3.184 -2.136,4.608c-0.928,1.424 -2.144,2.584 -3.648,3.48c-1.504,0.896 -3.168,1.344 -4.992,1.344c-2.784,-0 -4.96,-1.232 -6.528,-3.696l0.336,-0.816c1.536,2.336 3.552,3.504 6.048,3.504c1.44,-0 2.728,-0.48 3.864,-1.44c1.136,-0.96 2.008,-2.16 2.616,-3.6c1.216,-2.944 1.824,-5.824 1.824,-8.64c-0,-1.632 -0.232,-2.904 -0.696,-3.816c-0.464,-0.912 -1.064,-1.368 -1.8,-1.368c-1.504,-0 -3.192,1.456 -5.064,4.368c-1.872,2.912 -3.56,7.456 -5.064,13.632l-2.88,11.856l-3.36,0.288l7.248,-29.76l-3.072,0.24l-0.048,-0.816c2.208,-0.288 4.272,-0.688 6.192,-1.2Z" style="fill:#231f20;fill-rule:nonzero;"/><path d="M229.868,361.001l-3.36,0.288l7.536,-30.048l-3.072,0.24l-0.048,-0.816c2.208,-0.288 4.272,-0.688 6.192,-1.2l0.672,0.48c-2.592,7.552 -4.88,15.152 -6.864,22.8l0.384,-0l0.768,-2.112c1.728,-4.832 3.6,-7.968 5.616,-9.408c0.96,-0.64 1.752,-1.056 2.376,-1.248c0.624,-0.192 1.408,-0.288 2.352,-0.288c0.944,-0 1.752,0.384 2.424,1.152c0.672,0.768 1.008,1.84 1.008,3.216c-0,1.376 -0.776,3.904 -2.328,7.584c-1.552,3.68 -2.328,6.032 -2.328,7.056c-0,1.024 0.4,1.536 1.2,1.536c0.608,-0 1.264,-0.408 1.968,-1.224c0.704,-0.816 1.312,-1.976 1.824,-3.48l0.768,0.192c-1.376,3.904 -3.168,5.856 -5.376,5.856c-1.984,-0 -2.976,-1.088 -2.976,-3.264c-0,-0.928 0.728,-3.232 2.184,-6.912c1.456,-3.68 2.184,-6.048 2.184,-7.104c-0,-2.016 -0.736,-3.024 -2.208,-3.024c-1.6,-0 -3.328,1.296 -5.184,3.888c-2.144,3.104 -4.048,8.384 -5.712,15.84Z" style="fill:#231f20;fill-rule:nonzero;"/><path d="M257.276,334.889c-0.416,-0.416 -0.624,-0.928 -0.624,-1.536c-0,-0.608 0.208,-1.12 0.624,-1.536c0.416,-0.416 0.928,-0.624 1.536,-0.624c0.608,-0 1.12,0.208 1.536,0.624c0.416,0.416 0.624,0.928 0.624,1.536c-0,0.608 -0.208,1.12 -0.624,1.536c-0.416,0.416 -0.928,0.624 -1.536,0.624c-0.608,-0 -1.12,-0.208 -1.536,-0.624Zm-5.424,23.088c-0,-1.696 1.168,-7.056 3.504,-16.08l-3.072,0.24l-0.048,-0.816c2.208,-0.288 4.272,-0.688 6.192,-1.2l0.672,0.48c-1.12,3.328 -2.176,6.896 -3.168,10.704c-0.992,3.808 -1.488,6.248 -1.488,7.32c-0,1.072 0.4,1.608 1.2,1.608c0.608,-0 1.264,-0.408 1.968,-1.224c0.704,-0.816 1.312,-1.976 1.824,-3.48l0.768,0.192c-1.376,3.904 -3.168,5.856 -5.376,5.856c-1.984,-0 -2.976,-1.2 -2.976,-3.6Z" style="fill:#231f20;fill-rule:nonzero;"/><path d="M275.228,339.689c1.696,-0 2.968,0.408 3.816,1.224c0.848,0.816 1.272,1.984 1.272,3.504c-0,1.52 -0.592,2.84 -1.776,3.96c-2.016,1.92 -5.008,2.88 -8.976,2.88c-1.184,-0 -2.208,-0.096 -3.072,-0.288l-0,-0.912c1.12,0.16 2.048,0.24 2.784,0.24c2.656,-0 4.712,-0.672 6.168,-2.016c1.456,-1.344 2.184,-2.816 2.184,-4.416c-0,-0.864 -0.232,-1.584 -0.696,-2.16c-0.464,-0.576 -1.232,-0.864 -2.304,-0.864c-1.072,-0 -2.16,0.496 -3.264,1.488c-1.104,0.992 -1.976,2.224 -2.616,3.696c-1.28,3.104 -1.92,5.792 -1.92,8.064c-0,4.224 1.28,6.336 3.84,6.336c3.168,-0 5.488,-1.728 6.96,-5.184l0.768,0.192c-0.768,1.952 -1.88,3.464 -3.336,4.536c-1.456,1.072 -3.096,1.608 -4.92,1.608c-1.824,-0 -3.36,-0.672 -4.608,-2.016c-1.248,-1.344 -1.872,-3.152 -1.872,-5.424c-0,-2.272 0.432,-4.472 1.296,-6.6c0.864,-2.128 2.208,-3.968 4.032,-5.52c1.824,-1.552 3.904,-2.328 6.24,-2.328Z" style="fill:#231f20;fill-rule:nonzero;"/><path d="M87.356,378.966c-1.216,-0 -2.256,0.352 -3.12,1.056c-0.864,0.704 -1.296,1.6 -1.296,2.688c-0,1.088 0.448,2.08 1.344,2.976c0.896,0.896 1.872,1.64 2.928,2.232c1.056,0.592 2.032,1.368 2.928,2.328c0.896,0.96 1.344,1.984 1.344,3.072c-0,2.048 -0.792,3.624 -2.376,4.728c-1.584,1.104 -3.496,1.656 -5.736,1.656c-2.24,-0 -4.208,-0.528 -5.904,-1.584c0.544,-1.088 1.056,-2.976 1.536,-5.664l0.816,0.144c-0.224,1.312 -0.336,2.344 -0.336,3.096c-0,0.752 0.36,1.44 1.08,2.064c0.72,0.624 1.76,0.936 3.12,0.936c1.36,-0 2.512,-0.416 3.456,-1.248c0.944,-0.832 1.416,-1.92 1.416,-3.264c-0,-0.864 -0.424,-1.704 -1.272,-2.52c-0.848,-0.816 -1.776,-1.496 -2.784,-2.04c-1.008,-0.544 -1.936,-1.312 -2.784,-2.304c-0.848,-0.992 -1.272,-2.08 -1.272,-3.264c-0,-1.76 0.696,-3.24 2.088,-4.44c1.392,-1.2 3.224,-1.8 5.496,-1.8c1.76,-0 3.504,0.432 5.232,1.296c-0.16,0.352 -0.424,1.152 -0.792,2.4c-0.368,1.248 -0.648,2.432 -0.84,3.552l-0.816,-0.144c0.192,-1.024 0.288,-2.008 0.288,-2.952c-0,-0.944 -0.312,-1.68 -0.936,-2.208c-0.624,-0.528 -1.56,-0.792 -2.808,-0.792Z" style="fill:#231f20;fill-rule:nonzero;"/><path d="M104.444,378.246l0.672,0.48c-1.536,3.52 -2.88,7.568 -4.032,12.144l0.384,-0l0.768,-2.112c2.656,-7.296 5.696,-10.944 9.12,-10.944c1.376,-0 2.552,0.672 3.528,2.016c0.976,1.344 1.464,2.976 1.464,4.896c-0,1.92 -0.248,3.704 -0.744,5.352c-0.496,1.648 -1.208,3.184 -2.136,4.608c-0.928,1.424 -2.144,2.584 -3.648,3.48c-1.504,0.896 -3.168,1.344 -4.992,1.344c-2.784,-0 -4.96,-1.232 -6.528,-3.696l0.336,-0.816c1.536,2.336 3.552,3.504 6.048,3.504c1.44,-0 2.728,-0.48 3.864,-1.44c1.136,-0.96 2.008,-2.16 2.616,-3.6c1.216,-2.944 1.824,-5.824 1.824,-8.64c-0,-1.632 -0.232,-2.904 -0.696,-3.816c-0.464,-0.912 -1.064,-1.368 -1.8,-1.368c-1.504,-0 -3.192,1.456 -5.064,4.368c-1.872,2.912 -3.56,7.456 -5.064,13.632l-2.88,11.856l-3.36,0.288l7.248,-29.76l-3.072,0.24l-0.048,-0.816c2.208,-0.288 4.272,-0.688 6.192,-1.2Z" style="fill:#231f20;fill-rule:nonzero;"/><path d="M119.228,392.166c-0,-3.296 0.96,-6.448 2.88,-9.456c0.928,-1.44 2.144,-2.616 3.648,-3.528c1.504,-0.912 3.224,-1.368 5.16,-1.368c1.936,-0 3.512,0.656 4.728,1.968c1.216,1.312 1.824,3.104 1.824,5.376c-0,2.272 -0.416,4.48 -1.248,6.624c-0.832,2.144 -2.144,4 -3.936,5.568c-1.792,1.568 -3.808,2.352 -6.048,2.352c-2.24,-0 -3.968,-0.656 -5.184,-1.968c-1.216,-1.312 -1.824,-3.168 -1.824,-5.568Zm11.28,-13.296c-1.728,-0 -3.256,0.864 -4.584,2.592c-1.328,1.728 -2.272,3.616 -2.832,5.664c-0.56,2.048 -0.84,3.96 -0.84,5.736c-0,1.776 0.36,3.184 1.08,4.224c0.72,1.04 1.712,1.56 2.976,1.56c1.264,-0 2.448,-0.512 3.552,-1.536c1.104,-1.024 1.976,-2.288 2.616,-3.792c1.312,-3.072 1.968,-5.736 1.968,-7.992c-0,-2.256 -0.352,-3.896 -1.056,-4.92c-0.704,-1.024 -1.664,-1.536 -2.88,-1.536Z" style="fill:#231f20;fill-rule:nonzero;"/><path d="M160.892,382.182c-0,1.376 -0.776,3.904 -2.328,7.584c-1.552,3.68 -2.328,6.032 -2.328,7.056c-0,1.024 0.4,1.536 1.2,1.536c0.608,-0 1.264,-0.408 1.968,-1.224c0.704,-0.816 1.312,-1.976 1.824,-3.48l0.768,0.192c-1.376,3.904 -3.168,5.856 -5.376,5.856c-1.984,-0 -2.976,-1.088 -2.976,-3.264c-0,-0.928 0.728,-3.232 2.184,-6.912c1.456,-3.68 2.184,-6.048 2.184,-7.104c-0,-2.016 -0.736,-3.024 -2.208,-3.024c-1.6,-0 -3.328,1.296 -5.184,3.888c-2.144,3.104 -4.048,8.384 -5.712,15.84l-3.36,0.288l4.704,-19.392l-3.072,0.24l-0.048,-0.816c2.208,-0.288 4.272,-0.688 6.192,-1.2l0.672,0.48c-1.536,3.52 -2.88,7.568 -4.032,12.144l0.384,-0l0.768,-2.112c1.728,-4.832 3.6,-7.968 5.616,-9.408c0.96,-0.64 1.752,-1.056 2.376,-1.248c0.624,-0.192 1.408,-0.288 2.352,-0.288c0.944,-0 1.752,0.384 2.424,1.152c0.672,0.768 1.008,1.84 1.008,3.216Z" style="fill:#231f20;fill-rule:nonzero;"/><path d="M166.748,380.118l0.24,-0.912l10.656,-0l-0.24,0.912l-10.656,-0Zm7.632,-6.816l0.672,0.48c-0.736,2.24 -1.72,5.76 -2.952,10.56c-1.232,4.8 -1.976,7.896 -2.232,9.288c-0.256,1.392 -0.384,2.44 -0.384,3.144c-0,1.056 0.4,1.584 1.2,1.584c0.608,-0 1.264,-0.408 1.968,-1.224c0.704,-0.816 1.312,-1.976 1.824,-3.48l0.768,0.192c-1.376,3.904 -3.168,5.856 -5.376,5.856c-1.984,-0 -2.976,-1.2 -2.976,-3.6c-0,-1.984 1.184,-7.52 3.552,-16.608l-3.456,-0.288c1.76,-0 3.184,-0.424 4.272,-1.272c1.088,-0.848 2.128,-2.392 3.12,-4.632Z" style="fill:#231f20;fill-rule:nonzero;"/><path d="M198.14,378.726c-1.12,3.328 -2.176,6.896 -3.168,10.704c-0.992,3.808 -1.488,6.248 -1.488,7.32c-0,1.072 0.4,1.608 1.2,1.608c0.608,-0 1.264,-0.408 1.968,-1.224c0.704,-0.816 1.312,-1.976 1.824,-3.48l0.768,0.192c-1.376,3.904 -3.168,5.856 -5.376,5.856c-1.984,-0 -2.976,-1.2 -2.976,-3.6c-0,-0.48 0.08,-1.248 0.24,-2.304l-0.24,-0c-1.984,3.936 -4.288,5.904 -6.912,5.904c-1.504,-0 -2.76,-0.664 -3.768,-1.992c-1.008,-1.328 -1.512,-2.96 -1.512,-4.896c-0,-1.936 0.256,-3.736 0.768,-5.4c0.512,-1.664 1.232,-3.224 2.16,-4.68c0.928,-1.456 2.16,-2.64 3.696,-3.552c1.536,-0.912 3.216,-1.368 5.04,-1.368c2.368,-0 4.24,1.008 5.616,3.024l1.488,-2.592l0.672,0.48Zm-13.008,19.536c1.344,-0 2.704,-1.04 4.08,-3.12c1.568,-2.4 3.024,-6.32 4.368,-11.76c0.288,-1.28 0.512,-2.208 0.672,-2.784c-1.12,-1.088 -2.408,-1.632 -3.864,-1.632c-1.456,-0 -2.752,0.496 -3.888,1.488c-1.136,0.992 -2.024,2.24 -2.664,3.744c-1.312,3.072 -1.968,5.968 -1.968,8.688c-0,1.792 0.296,3.136 0.888,4.032c0.592,0.896 1.384,1.344 2.376,1.344Z" style="fill:#231f20;fill-rule:nonzero;"/><path d="M222.284,382.182c-0,1.376 -0.776,3.904 -2.328,7.584c-1.552,3.68 -2.328,6.032 -2.328,7.056c-0,1.024 0.4,1.536 1.2,1.536c0.608,-0 1.264,-0.408 1.968,-1.224c0.704,-0.816 1.312,-1.976 1.824,-3.48l0.768,0.192c-1.376,3.904 -3.168,5.856 -5.376,5.856c-1.984,-0 -2.976,-1.088 -2.976,-3.264c-0,-0.928 0.728,-3.232 2.184,-6.912c1.456,-3.68 2.184,-6.048 2.184,-7.104c-0,-2.016 -0.736,-3.024 -2.208,-3.024c-1.6,-0 -3.328,1.296 -5.184,3.888c-2.144,3.104 -4.048,8.384 -5.712,15.84l-3.36,0.288l4.704,-19.392l-3.072,0.24l-0.048,-0.816c2.208,-0.288 4.272,-0.688 6.192,-1.2l0.672,0.48c-1.536,3.52 -2.88,7.568 -4.032,12.144l0.384,-0l0.768,-2.112c1.728,-4.832 3.6,-7.968 5.616,-9.408c0.96,-0.64 1.752,-1.056 2.376,-1.248c0.624,-0.192 1.408,-0.288 2.352,-0.288c0.944,-0 1.752,0.384 2.424,1.152c0.672,0.768 1.008,1.84 1.008,3.216Z" style="fill:#231f20;fill-rule:nonzero;"/><path d="M238.412,377.814c1.696,-0 2.968,0.408 3.816,1.224c0.848,0.816 1.272,1.984 1.272,3.504c-0,1.52 -0.592,2.84 -1.776,3.96c-2.016,1.92 -5.008,2.88 -8.976,2.88c-1.184,-0 -2.208,-0.096 -3.072,-0.288l-0,-0.912c1.12,0.16 2.048,0.24 2.784,0.24c2.656,-0 4.712,-0.672 6.168,-2.016c1.456,-1.344 2.184,-2.816 2.184,-4.416c-0,-0.864 -0.232,-1.584 -0.696,-2.16c-0.464,-0.576 -1.232,-0.864 -2.304,-0.864c-1.072,-0 -2.16,0.496 -3.264,1.488c-1.104,0.992 -1.976,2.224 -2.616,3.696c-1.28,3.104 -1.92,5.792 -1.92,8.064c-0,4.224 1.28,6.336 3.84,6.336c3.168,-0 5.488,-1.728 6.96,-5.184l0.768,0.192c-0.768,1.952 -1.88,3.464 -3.336,4.536c-1.456,1.072 -3.096,1.608 -4.92,1.608c-1.824,-0 -3.36,-0.672 -4.608,-2.016c-1.248,-1.344 -1.872,-3.152 -1.872,-5.424c-0,-2.272 0.432,-4.472 1.296,-6.6c0.864,-2.128 2.208,-3.968 4.032,-5.52c1.824,-1.552 3.904,-2.328 6.24,-2.328Zm3.504,-5.856l-6.288,3.696l-0.624,-0.768l5.328,-5.76c0.416,-0.448 0.872,-0.672 1.368,-0.672c0.496,-0 0.872,0.152 1.128,0.456c0.256,0.304 0.384,0.68 0.384,1.128c-0,0.8 -0.432,1.44 -1.296,1.92Z" style="fill:#231f20;fill-rule:nonzero;"/><path d="M257.468,377.814c1.696,-0 2.968,0.408 3.816,1.224c0.848,0.816 1.272,1.984 1.272,3.504c-0,1.52 -0.592,2.84 -1.776,3.96c-2.016,1.92 -5.008,2.88 -8.976,2.88c-1.184,-0 -2.208,-0.096 -3.072,-0.288l-0,-0.912c1.12,0.16 2.048,0.24 2.784,0.24c2.656,-0 4.712,-0.672 6.168,-2.016c1.456,-1.344 2.184,-2.816 2.184,-4.416c-0,-0.864 -0.232,-1.584 -0.696,-2.16c-0.464,-0.576 -1.232,-0.864 -2.304,-0.864c-1.072,-0 -2.16,0.496 -3.264,1.488c-1.104,0.992 -1.976,2.224 -2.616,3.696c-1.28,3.104 -1.92,5.792 -1.92,8.064c-0,4.224 1.28,6.336 3.84,6.336c3.168,-0 5.488,-1.728 6.96,-5.184l0.768,0.192c-0.768,1.952 -1.88,3.464 -3.336,4.536c-1.456,1.072 -3.096,1.608 -4.92,1.608c-1.824,-0 -3.36,-0.672 -4.608,-2.016c-1.248,-1.344 -1.872,-3.152 -1.872,-5.424c-0,-2.272 0.432,-4.472 1.296,-6.6c0.864,-2.128 2.208,-3.968 4.032,-5.52c1.824,-1.552 3.904,-2.328 6.24,-2.328Z" style="fill:#231f20;fill-rule:nonzero;"/></g><g><path d="M401.646,342.033l-3.408,0.288l1.728,-6.576c0.192,-0.736 0.488,-1.824 0.888,-3.264c0.4,-1.44 0.696,-2.544 0.888,-3.312c0.544,-2.112 0.816,-3.536 0.816,-4.272c-0,-0.736 -0.184,-1.352 -0.552,-1.848c-0.368,-0.496 -0.92,-0.744 -1.656,-0.744c-1.6,0 -3.344,1.616 -5.232,4.848c-1.888,3.232 -3.616,8.192 -5.184,14.88l-3.36,0.288l4.704,-19.392l-3.072,0.24l-0.048,-0.816c2.208,-0.288 4.272,-0.688 6.192,-1.2l0.672,0.48c-1.536,3.52 -2.88,7.568 -4.032,12.144l0.384,0l0.768,-2.112c1.504,-4.096 3.104,-6.944 4.8,-8.544c1.696,-1.6 3.28,-2.4 4.752,-2.4c2.24,0 3.36,1.264 3.36,3.792c-0,1.472 -0.464,3.552 -1.392,6.24l-1.008,3.024l0.432,0l0.768,-2.112c1.728,-4.832 3.6,-7.968 5.616,-9.408c0.96,-0.64 1.752,-1.056 2.376,-1.248c0.624,-0.192 1.368,-0.288 2.232,-0.288c0.864,0 1.584,0.384 2.16,1.152c0.576,0.768 0.864,1.84 0.864,3.216c-0,1.376 -0.776,3.904 -2.328,7.584c-1.552,3.68 -2.328,6.032 -2.328,7.056c-0,1.024 0.4,1.536 1.2,1.536c0.608,0 1.264,-0.408 1.968,-1.224c0.704,-0.816 1.312,-1.976 1.824,-3.48l0.768,0.192c-1.376,3.904 -3.168,5.856 -5.376,5.856c-1.984,0 -2.976,-1.088 -2.976,-3.264c-0,-0.928 0.728,-3.232 2.184,-6.912c1.456,-3.68 2.184,-6.192 2.184,-7.536c-0,-1.728 -0.56,-2.592 -1.68,-2.592c-1.6,0 -3.328,1.296 -5.184,3.888c-2.144,3.104 -4.048,8.384 -5.712,15.84Z" style="fill:#231f20;fill-rule:nonzero;"/><path d="M421.662,335.073c-0,-3.296 0.96,-6.448 2.88,-9.456c0.928,-1.44 2.144,-2.616 3.648,-3.528c1.504,-0.912 3.224,-1.368 5.16,-1.368c1.936,0 3.512,0.656 4.728,1.968c1.216,1.312 1.824,3.104 1.824,5.376c-0,2.272 -0.416,4.48 -1.248,6.624c-0.832,2.144 -2.144,4 -3.936,5.568c-1.792,1.568 -3.808,2.352 -6.048,2.352c-2.24,0 -3.968,-0.656 -5.184,-1.968c-1.216,-1.312 -1.824,-3.168 -1.824,-5.568Zm11.28,-13.296c-1.728,0 -3.256,0.864 -4.584,2.592c-1.328,1.728 -2.272,3.616 -2.832,5.664c-0.56,2.048 -0.84,3.96 -0.84,5.736c-0,1.776 0.36,3.184 1.08,4.224c0.72,1.04 1.712,1.56 2.976,1.56c1.264,0 2.448,-0.512 3.552,-1.536c1.104,-1.024 1.976,-2.288 2.616,-3.792c1.312,-3.072 1.968,-5.736 1.968,-7.992c-0,-2.256 -0.352,-3.896 -1.056,-4.92c-0.704,-1.024 -1.664,-1.536 -2.88,-1.536Z" style="fill:#231f20;fill-rule:nonzero;"/><path d="M456.75,339.009c-0,-0.48 0.08,-1.248 0.24,-2.304l-0.24,0c-2.048,3.936 -4.416,5.904 -7.104,5.904c-2.88,0 -4.32,-1.6 -4.32,-4.8c-0,-2.08 0.736,-5.936 2.208,-11.568l0.864,-3.312l-3.072,0.24l-0.048,-0.816c2.208,-0.288 4.272,-0.688 6.192,-1.2l0.672,0.48c-2.688,8.352 -4.032,13.696 -4.032,16.032c-0,2.336 0.88,3.504 2.64,3.504c1.472,0 2.92,-1.08 4.344,-3.24c1.424,-2.16 2.6,-5.064 3.528,-8.712l1.632,-6.288l-3.072,0.24l-0.048,-0.816c2.208,-0.288 4.272,-0.688 6.192,-1.2l0.672,0.48c-1.12,3.328 -2.176,6.896 -3.168,10.704c-0.992,3.808 -1.488,6.248 -1.488,7.32c-0,1.072 0.4,1.608 1.2,1.608c0.608,0 1.264,-0.408 1.968,-1.224c0.704,-0.816 1.312,-1.976 1.824,-3.48l0.768,0.192c-1.376,3.904 -3.168,5.856 -5.376,5.856c-1.984,0 -2.976,-1.2 -2.976,-3.6Z" style="fill:#231f20;fill-rule:nonzero;"/><path d="M476.238,341.025c2.048,0 4.048,-1.488 6,-4.464c1.952,-2.976 2.928,-5.712 2.928,-8.208c-0,-2.496 -0.752,-4.704 -2.256,-6.624c0.8,-0.672 1.52,-1.008 2.16,-1.008c0.64,0 1.104,0.4 1.392,1.2c0.288,0.8 0.432,1.88 0.432,3.24c-0,1.36 -0.272,3.048 -0.816,5.064c-0.544,2.016 -1.296,3.96 -2.256,5.832c-0.96,1.872 -2.24,3.432 -3.84,4.68c-1.6,1.248 -3.312,1.872 -5.136,1.872c-1.184,0 -2.136,-0.408 -2.856,-1.224c-0.72,-0.816 -1.08,-1.928 -1.08,-3.336c-0,-1.408 0.536,-3.872 1.608,-7.392c1.072,-3.52 1.608,-5.832 1.608,-6.936c-0,-1.104 -0.416,-1.656 -1.248,-1.656c-0.608,0 -1.248,0.408 -1.92,1.224c-0.672,0.816 -1.216,1.976 -1.632,3.48l-0.816,-0.192c1.184,-3.904 2.896,-5.856 5.136,-5.856c2.08,0 3.12,1.12 3.12,3.36c-0,0.896 -0.496,3.12 -1.488,6.672c-0.992,3.552 -1.488,5.888 -1.488,7.008c-0,2.176 0.816,3.264 2.448,3.264Z" style="fill:#231f20;fill-rule:nonzero;"/><path d="M501.582,320.721c1.696,0 2.968,0.408 3.816,1.224c0.848,0.816 1.272,1.984 1.272,3.504c-0,1.52 -0.592,2.84 -1.776,3.96c-2.016,1.92 -5.008,2.88 -8.976,2.88c-1.184,0 -2.208,-0.096 -3.072,-0.288l-0,-0.912c1.12,0.16 2.048,0.24 2.784,0.24c2.656,0 4.712,-0.672 6.168,-2.016c1.456,-1.344 2.184,-2.816 2.184,-4.416c-0,-0.864 -0.232,-1.584 -0.696,-2.16c-0.464,-0.576 -1.232,-0.864 -2.304,-0.864c-1.072,0 -2.16,0.496 -3.264,1.488c-1.104,0.992 -1.976,2.224 -2.616,3.696c-1.28,3.104 -1.92,5.792 -1.92,8.064c-0,4.224 1.28,6.336 3.84,6.336c3.168,0 5.488,-1.728 6.96,-5.184l0.768,0.192c-0.768,1.952 -1.88,3.464 -3.336,4.536c-1.456,1.072 -3.096,1.608 -4.92,1.608c-1.824,0 -3.36,-0.672 -4.608,-2.016c-1.248,-1.344 -1.872,-3.152 -1.872,-5.424c-0,-2.272 0.432,-4.472 1.296,-6.6c0.864,-2.128 2.208,-3.968 4.032,-5.52c1.824,-1.552 3.904,-2.328 6.24,-2.328Z" style="fill:#231f20;fill-rule:nonzero;"/><path d="M524.382,342.033l-3.408,0.288l1.728,-6.576c0.192,-0.736 0.488,-1.824 0.888,-3.264c0.4,-1.44 0.696,-2.544 0.888,-3.312c0.544,-2.112 0.816,-3.536 0.816,-4.272c-0,-0.736 -0.184,-1.352 -0.552,-1.848c-0.368,-0.496 -0.92,-0.744 -1.656,-0.744c-1.6,0 -3.344,1.616 -5.232,4.848c-1.888,3.232 -3.616,8.192 -5.184,14.88l-3.36,0.288l4.704,-19.392l-3.072,0.24l-0.048,-0.816c2.208,-0.288 4.272,-0.688 6.192,-1.2l0.672,0.48c-1.536,3.52 -2.88,7.568 -4.032,12.144l0.384,0l0.768,-2.112c1.504,-4.096 3.104,-6.944 4.8,-8.544c1.696,-1.6 3.28,-2.4 4.752,-2.4c2.24,0 3.36,1.264 3.36,3.792c-0,1.472 -0.464,3.552 -1.392,6.24l-1.008,3.024l0.432,0l0.768,-2.112c1.728,-4.832 3.6,-7.968 5.616,-9.408c0.96,-0.64 1.752,-1.056 2.376,-1.248c0.624,-0.192 1.368,-0.288 2.232,-0.288c0.864,0 1.584,0.384 2.16,1.152c0.576,0.768 0.864,1.84 0.864,3.216c-0,1.376 -0.776,3.904 -2.328,7.584c-1.552,3.68 -2.328,6.032 -2.328,7.056c-0,1.024 0.4,1.536 1.2,1.536c0.608,0 1.264,-0.408 1.968,-1.224c0.704,-0.816 1.312,-1.976 1.824,-3.48l0.768,0.192c-1.376,3.904 -3.168,5.856 -5.376,5.856c-1.984,0 -2.976,-1.088 -2.976,-3.264c-0,-0.928 0.728,-3.232 2.184,-6.912c1.456,-3.68 2.184,-6.192 2.184,-7.536c-0,-1.728 -0.56,-2.592 -1.68,-2.592c-1.6,0 -3.328,1.296 -5.184,3.888c-2.144,3.104 -4.048,8.384 -5.712,15.84Z" style="fill:#231f20;fill-rule:nonzero;"/><path d="M555.966,320.721c1.696,0 2.968,0.408 3.816,1.224c0.848,0.816 1.272,1.984 1.272,3.504c-0,1.52 -0.592,2.84 -1.776,3.96c-2.016,1.92 -5.008,2.88 -8.976,2.88c-1.184,0 -2.208,-0.096 -3.072,-0.288l-0,-0.912c1.12,0.16 2.048,0.24 2.784,0.24c2.656,0 4.712,-0.672 6.168,-2.016c1.456,-1.344 2.184,-2.816 2.184,-4.416c-0,-0.864 -0.232,-1.584 -0.696,-2.16c-0.464,-0.576 -1.232,-0.864 -2.304,-0.864c-1.072,0 -2.16,0.496 -3.264,1.488c-1.104,0.992 -1.976,2.224 -2.616,3.696c-1.28,3.104 -1.92,5.792 -1.92,8.064c-0,4.224 1.28,6.336 3.84,6.336c3.168,0 5.488,-1.728 6.96,-5.184l0.768,0.192c-0.768,1.952 -1.88,3.464 -3.336,4.536c-1.456,1.072 -3.096,1.608 -4.92,1.608c-1.824,0 -3.36,-0.672 -4.608,-2.016c-1.248,-1.344 -1.872,-3.152 -1.872,-5.424c-0,-2.272 0.432,-4.472 1.296,-6.6c0.864,-2.128 2.208,-3.968 4.032,-5.52c1.824,-1.552 3.904,-2.328 6.24,-2.328Z" style="fill:#231f20;fill-rule:nonzero;"/><path d="M583.038,325.089c-0,1.376 -0.776,3.904 -2.328,7.584c-1.552,3.68 -2.328,6.032 -2.328,7.056c-0,1.024 0.4,1.536 1.2,1.536c0.608,0 1.264,-0.408 1.968,-1.224c0.704,-0.816 1.312,-1.976 1.824,-3.48l0.768,0.192c-1.376,3.904 -3.168,5.856 -5.376,5.856c-1.984,0 -2.976,-1.088 -2.976,-3.264c-0,-0.928 0.728,-3.232 2.184,-6.912c1.456,-3.68 2.184,-6.048 2.184,-7.104c-0,-2.016 -0.736,-3.024 -2.208,-3.024c-1.6,0 -3.328,1.296 -5.184,3.888c-2.144,3.104 -4.048,8.384 -5.712,15.84l-3.36,0.288l4.704,-19.392l-3.072,0.24l-0.048,-0.816c2.208,-0.288 4.272,-0.688 6.192,-1.2l0.672,0.48c-1.536,3.52 -2.88,7.568 -4.032,12.144l0.384,0l0.768,-2.112c1.728,-4.832 3.6,-7.968 5.616,-9.408c0.96,-0.64 1.752,-1.056 2.376,-1.248c0.624,-0.192 1.408,-0.288 2.352,-0.288c0.944,0 1.752,0.384 2.424,1.152c0.672,0.768 1.008,1.84 1.008,3.216Z" style="fill:#231f20;fill-rule:nonzero;"/><path d="M588.894,323.025l0.24,-0.912l10.656,0l-0.24,0.912l-10.656,0Zm7.632,-6.816l0.672,0.48c-0.736,2.24 -1.72,5.76 -2.952,10.56c-1.232,4.8 -1.976,7.896 -2.232,9.288c-0.256,1.392 -0.384,2.44 -0.384,3.144c-0,1.056 0.4,1.584 1.2,1.584c0.608,0 1.264,-0.408 1.968,-1.224c0.704,-0.816 1.312,-1.976 1.824,-3.48l0.768,0.192c-1.376,3.904 -3.168,5.856 -5.376,5.856c-1.984,0 -2.976,-1.2 -2.976,-3.6c-0,-1.984 1.184,-7.52 3.552,-16.608l-3.456,-0.288c1.76,0 3.184,-0.424 4.272,-1.272c1.088,-0.848 2.128,-2.392 3.12,-4.632Z" style="fill:#231f20;fill-rule:nonzero;"/><path d="M418.926,354.998c-1.312,0 -2.52,0.496 -3.624,1.488c-1.104,0.992 -1.976,2.224 -2.616,3.696c-1.28,3.104 -1.92,5.792 -1.92,8.064c-0,4.224 1.28,6.336 3.84,6.336c3.168,0 5.488,-1.728 6.96,-5.184l0.768,0.192c-0.768,1.952 -1.88,3.464 -3.336,4.536c-1.456,1.072 -3.096,1.608 -4.92,1.608c-1.824,0 -3.36,-0.672 -4.608,-2.016c-1.248,-1.344 -1.872,-3.152 -1.872,-5.424c-0,-2.272 0.432,-4.472 1.296,-6.6c0.864,-2.128 2.208,-3.968 4.032,-5.52c1.824,-1.552 3.904,-2.328 6.24,-2.328c1.6,0 2.808,0.408 3.624,1.224c0.816,0.816 1.224,1.792 1.224,2.928c-0,1.136 -0.2,2.152 -0.6,3.048c-0.4,0.896 -1.024,1.344 -1.872,1.344c-0.848,0 -1.48,-0.256 -1.896,-0.768c0.928,-1.408 1.392,-2.784 1.392,-4.128c-0,-1.664 -0.704,-2.496 -2.112,-2.496Z" style="fill:#231f20;fill-rule:nonzero;"/><path d="M426.654,368.198c-0,-3.296 0.96,-6.448 2.88,-9.456c0.928,-1.44 2.144,-2.616 3.648,-3.528c1.504,-0.912 3.224,-1.368 5.16,-1.368c1.936,0 3.512,0.656 4.728,1.968c1.216,1.312 1.824,3.104 1.824,5.376c-0,2.272 -0.416,4.48 -1.248,6.624c-0.832,2.144 -2.144,4 -3.936,5.568c-1.792,1.568 -3.808,2.352 -6.048,2.352c-2.24,0 -3.968,-0.656 -5.184,-1.968c-1.216,-1.312 -1.824,-3.168 -1.824,-5.568Zm11.28,-13.296c-1.728,0 -3.256,0.864 -4.584,2.592c-1.328,1.728 -2.272,3.616 -2.832,5.664c-0.56,2.048 -0.84,3.96 -0.84,5.736c-0,1.776 0.36,3.184 1.08,4.224c0.72,1.04 1.712,1.56 2.976,1.56c1.264,0 2.448,-0.512 3.552,-1.536c1.104,-1.024 1.976,-2.288 2.616,-3.792c1.312,-3.072 1.968,-5.736 1.968,-7.992c-0,-2.256 -0.352,-3.896 -1.056,-4.92c-0.704,-1.024 -1.664,-1.536 -2.88,-1.536Z" style="fill:#231f20;fill-rule:nonzero;"/><path d="M468.318,358.214c-0,1.376 -0.776,3.904 -2.328,7.584c-1.552,3.68 -2.328,6.032 -2.328,7.056c-0,1.024 0.4,1.536 1.2,1.536c0.608,0 1.264,-0.408 1.968,-1.224c0.704,-0.816 1.312,-1.976 1.824,-3.48l0.768,0.192c-1.376,3.904 -3.168,5.856 -5.376,5.856c-1.984,0 -2.976,-1.088 -2.976,-3.264c-0,-0.928 0.728,-3.232 2.184,-6.912c1.456,-3.68 2.184,-6.048 2.184,-7.104c-0,-2.016 -0.736,-3.024 -2.208,-3.024c-1.6,0 -3.328,1.296 -5.184,3.888c-2.144,3.104 -4.048,8.384 -5.712,15.84l-3.36,0.288l4.704,-19.392l-3.072,0.24l-0.048,-0.816c2.208,-0.288 4.272,-0.688 6.192,-1.2l0.672,0.48c-1.536,3.52 -2.88,7.568 -4.032,12.144l0.384,0l0.768,-2.112c1.728,-4.832 3.6,-7.968 5.616,-9.408c0.96,-0.64 1.752,-1.056 2.376,-1.248c0.624,-0.192 1.408,-0.288 2.352,-0.288c0.944,0 1.752,0.384 2.424,1.152c0.672,0.768 1.008,1.84 1.008,3.216Z" style="fill:#231f20;fill-rule:nonzero;"/><path d="M482.046,354.998c-1.216,0 -2.256,0.352 -3.12,1.056c-0.864,0.704 -1.296,1.6 -1.296,2.688c-0,1.088 0.448,2.08 1.344,2.976c0.896,0.896 1.872,1.64 2.928,2.232c1.056,0.592 2.032,1.368 2.928,2.328c0.896,0.96 1.344,1.984 1.344,3.072c-0,2.048 -0.792,3.624 -2.376,4.728c-1.584,1.104 -3.496,1.656 -5.736,1.656c-2.24,0 -4.208,-0.528 -5.904,-1.584c0.544,-1.088 1.056,-2.976 1.536,-5.664l0.816,0.144c-0.224,1.312 -0.336,2.344 -0.336,3.096c-0,0.752 0.36,1.44 1.08,2.064c0.72,0.624 1.76,0.936 3.12,0.936c1.36,0 2.512,-0.416 3.456,-1.248c0.944,-0.832 1.416,-1.92 1.416,-3.264c-0,-0.864 -0.424,-1.704 -1.272,-2.52c-0.848,-0.816 -1.776,-1.496 -2.784,-2.04c-1.008,-0.544 -1.936,-1.312 -2.784,-2.304c-0.848,-0.992 -1.272,-2.08 -1.272,-3.264c-0,-1.76 0.696,-3.24 2.088,-4.44c1.392,-1.2 3.224,-1.8 5.496,-1.8c1.76,0 3.504,0.432 5.232,1.296c-0.16,0.352 -0.424,1.152 -0.792,2.4c-0.368,1.248 -0.648,2.432 -0.84,3.552l-0.816,-0.144c0.192,-1.024 0.288,-2.008 0.288,-2.952c-0,-0.944 -0.312,-1.68 -0.936,-2.208c-0.624,-0.528 -1.56,-0.792 -2.808,-0.792Z" style="fill:#231f20;fill-rule:nonzero;"/><path d="M502.398,354.998c-1.312,0 -2.52,0.496 -3.624,1.488c-1.104,0.992 -1.976,2.224 -2.616,3.696c-1.28,3.104 -1.92,5.792 -1.92,8.064c-0,4.224 1.28,6.336 3.84,6.336c3.168,0 5.488,-1.728 6.96,-5.184l0.768,0.192c-0.768,1.952 -1.88,3.464 -3.336,4.536c-1.456,1.072 -3.096,1.608 -4.92,1.608c-1.824,0 -3.36,-0.672 -4.608,-2.016c-1.248,-1.344 -1.872,-3.152 -1.872,-5.424c-0,-2.272 0.432,-4.472 1.296,-6.6c0.864,-2.128 2.208,-3.968 4.032,-5.52c1.824,-1.552 3.904,-2.328 6.24,-2.328c1.6,0 2.808,0.408 3.624,1.224c0.816,0.816 1.224,1.792 1.224,2.928c-0,1.136 -0.2,2.152 -0.6,3.048c-0.4,0.896 -1.024,1.344 -1.872,1.344c-0.848,0 -1.48,-0.256 -1.896,-0.768c0.928,-1.408 1.392,-2.784 1.392,-4.128c-0,-1.664 -0.704,-2.496 -2.112,-2.496Z" style="fill:#231f20;fill-rule:nonzero;"/><path d="M516.99,349.046c-0.416,-0.416 -0.624,-0.928 -0.624,-1.536c-0,-0.608 0.208,-1.12 0.624,-1.536c0.416,-0.416 0.928,-0.624 1.536,-0.624c0.608,0 1.12,0.208 1.536,0.624c0.416,0.416 0.624,0.928 0.624,1.536c-0,0.608 -0.208,1.12 -0.624,1.536c-0.416,0.416 -0.928,0.624 -1.536,0.624c-0.608,0 -1.12,-0.208 -1.536,-0.624Zm-5.424,23.088c-0,-1.696 1.168,-7.056 3.504,-16.08l-3.072,0.24l-0.048,-0.816c2.208,-0.288 4.272,-0.688 6.192,-1.2l0.672,0.48c-1.12,3.328 -2.176,6.896 -3.168,10.704c-0.992,3.808 -1.488,6.248 -1.488,7.32c-0,1.072 0.4,1.608 1.2,1.608c0.608,0 1.264,-0.408 1.968,-1.224c0.704,-0.816 1.312,-1.976 1.824,-3.48l0.768,0.192c-1.376,3.904 -3.168,5.856 -5.376,5.856c-1.984,0 -2.976,-1.2 -2.976,-3.6Z" style="fill:#231f20;fill-rule:nonzero;"/><path d="M534.942,353.846c1.696,0 2.968,0.408 3.816,1.224c0.848,0.816 1.272,1.984 1.272,3.504c-0,1.52 -0.592,2.84 -1.776,3.96c-2.016,1.92 -5.008,2.88 -8.976,2.88c-1.184,0 -2.208,-0.096 -3.072,-0.288l-0,-0.912c1.12,0.16 2.048,0.24 2.784,0.24c2.656,0 4.712,-0.672 6.168,-2.016c1.456,-1.344 2.184,-2.816 2.184,-4.416c-0,-0.864 -0.232,-1.584 -0.696,-2.16c-0.464,-0.576 -1.232,-0.864 -2.304,-0.864c-1.072,0 -2.16,0.496 -3.264,1.488c-1.104,0.992 -1.976,2.224 -2.616,3.696c-1.28,3.104 -1.92,5.792 -1.92,8.064c-0,4.224 1.28,6.336 3.84,6.336c3.168,0 5.488,-1.728 6.96,-5.184l0.768,0.192c-0.768,1.952 -1.88,3.464 -3.336,4.536c-1.456,1.072 -3.096,1.608 -4.92,1.608c-1.824,0 -3.36,-0.672 -4.608,-2.016c-1.248,-1.344 -1.872,-3.152 -1.872,-5.424c-0,-2.272 0.432,-4.472 1.296,-6.6c0.864,-2.128 2.208,-3.968 4.032,-5.52c1.824,-1.552 3.904,-2.328 6.24,-2.328Z" style="fill:#231f20;fill-rule:nonzero;"/><path d="M562.014,358.214c-0,1.376 -0.776,3.904 -2.328,7.584c-1.552,3.68 -2.328,6.032 -2.328,7.056c-0,1.024 0.4,1.536 1.2,1.536c0.608,0 1.264,-0.408 1.968,-1.224c0.704,-0.816 1.312,-1.976 1.824,-3.48l0.768,0.192c-1.376,3.904 -3.168,5.856 -5.376,5.856c-1.984,0 -2.976,-1.088 -2.976,-3.264c-0,-0.928 0.728,-3.232 2.184,-6.912c1.456,-3.68 2.184,-6.048 2.184,-7.104c-0,-2.016 -0.736,-3.024 -2.208,-3.024c-1.6,0 -3.328,1.296 -5.184,3.888c-2.144,3.104 -4.048,8.384 -5.712,15.84l-3.36,0.288l4.704,-19.392l-3.072,0.24l-0.048,-0.816c2.208,-0.288 4.272,-0.688 6.192,-1.2l0.672,0.48c-1.536,3.52 -2.88,7.568 -4.032,12.144l0.384,0l0.768,-2.112c1.728,-4.832 3.6,-7.968 5.616,-9.408c0.96,-0.64 1.752,-1.056 2.376,-1.248c0.624,-0.192 1.408,-0.288 2.352,-0.288c0.944,0 1.752,0.384 2.424,1.152c0.672,0.768 1.008,1.84 1.008,3.216Z" style="fill:#231f20;fill-rule:nonzero;"/><path d="M567.87,356.15l0.24,-0.912l10.656,0l-0.24,0.912l-10.656,0Zm7.632,-6.816l0.672,0.48c-0.736,2.24 -1.72,5.76 -2.952,10.56c-1.232,4.8 -1.976,7.896 -2.232,9.288c-0.256,1.392 -0.384,2.44 -0.384,3.144c-0,1.056 0.4,1.584 1.2,1.584c0.608,0 1.264,-0.408 1.968,-1.224c0.704,-0.816 1.312,-1.976 1.824,-3.48l0.768,0.192c-1.376,3.904 -3.168,5.856 -5.376,5.856c-1.984,0 -2.976,-1.2 -2.976,-3.6c-0,-1.984 1.184,-7.52 3.552,-16.608l-3.456,-0.288c1.76,0 3.184,-0.424 4.272,-1.272c1.088,-0.848 2.128,-2.392 3.12,-4.632Z" style="fill:#231f20;fill-rule:nonzero;"/></g><g><g><path d="M406.081,306.369l0,-26.625l4.2,-0l0,22.912l14.288,0l-0,3.713l-18.488,-0Z" style="fill:#231f20;fill-rule:nonzero;"/><path d="M446.244,302.656l-0,3.713l-18.263,-0l0,-26.625l17.925,-0l0,3.712l-13.725,0l0,7.575l11.888,0l-0,3.488l-11.888,-0l0,8.137l14.063,0Z" style="fill:#231f20;fill-rule:nonzero;"/><path d="M458.169,292.869c-0,-1.625 0.287,-3.219 0.862,-4.782c0.575,-1.562 1.419,-2.987 2.532,-4.275c1.112,-1.287 2.468,-2.312 4.068,-3.075c1.6,-0.762 3.413,-1.143 5.438,-1.143c2.4,-0 4.475,0.543 6.225,1.631c1.75,1.087 3.05,2.481 3.9,4.181l-3.3,2.213c-0.5,-1.075 -1.131,-1.925 -1.894,-2.55c-0.762,-0.625 -1.587,-1.063 -2.475,-1.313c-0.887,-0.25 -1.756,-0.375 -2.606,-0.375c-1.4,0 -2.625,0.281 -3.675,0.844c-1.05,0.562 -1.931,1.306 -2.644,2.231c-0.712,0.925 -1.25,1.963 -1.612,3.113c-0.363,1.15 -0.544,2.3 -0.544,3.45c-0,1.275 0.212,2.506 0.637,3.693c0.425,1.188 1.019,2.238 1.782,3.15c0.762,0.913 1.668,1.632 2.718,2.157c1.05,0.525 2.2,0.787 3.45,0.787c0.85,0 1.738,-0.15 2.663,-0.45c0.925,-0.3 1.781,-0.769 2.569,-1.406c0.787,-0.638 1.406,-1.481 1.856,-2.531l3.487,1.987c-0.55,1.325 -1.406,2.45 -2.568,3.375c-1.163,0.925 -2.463,1.625 -3.9,2.1c-1.438,0.475 -2.857,0.713 -4.257,0.713c-1.875,-0 -3.587,-0.394 -5.137,-1.182c-1.55,-0.787 -2.888,-1.837 -4.013,-3.15c-1.125,-1.312 -2,-2.787 -2.625,-4.425c-0.625,-1.637 -0.937,-3.293 -0.937,-4.968Z" style="fill:#231f20;fill-rule:nonzero;"/><path d="M496.282,306.556c-1.925,0 -3.663,-0.375 -5.213,-1.125c-1.55,-0.75 -2.887,-1.769 -4.012,-3.056c-1.125,-1.288 -1.994,-2.738 -2.606,-4.35c-0.613,-1.613 -0.919,-3.269 -0.919,-4.969c-0,-1.775 0.325,-3.469 0.975,-5.081c0.65,-1.613 1.55,-3.05 2.7,-4.313c1.15,-1.262 2.506,-2.262 4.069,-3c1.562,-0.737 3.256,-1.106 5.081,-1.106c1.9,0 3.631,0.388 5.194,1.163c1.562,0.775 2.9,1.812 4.012,3.112c1.113,1.3 1.975,2.75 2.588,4.35c0.612,1.6 0.918,3.238 0.918,4.913c0,1.775 -0.318,3.468 -0.956,5.081c-0.637,1.612 -1.531,3.05 -2.681,4.312c-1.15,1.263 -2.506,2.257 -4.069,2.982c-1.562,0.725 -3.256,1.087 -5.081,1.087Zm-8.475,-13.5c-0,1.25 0.2,2.463 0.6,3.638c0.4,1.175 0.969,2.218 1.706,3.131c0.738,0.912 1.631,1.631 2.681,2.156c1.05,0.525 2.225,0.788 3.525,0.788c1.35,-0 2.55,-0.275 3.6,-0.825c1.05,-0.55 1.932,-1.294 2.644,-2.232c0.713,-0.937 1.256,-1.987 1.631,-3.15c0.375,-1.162 0.563,-2.331 0.563,-3.506c-0,-1.25 -0.194,-2.456 -0.581,-3.619c-0.388,-1.162 -0.957,-2.2 -1.707,-3.112c-0.75,-0.913 -1.643,-1.631 -2.681,-2.156c-1.037,-0.525 -2.194,-0.788 -3.469,-0.788c-1.35,0 -2.55,0.275 -3.6,0.825c-1.05,0.55 -1.937,1.288 -2.662,2.213c-0.725,0.925 -1.281,1.962 -1.669,3.112c-0.387,1.15 -0.581,2.325 -0.581,3.525Z" style="fill:#231f20;fill-rule:nonzero;"/><path d="M513.419,306.369l0,-26.625l11.588,-0c1.2,-0 2.3,0.25 3.3,0.75c1,0.5 1.869,1.162 2.606,1.987c0.738,0.825 1.313,1.75 1.725,2.775c0.413,1.025 0.619,2.075 0.619,3.15c-0,1.175 -0.213,2.3 -0.638,3.375c-0.425,1.075 -1.031,2 -1.818,2.775c-0.788,0.775 -1.707,1.338 -2.757,1.688l6.263,10.125l-4.725,-0l-5.775,-9.263l-6.188,0l0,9.263l-4.2,-0Zm4.2,-12.975l7.35,-0c0.775,-0 1.463,-0.225 2.063,-0.675c0.6,-0.45 1.075,-1.057 1.425,-1.819c0.35,-0.763 0.525,-1.594 0.525,-2.494c-0,-0.925 -0.2,-1.756 -0.6,-2.494c-0.4,-0.737 -0.919,-1.331 -1.556,-1.781c-0.638,-0.45 -1.332,-0.675 -2.082,-0.675l-7.125,0l0,9.938Z" style="fill:#231f20;fill-rule:nonzero;"/><path d="M538.207,306.369l-0,-26.625l11.175,-0c1.2,-0 2.3,0.25 3.3,0.75c1,0.5 1.875,1.162 2.625,1.987c0.75,0.825 1.325,1.75 1.725,2.775c0.4,1.025 0.6,2.075 0.6,3.15c-0,1.475 -0.331,2.881 -0.994,4.219c-0.662,1.337 -1.6,2.419 -2.812,3.244c-1.213,0.825 -2.619,1.237 -4.219,1.237l-7.2,0l-0,9.263l-4.2,-0Zm4.2,-12.975l6.937,-0c0.8,-0 1.5,-0.219 2.1,-0.657c0.6,-0.437 1.069,-1.031 1.407,-1.781c0.337,-0.75 0.506,-1.6 0.506,-2.55c-0,-0.975 -0.2,-1.837 -0.6,-2.587c-0.4,-0.75 -0.919,-1.332 -1.556,-1.744c-0.638,-0.413 -1.332,-0.619 -2.082,-0.619l-6.712,0l-0,9.938Z" style="fill:#231f20;fill-rule:nonzero;"/><path d="M577.319,286.006c-0.25,-0.275 -0.612,-0.569 -1.087,-0.881c-0.475,-0.313 -1.038,-0.606 -1.688,-0.881c-0.65,-0.275 -1.35,-0.5 -2.1,-0.675c-0.75,-0.175 -1.525,-0.263 -2.325,-0.263c-1.75,0 -3.05,0.325 -3.9,0.975c-0.85,0.65 -1.275,1.55 -1.275,2.7c0,0.85 0.238,1.519 0.713,2.006c0.475,0.488 1.2,0.894 2.175,1.219c0.975,0.325 2.2,0.675 3.675,1.05c1.8,0.425 3.362,0.931 4.687,1.519c1.325,0.587 2.338,1.369 3.038,2.344c0.7,0.975 1.05,2.262 1.05,3.862c-0,1.35 -0.25,2.513 -0.75,3.488c-0.5,0.975 -1.2,1.768 -2.1,2.381c-0.9,0.612 -1.938,1.062 -3.113,1.35c-1.175,0.287 -2.437,0.431 -3.787,0.431c-1.325,0 -2.644,-0.137 -3.956,-0.412c-1.313,-0.275 -2.563,-0.682 -3.75,-1.219c-1.188,-0.538 -2.282,-1.194 -3.282,-1.969l1.913,-3.6c0.325,0.325 0.794,0.681 1.406,1.069c0.613,0.387 1.325,0.756 2.138,1.106c0.812,0.35 1.7,0.644 2.662,0.881c0.963,0.238 1.944,0.357 2.944,0.357c1.675,-0 2.956,-0.294 3.844,-0.882c0.887,-0.587 1.331,-1.431 1.331,-2.531c-0,-0.9 -0.288,-1.619 -0.863,-2.156c-0.575,-0.538 -1.412,-0.994 -2.512,-1.369c-1.1,-0.375 -2.413,-0.75 -3.938,-1.125c-1.75,-0.475 -3.212,-0.994 -4.387,-1.556c-1.175,-0.563 -2.056,-1.288 -2.644,-2.175c-0.587,-0.888 -0.881,-2.019 -0.881,-3.394c-0,-1.75 0.425,-3.231 1.275,-4.444c0.85,-1.212 2.006,-2.125 3.469,-2.737c1.462,-0.613 3.106,-0.919 4.931,-0.919c1.2,0 2.337,0.131 3.412,0.394c1.075,0.262 2.082,0.619 3.019,1.069c0.938,0.45 1.794,0.962 2.569,1.537l-1.913,3.45Z" style="fill:#231f20;fill-rule:nonzero;"/></g></g></svg>