<?xml version="1.0" encoding="UTF-8" standalone="no"?><!DOCTYPE svg PUBLIC "-//W3C//DTD SVG 1.1//EN" "http://www.w3.org/Graphics/SVG/1.1/DTD/svg11.dtd"><svg width="100%" height="100%" viewBox="0 0 645 480" version="1.1" xmlns="http://www.w3.org/2000/svg" xmlns:xlink="http://www.w3.org/1999/xlink" xml:space="preserve" xmlns:serif="http://www.serif.com/" style="fill-rule:evenodd;clip-rule:evenodd;stroke-linejoin:round;stroke-miterlimit:2;"><path d="M196.14,41.901c-3.43,2.331 -19.145,15.415 -28.875,35.675c-9.626,20.044 -13.285,47.199 -13.289,62.002c0,15.002 2.164,29.815 7.041,42.536c11.197,29.188 36.044,44.885 54.876,56.815c18.368,11.615 51.829,20.209 75.174,20.222c0.816,-0 1.62,-0.013 2.407,-0.034c0.72,-0.021 1.423,-0.029 2.122,-0.029c7.601,-0 14.094,1.071 24.24,1.071c5.015,0.004 10.909,-0.259 18.267,-1.046c27.045,-2.888 52.775,-17.991 76.007,-38.439c29.012,-25.559 49.46,-66.153 54.516,-99.28c1.285,-8.43 2.014,-17.589 2.014,-26.911c-0.009,-25.307 -5.354,-51.829 -19.745,-68.095c-9.791,-11.063 -19.477,-16.886 -28.522,-20.029c-9.046,-3.148 -17.438,-3.617 -24.651,-4.044c-7.371,-0.431 -17.187,-1.13 -29.075,-1.13c-5.311,0 -11.038,0.138 -17.149,0.502c-21.101,1.26 -46.702,6.25 -66.362,11.323c-19.498,5.031 -39.586,11.938 -62.792,18.209c-11.637,3.147 -19.385,6.044 -26.204,10.682Z" style="fill:#fff590;fill-rule:nonzero;"/><path d="M591.988,241.05c3.576,2.43 19.96,16.067 30.103,37.185c10.035,20.892 13.85,49.196 13.854,64.625c0,15.637 -2.256,31.077 -7.34,44.336c-11.673,30.423 -37.577,46.784 -57.21,59.219c-19.148,12.107 -54.033,21.064 -78.37,21.077c-0.85,0 -1.688,-0.013 -2.509,-0.035c-0.75,-0.021 -1.483,-0.03 -2.212,-0.03c-7.925,-0 -14.693,1.117 -25.271,1.117c-5.228,0.004 -11.372,-0.271 -19.044,-1.091c-28.194,-3.01 -55.019,-18.752 -79.238,-40.065c-30.246,-26.64 -51.563,-68.952 -56.835,-103.481c-1.339,-8.787 -2.099,-18.333 -2.099,-28.049c0.009,-26.379 5.582,-54.023 20.585,-70.977c10.207,-11.531 20.305,-17.6 29.735,-20.877c9.43,-3.281 18.179,-3.769 25.698,-4.214c7.685,-0.45 17.918,-1.178 30.311,-1.178c5.538,-0 11.508,0.144 17.879,0.523c21.998,1.313 48.687,6.514 69.184,11.802c20.327,5.244 41.269,12.443 65.462,18.979c12.131,3.281 20.209,6.3 27.317,11.134Z" style="fill:#fff590;fill-rule:nonzero;"/><path d="M316.211,432.744c3.85,-2.602 21.492,-17.199 32.414,-39.805c10.806,-22.363 14.913,-52.66 14.918,-69.176c-0,-16.739 -2.43,-33.267 -7.904,-47.46c-12.569,-32.566 -40.462,-50.079 -61.602,-63.389c-20.618,-12.961 -58.181,-22.549 -84.387,-22.563c-0.916,0 -1.818,0.014 -2.702,0.038c-0.808,0.023 -1.597,0.032 -2.382,0.032c-8.533,0 -15.821,-1.195 -27.211,-1.195c-5.629,-0.005 -12.245,0.289 -20.506,1.167c-30.359,3.223 -59.243,20.073 -85.322,42.888c-32.568,28.516 -55.522,73.809 -61.198,110.769c-1.442,9.406 -2.26,19.625 -2.26,30.026c0.009,28.236 6.01,57.827 22.165,75.976c10.99,12.343 21.863,18.84 32.018,22.347c10.154,3.512 19.575,4.035 27.671,4.512c8.275,0.481 19.294,1.261 32.639,1.261c5.962,-0 12.39,-0.155 19.251,-0.561c23.687,-1.406 52.425,-6.973 74.496,-12.633c21.887,-5.614 44.437,-13.32 70.487,-20.316c13.063,-3.512 21.761,-6.744 29.415,-11.918Z" style="fill:#fff590;fill-rule:nonzero;"/><path d="M175.554,62.83l0.98,0.779c7.894,-9.929 13.662,-16.154 20.309,-20.67c6.652,-4.521 14.232,-7.376 25.827,-10.507c23.257,-6.287 43.353,-13.193 62.779,-18.208c19.594,-5.057 45.157,-10.029 66.124,-11.281c6.082,-0.364 11.783,-0.502 17.074,-0.502c11.842,-0 21.616,0.695 29,1.13c7.216,0.423 15.462,0.892 24.316,3.972c8.848,3.081 18.321,8.761 27.995,19.674c14.056,15.856 19.434,42.13 19.426,67.266c0,9.26 -0.724,18.355 -1.997,26.719c-4.989,32.8 -25.357,73.227 -54.106,98.526c-23.118,20.36 -48.652,35.295 -75.312,38.137c-7.317,0.779 -13.164,1.043 -18.133,1.043c-10.046,-0 -16.509,-1.072 -24.24,-1.076c-0.707,-0 -1.423,0.008 -2.156,0.029c-0.778,0.021 -1.569,0.034 -2.373,0.034c-23.043,0.008 -56.471,-8.59 -74.504,-20.03c-18.841,-11.929 -43.365,-27.471 -54.374,-56.203c-4.806,-12.528 -6.957,-27.204 -6.957,-42.084c-0.013,-29.519 8.497,-59.879 21.302,-75.969l-0.98,-0.779c-13.076,16.471 -21.569,46.982 -21.578,76.748c0,15.002 2.164,29.815 7.041,42.536c11.197,29.188 36.044,44.885 54.876,56.815c18.368,11.615 51.829,20.209 75.174,20.222c0.816,-0 1.62,-0.013 2.407,-0.034c0.72,-0.021 1.423,-0.029 2.122,-0.029c7.601,-0 14.094,1.071 24.24,1.071c5.015,0.004 10.909,-0.259 18.267,-1.046c27.045,-2.888 52.775,-17.991 76.007,-38.439c29.012,-25.559 49.46,-66.153 54.516,-99.28c1.285,-8.43 2.014,-17.589 2.014,-26.911c-0.009,-25.307 -5.354,-51.829 -19.745,-68.095c-9.791,-11.063 -19.477,-16.886 -28.522,-20.029c-9.046,-3.148 -17.438,-3.617 -24.651,-4.044c-7.371,-0.431 -17.187,-1.13 -29.075,-1.13c-5.311,0 -11.038,0.138 -17.149,0.502c-21.101,1.26 -46.702,6.25 -66.362,11.323c-19.498,5.031 -39.586,11.938 -62.792,18.209c-11.637,3.147 -19.385,6.044 -26.204,10.682c-6.823,4.638 -12.675,10.971 -20.586,20.929Z" style="fill-rule:nonzero;"/><path d="M614.112,262.343l-1.028,0.817c-8.282,-10.417 -14.334,-16.947 -21.307,-21.686c-6.978,-4.742 -14.931,-7.737 -27.096,-11.022c-24.399,-6.596 -45.482,-13.842 -65.863,-19.103c-20.557,-5.305 -47.376,-10.522 -69.373,-11.835c-6.38,-0.382 -12.362,-0.527 -17.912,-0.527c-12.424,-0 -22.678,0.729 -30.425,1.185c-7.571,0.444 -16.222,0.936 -25.51,4.168c-9.283,3.232 -19.221,9.191 -29.37,20.64c-14.747,16.635 -20.39,44.2 -20.381,70.571c0,9.714 0.76,19.257 2.095,28.031c5.234,34.412 26.603,76.825 56.764,103.367c24.254,21.36 51.042,37.029 79.012,40.011c7.676,0.816 13.811,1.093 19.024,1.093c10.539,0 17.32,-1.124 25.431,-1.128c0.742,-0 1.493,0.008 2.261,0.03c0.817,0.022 1.647,0.035 2.49,0.035c24.176,0.009 59.246,-9.011 78.164,-21.013c19.767,-12.516 45.496,-28.821 57.046,-58.964c5.041,-13.144 7.299,-28.541 7.299,-44.152c0.013,-30.969 -8.915,-62.821 -22.349,-79.701l1.028,-0.817c13.719,17.28 22.629,49.29 22.638,80.518c0,15.739 -2.27,31.28 -7.386,44.626c-11.748,30.622 -37.816,47.09 -57.573,59.606c-19.27,12.186 -54.375,21.202 -78.867,21.215c-0.856,-0 -1.699,-0.013 -2.525,-0.035c-0.755,-0.022 -1.493,-0.031 -2.226,-0.031c-7.975,-0 -14.786,1.124 -25.431,1.124c-5.261,0.005 -11.445,-0.272 -19.165,-1.098c-28.373,-3.03 -55.368,-18.874 -79.74,-40.327c-30.438,-26.814 -51.89,-69.403 -57.195,-104.157c-1.348,-8.844 -2.112,-18.453 -2.112,-28.233c0.008,-26.551 5.616,-54.375 20.714,-71.441c10.272,-11.606 20.434,-17.715 29.924,-21.013c9.49,-3.302 18.295,-3.794 25.861,-4.242c7.734,-0.452 18.032,-1.186 30.504,-1.186c5.572,0 11.58,0.145 17.991,0.527c22.138,1.322 48.996,6.557 69.623,11.879c20.456,5.279 41.53,12.525 65.877,19.103c12.208,3.303 20.337,6.341 27.491,11.207c7.158,4.866 13.297,11.51 21.597,21.958Z" style="fill:#231f20;fill-rule:nonzero;"/><path d="M339.638,409.706l-1.1,-0.874c-8.866,11.15 -15.344,18.14 -22.809,23.212c-7.469,5.077 -15.982,8.283 -29.003,11.799c-26.118,7.061 -48.687,14.817 -70.503,20.449c-22.005,5.678 -50.712,11.263 -74.259,12.668c-6.83,0.409 -13.232,0.565 -19.174,0.565c-13.299,-0 -24.275,-0.781 -32.567,-1.27c-8.105,-0.474 -17.365,-1.001 -27.307,-4.461c-9.938,-3.46 -20.576,-9.839 -31.439,-22.094c-15.786,-17.806 -21.826,-47.313 -21.817,-75.541c0,-10.399 0.813,-20.613 2.243,-30.006c5.603,-36.835 28.477,-82.235 60.762,-110.647c25.963,-22.865 54.638,-39.637 84.577,-42.829c8.217,-0.874 14.784,-1.171 20.364,-1.171c11.282,0 18.54,1.204 27.222,1.208c0.795,0 1.598,-0.009 2.421,-0.032c0.874,-0.024 1.763,-0.038 2.665,-0.038c25.878,-0.009 63.419,9.646 83.67,22.493c21.158,13.398 48.7,30.852 61.063,63.118c5.397,14.069 7.813,30.55 7.813,47.262c0.014,33.15 -9.542,67.245 -23.922,85.315l1.1,0.874c14.685,-18.498 24.223,-52.762 24.232,-86.189c0,-16.848 -2.43,-33.484 -7.906,-47.77c-12.575,-32.778 -40.479,-50.406 -61.628,-63.804c-20.627,-13.044 -58.205,-22.695 -84.422,-22.709c-0.916,-0 -1.819,0.014 -2.703,0.037c-0.808,0.024 -1.598,0.033 -2.383,0.033c-8.537,0 -15.827,-1.203 -27.222,-1.203c-5.632,-0.005 -12.25,0.291 -20.515,1.175c-30.371,3.244 -59.267,20.204 -85.357,43.167c-32.581,28.704 -55.544,74.292 -61.223,111.494c-1.443,9.468 -2.261,19.753 -2.261,30.222c0.009,28.421 6.012,58.205 22.174,76.472c10.995,12.424 21.873,18.963 32.031,22.494c10.158,3.535 19.583,4.061 27.683,4.541c8.278,0.484 19.301,1.269 32.652,1.269c5.965,-0 12.396,-0.155 19.259,-0.564c23.697,-1.415 52.447,-7.019 74.526,-12.716c21.897,-5.65 44.456,-13.407 70.517,-20.449c13.068,-3.535 21.77,-6.787 29.427,-11.996c7.663,-5.208 14.234,-12.321 23.119,-23.504Z" style="fill:#231f20;fill-rule:nonzero;"/><text x="220.934px" y="154.351px" style="font-family:'Raleway-SemiBold', 'Raleway';font-weight:600;font-size:37.5px;fill:#231f20;">LE MENT<tspan x="379.2px " y="154.351px ">A</tspan>L</text><g transform="matrix(3.125,0,0,3.125,-448.674,-1254.65)"><text x="158.476px" y="508.622px" style="font-family:'Raleway-SemiBold', 'Raleway';font-weight:600;font-size:11.2px;fill:#231f20;">L</text><text x="165.017px" y="508.622px" style="font-family:'Raleway-SemiBold', 'Raleway';font-weight:600;font-size:11.2px;fill:#231f20;">E</text><text x="171.602px" y="508.622px" style="font-family:'Raleway-SemiBold', 'Raleway';font-weight:600;font-size:11.2px;fill:#231f20;">S ÉM</text><text x="197.71px" y="508.622px" style="font-family:'Raleway-SemiBold', 'Raleway';font-weight:600;font-size:11.2px;fill:#231f20;">O</text><text x="205.762px" y="508.622px" style="font-family:'Raleway-SemiBold', 'Raleway';font-weight:600;font-size:11.2px;fill:#231f20;">TIONS</text></g><g transform="matrix(3.125,0,0,3.125,-840.086,-839.408)"><text x="348.672px" y="293.574px" style="font-family:'Arapey-Italic', 'Arapey';font-style:italic;font-size:12px;fill:#231f20;">l’intention</text><text x="342px" y="302.574px" style="font-family:'Arapey-Italic', 'Arapey';font-style:italic;font-size:12px;fill:#231f20;">l’état d’esprit</text></g><g transform="matrix(3.125,0,0,3.125,-985.641,-538.132)"><text x="342px" y="293.574px" style="font-family:'Arapey-Italic', 'Arapey';font-style:italic;font-size:12px;fill:#231f20;">calligraphie</text><text x="346.53px" y="302.574px" style="font-family:'Arapey-Italic', 'Arapey';font-style:italic;font-size:12px;fill:#231f20;">spontanée</text></g><g transform="matrix(3.125,0,0,3.125,-684.731,-538.132)"><text x="342px" y="293.574px" style="font-family:'Arapey-Italic', 'Arapey';font-style:italic;font-size:12px;fill:#231f20;">mouvement</text><text x="347.286px" y="302.574px" style="font-family:'Arapey-Italic', 'Arapey';font-style:italic;font-size:12px;fill:#231f20;">conscient</text></g><text x="378.595px" y="336.622px" style="font-family:'Raleway-SemiBold', 'Raleway';font-weight:600;font-size:37.5px;fill:#231f20;">LE C<tspan x="457.733px " y="336.622px ">O</tspan>RPS</text></svg>