<?xml version="1.0" encoding="UTF-8" standalone="no"?>
<!DOCTYPE svg PUBLIC "-//W3C//DTD SVG 1.1//EN" "http://www.w3.org/Graphics/SVG/1.1/DTD/svg11.dtd">
<svg width="100%" height="100%" viewBox="0 0 645 480" version="1.1" xmlns="http://www.w3.org/2000/svg" xmlns:xlink="http://www.w3.org/1999/xlink" xml:space="preserve" xmlns:serif="http://www.serif.com/" style="fill-rule:evenodd;clip-rule:evenodd;stroke-linejoin:round;stroke-miterlimit:2;">
    <g id="yellowDots" style="fill:#fff58d;fill-rule:nonzero;">
        <path d="M196.14,41.901c-3.43,2.331 -19.145,15.415 -28.875,35.675c-9.626,20.044 -13.285,47.199 -13.289,62.002c-0,15.002 2.164,29.815 7.041,42.536c11.197,29.188 36.044,44.885 54.876,56.815c18.368,11.615 51.829,20.209 75.174,20.222c0.816,0 1.62,-0.013 2.407,-0.034c0.72,-0.021 1.423,-0.029 2.122,-0.029c7.601,0 14.094,1.071 24.24,1.071c5.015,0.004 10.909,-0.259 18.267,-1.046c27.045,-2.888 52.775,-17.991 76.007,-38.439c29.012,-25.559 49.46,-66.153 54.516,-99.28c1.285,-8.43 2.014,-17.589 2.014,-26.911c-0.009,-25.307 -5.354,-51.829 -19.745,-68.095c-9.791,-11.063 -19.477,-16.886 -28.522,-20.029c-9.046,-3.148 -17.438,-3.617 -24.651,-4.044c-7.371,-0.431 -17.187,-1.13 -29.075,-1.13c-5.311,-0 -11.038,0.138 -17.149,0.502c-21.101,1.26 -46.702,6.25 -66.362,11.323c-19.498,5.031 -39.586,11.938 -62.792,18.209c-11.637,3.147 -19.385,6.044 -26.204,10.682Z" />
        <path d="M591.988,241.05c3.576,2.43 19.96,16.067 30.103,37.185c10.035,20.892 13.85,49.196 13.854,64.625c0,15.637 -2.256,31.077 -7.34,44.336c-11.673,30.423 -37.577,46.784 -57.21,59.219c-19.148,12.107 -54.033,21.064 -78.37,21.077c-0.85,0 -1.688,-0.013 -2.509,-0.035c-0.75,-0.021 -1.483,-0.03 -2.212,-0.03c-7.925,0 -14.693,1.117 -25.271,1.117c-5.228,0.004 -11.372,-0.271 -19.044,-1.091c-28.194,-3.01 -55.019,-18.752 -79.238,-40.065c-30.246,-26.64 -51.563,-68.952 -56.835,-103.481c-1.339,-8.787 -2.099,-18.333 -2.099,-28.049c0.009,-26.379 5.582,-54.023 20.585,-70.977c10.207,-11.531 20.305,-17.6 29.735,-20.877c9.43,-3.281 18.179,-3.769 25.698,-4.214c7.685,-0.45 17.918,-1.178 30.311,-1.178c5.538,-0 11.508,0.144 17.879,0.523c21.998,1.313 48.687,6.514 69.184,11.802c20.327,5.244 41.269,12.443 65.462,18.979c12.131,3.281 20.209,6.3 27.317,11.134Z" />
        <path d="M316.211,432.744c3.85,-2.602 21.492,-17.199 32.414,-39.805c10.806,-22.363 14.913,-52.66 14.918,-69.176c0,-16.739 -2.43,-33.267 -7.904,-47.46c-12.569,-32.566 -40.462,-50.079 -61.602,-63.389c-20.618,-12.961 -58.181,-22.549 -84.387,-22.563c-0.916,-0 -1.818,0.014 -2.702,0.038c-0.808,0.023 -1.597,0.032 -2.382,0.032c-8.533,-0 -15.821,-1.195 -27.211,-1.195c-5.629,-0.005 -12.245,0.289 -20.506,1.167c-30.359,3.223 -59.243,20.073 -85.322,42.888c-32.568,28.516 -55.522,73.809 -61.198,110.769c-1.442,9.406 -2.26,19.625 -2.26,30.026c0.009,28.236 6.01,57.827 22.165,75.976c10.99,12.343 21.863,18.84 32.018,22.347c10.154,3.512 19.575,4.035 27.671,4.512c8.275,0.481 19.294,1.261 32.639,1.261c5.962,-0 12.39,-0.155 19.251,-0.561c23.687,-1.406 52.425,-6.973 74.496,-12.633c21.887,-5.614 44.437,-13.32 70.487,-20.316c13.063,-3.512 21.761,-6.744 29.415,-11.918Z" />
    </g>
    <g id="blackGraphics" style="fill:#000000;fill-rule:nonzero;">
        <g id="strokes">
            <path d="M175.554,62.83l0.98,0.779c7.894,-9.929 13.662,-16.154 20.309,-20.67c6.652,-4.521 14.232,-7.376 25.827,-10.507c23.257,-6.287 43.353,-13.193 62.779,-18.208c19.594,-5.057 45.157,-10.029 66.124,-11.281c6.082,-0.364 11.783,-0.502 17.074,-0.502c11.842,0 21.616,0.695 29,1.13c7.216,0.423 15.462,0.892 24.316,3.972c8.848,3.081 18.321,8.761 27.995,19.674c14.056,15.856 19.434,42.13 19.426,67.266c0,9.26 -0.724,18.355 -1.997,26.719c-4.989,32.8 -25.357,73.227 -54.106,98.526c-23.118,20.36 -48.652,35.295 -75.312,38.137c-7.317,0.779 -13.164,1.043 -18.133,1.043c-10.046,0 -16.509,-1.072 -24.24,-1.076c-0.707,0 -1.423,0.008 -2.156,0.029c-0.778,0.021 -1.569,0.034 -2.373,0.034c-23.043,0.008 -56.471,-8.59 -74.504,-20.03c-18.841,-11.929 -43.365,-27.471 -54.374,-56.203c-4.806,-12.528 -6.957,-27.204 -6.957,-42.084c-0.013,-29.519 8.497,-59.879 21.302,-75.969l-0.98,-0.779c-13.076,16.471 -21.569,46.982 -21.578,76.748c0,15.002 2.164,29.815 7.041,42.536c11.197,29.188 36.044,44.885 54.876,56.815c18.368,11.615 51.829,20.209 75.174,20.222c0.816,0 1.62,-0.013 2.407,-0.034c0.72,-0.021 1.423,-0.029 2.122,-0.029c7.601,0 14.094,1.071 24.24,1.071c5.015,0.004 10.909,-0.259 18.267,-1.046c27.045,-2.888 52.775,-17.991 76.007,-38.439c29.012,-25.559 49.46,-66.153 54.516,-99.28c1.285,-8.43 2.014,-17.589 2.014,-26.911c-0.009,-25.307 -5.354,-51.829 -19.745,-68.095c-9.791,-11.063 -19.477,-16.886 -28.522,-20.029c-9.046,-3.148 -17.438,-3.617 -24.651,-4.044c-7.371,-0.431 -17.187,-1.13 -29.075,-1.13c-5.311,-0 -11.038,0.138 -17.149,0.502c-21.101,1.26 -46.702,6.25 -66.362,11.323c-19.498,5.031 -39.586,11.938 -62.792,18.209c-11.637,3.147 -19.385,6.044 -26.204,10.682c-6.823,4.638 -12.675,10.971 -20.586,20.929Z" />
            <path d="M614.112,262.343l-1.028,0.817c-8.282,-10.417 -14.334,-16.947 -21.307,-21.686c-6.978,-4.742 -14.931,-7.737 -27.096,-11.022c-24.399,-6.596 -45.482,-13.842 -65.863,-19.103c-20.557,-5.305 -47.376,-10.522 -69.373,-11.835c-6.38,-0.382 -12.362,-0.527 -17.912,-0.527c-12.424,-0 -22.678,0.729 -30.425,1.185c-7.571,0.444 -16.222,0.936 -25.51,4.168c-9.283,3.232 -19.221,9.191 -29.37,20.64c-14.747,16.635 -20.39,44.2 -20.381,70.571c0,9.714 0.76,19.257 2.095,28.031c5.234,34.412 26.603,76.825 56.764,103.367c24.254,21.36 51.042,37.029 79.012,40.011c7.676,0.816 13.811,1.093 19.024,1.093c10.539,-0 17.32,-1.124 25.431,-1.128c0.742,-0 1.493,0.008 2.261,0.03c0.817,0.022 1.647,0.035 2.49,0.035c24.176,0.009 59.246,-9.011 78.164,-21.013c19.767,-12.516 45.496,-28.821 57.046,-58.964c5.041,-13.144 7.299,-28.541 7.299,-44.152c0.013,-30.969 -8.915,-62.821 -22.349,-79.701l1.028,-0.817c13.719,17.28 22.629,49.29 22.638,80.518c-0,15.739 -2.27,31.28 -7.386,44.626c-11.748,30.622 -37.816,47.09 -57.573,59.606c-19.27,12.186 -54.375,21.202 -78.867,21.215c-0.856,-0 -1.699,-0.013 -2.525,-0.035c-0.755,-0.022 -1.493,-0.031 -2.226,-0.031c-7.975,0 -14.786,1.124 -25.431,1.124c-5.261,0.005 -11.445,-0.272 -19.165,-1.098c-28.373,-3.03 -55.368,-18.874 -79.74,-40.327c-30.438,-26.814 -51.89,-69.403 -57.195,-104.157c-1.348,-8.844 -2.112,-18.453 -2.112,-28.233c0.008,-26.551 5.616,-54.375 20.714,-71.441c10.272,-11.606 20.434,-17.715 29.924,-21.013c9.49,-3.302 18.295,-3.794 25.861,-4.242c7.734,-0.452 18.032,-1.186 30.504,-1.186c5.572,-0 11.58,0.145 17.991,0.527c22.138,1.322 48.996,6.557 69.623,11.879c20.456,5.279 41.53,12.525 65.877,19.103c12.208,3.303 20.337,6.341 27.491,11.207c7.158,4.866 13.297,11.51 21.597,21.958Z" />
            <path d="M339.638,409.706l-1.1,-0.874c-8.866,11.15 -15.344,18.14 -22.809,23.212c-7.469,5.077 -15.982,8.283 -29.003,11.799c-26.118,7.061 -48.687,14.817 -70.503,20.449c-22.005,5.678 -50.712,11.263 -74.259,12.668c-6.83,0.409 -13.232,0.565 -19.174,0.565c-13.299,0 -24.275,-0.781 -32.567,-1.27c-8.105,-0.474 -17.365,-1.001 -27.307,-4.461c-9.938,-3.46 -20.576,-9.839 -31.439,-22.094c-15.786,-17.806 -21.826,-47.313 -21.817,-75.541c0,-10.399 0.813,-20.613 2.243,-30.006c5.603,-36.835 28.477,-82.235 60.762,-110.647c25.963,-22.865 54.638,-39.637 84.577,-42.829c8.217,-0.874 14.784,-1.171 20.364,-1.171c11.282,-0 18.54,1.204 27.222,1.208c0.795,-0 1.598,-0.009 2.421,-0.032c0.874,-0.024 1.763,-0.038 2.665,-0.038c25.878,-0.009 63.419,9.646 83.67,22.493c21.158,13.398 48.7,30.852 61.063,63.118c5.397,14.069 7.813,30.55 7.813,47.262c0.014,33.15 -9.542,67.245 -23.922,85.315l1.1,0.874c14.685,-18.498 24.223,-52.762 24.232,-86.189c0,-16.848 -2.43,-33.484 -7.906,-47.77c-12.575,-32.778 -40.479,-50.406 -61.628,-63.804c-20.627,-13.044 -58.205,-22.695 -84.422,-22.709c-0.916,0 -1.819,0.014 -2.703,0.037c-0.808,0.024 -1.598,0.033 -2.383,0.033c-8.537,0 -15.827,-1.203 -27.222,-1.203c-5.632,-0.005 -12.25,0.291 -20.515,1.175c-30.371,3.244 -59.267,20.204 -85.357,43.167c-32.581,28.704 -55.544,74.292 -61.223,111.494c-1.443,9.468 -2.261,19.753 -2.261,30.222c0.009,28.421 6.012,58.205 22.174,76.472c10.995,12.424 21.873,18.963 32.031,22.494c10.158,3.535 19.583,4.061 27.683,4.541c8.278,0.484 19.301,1.269 32.652,1.269c5.965,0 12.396,-0.155 19.259,-0.564c23.697,-1.415 52.447,-7.019 74.526,-12.716c21.897,-5.65 44.456,-13.407 70.517,-20.449c13.068,-3.535 21.77,-6.787 29.427,-11.996c7.663,-5.208 14.234,-12.321 23.119,-23.504Z" />
        </g>
        <g id="reflectionActive">
            <path d="M188.523,146.769l5.436,-25.56l10.44,0c1.224,0 2.274,0.324 3.15,0.972c0.876,0.648 1.542,1.488 1.998,2.52c0.456,1.032 0.684,2.124 0.684,3.276c0,1.008 -0.174,1.992 -0.522,2.952c-0.348,0.96 -0.834,1.854 -1.458,2.682c-0.624,0.828 -1.35,1.536 -2.178,2.124c-0.828,0.588 -1.722,1.002 -2.682,1.242l3.78,9.792l-3.672,0l-3.528,-9.18l-6.264,0l-1.944,9.18l-3.24,0Zm13.032,-12.06c0.72,0 1.398,-0.18 2.034,-0.54c0.636,-0.36 1.206,-0.846 1.71,-1.458c0.504,-0.612 0.894,-1.296 1.17,-2.052c0.276,-0.756 0.414,-1.53 0.414,-2.322c0,-0.792 -0.138,-1.506 -0.414,-2.142c-0.276,-0.636 -0.66,-1.146 -1.152,-1.53c-0.492,-0.384 -1.062,-0.576 -1.71,-0.576l-7.02,0l-2.268,10.62l7.236,0Z" />
            <path d="M218.295,147.129c-1.56,0 -2.892,-0.354 -3.996,-1.062c-1.104,-0.708 -1.944,-1.662 -2.52,-2.862c-0.576,-1.2 -0.864,-2.544 -0.864,-4.032c0,-1.512 0.282,-2.958 0.846,-4.338c0.564,-1.38 1.362,-2.61 2.394,-3.69c1.032,-1.08 2.238,-1.932 3.618,-2.556c1.38,-0.624 2.886,-0.936 4.518,-0.936c1.224,0 2.31,0.192 3.258,0.576c0.948,0.384 1.686,0.948 2.214,1.692c0.528,0.744 0.792,1.68 0.792,2.808c-0,1.896 -0.84,3.336 -2.52,4.32c-1.68,0.984 -4.26,1.476 -7.74,1.476c-0.648,0 -1.392,-0.018 -2.232,-0.054c-0.84,-0.036 -1.812,-0.102 -2.916,-0.198l0.432,-2.16c1.056,0.048 1.962,0.096 2.718,0.144c0.756,0.048 1.458,0.072 2.106,0.072c1.824,0 3.264,-0.156 4.32,-0.468c1.056,-0.312 1.818,-0.744 2.286,-1.296c0.468,-0.552 0.702,-1.176 0.702,-1.872c0,-0.624 -0.15,-1.128 -0.45,-1.512c-0.3,-0.384 -0.72,-0.672 -1.26,-0.864c-0.54,-0.192 -1.182,-0.288 -1.926,-0.288c-1.2,0 -2.286,0.252 -3.258,0.756c-0.972,0.504 -1.812,1.188 -2.52,2.052c-0.708,0.864 -1.248,1.842 -1.62,2.934c-0.372,1.092 -0.558,2.226 -0.558,3.402c0,0.984 0.168,1.902 0.504,2.754c0.336,0.852 0.852,1.536 1.548,2.052c0.696,0.516 1.572,0.774 2.628,0.774c1.104,0 2.184,-0.282 3.24,-0.846c1.056,-0.564 1.884,-1.326 2.484,-2.286l2.556,0.756c-0.576,0.912 -1.332,1.728 -2.268,2.448c-0.936,0.72 -1.962,1.284 -3.078,1.692c-1.116,0.408 -2.262,0.612 -3.438,0.612Zm5.508,-22.284l-1.944,-0.72l2.736,-3.636l3.132,0l-3.924,4.356Z" />
            <path d="M244.359,147.021c-1.032,0 -1.818,-0.27 -2.358,-0.81c-0.54,-0.54 -0.81,-1.218 -0.81,-2.034c0,-0.192 0.018,-0.402 0.054,-0.63c0.036,-0.228 0.09,-0.522 0.162,-0.882l3.384,-15.804c0.048,-0.192 0.084,-0.396 0.108,-0.612c0.024,-0.216 0.036,-0.42 0.036,-0.612c0,-0.72 -0.192,-1.362 -0.576,-1.926c-0.384,-0.564 -1.104,-0.846 -2.16,-0.846c-0.816,-0 -1.524,0.204 -2.124,0.612c-0.6,0.408 -1.098,0.972 -1.494,1.692c-0.396,0.72 -0.702,1.548 -0.918,2.484l-0.072,0.324l3.456,0l-0.504,2.484l-3.492,0l-3.456,16.308l-3.168,0l3.456,-16.308l-2.412,0l0.54,-2.484l2.412,-0l0.144,-0.648c0.336,-1.464 0.87,-2.73 1.602,-3.798c0.732,-1.068 1.65,-1.902 2.754,-2.502c1.104,-0.6 2.376,-0.9 3.816,-0.9c1.896,-0 3.294,0.414 4.194,1.242c0.9,0.828 1.35,1.914 1.35,3.258c0,0.24 -0.018,0.492 -0.054,0.756c-0.036,0.264 -0.078,0.528 -0.126,0.792l-3.348,15.804c-0.024,0.096 -0.042,0.192 -0.054,0.288c-0.012,0.096 -0.018,0.192 -0.018,0.288c0,0.408 0.108,0.78 0.324,1.116c0.216,0.336 0.576,0.504 1.08,0.504c0.288,-0 0.6,-0.036 0.936,-0.108c0.336,-0.072 0.63,-0.144 0.882,-0.216c0.252,-0.072 0.378,-0.108 0.378,-0.108l-0.144,2.592c-0.024,0.024 -0.228,0.09 -0.612,0.198c-0.384,0.108 -0.858,0.216 -1.422,0.324c-0.564,0.108 -1.146,0.162 -1.746,0.162Z" />
            <path d="M258.471,147.129c-1.56,0 -2.892,-0.354 -3.996,-1.062c-1.104,-0.708 -1.944,-1.662 -2.52,-2.862c-0.576,-1.2 -0.864,-2.544 -0.864,-4.032c0,-1.512 0.282,-2.958 0.846,-4.338c0.564,-1.38 1.362,-2.61 2.394,-3.69c1.032,-1.08 2.238,-1.932 3.618,-2.556c1.38,-0.624 2.886,-0.936 4.518,-0.936c1.224,0 2.31,0.192 3.258,0.576c0.948,0.384 1.686,0.948 2.214,1.692c0.528,0.744 0.792,1.68 0.792,2.808c0,1.896 -0.84,3.336 -2.52,4.32c-1.68,0.984 -4.26,1.476 -7.74,1.476c-0.648,0 -1.392,-0.018 -2.232,-0.054c-0.84,-0.036 -1.812,-0.102 -2.916,-0.198l0.432,-2.16c1.056,0.048 1.962,0.096 2.718,0.144c0.756,0.048 1.458,0.072 2.106,0.072c1.824,0 3.264,-0.156 4.32,-0.468c1.056,-0.312 1.818,-0.744 2.286,-1.296c0.468,-0.552 0.702,-1.176 0.702,-1.872c0,-0.624 -0.15,-1.128 -0.45,-1.512c-0.3,-0.384 -0.72,-0.672 -1.26,-0.864c-0.54,-0.192 -1.182,-0.288 -1.926,-0.288c-1.2,0 -2.286,0.252 -3.258,0.756c-0.972,0.504 -1.812,1.188 -2.52,2.052c-0.708,0.864 -1.248,1.842 -1.62,2.934c-0.372,1.092 -0.558,2.226 -0.558,3.402c0,0.984 0.168,1.902 0.504,2.754c0.336,0.852 0.852,1.536 1.548,2.052c0.696,0.516 1.572,0.774 2.628,0.774c1.104,0 2.184,-0.282 3.24,-0.846c1.056,-0.564 1.884,-1.326 2.484,-2.286l2.556,0.756c-0.576,0.912 -1.332,1.728 -2.268,2.448c-0.936,0.72 -1.962,1.284 -3.078,1.692c-1.116,0.408 -2.262,0.612 -3.438,0.612Z" />
            <path d="M276.255,137.409l-4.644,-9.432l3.312,0l3.312,6.912l0.144,0.576l0.432,-0.576l6.228,-6.912l3.348,0l-8.64,9.432l4.68,9.36l-3.348,0l-3.312,-6.876l-0.216,-0.54l-0.396,0.54l-6.228,6.876l-3.348,0l8.676,-9.36Z"/>
            <path d="M291.339,127.977l3.168,0l-3.996,18.792l-3.168,0l3.996,-18.792Zm1.584,-7.488l3.168,0l-0.828,3.96l-3.168,0l0.828,-3.96Z" />
            <path d="M303.543,147.129c-1.68,0 -3.072,-0.36 -4.176,-1.08c-1.104,-0.72 -1.926,-1.68 -2.466,-2.88c-0.54,-1.2 -0.81,-2.52 -0.81,-3.96c0,-1.584 0.288,-3.072 0.864,-4.464c0.576,-1.392 1.374,-2.622 2.394,-3.69c1.02,-1.068 2.202,-1.902 3.546,-2.502c1.344,-0.6 2.772,-0.9 4.284,-0.9c1.68,0 3.078,0.36 4.194,1.08c1.116,0.72 1.95,1.68 2.502,2.88c0.552,1.2 0.828,2.532 0.828,3.996c0,1.56 -0.288,3.036 -0.864,4.428c-0.576,1.392 -1.38,2.622 -2.412,3.69c-1.032,1.068 -2.22,1.902 -3.564,2.502c-1.344,0.6 -2.784,0.9 -4.32,0.9Zm0.54,-2.736c0.936,0 1.842,-0.204 2.718,-0.612c0.876,-0.408 1.656,-0.99 2.34,-1.746c0.684,-0.756 1.23,-1.638 1.638,-2.646c0.408,-1.008 0.612,-2.112 0.612,-3.312c0,-1.104 -0.18,-2.082 -0.54,-2.934c-0.36,-0.852 -0.888,-1.524 -1.584,-2.016c-0.696,-0.492 -1.56,-0.738 -2.592,-0.738c-0.936,0 -1.836,0.21 -2.7,0.63c-0.864,0.42 -1.644,1.008 -2.34,1.764c-0.696,0.756 -1.248,1.644 -1.656,2.664c-0.408,1.02 -0.612,2.13 -0.612,3.33c0,1.08 0.18,2.046 0.54,2.898c0.36,0.852 0.894,1.518 1.602,1.998c0.708,0.48 1.566,0.72 2.574,0.72Z" />
            <path d="M320.283,127.977l2.88,0l-0.864,4.032c0.648,-0.888 1.422,-1.656 2.322,-2.304c0.9,-0.648 1.866,-1.152 2.898,-1.512c1.032,-0.36 2.064,-0.54 3.096,-0.54c1.008,0 1.812,0.186 2.412,0.558c0.6,0.372 1.032,0.888 1.296,1.548c0.264,0.66 0.396,1.434 0.396,2.322c0,0.528 -0.042,1.08 -0.126,1.656c-0.084,0.576 -0.186,1.176 -0.306,1.8l-2.376,11.232l-3.168,-0l2.232,-10.512c0.12,-0.528 0.204,-1.014 0.252,-1.458c0.048,-0.444 0.072,-0.858 0.072,-1.242c-0,-1.056 -0.216,-1.83 -0.648,-2.322c-0.432,-0.492 -1.068,-0.738 -1.908,-0.738c-0.792,-0 -1.632,0.216 -2.52,0.648c-0.888,0.432 -1.716,1.014 -2.484,1.746c-0.768,0.732 -1.392,1.578 -1.872,2.538l-2.412,11.34l-3.168,-0l3.996,-18.792Z" />
            <path d="M352.899,147.129c-1.392,0 -2.592,-0.354 -3.6,-1.062c-1.008,-0.708 -1.776,-1.656 -2.304,-2.844c-0.528,-1.188 -0.792,-2.49 -0.792,-3.906c0,-1.512 0.282,-2.964 0.846,-4.356c0.564,-1.392 1.332,-2.634 2.304,-3.726c0.972,-1.092 2.082,-1.962 3.33,-2.61c1.248,-0.648 2.556,-0.972 3.924,-0.972c1.44,0 2.64,0.396 3.6,1.188c0.96,0.792 1.632,1.752 2.016,2.88l0.828,-3.744l3.168,0l-3.168,14.904c-0.024,0.096 -0.042,0.18 -0.054,0.252c-0.012,0.072 -0.018,0.144 -0.018,0.216c0,0.432 0.264,0.66 0.792,0.684l-0.576,2.736c-0.264,0.024 -0.498,0.054 -0.702,0.09c-0.204,0.036 -0.39,0.054 -0.558,0.054c-0.672,0 -1.182,-0.156 -1.53,-0.468c-0.348,-0.312 -0.522,-0.696 -0.522,-1.152c0,-0.144 0.012,-0.312 0.036,-0.504c0.024,-0.192 0.06,-0.42 0.108,-0.684c0.048,-0.264 0.108,-0.552 0.18,-0.864c-0.936,1.2 -2.07,2.148 -3.402,2.844c-1.332,0.696 -2.634,1.044 -3.906,1.044Zm1.368,-2.736c0.528,-0 1.098,-0.108 1.71,-0.324c0.612,-0.216 1.212,-0.516 1.8,-0.9c0.588,-0.384 1.122,-0.834 1.602,-1.35c0.48,-0.516 0.84,-1.062 1.08,-1.638l1.116,-5.4c-0.096,-0.816 -0.372,-1.554 -0.828,-2.214c-0.456,-0.66 -1.014,-1.188 -1.674,-1.584c-0.66,-0.396 -1.362,-0.594 -2.106,-0.594c-1.008,0 -1.956,0.246 -2.844,0.738c-0.888,0.492 -1.674,1.146 -2.358,1.962c-0.684,0.816 -1.224,1.722 -1.62,2.718c-0.396,0.996 -0.594,1.998 -0.594,3.006c0,1.032 0.192,1.968 0.576,2.808c0.384,0.84 0.93,1.512 1.638,2.016c0.708,0.504 1.542,0.756 2.502,0.756Z" />
            <path d="M375.399,147.129c-1.584,0 -2.922,-0.36 -4.014,-1.08c-1.092,-0.72 -1.926,-1.68 -2.502,-2.88c-0.576,-1.2 -0.864,-2.532 -0.864,-3.996c0,-1.512 0.288,-2.958 0.864,-4.338c0.576,-1.38 1.374,-2.61 2.394,-3.69c1.02,-1.08 2.22,-1.932 3.6,-2.556c1.38,-0.624 2.874,-0.936 4.482,-0.936c1.848,0 3.33,0.414 4.446,1.242c1.116,0.828 1.854,1.938 2.214,3.33l-3.276,0.972c-0.288,-0.912 -0.768,-1.608 -1.44,-2.088c-0.672,-0.48 -1.5,-0.72 -2.484,-0.72c-0.96,0 -1.89,0.216 -2.79,0.648c-0.9,0.432 -1.704,1.038 -2.412,1.818c-0.708,0.78 -1.272,1.674 -1.692,2.682c-0.42,1.008 -0.63,2.088 -0.63,3.24c0,1.08 0.192,2.04 0.576,2.88c0.384,0.84 0.918,1.506 1.602,1.998c0.684,0.492 1.47,0.738 2.358,0.738c0.696,0 1.392,-0.132 2.088,-0.396c0.696,-0.264 1.326,-0.618 1.89,-1.062c0.564,-0.444 0.99,-0.93 1.278,-1.458l2.916,0.936c-0.552,0.912 -1.278,1.722 -2.178,2.43c-0.9,0.708 -1.902,1.266 -3.006,1.674c-1.104,0.408 -2.244,0.612 -3.42,0.612Z" />
            <path d="M388.071,144.141c0,-0.168 0.012,-0.342 0.036,-0.522c0.024,-0.18 0.048,-0.354 0.072,-0.522l2.7,-12.636l-2.448,0l0.54,-2.484l2.412,-0l1.332,-6.264l3.168,-0l-1.332,6.264l3.996,-0l-0.54,2.484l-3.96,0l-2.484,11.664c-0.024,0.096 -0.042,0.186 -0.054,0.27c-0.012,0.084 -0.018,0.174 -0.018,0.27c-0,0.504 0.156,0.87 0.468,1.098c0.312,0.228 0.696,0.342 1.152,0.342c0.408,-0 0.798,-0.054 1.17,-0.162c0.372,-0.108 0.702,-0.222 0.99,-0.342c0.288,-0.12 0.504,-0.216 0.648,-0.288l0.18,2.52c-0.288,0.192 -0.672,0.384 -1.152,0.576c-0.48,0.192 -1.02,0.342 -1.62,0.45c-0.6,0.108 -1.224,0.162 -1.872,0.162c-0.96,0 -1.764,-0.234 -2.412,-0.702c-0.648,-0.468 -0.972,-1.194 -0.972,-2.178Z" />
            <path d="M402.687,127.977l3.168,0l-3.996,18.792l-3.168,0l3.996,-18.792Zm1.584,-7.488l3.168,0l-0.828,3.96l-3.168,0l0.828,-3.96Z" />
            <path d="M408.663,127.977l3.276,0l2.124,16.02c0.96,-1.344 1.86,-2.682 2.7,-4.014c0.84,-1.332 1.608,-2.664 2.304,-3.996c0.696,-1.332 1.314,-2.67 1.854,-4.014c0.54,-1.344 0.978,-2.676 1.314,-3.996l3.024,0c-0.864,3.12 -2.172,6.246 -3.924,9.378c-1.752,3.132 -3.84,6.27 -6.264,9.414l-3.42,0l-2.988,-18.792Z" />
            <path d="M432.819,147.129c-1.56,0 -2.892,-0.354 -3.996,-1.062c-1.104,-0.708 -1.944,-1.662 -2.52,-2.862c-0.576,-1.2 -0.864,-2.544 -0.864,-4.032c-0,-1.512 0.282,-2.958 0.846,-4.338c0.564,-1.38 1.362,-2.61 2.394,-3.69c1.032,-1.08 2.238,-1.932 3.618,-2.556c1.38,-0.624 2.886,-0.936 4.518,-0.936c1.224,0 2.31,0.192 3.258,0.576c0.948,0.384 1.686,0.948 2.214,1.692c0.528,0.744 0.792,1.68 0.792,2.808c0,1.896 -0.84,3.336 -2.52,4.32c-1.68,0.984 -4.26,1.476 -7.74,1.476c-0.648,0 -1.392,-0.018 -2.232,-0.054c-0.84,-0.036 -1.812,-0.102 -2.916,-0.198l0.432,-2.16c1.056,0.048 1.962,0.096 2.718,0.144c0.756,0.048 1.458,0.072 2.106,0.072c1.824,0 3.264,-0.156 4.32,-0.468c1.056,-0.312 1.818,-0.744 2.286,-1.296c0.468,-0.552 0.702,-1.176 0.702,-1.872c0,-0.624 -0.15,-1.128 -0.45,-1.512c-0.3,-0.384 -0.72,-0.672 -1.26,-0.864c-0.54,-0.192 -1.182,-0.288 -1.926,-0.288c-1.2,0 -2.286,0.252 -3.258,0.756c-0.972,0.504 -1.812,1.188 -2.52,2.052c-0.708,0.864 -1.248,1.842 -1.62,2.934c-0.372,1.092 -0.558,2.226 -0.558,3.402c-0,0.984 0.168,1.902 0.504,2.754c0.336,0.852 0.852,1.536 1.548,2.052c0.696,0.516 1.572,0.774 2.628,0.774c1.104,0 2.184,-0.282 3.24,-0.846c1.056,-0.564 1.884,-1.326 2.484,-2.286l2.556,0.756c-0.576,0.912 -1.332,1.728 -2.268,2.448c-0.936,0.72 -1.962,1.284 -3.078,1.692c-1.116,0.408 -2.262,0.612 -3.438,0.612Z" />
        </g>
        <g id="ecouteIntuitive">
            <path d="M43.483,349.929l16.2,-0l-0.612,2.88l-12.96,-0l-1.764,8.28l11.268,0l-0.576,2.7l-11.268,0l-1.872,8.82l13.284,0l-0.612,2.88l-16.524,0l5.436,-25.56Zm9.144,-3.132l-1.944,-0.72l2.736,-3.636l3.132,0l-3.924,4.356Z" />
            <path d="M65.875,375.849c-1.584,0 -2.922,-0.36 -4.014,-1.08c-1.092,-0.72 -1.926,-1.68 -2.502,-2.88c-0.576,-1.2 -0.864,-2.532 -0.864,-3.996c0,-1.512 0.288,-2.958 0.864,-4.338c0.576,-1.38 1.374,-2.61 2.394,-3.69c1.02,-1.08 2.22,-1.932 3.6,-2.556c1.38,-0.624 2.874,-0.936 4.482,-0.936c1.848,-0 3.33,0.414 4.446,1.242c1.116,0.828 1.854,1.938 2.214,3.33l-3.276,0.972c-0.288,-0.912 -0.768,-1.608 -1.44,-2.088c-0.672,-0.48 -1.5,-0.72 -2.484,-0.72c-0.96,0 -1.89,0.216 -2.79,0.648c-0.9,0.432 -1.704,1.038 -2.412,1.818c-0.708,0.78 -1.272,1.674 -1.692,2.682c-0.42,1.008 -0.63,2.088 -0.63,3.24c0,1.08 0.192,2.04 0.576,2.88c0.384,0.84 0.918,1.506 1.602,1.998c0.684,0.492 1.47,0.738 2.358,0.738c0.696,0 1.392,-0.132 2.088,-0.396c0.696,-0.264 1.326,-0.618 1.89,-1.062c0.564,-0.444 0.99,-0.93 1.278,-1.458l2.916,0.936c-0.552,0.912 -1.278,1.722 -2.178,2.43c-0.9,0.708 -1.902,1.266 -3.006,1.674c-1.104,0.408 -2.244,0.612 -3.42,0.612Z" />
            <path d="M85.063,375.849c-1.68,0 -3.072,-0.36 -4.176,-1.08c-1.104,-0.72 -1.926,-1.68 -2.466,-2.88c-0.54,-1.2 -0.81,-2.52 -0.81,-3.96c0,-1.584 0.288,-3.072 0.864,-4.464c0.576,-1.392 1.374,-2.622 2.394,-3.69c1.02,-1.068 2.202,-1.902 3.546,-2.502c1.344,-0.6 2.772,-0.9 4.284,-0.9c1.68,-0 3.078,0.36 4.194,1.08c1.116,0.72 1.95,1.68 2.502,2.88c0.552,1.2 0.828,2.532 0.828,3.996c-0,1.56 -0.288,3.036 -0.864,4.428c-0.576,1.392 -1.38,2.622 -2.412,3.69c-1.032,1.068 -2.22,1.902 -3.564,2.502c-1.344,0.6 -2.784,0.9 -4.32,0.9Zm0.54,-2.736c0.936,0 1.842,-0.204 2.718,-0.612c0.876,-0.408 1.656,-0.99 2.34,-1.746c0.684,-0.756 1.23,-1.638 1.638,-2.646c0.408,-1.008 0.612,-2.112 0.612,-3.312c-0,-1.104 -0.18,-2.082 -0.54,-2.934c-0.36,-0.852 -0.888,-1.524 -1.584,-2.016c-0.696,-0.492 -1.56,-0.738 -2.592,-0.738c-0.936,0 -1.836,0.21 -2.7,0.63c-0.864,0.42 -1.644,1.008 -2.34,1.764c-0.696,0.756 -1.248,1.644 -1.656,2.664c-0.408,1.02 -0.612,2.13 -0.612,3.33c-0,1.08 0.18,2.046 0.54,2.898c0.36,0.852 0.894,1.518 1.602,1.998c0.708,0.48 1.566,0.72 2.574,0.72Z" />
            <path d="M103.207,375.849c-2.928,0 -4.392,-1.584 -4.392,-4.752c-0,-0.456 0.036,-0.942 0.108,-1.458c0.072,-0.516 0.168,-1.074 0.288,-1.674l2.412,-11.268l3.132,0l-2.268,10.656c-0.216,0.96 -0.324,1.788 -0.324,2.484c-0,2.184 0.936,3.276 2.808,3.276c0.816,0 1.632,-0.186 2.448,-0.558c0.816,-0.372 1.602,-0.906 2.358,-1.602c0.756,-0.696 1.41,-1.524 1.962,-2.484l2.484,-11.772l3.168,-0l-3.168,14.904c-0.024,0.096 -0.042,0.18 -0.054,0.252c-0.012,0.072 -0.018,0.144 -0.018,0.216c-0,0.432 0.264,0.66 0.792,0.684l-0.576,2.736c-0.264,0.024 -0.498,0.054 -0.702,0.09c-0.204,0.036 -0.39,0.054 -0.558,0.054c-0.648,-0 -1.14,-0.144 -1.476,-0.432c-0.336,-0.288 -0.504,-0.672 -0.504,-1.152c-0,-0.144 0.012,-0.318 0.036,-0.522c0.024,-0.204 0.066,-0.474 0.126,-0.81c0.06,-0.336 0.138,-0.756 0.234,-1.26c-1.08,1.392 -2.352,2.472 -3.816,3.24c-1.464,0.768 -2.964,1.152 -4.5,1.152Z" />
            <path d="M119.983,372.861c-0,-0.168 0.012,-0.342 0.036,-0.522c0.024,-0.18 0.048,-0.354 0.072,-0.522l2.7,-12.636l-2.448,0l0.54,-2.484l2.412,0l1.332,-6.264l3.168,0l-1.332,6.264l3.996,0l-0.54,2.484l-3.96,0l-2.484,11.664c-0.024,0.096 -0.042,0.186 -0.054,0.27c-0.012,0.084 -0.018,0.174 -0.018,0.27c-0,0.504 0.156,0.87 0.468,1.098c0.312,0.228 0.696,0.342 1.152,0.342c0.408,0 0.798,-0.054 1.17,-0.162c0.372,-0.108 0.702,-0.222 0.99,-0.342c0.288,-0.12 0.504,-0.216 0.648,-0.288l0.18,2.52c-0.288,0.192 -0.672,0.384 -1.152,0.576c-0.48,0.192 -1.02,0.342 -1.62,0.45c-0.6,0.108 -1.224,0.162 -1.872,0.162c-0.96,0 -1.764,-0.234 -2.412,-0.702c-0.648,-0.468 -0.972,-1.194 -0.972,-2.178Z" />
            <path d="M138.379,375.849c-1.56,0 -2.892,-0.354 -3.996,-1.062c-1.104,-0.708 -1.944,-1.662 -2.52,-2.862c-0.576,-1.2 -0.864,-2.544 -0.864,-4.032c0,-1.512 0.282,-2.958 0.846,-4.338c0.564,-1.38 1.362,-2.61 2.394,-3.69c1.032,-1.08 2.238,-1.932 3.618,-2.556c1.38,-0.624 2.886,-0.936 4.518,-0.936c1.224,0 2.31,0.192 3.258,0.576c0.948,0.384 1.686,0.948 2.214,1.692c0.528,0.744 0.792,1.68 0.792,2.808c0,1.896 -0.84,3.336 -2.52,4.32c-1.68,0.984 -4.26,1.476 -7.74,1.476c-0.648,0 -1.392,-0.018 -2.232,-0.054c-0.84,-0.036 -1.812,-0.102 -2.916,-0.198l0.432,-2.16c1.056,0.048 1.962,0.096 2.718,0.144c0.756,0.048 1.458,0.072 2.106,0.072c1.824,-0 3.264,-0.156 4.32,-0.468c1.056,-0.312 1.818,-0.744 2.286,-1.296c0.468,-0.552 0.702,-1.176 0.702,-1.872c0,-0.624 -0.15,-1.128 -0.45,-1.512c-0.3,-0.384 -0.72,-0.672 -1.26,-0.864c-0.54,-0.192 -1.182,-0.288 -1.926,-0.288c-1.2,-0 -2.286,0.252 -3.258,0.756c-0.972,0.504 -1.812,1.188 -2.52,2.052c-0.708,0.864 -1.248,1.842 -1.62,2.934c-0.372,1.092 -0.558,2.226 -0.558,3.402c0,0.984 0.168,1.902 0.504,2.754c0.336,0.852 0.852,1.536 1.548,2.052c0.696,0.516 1.572,0.774 2.628,0.774c1.104,-0 2.184,-0.282 3.24,-0.846c1.056,-0.564 1.884,-1.326 2.484,-2.286l2.556,0.756c-0.576,0.912 -1.332,1.728 -2.268,2.448c-0.936,0.72 -1.962,1.284 -3.078,1.692c-1.116,0.408 -2.262,0.612 -3.438,0.612Z" />
            <path d="M162.643,356.697l3.168,0l-3.996,18.792l-3.168,-0l3.996,-18.792Zm1.584,-7.488l3.168,-0l-0.828,3.96l-3.168,0l0.828,-3.96Z" />
            <path d="M170.779,356.697l2.88,0l-0.864,4.032c0.648,-0.888 1.422,-1.656 2.322,-2.304c0.9,-0.648 1.866,-1.152 2.898,-1.512c1.032,-0.36 2.064,-0.54 3.096,-0.54c1.008,0 1.812,0.186 2.412,0.558c0.6,0.372 1.032,0.888 1.296,1.548c0.264,0.66 0.396,1.434 0.396,2.322c0,0.528 -0.042,1.08 -0.126,1.656c-0.084,0.576 -0.186,1.176 -0.306,1.8l-2.376,11.232l-3.168,-0l2.232,-10.512c0.12,-0.528 0.204,-1.014 0.252,-1.458c0.048,-0.444 0.072,-0.858 0.072,-1.242c0,-1.056 -0.216,-1.83 -0.648,-2.322c-0.432,-0.492 -1.068,-0.738 -1.908,-0.738c-0.792,0 -1.632,0.216 -2.52,0.648c-0.888,0.432 -1.716,1.014 -2.484,1.746c-0.768,0.732 -1.392,1.578 -1.872,2.538l-2.412,11.34l-3.168,0l3.996,-18.792Z" />
            <path d="M188.455,372.861c0,-0.168 0.012,-0.342 0.036,-0.522c0.024,-0.18 0.048,-0.354 0.072,-0.522l2.7,-12.636l-2.448,0l0.54,-2.484l2.412,0l1.332,-6.264l3.168,0l-1.332,6.264l3.996,0l-0.54,2.484l-3.96,0l-2.484,11.664c-0.024,0.096 -0.042,0.186 -0.054,0.27c-0.012,0.084 -0.018,0.174 -0.018,0.27c0,0.504 0.156,0.87 0.468,1.098c0.312,0.228 0.696,0.342 1.152,0.342c0.408,0 0.798,-0.054 1.17,-0.162c0.372,-0.108 0.702,-0.222 0.99,-0.342c0.288,-0.12 0.504,-0.216 0.648,-0.288l0.18,2.52c-0.288,0.192 -0.672,0.384 -1.152,0.576c-0.48,0.192 -1.02,0.342 -1.62,0.45c-0.6,0.108 -1.224,0.162 -1.872,0.162c-0.96,0 -1.764,-0.234 -2.412,-0.702c-0.648,-0.468 -0.972,-1.194 -0.972,-2.178Z" />
            <path d="M204.475,375.849c-2.928,0 -4.392,-1.584 -4.392,-4.752c0,-0.456 0.036,-0.942 0.108,-1.458c0.072,-0.516 0.168,-1.074 0.288,-1.674l2.412,-11.268l3.132,0l-2.268,10.656c-0.216,0.96 -0.324,1.788 -0.324,2.484c0,2.184 0.936,3.276 2.808,3.276c0.816,0 1.632,-0.186 2.448,-0.558c0.816,-0.372 1.602,-0.906 2.358,-1.602c0.756,-0.696 1.41,-1.524 1.962,-2.484l2.484,-11.772l3.168,-0l-3.168,14.904c-0.024,0.096 -0.042,0.18 -0.054,0.252c-0.012,0.072 -0.018,0.144 -0.018,0.216c0,0.432 0.264,0.66 0.792,0.684l-0.576,2.736c-0.264,0.024 -0.498,0.054 -0.702,0.09c-0.204,0.036 -0.39,0.054 -0.558,0.054c-0.648,-0 -1.14,-0.144 -1.476,-0.432c-0.336,-0.288 -0.504,-0.672 -0.504,-1.152c-0,-0.144 0.012,-0.318 0.036,-0.522c0.024,-0.204 0.066,-0.474 0.126,-0.81c0.06,-0.336 0.138,-0.756 0.234,-1.26c-1.08,1.392 -2.352,2.472 -3.816,3.24c-1.464,0.768 -2.964,1.152 -4.5,1.152Z" />
            <path d="M223.843,356.697l3.168,0l-3.996,18.792l-3.168,-0l3.996,-18.792Zm1.584,-7.488l3.168,-0l-0.828,3.96l-3.168,0l0.828,-3.96Z" />
            <path d="M229.531,372.861c0,-0.168 0.012,-0.342 0.036,-0.522c0.024,-0.18 0.048,-0.354 0.072,-0.522l2.7,-12.636l-2.448,0l0.54,-2.484l2.412,0l1.332,-6.264l3.168,0l-1.332,6.264l3.996,0l-0.54,2.484l-3.96,0l-2.484,11.664c-0.024,0.096 -0.042,0.186 -0.054,0.27c-0.012,0.084 -0.018,0.174 -0.018,0.27c0,0.504 0.156,0.87 0.468,1.098c0.312,0.228 0.696,0.342 1.152,0.342c0.408,0 0.798,-0.054 1.17,-0.162c0.372,-0.108 0.702,-0.222 0.99,-0.342c0.288,-0.12 0.504,-0.216 0.648,-0.288l0.18,2.52c-0.288,0.192 -0.672,0.384 -1.152,0.576c-0.48,0.192 -1.02,0.342 -1.62,0.45c-0.6,0.108 -1.224,0.162 -1.872,0.162c-0.96,0 -1.764,-0.234 -2.412,-0.702c-0.648,-0.468 -0.972,-1.194 -0.972,-2.178Z" />
            <path d="M244.147,356.697l3.168,0l-3.996,18.792l-3.168,-0l3.996,-18.792Zm1.584,-7.488l3.168,-0l-0.828,3.96l-3.168,0l0.828,-3.96Z" />
            <path d="M250.123,356.697l3.276,0l2.124,16.02c0.96,-1.344 1.86,-2.682 2.7,-4.014c0.84,-1.332 1.608,-2.664 2.304,-3.996c0.696,-1.332 1.314,-2.67 1.854,-4.014c0.54,-1.344 0.978,-2.676 1.314,-3.996l3.024,0c-0.864,3.12 -2.172,6.246 -3.924,9.378c-1.752,3.132 -3.84,6.27 -6.264,9.414l-3.42,0l-2.988,-18.792Z" />
            <path d="M274.279,375.849c-1.56,0 -2.892,-0.354 -3.996,-1.062c-1.104,-0.708 -1.944,-1.662 -2.52,-2.862c-0.576,-1.2 -0.864,-2.544 -0.864,-4.032c-0,-1.512 0.282,-2.958 0.846,-4.338c0.564,-1.38 1.362,-2.61 2.394,-3.69c1.032,-1.08 2.238,-1.932 3.618,-2.556c1.38,-0.624 2.886,-0.936 4.518,-0.936c1.224,0 2.31,0.192 3.258,0.576c0.948,0.384 1.686,0.948 2.214,1.692c0.528,0.744 0.792,1.68 0.792,2.808c0,1.896 -0.84,3.336 -2.52,4.32c-1.68,0.984 -4.26,1.476 -7.74,1.476c-0.648,0 -1.392,-0.018 -2.232,-0.054c-0.84,-0.036 -1.812,-0.102 -2.916,-0.198l0.432,-2.16c1.056,0.048 1.962,0.096 2.718,0.144c0.756,0.048 1.458,0.072 2.106,0.072c1.824,-0 3.264,-0.156 4.32,-0.468c1.056,-0.312 1.818,-0.744 2.286,-1.296c0.468,-0.552 0.702,-1.176 0.702,-1.872c0,-0.624 -0.15,-1.128 -0.45,-1.512c-0.3,-0.384 -0.72,-0.672 -1.26,-0.864c-0.54,-0.192 -1.182,-0.288 -1.926,-0.288c-1.2,-0 -2.286,0.252 -3.258,0.756c-0.972,0.504 -1.812,1.188 -2.52,2.052c-0.708,0.864 -1.248,1.842 -1.62,2.934c-0.372,1.092 -0.558,2.226 -0.558,3.402c-0,0.984 0.168,1.902 0.504,2.754c0.336,0.852 0.852,1.536 1.548,2.052c0.696,0.516 1.572,0.774 2.628,0.774c1.104,-0 2.184,-0.282 3.24,-0.846c1.056,-0.564 1.884,-1.326 2.484,-2.286l2.556,0.756c-0.576,0.912 -1.332,1.728 -2.268,2.448c-0.936,0.72 -1.962,1.284 -3.078,1.692c-1.116,0.408 -2.262,0.612 -3.438,0.612Z" />
        </g>
        <g id="movementConscient">
            <path d="M407.392,332.981l3.42,0l5.112,16.596l12.204,-16.596l3.384,0l-5.436,25.56l-3.24,0l4.212,-19.764l-11.124,15.156l-1.836,0l-4.68,-15.156l-4.212,19.764l-3.24,0l5.436,-25.56Z"/>
            <path d="M439.324,358.901c-1.68,0 -3.072,-0.36 -4.176,-1.08c-1.104,-0.72 -1.926,-1.68 -2.466,-2.88c-0.54,-1.2 -0.81,-2.52 -0.81,-3.96c-0,-1.584 0.288,-3.072 0.864,-4.464c0.576,-1.392 1.374,-2.622 2.394,-3.69c1.02,-1.068 2.202,-1.902 3.546,-2.502c1.344,-0.6 2.772,-0.9 4.284,-0.9c1.68,-0 3.078,0.36 4.194,1.08c1.116,0.72 1.95,1.68 2.502,2.88c0.552,1.2 0.828,2.532 0.828,3.996c0,1.56 -0.288,3.036 -0.864,4.428c-0.576,1.392 -1.38,2.622 -2.412,3.69c-1.032,1.068 -2.22,1.902 -3.564,2.502c-1.344,0.6 -2.784,0.9 -4.32,0.9Zm0.54,-2.736c0.936,0 1.842,-0.204 2.718,-0.612c0.876,-0.408 1.656,-0.99 2.34,-1.746c0.684,-0.756 1.23,-1.638 1.638,-2.646c0.408,-1.008 0.612,-2.112 0.612,-3.312c-0,-1.104 -0.18,-2.082 -0.54,-2.934c-0.36,-0.852 -0.888,-1.524 -1.584,-2.016c-0.696,-0.492 -1.56,-0.738 -2.592,-0.738c-0.936,0 -1.836,0.21 -2.7,0.63c-0.864,0.42 -1.644,1.008 -2.34,1.764c-0.696,0.756 -1.248,1.644 -1.656,2.664c-0.408,1.02 -0.612,2.13 -0.612,3.33c-0,1.08 0.18,2.046 0.54,2.898c0.36,0.852 0.894,1.518 1.602,1.998c0.708,0.48 1.566,0.72 2.574,0.72Z"/>
            <path d="M457.468,358.901c-2.928,0 -4.392,-1.584 -4.392,-4.752c-0,-0.456 0.036,-0.942 0.108,-1.458c0.072,-0.516 0.168,-1.074 0.288,-1.674l2.412,-11.268l3.132,0l-2.268,10.656c-0.216,0.96 -0.324,1.788 -0.324,2.484c-0,2.184 0.936,3.276 2.808,3.276c0.816,0 1.632,-0.186 2.448,-0.558c0.816,-0.372 1.602,-0.906 2.358,-1.602c0.756,-0.696 1.41,-1.524 1.962,-2.484l2.484,-11.772l3.168,-0l-3.168,14.904c-0.024,0.096 -0.042,0.18 -0.054,0.252c-0.012,0.072 -0.018,0.144 -0.018,0.216c-0,0.432 0.264,0.66 0.792,0.684l-0.576,2.736c-0.264,0.024 -0.498,0.054 -0.702,0.09c-0.204,0.036 -0.39,0.054 -0.558,0.054c-0.648,-0 -1.14,-0.144 -1.476,-0.432c-0.336,-0.288 -0.504,-0.672 -0.504,-1.152c0,-0.144 0.012,-0.318 0.036,-0.522c0.024,-0.204 0.066,-0.474 0.126,-0.81c0.06,-0.336 0.138,-0.756 0.234,-1.26c-1.08,1.392 -2.352,2.472 -3.816,3.24c-1.464,0.768 -2.964,1.152 -4.5,1.152Z"/>
            <path d="M474.676,339.749l3.276,0l2.124,16.02c0.96,-1.344 1.86,-2.682 2.7,-4.014c0.84,-1.332 1.608,-2.664 2.304,-3.996c0.696,-1.332 1.314,-2.67 1.854,-4.014c0.54,-1.344 0.978,-2.676 1.314,-3.996l3.024,0c-0.864,3.12 -2.172,6.246 -3.924,9.378c-1.752,3.132 -3.84,6.27 -6.264,9.414l-3.42,0l-2.988,-18.792Z"/>
            <path d="M498.832,358.901c-1.56,0 -2.892,-0.354 -3.996,-1.062c-1.104,-0.708 -1.944,-1.662 -2.52,-2.862c-0.576,-1.2 -0.864,-2.544 -0.864,-4.032c-0,-1.512 0.282,-2.958 0.846,-4.338c0.564,-1.38 1.362,-2.61 2.394,-3.69c1.032,-1.08 2.238,-1.932 3.618,-2.556c1.38,-0.624 2.886,-0.936 4.518,-0.936c1.224,0 2.31,0.192 3.258,0.576c0.948,0.384 1.686,0.948 2.214,1.692c0.528,0.744 0.792,1.68 0.792,2.808c0,1.896 -0.84,3.336 -2.52,4.32c-1.68,0.984 -4.26,1.476 -7.74,1.476c-0.648,0 -1.392,-0.018 -2.232,-0.054c-0.84,-0.036 -1.812,-0.102 -2.916,-0.198l0.432,-2.16c1.056,0.048 1.962,0.096 2.718,0.144c0.756,0.048 1.458,0.072 2.106,0.072c1.824,-0 3.264,-0.156 4.32,-0.468c1.056,-0.312 1.818,-0.744 2.286,-1.296c0.468,-0.552 0.702,-1.176 0.702,-1.872c0,-0.624 -0.15,-1.128 -0.45,-1.512c-0.3,-0.384 -0.72,-0.672 -1.26,-0.864c-0.54,-0.192 -1.182,-0.288 -1.926,-0.288c-1.2,-0 -2.286,0.252 -3.258,0.756c-0.972,0.504 -1.812,1.188 -2.52,2.052c-0.708,0.864 -1.248,1.842 -1.62,2.934c-0.372,1.092 -0.558,2.226 -0.558,3.402c-0,0.984 0.168,1.902 0.504,2.754c0.336,0.852 0.852,1.536 1.548,2.052c0.696,0.516 1.572,0.774 2.628,0.774c1.104,-0 2.184,-0.282 3.24,-0.846c1.056,-0.564 1.884,-1.326 2.484,-2.286l2.556,0.756c-0.576,0.912 -1.332,1.728 -2.268,2.448c-0.936,0.72 -1.962,1.284 -3.078,1.692c-1.116,0.408 -2.262,0.612 -3.438,0.612Z"/>
            <path d="M514.204,339.749l2.88,0l-0.864,4.032c0.96,-1.344 2.112,-2.406 3.456,-3.186c1.344,-0.78 2.712,-1.17 4.104,-1.17c0.936,0 1.722,0.18 2.358,0.54c0.636,0.36 1.122,0.876 1.458,1.548c0.336,0.672 0.516,1.5 0.54,2.484c0.744,-1.008 1.524,-1.848 2.34,-2.52c0.816,-0.672 1.68,-1.182 2.592,-1.53c0.912,-0.348 1.836,-0.522 2.772,-0.522c1.032,-0 1.848,0.192 2.448,0.576c0.6,0.384 1.038,0.918 1.314,1.602c0.276,0.684 0.414,1.482 0.414,2.394c0,0.504 -0.036,1.032 -0.108,1.584c-0.072,0.552 -0.168,1.128 -0.288,1.728l-2.412,11.232l-3.168,-0l2.232,-10.512c0.216,-1.008 0.324,-1.884 0.324,-2.628c0,-1.056 -0.222,-1.842 -0.666,-2.358c-0.444,-0.516 -1.086,-0.774 -1.926,-0.774c-0.792,-0 -1.584,0.21 -2.376,0.63c-0.792,0.42 -1.53,1.002 -2.214,1.746c-0.684,0.744 -1.266,1.608 -1.746,2.592l-2.376,11.304l-3.168,-0l2.232,-10.512c0.12,-0.528 0.204,-1.008 0.252,-1.44c0.048,-0.432 0.072,-0.84 0.072,-1.224c0,-1.056 -0.216,-1.836 -0.648,-2.34c-0.432,-0.504 -1.068,-0.756 -1.908,-0.756c-1.176,-0 -2.346,0.45 -3.51,1.35c-1.164,0.9 -2.106,2.094 -2.826,3.582l-2.412,11.34l-3.168,-0l3.996,-18.792Z"/>
            <path d="M550.024,358.901c-1.56,0 -2.892,-0.354 -3.996,-1.062c-1.104,-0.708 -1.944,-1.662 -2.52,-2.862c-0.576,-1.2 -0.864,-2.544 -0.864,-4.032c0,-1.512 0.282,-2.958 0.846,-4.338c0.564,-1.38 1.362,-2.61 2.394,-3.69c1.032,-1.08 2.238,-1.932 3.618,-2.556c1.38,-0.624 2.886,-0.936 4.518,-0.936c1.224,0 2.31,0.192 3.258,0.576c0.948,0.384 1.686,0.948 2.214,1.692c0.528,0.744 0.792,1.68 0.792,2.808c-0,1.896 -0.84,3.336 -2.52,4.32c-1.68,0.984 -4.26,1.476 -7.74,1.476c-0.648,0 -1.392,-0.018 -2.232,-0.054c-0.84,-0.036 -1.812,-0.102 -2.916,-0.198l0.432,-2.16c1.056,0.048 1.962,0.096 2.718,0.144c0.756,0.048 1.458,0.072 2.106,0.072c1.824,-0 3.264,-0.156 4.32,-0.468c1.056,-0.312 1.818,-0.744 2.286,-1.296c0.468,-0.552 0.702,-1.176 0.702,-1.872c-0,-0.624 -0.15,-1.128 -0.45,-1.512c-0.3,-0.384 -0.72,-0.672 -1.26,-0.864c-0.54,-0.192 -1.182,-0.288 -1.926,-0.288c-1.2,-0 -2.286,0.252 -3.258,0.756c-0.972,0.504 -1.812,1.188 -2.52,2.052c-0.708,0.864 -1.248,1.842 -1.62,2.934c-0.372,1.092 -0.558,2.226 -0.558,3.402c0,0.984 0.168,1.902 0.504,2.754c0.336,0.852 0.852,1.536 1.548,2.052c0.696,0.516 1.572,0.774 2.628,0.774c1.104,-0 2.184,-0.282 3.24,-0.846c1.056,-0.564 1.884,-1.326 2.484,-2.286l2.556,0.756c-0.576,0.912 -1.332,1.728 -2.268,2.448c-0.936,0.72 -1.962,1.284 -3.078,1.692c-1.116,0.408 -2.262,0.612 -3.438,0.612Z"/>
            <path d="M565.396,339.749l2.88,0l-0.864,4.032c0.648,-0.888 1.422,-1.656 2.322,-2.304c0.9,-0.648 1.866,-1.152 2.898,-1.512c1.032,-0.36 2.064,-0.54 3.096,-0.54c1.008,0 1.812,0.186 2.412,0.558c0.6,0.372 1.032,0.888 1.296,1.548c0.264,0.66 0.396,1.434 0.396,2.322c0,0.528 -0.042,1.08 -0.126,1.656c-0.084,0.576 -0.186,1.176 -0.306,1.8l-2.376,11.232l-3.168,-0l2.232,-10.512c0.12,-0.528 0.204,-1.014 0.252,-1.458c0.048,-0.444 0.072,-0.858 0.072,-1.242c0,-1.056 -0.216,-1.83 -0.648,-2.322c-0.432,-0.492 -1.068,-0.738 -1.908,-0.738c-0.792,0 -1.632,0.216 -2.52,0.648c-0.888,0.432 -1.716,1.014 -2.484,1.746c-0.768,0.732 -1.392,1.578 -1.872,2.538l-2.412,11.34l-3.168,0l3.996,-18.792Z"/>
            <path d="M583.072,355.913c0,-0.168 0.012,-0.342 0.036,-0.522c0.024,-0.18 0.048,-0.354 0.072,-0.522l2.7,-12.636l-2.448,0l0.54,-2.484l2.412,0l1.332,-6.264l3.168,0l-1.332,6.264l3.996,0l-0.54,2.484l-3.96,0l-2.484,11.664c-0.024,0.096 -0.042,0.186 -0.054,0.27c-0.012,0.084 -0.018,0.174 -0.018,0.27c0,0.504 0.156,0.87 0.468,1.098c0.312,0.228 0.696,0.342 1.152,0.342c0.408,0 0.798,-0.054 1.17,-0.162c0.372,-0.108 0.702,-0.222 0.99,-0.342c0.288,-0.12 0.504,-0.216 0.648,-0.288l0.18,2.52c-0.288,0.192 -0.672,0.384 -1.152,0.576c-0.48,0.192 -1.02,0.342 -1.62,0.45c-0.6,0.108 -1.224,0.162 -1.872,0.162c-0.96,0 -1.764,-0.234 -2.412,-0.702c-0.648,-0.468 -0.972,-1.194 -0.972,-2.178Z"/>
            <path d="M409.408,388.901c-1.584,0 -2.922,-0.36 -4.014,-1.08c-1.092,-0.72 -1.926,-1.68 -2.502,-2.88c-0.576,-1.2 -0.864,-2.532 -0.864,-3.996c-0,-1.512 0.288,-2.958 0.864,-4.338c0.576,-1.38 1.374,-2.61 2.394,-3.69c1.02,-1.08 2.22,-1.932 3.6,-2.556c1.38,-0.624 2.874,-0.936 4.482,-0.936c1.848,-0 3.33,0.414 4.446,1.242c1.116,0.828 1.854,1.938 2.214,3.33l-3.276,0.972c-0.288,-0.912 -0.768,-1.608 -1.44,-2.088c-0.672,-0.48 -1.5,-0.72 -2.484,-0.72c-0.96,0 -1.89,0.216 -2.79,0.648c-0.9,0.432 -1.704,1.038 -2.412,1.818c-0.708,0.78 -1.272,1.674 -1.692,2.682c-0.42,1.008 -0.63,2.088 -0.63,3.24c-0,1.08 0.192,2.04 0.576,2.88c0.384,0.84 0.918,1.506 1.602,1.998c0.684,0.492 1.47,0.738 2.358,0.738c0.696,0 1.392,-0.132 2.088,-0.396c0.696,-0.264 1.326,-0.618 1.89,-1.062c0.564,-0.444 0.99,-0.93 1.278,-1.458l2.916,0.936c-0.552,0.912 -1.278,1.722 -2.178,2.43c-0.9,0.708 -1.902,1.266 -3.006,1.674c-1.104,0.408 -2.244,0.612 -3.42,0.612Z"/>
            <path d="M428.596,388.901c-1.68,0 -3.072,-0.36 -4.176,-1.08c-1.104,-0.72 -1.926,-1.68 -2.466,-2.88c-0.54,-1.2 -0.81,-2.52 -0.81,-3.96c0,-1.584 0.288,-3.072 0.864,-4.464c0.576,-1.392 1.374,-2.622 2.394,-3.69c1.02,-1.068 2.202,-1.902 3.546,-2.502c1.344,-0.6 2.772,-0.9 4.284,-0.9c1.68,-0 3.078,0.36 4.194,1.08c1.116,0.72 1.95,1.68 2.502,2.88c0.552,1.2 0.828,2.532 0.828,3.996c0,1.56 -0.288,3.036 -0.864,4.428c-0.576,1.392 -1.38,2.622 -2.412,3.69c-1.032,1.068 -2.22,1.902 -3.564,2.502c-1.344,0.6 -2.784,0.9 -4.32,0.9Zm0.54,-2.736c0.936,0 1.842,-0.204 2.718,-0.612c0.876,-0.408 1.656,-0.99 2.34,-1.746c0.684,-0.756 1.23,-1.638 1.638,-2.646c0.408,-1.008 0.612,-2.112 0.612,-3.312c-0,-1.104 -0.18,-2.082 -0.54,-2.934c-0.36,-0.852 -0.888,-1.524 -1.584,-2.016c-0.696,-0.492 -1.56,-0.738 -2.592,-0.738c-0.936,0 -1.836,0.21 -2.7,0.63c-0.864,0.42 -1.644,1.008 -2.34,1.764c-0.696,0.756 -1.248,1.644 -1.656,2.664c-0.408,1.02 -0.612,2.13 -0.612,3.33c0,1.08 0.18,2.046 0.54,2.898c0.36,0.852 0.894,1.518 1.602,1.998c0.708,0.48 1.566,0.72 2.574,0.72Z"/>
            <path d="M445.336,369.749l2.88,0l-0.864,4.032c0.648,-0.888 1.422,-1.656 2.322,-2.304c0.9,-0.648 1.866,-1.152 2.898,-1.512c1.032,-0.36 2.064,-0.54 3.096,-0.54c1.008,0 1.812,0.186 2.412,0.558c0.6,0.372 1.032,0.888 1.296,1.548c0.264,0.66 0.396,1.434 0.396,2.322c-0,0.528 -0.042,1.08 -0.126,1.656c-0.084,0.576 -0.186,1.176 -0.306,1.8l-2.376,11.232l-3.168,-0l2.232,-10.512c0.12,-0.528 0.204,-1.014 0.252,-1.458c0.048,-0.444 0.072,-0.858 0.072,-1.242c-0,-1.056 -0.216,-1.83 -0.648,-2.322c-0.432,-0.492 -1.068,-0.738 -1.908,-0.738c-0.792,0 -1.632,0.216 -2.52,0.648c-0.888,0.432 -1.716,1.014 -2.484,1.746c-0.768,0.732 -1.392,1.578 -1.872,2.538l-2.412,11.34l-3.168,0l3.996,-18.792Z"/>
            <path d="M468.088,388.901c-1.512,0 -2.916,-0.234 -4.212,-0.702c-1.296,-0.468 -2.352,-1.146 -3.168,-2.034l1.8,-2.124c0.864,0.816 1.782,1.422 2.754,1.818c0.972,0.396 2.01,0.594 3.114,0.594c0.96,0 1.806,-0.138 2.538,-0.414c0.732,-0.276 1.302,-0.672 1.71,-1.188c0.408,-0.516 0.612,-1.11 0.612,-1.782c-0,-0.864 -0.36,-1.458 -1.08,-1.782c-0.72,-0.324 -1.788,-0.69 -3.204,-1.098c-1.176,-0.36 -2.154,-0.696 -2.934,-1.008c-0.78,-0.312 -1.356,-0.714 -1.728,-1.206c-0.372,-0.492 -0.558,-1.17 -0.558,-2.034c-0,-1.296 0.36,-2.43 1.08,-3.402c0.72,-0.972 1.692,-1.734 2.916,-2.286c1.224,-0.552 2.604,-0.828 4.14,-0.828c1.416,-0 2.652,0.228 3.708,0.684c1.056,0.456 1.92,1.056 2.592,1.8l-1.836,1.908c-0.6,-0.696 -1.272,-1.2 -2.016,-1.512c-0.744,-0.312 -1.608,-0.468 -2.592,-0.468c-0.936,-0 -1.77,0.126 -2.502,0.378c-0.732,0.252 -1.308,0.63 -1.728,1.134c-0.42,0.504 -0.63,1.128 -0.63,1.872c0,0.744 0.264,1.266 0.792,1.566c0.528,0.3 1.452,0.63 2.772,0.99c1.296,0.36 2.394,0.738 3.294,1.134c0.9,0.396 1.578,0.882 2.034,1.458c0.456,0.576 0.684,1.344 0.684,2.304c0,1.176 -0.342,2.232 -1.026,3.168c-0.684,0.936 -1.65,1.68 -2.898,2.232c-1.248,0.552 -2.724,0.828 -4.428,0.828Z"/>
            <path d="M486.844,388.901c-1.584,0 -2.922,-0.36 -4.014,-1.08c-1.092,-0.72 -1.926,-1.68 -2.502,-2.88c-0.576,-1.2 -0.864,-2.532 -0.864,-3.996c0,-1.512 0.288,-2.958 0.864,-4.338c0.576,-1.38 1.374,-2.61 2.394,-3.69c1.02,-1.08 2.22,-1.932 3.6,-2.556c1.38,-0.624 2.874,-0.936 4.482,-0.936c1.848,-0 3.33,0.414 4.446,1.242c1.116,0.828 1.854,1.938 2.214,3.33l-3.276,0.972c-0.288,-0.912 -0.768,-1.608 -1.44,-2.088c-0.672,-0.48 -1.5,-0.72 -2.484,-0.72c-0.96,0 -1.89,0.216 -2.79,0.648c-0.9,0.432 -1.704,1.038 -2.412,1.818c-0.708,0.78 -1.272,1.674 -1.692,2.682c-0.42,1.008 -0.63,2.088 -0.63,3.24c-0,1.08 0.192,2.04 0.576,2.88c0.384,0.84 0.918,1.506 1.602,1.998c0.684,0.492 1.47,0.738 2.358,0.738c0.696,0 1.392,-0.132 2.088,-0.396c0.696,-0.264 1.326,-0.618 1.89,-1.062c0.564,-0.444 0.99,-0.93 1.278,-1.458l2.916,0.936c-0.552,0.912 -1.278,1.722 -2.178,2.43c-0.9,0.708 -1.902,1.266 -3.006,1.674c-1.104,0.408 -2.244,0.612 -3.42,0.612Z"/>
            <path d="M501.964,369.749l3.168,0l-3.996,18.792l-3.168,-0l3.996,-18.792Zm1.584,-7.488l3.168,-0l-0.828,3.96l-3.168,0l0.828,-3.96Z"/>
            <path d="M514.132,388.901c-1.56,0 -2.892,-0.354 -3.996,-1.062c-1.104,-0.708 -1.944,-1.662 -2.52,-2.862c-0.576,-1.2 -0.864,-2.544 -0.864,-4.032c-0,-1.512 0.282,-2.958 0.846,-4.338c0.564,-1.38 1.362,-2.61 2.394,-3.69c1.032,-1.08 2.238,-1.932 3.618,-2.556c1.38,-0.624 2.886,-0.936 4.518,-0.936c1.224,0 2.31,0.192 3.258,0.576c0.948,0.384 1.686,0.948 2.214,1.692c0.528,0.744 0.792,1.68 0.792,2.808c-0,1.896 -0.84,3.336 -2.52,4.32c-1.68,0.984 -4.26,1.476 -7.74,1.476c-0.648,0 -1.392,-0.018 -2.232,-0.054c-0.84,-0.036 -1.812,-0.102 -2.916,-0.198l0.432,-2.16c1.056,0.048 1.962,0.096 2.718,0.144c0.756,0.048 1.458,0.072 2.106,0.072c1.824,-0 3.264,-0.156 4.32,-0.468c1.056,-0.312 1.818,-0.744 2.286,-1.296c0.468,-0.552 0.702,-1.176 0.702,-1.872c-0,-0.624 -0.15,-1.128 -0.45,-1.512c-0.3,-0.384 -0.72,-0.672 -1.26,-0.864c-0.54,-0.192 -1.182,-0.288 -1.926,-0.288c-1.2,-0 -2.286,0.252 -3.258,0.756c-0.972,0.504 -1.812,1.188 -2.52,2.052c-0.708,0.864 -1.248,1.842 -1.62,2.934c-0.372,1.092 -0.558,2.226 -0.558,3.402c-0,0.984 0.168,1.902 0.504,2.754c0.336,0.852 0.852,1.536 1.548,2.052c0.696,0.516 1.572,0.774 2.628,0.774c1.104,-0 2.184,-0.282 3.24,-0.846c1.056,-0.564 1.884,-1.326 2.484,-2.286l2.556,0.756c-0.576,0.912 -1.332,1.728 -2.268,2.448c-0.936,0.72 -1.962,1.284 -3.078,1.692c-1.116,0.408 -2.262,0.612 -3.438,0.612Z"/>
            <path d="M529.504,369.749l2.88,0l-0.864,4.032c0.648,-0.888 1.422,-1.656 2.322,-2.304c0.9,-0.648 1.866,-1.152 2.898,-1.512c1.032,-0.36 2.064,-0.54 3.096,-0.54c1.008,0 1.812,0.186 2.412,0.558c0.6,0.372 1.032,0.888 1.296,1.548c0.264,0.66 0.396,1.434 0.396,2.322c-0,0.528 -0.042,1.08 -0.126,1.656c-0.084,0.576 -0.186,1.176 -0.306,1.8l-2.376,11.232l-3.168,-0l2.232,-10.512c0.12,-0.528 0.204,-1.014 0.252,-1.458c0.048,-0.444 0.072,-0.858 0.072,-1.242c0,-1.056 -0.216,-1.83 -0.648,-2.322c-0.432,-0.492 -1.068,-0.738 -1.908,-0.738c-0.792,0 -1.632,0.216 -2.52,0.648c-0.888,0.432 -1.716,1.014 -2.484,1.746c-0.768,0.732 -1.392,1.578 -1.872,2.538l-2.412,11.34l-3.168,0l3.996,-18.792Z"/>
            <path d="M547.18,385.913c-0,-0.168 0.012,-0.342 0.036,-0.522c0.024,-0.18 0.048,-0.354 0.072,-0.522l2.7,-12.636l-2.448,0l0.54,-2.484l2.412,0l1.332,-6.264l3.168,0l-1.332,6.264l3.996,0l-0.54,2.484l-3.96,0l-2.484,11.664c-0.024,0.096 -0.042,0.186 -0.054,0.27c-0.012,0.084 -0.018,0.174 -0.018,0.27c0,0.504 0.156,0.87 0.468,1.098c0.312,0.228 0.696,0.342 1.152,0.342c0.408,0 0.798,-0.054 1.17,-0.162c0.372,-0.108 0.702,-0.222 0.99,-0.342c0.288,-0.12 0.504,-0.216 0.648,-0.288l0.18,2.52c-0.288,0.192 -0.672,0.384 -1.152,0.576c-0.48,0.192 -1.02,0.342 -1.62,0.45c-0.6,0.108 -1.224,0.162 -1.872,0.162c-0.96,0 -1.764,-0.234 -2.412,-0.702c-0.648,-0.468 -0.972,-1.194 -0.972,-2.178Z"/>
        </g>
        <g id="emotions">
            <path d="M97.127,329.653l0,3.564l-17.532,-0l0,-25.56l17.208,-0l0,3.564l-13.176,-0l0,7.272l11.412,-0l0,3.348l-11.412,-0l0,7.812l13.5,-0Zm-7.164,-24.66l-2.592,-0.792l2.052,-3.96l3.78,-0l-3.24,4.752Z" />
            <path d="M122.795,333.217l0,-18.216l-7.524,13.824l-2.376,0l-7.56,-13.824l0,18.216l-4.032,0l0,-25.56l4.32,0l8.46,15.624l8.46,-15.624l4.32,0l0,25.56l-4.068,0Z" />
            <path d="M143.243,333.397c-1.848,0 -3.516,-0.36 -5.004,-1.08c-1.488,-0.72 -2.772,-1.698 -3.852,-2.934c-1.08,-1.236 -1.914,-2.628 -2.502,-4.176c-0.588,-1.548 -0.882,-3.138 -0.882,-4.77c0,-1.704 0.312,-3.33 0.936,-4.878c0.624,-1.548 1.488,-2.928 2.592,-4.14c1.104,-1.212 2.406,-2.172 3.906,-2.88c1.5,-0.708 3.126,-1.062 4.878,-1.062c1.824,-0 3.486,0.372 4.986,1.116c1.5,0.744 2.784,1.74 3.852,2.988c1.068,1.248 1.896,2.64 2.484,4.176c0.588,1.536 0.882,3.108 0.882,4.716c0,1.704 -0.306,3.33 -0.918,4.878c-0.612,1.548 -1.47,2.928 -2.574,4.14c-1.104,1.212 -2.406,2.166 -3.906,2.862c-1.5,0.696 -3.126,1.044 -4.878,1.044Zm-8.136,-12.96c0,1.2 0.192,2.364 0.576,3.492c0.384,1.128 0.93,2.13 1.638,3.006c0.708,0.876 1.566,1.566 2.574,2.07c1.008,0.504 2.136,0.756 3.384,0.756c1.296,-0 2.448,-0.264 3.456,-0.792c1.008,-0.528 1.854,-1.242 2.538,-2.142c0.684,-0.9 1.206,-1.908 1.566,-3.024c0.36,-1.116 0.54,-2.238 0.54,-3.366c0,-1.2 -0.186,-2.358 -0.558,-3.474c-0.372,-1.116 -0.918,-2.112 -1.638,-2.988c-0.72,-0.876 -1.578,-1.566 -2.574,-2.07c-0.996,-0.504 -2.106,-0.756 -3.33,-0.756c-1.296,-0 -2.448,0.264 -3.456,0.792c-1.008,0.528 -1.86,1.236 -2.556,2.124c-0.696,0.888 -1.23,1.884 -1.602,2.988c-0.372,1.104 -0.558,2.232 -0.558,3.384Z" />
            <path d="M177.731,311.221l-8.496,0l0,21.996l-4.068,0l0,-21.996l-8.532,0l0,-3.564l21.096,0l0,3.564Z" />
            <rect x="181.151" y="307.657" width="4.032" height="25.56" />
            <path d="M201.563,333.397c-1.848,0 -3.516,-0.36 -5.004,-1.08c-1.488,-0.72 -2.772,-1.698 -3.852,-2.934c-1.08,-1.236 -1.914,-2.628 -2.502,-4.176c-0.588,-1.548 -0.882,-3.138 -0.882,-4.77c0,-1.704 0.312,-3.33 0.936,-4.878c0.624,-1.548 1.488,-2.928 2.592,-4.14c1.104,-1.212 2.406,-2.172 3.906,-2.88c1.5,-0.708 3.126,-1.062 4.878,-1.062c1.824,-0 3.486,0.372 4.986,1.116c1.5,0.744 2.784,1.74 3.852,2.988c1.068,1.248 1.896,2.64 2.484,4.176c0.588,1.536 0.882,3.108 0.882,4.716c-0,1.704 -0.306,3.33 -0.918,4.878c-0.612,1.548 -1.47,2.928 -2.574,4.14c-1.104,1.212 -2.406,2.166 -3.906,2.862c-1.5,0.696 -3.126,1.044 -4.878,1.044Zm-8.136,-12.96c-0,1.2 0.192,2.364 0.576,3.492c0.384,1.128 0.93,2.13 1.638,3.006c0.708,0.876 1.566,1.566 2.574,2.07c1.008,0.504 2.136,0.756 3.384,0.756c1.296,-0 2.448,-0.264 3.456,-0.792c1.008,-0.528 1.854,-1.242 2.538,-2.142c0.684,-0.9 1.206,-1.908 1.566,-3.024c0.36,-1.116 0.54,-2.238 0.54,-3.366c-0,-1.2 -0.186,-2.358 -0.558,-3.474c-0.372,-1.116 -0.918,-2.112 -1.638,-2.988c-0.72,-0.876 -1.578,-1.566 -2.574,-2.07c-0.996,-0.504 -2.106,-0.756 -3.33,-0.756c-1.296,-0 -2.448,0.264 -3.456,0.792c-1.008,0.528 -1.86,1.236 -2.556,2.124c-0.696,0.888 -1.23,1.884 -1.602,2.988c-0.372,1.104 -0.558,2.232 -0.558,3.384Z" />
            <path d="M222.047,315.145l0,18.072l-4.032,0l0,-25.56l3.312,0l14.472,18.468l0,-18.432l4.068,0l0,25.524l-3.528,0l-14.292,-18.072Z" />
            <path d="M260.747,313.669c-0.24,-0.264 -0.588,-0.546 -1.044,-0.846c-0.456,-0.3 -0.996,-0.582 -1.62,-0.846c-0.624,-0.264 -1.296,-0.48 -2.016,-0.648c-0.72,-0.168 -1.464,-0.252 -2.232,-0.252c-1.68,0 -2.928,0.312 -3.744,0.936c-0.816,0.624 -1.224,1.488 -1.224,2.592c0,0.816 0.228,1.458 0.684,1.926c0.456,0.468 1.152,0.858 2.088,1.17c0.936,0.312 2.112,0.648 3.528,1.008c1.728,0.408 3.228,0.894 4.5,1.458c1.272,0.564 2.244,1.314 2.916,2.25c0.672,0.936 1.008,2.172 1.008,3.708c0,1.296 -0.24,2.412 -0.72,3.348c-0.48,0.936 -1.152,1.698 -2.016,2.286c-0.864,0.588 -1.86,1.02 -2.988,1.296c-1.128,0.276 -2.34,0.414 -3.636,0.414c-1.272,0 -2.538,-0.132 -3.798,-0.396c-1.26,-0.264 -2.46,-0.654 -3.6,-1.17c-1.14,-0.516 -2.19,-1.146 -3.15,-1.89l1.836,-3.456c0.312,0.312 0.762,0.654 1.35,1.026c0.588,0.372 1.272,0.726 2.052,1.062c0.78,0.336 1.632,0.618 2.556,0.846c0.924,0.228 1.866,0.342 2.826,0.342c1.608,0 2.838,-0.282 3.69,-0.846c0.852,-0.564 1.278,-1.374 1.278,-2.43c0,-0.864 -0.276,-1.554 -0.828,-2.07c-0.552,-0.516 -1.356,-0.954 -2.412,-1.314c-1.056,-0.36 -2.316,-0.72 -3.78,-1.08c-1.68,-0.456 -3.084,-0.954 -4.212,-1.494c-1.128,-0.54 -1.974,-1.236 -2.538,-2.088c-0.564,-0.852 -0.846,-1.938 -0.846,-3.258c-0,-1.68 0.408,-3.102 1.224,-4.266c0.816,-1.164 1.926,-2.04 3.33,-2.628c1.404,-0.588 2.982,-0.882 4.734,-0.882c1.152,0 2.244,0.126 3.276,0.378c1.032,0.252 1.998,0.594 2.898,1.026c0.9,0.432 1.722,0.924 2.466,1.476l-1.836,3.312Z" />
        </g>
        <g id="corps">
            <path d="M427.676,303.184c0,-1.56 0.276,-3.09 0.828,-4.59c0.552,-1.5 1.362,-2.868 2.43,-4.104c1.068,-1.236 2.37,-2.22 3.906,-2.952c1.536,-0.732 3.276,-1.098 5.22,-1.098c2.304,-0 4.296,0.522 5.976,1.566c1.68,1.044 2.928,2.382 3.744,4.014l-3.168,2.124c-0.48,-1.032 -1.086,-1.848 -1.818,-2.448c-0.732,-0.6 -1.524,-1.02 -2.376,-1.26c-0.852,-0.24 -1.686,-0.36 -2.502,-0.36c-1.344,-0 -2.52,0.27 -3.528,0.81c-1.008,0.54 -1.854,1.254 -2.538,2.142c-0.684,0.888 -1.2,1.884 -1.548,2.988c-0.348,1.104 -0.522,2.208 -0.522,3.312c-0,1.224 0.204,2.406 0.612,3.546c0.408,1.14 0.978,2.148 1.71,3.024c0.732,0.876 1.602,1.566 2.61,2.07c1.008,0.504 2.112,0.756 3.312,0.756c0.816,-0 1.668,-0.144 2.556,-0.432c0.888,-0.288 1.71,-0.738 2.466,-1.35c0.756,-0.612 1.35,-1.422 1.782,-2.43l3.348,1.908c-0.528,1.272 -1.35,2.352 -2.466,3.24c-1.116,0.888 -2.364,1.56 -3.744,2.016c-1.38,0.456 -2.742,0.684 -4.086,0.684c-1.8,-0 -3.444,-0.378 -4.932,-1.134c-1.488,-0.756 -2.772,-1.764 -3.852,-3.024c-1.08,-1.26 -1.92,-2.676 -2.52,-4.248c-0.6,-1.572 -0.9,-3.162 -0.9,-4.77Z" />
            <path d="M464.216,316.324c-1.848,0 -3.516,-0.36 -5.004,-1.08c-1.488,-0.72 -2.772,-1.698 -3.852,-2.934c-1.08,-1.236 -1.914,-2.628 -2.502,-4.176c-0.588,-1.548 -0.882,-3.138 -0.882,-4.77c0,-1.704 0.312,-3.33 0.936,-4.878c0.624,-1.548 1.488,-2.928 2.592,-4.14c1.104,-1.212 2.406,-2.172 3.906,-2.88c1.5,-0.708 3.126,-1.062 4.878,-1.062c1.824,-0 3.486,0.372 4.986,1.116c1.5,0.744 2.784,1.74 3.852,2.988c1.068,1.248 1.896,2.64 2.484,4.176c0.588,1.536 0.882,3.108 0.882,4.716c0,1.704 -0.306,3.33 -0.918,4.878c-0.612,1.548 -1.47,2.928 -2.574,4.14c-1.104,1.212 -2.406,2.166 -3.906,2.862c-1.5,0.696 -3.126,1.044 -4.878,1.044Zm-8.136,-12.96c0,1.2 0.192,2.364 0.576,3.492c0.384,1.128 0.93,2.13 1.638,3.006c0.708,0.876 1.566,1.566 2.574,2.07c1.008,0.504 2.136,0.756 3.384,0.756c1.296,-0 2.448,-0.264 3.456,-0.792c1.008,-0.528 1.854,-1.242 2.538,-2.142c0.684,-0.9 1.206,-1.908 1.566,-3.024c0.36,-1.116 0.54,-2.238 0.54,-3.366c0,-1.2 -0.186,-2.358 -0.558,-3.474c-0.372,-1.116 -0.918,-2.112 -1.638,-2.988c-0.72,-0.876 -1.578,-1.566 -2.574,-2.07c-0.996,-0.504 -2.106,-0.756 -3.33,-0.756c-1.296,-0 -2.448,0.264 -3.456,0.792c-1.008,0.528 -1.86,1.236 -2.556,2.124c-0.696,0.888 -1.23,1.884 -1.602,2.988c-0.372,1.104 -0.558,2.232 -0.558,3.384Z" />
            <path d="M480.668,316.144l0,-25.56l11.124,0c1.152,0 2.208,0.24 3.168,0.72c0.96,0.48 1.794,1.116 2.502,1.908c0.708,0.792 1.26,1.68 1.656,2.664c0.396,0.984 0.594,1.992 0.594,3.024c-0,1.128 -0.204,2.208 -0.612,3.24c-0.408,1.032 -0.99,1.92 -1.746,2.664c-0.756,0.744 -1.638,1.284 -2.646,1.62l6.012,9.72l-4.536,-0l-5.544,-8.892l-5.94,-0l-0,8.892l-4.032,-0Zm4.032,-12.456l7.056,-0c0.744,-0 1.404,-0.216 1.98,-0.648c0.576,-0.432 1.032,-1.014 1.368,-1.746c0.336,-0.732 0.504,-1.53 0.504,-2.394c-0,-0.888 -0.192,-1.686 -0.576,-2.394c-0.384,-0.708 -0.882,-1.278 -1.494,-1.71c-0.612,-0.432 -1.278,-0.648 -1.998,-0.648l-6.84,0l-0,9.54Z" />
            <path d="M504.464,316.144l0,-25.56l10.728,0c1.152,0 2.208,0.24 3.168,0.72c0.96,0.48 1.8,1.116 2.52,1.908c0.72,0.792 1.272,1.68 1.656,2.664c0.384,0.984 0.576,1.992 0.576,3.024c0,1.416 -0.318,2.766 -0.954,4.05c-0.636,1.284 -1.536,2.322 -2.7,3.114c-1.164,0.792 -2.514,1.188 -4.05,1.188l-6.912,0l-0,8.892l-4.032,0Zm4.032,-12.456l6.66,0c0.768,0 1.44,-0.21 2.016,-0.63c0.576,-0.42 1.026,-0.99 1.35,-1.71c0.324,-0.72 0.486,-1.536 0.486,-2.448c0,-0.936 -0.192,-1.764 -0.576,-2.484c-0.384,-0.72 -0.882,-1.278 -1.494,-1.674c-0.612,-0.396 -1.278,-0.594 -1.998,-0.594l-6.444,-0l0,9.54Z" />
            <path d="M542.012,296.596c-0.24,-0.264 -0.588,-0.546 -1.044,-0.846c-0.456,-0.3 -0.996,-0.582 -1.62,-0.846c-0.624,-0.264 -1.296,-0.48 -2.016,-0.648c-0.72,-0.168 -1.464,-0.252 -2.232,-0.252c-1.68,0 -2.928,0.312 -3.744,0.936c-0.816,0.624 -1.224,1.488 -1.224,2.592c0,0.816 0.228,1.458 0.684,1.926c0.456,0.468 1.152,0.858 2.088,1.17c0.936,0.312 2.112,0.648 3.528,1.008c1.728,0.408 3.228,0.894 4.5,1.458c1.272,0.564 2.244,1.314 2.916,2.25c0.672,0.936 1.008,2.172 1.008,3.708c-0,1.296 -0.24,2.412 -0.72,3.348c-0.48,0.936 -1.152,1.698 -2.016,2.286c-0.864,0.588 -1.86,1.02 -2.988,1.296c-1.128,0.276 -2.34,0.414 -3.636,0.414c-1.272,0 -2.538,-0.132 -3.798,-0.396c-1.26,-0.264 -2.46,-0.654 -3.6,-1.17c-1.14,-0.516 -2.19,-1.146 -3.15,-1.89l1.836,-3.456c0.312,0.312 0.762,0.654 1.35,1.026c0.588,0.372 1.272,0.726 2.052,1.062c0.78,0.336 1.632,0.618 2.556,0.846c0.924,0.228 1.866,0.342 2.826,0.342c1.608,0 2.838,-0.282 3.69,-0.846c0.852,-0.564 1.278,-1.374 1.278,-2.43c-0,-0.864 -0.276,-1.554 -0.828,-2.07c-0.552,-0.516 -1.356,-0.954 -2.412,-1.314c-1.056,-0.36 -2.316,-0.72 -3.78,-1.08c-1.68,-0.456 -3.084,-0.954 -4.212,-1.494c-1.128,-0.54 -1.974,-1.236 -2.538,-2.088c-0.564,-0.852 -0.846,-1.938 -0.846,-3.258c-0,-1.68 0.408,-3.102 1.224,-4.266c0.816,-1.164 1.926,-2.04 3.33,-2.628c1.404,-0.588 2.982,-0.882 4.734,-0.882c1.152,0 2.244,0.126 3.276,0.378c1.032,0.252 1.998,0.594 2.898,1.026c0.9,0.432 1.722,0.924 2.466,1.476l-1.836,3.312Z" />
        </g>
        <g id="mental">
            <path d="M267.886,106.726l0,-18.216l-7.524,13.824l-2.376,0l-7.56,-13.824l-0,18.216l-4.032,0l-0,-25.56l4.32,0l8.46,15.624l8.46,-15.624l4.32,0l0,25.56l-4.068,0Z" />
            <path d="M295.246,103.162l0,3.564l-17.532,0l0,-25.56l17.208,0l0,3.564l-13.176,0l-0,7.272l11.412,0l0,3.348l-11.412,0l-0,7.812l13.5,0Z" />
            <path d="M303.454,88.654l0,18.072l-4.032,0l0,-25.56l3.312,0l14.472,18.468l0,-18.432l4.068,0l0,25.524l-3.528,0l-14.292,-18.072Z" />
            <path d="M345.79,84.73l-8.496,0l-0,21.996l-4.068,0l-0,-21.996l-8.532,0l-0,-3.564l21.096,0l-0,3.564Z" />
            <path d="M354.178,81.166l3.816,0l9.936,25.56l-4.248,0l-2.7,-6.948l-9.864,0l-2.664,6.948l-4.284,0l10.008,-25.56Zm6.012,15.624l-4.104,-11.196l-4.248,11.196l8.352,0Z" />
            <path d="M371.098,106.726l0,-25.56l4.032,0l0,21.996l13.716,0l0,3.564l-17.748,0Z" />
        </g>
    </g>
</svg>
