<?xml version="1.0" encoding="UTF-8" standalone="no"?><!DOCTYPE svg PUBLIC "-//W3C//DTD SVG 1.1//EN" "http://www.w3.org/Graphics/SVG/1.1/DTD/svg11.dtd"><svg width="100%" height="100%" viewBox="0 0 517 1500" version="1.1" xmlns="http://www.w3.org/2000/svg" xmlns:xlink="http://www.w3.org/1999/xlink" xml:space="preserve" xmlns:serif="http://www.serif.com/" style="fill-rule:evenodd;clip-rule:evenodd;stroke-miterlimit:10;"><g><path d="M498.625,268.606c0,40.606 -32.918,73.524 -73.523,73.524c-40.606,0 -73.524,-32.918 -73.524,-73.524c-0,-40.605 32.918,-73.523 73.524,-73.523c40.605,-0 73.523,32.918 73.523,73.523" style="fill:#fff590;fill-rule:nonzero;"/><path d="M355.628,234.025c7.843,-9.868 11.527,-12.461 23.054,-15.576c11.527,-3.116 21.496,-6.543 31.154,-9.035c9.738,-2.513 22.431,-4.986 32.867,-5.608c9.797,-0.585 17.603,-0 22.899,0.312c7.16,0.421 16.512,0.934 26.169,11.838c9.658,10.904 11.082,31.411 8.723,46.887c-2.491,16.355 -12.617,36.457 -26.948,49.074c-11.498,10.124 -24.216,17.577 -37.54,18.997c-11.683,1.247 -15.883,-0.168 -22.12,0c-11.527,0.312 -28.973,-4.049 -38.319,-9.969c-9.347,-5.919 -21.596,-13.669 -27.105,-28.038c-7.165,-18.693 -2.492,-46.732 7.166,-58.882Z" style="fill:none;fill-rule:nonzero;stroke:#1d1d1b;stroke-width:2px;"/></g><g><path d="M503.622,755.693c-0,40.606 -32.918,73.524 -73.524,73.524c-40.606,-0 -73.524,-32.918 -73.524,-73.524c-0,-40.606 32.918,-73.524 73.524,-73.524c40.606,0 73.524,32.918 73.524,73.524" style="fill:#fff590;fill-rule:nonzero;"/><path d="M360.624,721.111c7.843,-9.867 11.527,-12.461 23.054,-15.576c11.527,-3.115 21.496,-6.542 31.154,-9.035c9.738,-2.513 22.431,-4.985 32.867,-5.608c9.797,-0.584 17.603,0 22.899,0.312c7.16,0.421 16.512,0.935 26.169,11.839c9.658,10.903 11.082,31.41 8.723,46.887c-2.491,16.355 -12.617,36.456 -26.948,49.074c-11.498,10.123 -24.216,17.576 -37.54,18.997c-11.683,1.246 -15.883,-0.168 -22.12,0c-11.527,0.312 -28.973,-4.05 -38.319,-9.969c-9.347,-5.919 -21.596,-13.67 -27.104,-28.039c-7.166,-18.692 -2.493,-46.731 7.165,-58.882Z" style="fill:none;fill-rule:nonzero;stroke:#1d1d1b;stroke-width:2px;"/></g><g><path d="M503.622,1036.65c-0,40.606 -32.918,73.524 -73.524,73.524c-40.606,0 -73.524,-32.918 -73.524,-73.524c-0,-40.606 32.918,-73.524 73.524,-73.524c40.606,0 73.524,32.918 73.524,73.524" style="fill:#fff590;fill-rule:nonzero;"/><path d="M360.624,1002.07c7.843,-9.867 11.527,-12.46 23.054,-15.576c11.527,-3.115 21.496,-6.542 31.154,-9.035c9.738,-2.512 22.431,-4.985 32.867,-5.608c9.797,-0.584 17.603,0 22.899,0.312c7.16,0.421 16.512,0.935 26.169,11.839c9.658,10.904 11.082,31.41 8.723,46.887c-2.491,16.355 -12.617,36.457 -26.948,49.074c-11.498,10.124 -24.216,17.577 -37.54,18.997c-11.683,1.247 -15.883,-0.168 -22.12,0c-11.527,0.312 -28.973,-4.049 -38.319,-9.969c-9.347,-5.919 -21.596,-13.669 -27.104,-28.038c-7.166,-18.693 -2.493,-46.732 7.165,-58.883Z" style="fill:none;fill-rule:nonzero;stroke:#1d1d1b;stroke-width:2px;"/></g><g><path d="M114.926,15.204c-0.187,-0.581 -0.433,-1.048 -0.733,-1.397c-0.653,-0.756 -1.728,-0.79 -2.45,-0.141c-0.351,0.319 -0.53,0.695 -0.53,1.121c0,0.319 0.104,0.638 0.31,0.953c0.151,0.228 0.327,0.57 0.522,1.011c0.193,0.433 0.371,1.033 0.529,1.781c0.156,0.756 0.234,1.778 0.234,3.047c0,1.766 -0.191,3.49 -0.568,5.135c-0.379,1.649 -0.888,3.29 -1.512,4.878c-0.674,1.682 -1.475,3.27 -2.386,4.706c-0.907,1.44 -1.894,2.697 -2.93,3.742c-1.031,1.04 -2.107,1.865 -3.199,2.454c-1.067,0.573 -2.121,0.862 -3.13,0.862c-0.966,-0 -1.68,-0.285 -2.178,-0.874c-0.51,-0.6 -0.768,-1.478 -0.768,-2.61c0,-0.805 0.156,-1.83 0.463,-3.042c0.313,-1.231 0.806,-2.785 1.469,-4.619l6.703,-18.545l-4.656,0l-6.606,18.271c-0.57,1.561 -1.309,3.058 -2.2,4.452c-0.886,1.39 -1.866,2.617 -2.914,3.647c-1.043,1.025 -2.133,1.846 -3.241,2.442c-1.084,0.585 -2.13,0.878 -3.104,0.878c-0.966,-0 -1.68,-0.285 -2.178,-0.874c-0.51,-0.6 -0.768,-1.478 -0.768,-2.61c-0,-0.805 0.156,-1.83 0.463,-3.042c0.313,-1.231 0.806,-2.785 1.469,-4.619l6.728,-18.545l-4.655,0l-6.634,18.275c-0.413,1.178 -0.735,2.325 -0.953,3.415c-0.218,1.094 -0.329,2.104 -0.329,2.997c0,1.048 0.136,2.013 0.404,2.872c0.272,0.87 0.679,1.629 1.209,2.249c0.535,0.63 1.193,1.116 1.956,1.458c1.595,0.711 3.759,0.673 5.787,-0.11c1.049,-0.406 2.083,-0.984 3.078,-1.725c0.99,-0.736 1.953,-1.633 2.864,-2.666c0.599,-0.676 1.181,-1.417 1.734,-2.211l0,0.133c0,1.048 0.136,2.013 0.405,2.872c0.271,0.87 0.678,1.629 1.208,2.249c0.535,0.63 1.193,1.116 1.956,1.458c0.76,0.338 1.634,0.509 2.593,0.509c1.359,0 2.726,-0.334 4.062,-0.995c1.316,-0.646 2.6,-1.561 3.816,-2.716c1.208,-1.147 2.353,-2.534 3.403,-4.121c1.046,-1.584 1.99,-3.343 2.799,-5.22c0.379,-0.877 0.754,-1.834 1.116,-2.841c0.363,-1.014 0.687,-2.078 0.963,-3.164c0.277,-1.083 0.5,-2.219 0.664,-3.373c0.165,-1.155 0.248,-2.34 0.248,-3.518c0,-0.817 -0.043,-1.603 -0.131,-2.336c-0.088,-0.745 -0.224,-1.398 -0.402,-1.953" style="fill:#1d1d1b;fill-rule:nonzero;"/><path d="M143.369,34.102c-0.732,1.36 -1.539,2.618 -2.401,3.738c-0.896,1.163 -1.839,2.169 -2.8,2.986c-0.953,0.813 -1.933,1.447 -2.912,1.884c-0.964,0.429 -1.927,0.646 -2.861,0.646c-2.624,-0 -3.898,-1.854 -3.898,-5.671c0,-1.174 0.115,-2.496 0.342,-3.94c0.228,-1.443 0.559,-2.906 0.98,-4.338c0.625,-2.142 1.418,-4.121 2.362,-5.891c0.94,-1.763 1.999,-3.301 3.145,-4.562c1.14,-1.258 2.36,-2.241 3.626,-2.929c1.248,-0.676 2.522,-1.022 3.785,-1.022c0.857,0 1.579,0.152 2.144,0.445c0.564,0.292 1.016,0.691 1.346,1.181c0.337,0.505 0.581,1.109 0.725,1.8c0.148,0.715 0.224,1.482 0.224,2.276c-0,0.984 -0.085,1.994 -0.253,3.008c-0.156,0.946 -0.352,1.873 -0.583,2.762c-0.638,2.446 -2.008,5.538 -2.971,7.627m3.441,0.122c0.313,-0.604 0.614,-1.227 0.897,-1.858c0.313,-0.695 0.596,-1.428 0.837,-2.169c0.398,-1.177 0.727,-2.434 0.979,-3.734c0.252,-1.306 0.38,-2.628 0.38,-3.931c-0,-1.212 -0.133,-2.386 -0.396,-3.491c-0.268,-1.128 -0.723,-2.135 -1.353,-2.997c-0.635,-0.87 -1.485,-1.576 -2.524,-2.093c-1.04,-0.513 -2.325,-0.771 -3.819,-0.771c-1.833,-0 -3.677,0.418 -5.479,1.242c-1.79,0.82 -3.472,1.975 -4.998,3.434c-1.518,1.447 -2.883,3.187 -4.057,5.166c-1.17,1.979 -2.071,4.159 -2.677,6.484c-0.261,0.984 -0.464,1.994 -0.603,2.99c-0.138,0.999 -0.208,1.99 -0.208,2.951c-0,1.523 0.186,2.917 0.557,4.141c0.373,1.234 0.916,2.298 1.616,3.16c0.705,0.866 1.58,1.542 2.604,2.002c1.015,0.459 2.175,0.691 3.442,0.691c1.257,0 2.536,-0.224 3.799,-0.665c1.255,-0.44 2.485,-1.067 3.658,-1.876c1.166,-0.798 2.291,-1.778 3.347,-2.91c0.961,-1.037 1.858,-2.195 2.666,-3.445" style="fill:#1d1d1b;fill-rule:nonzero;"/><path d="M397.554,34.102c-0.73,1.36 -1.539,2.618 -2.401,3.738c-0.897,1.163 -1.839,2.169 -2.8,2.986c-0.953,0.813 -1.933,1.447 -2.913,1.884c-0.961,0.429 -1.926,0.646 -2.861,0.646c-2.621,-0 -3.897,-1.854 -3.897,-5.671c0,-1.174 0.114,-2.496 0.342,-3.94c0.228,-1.443 0.558,-2.906 0.98,-4.338c0.627,-2.142 1.417,-4.121 2.363,-5.891c0.938,-1.763 1.998,-3.301 3.145,-4.562c1.139,-1.258 2.359,-2.241 3.628,-2.929c1.245,-0.676 2.518,-1.022 3.783,-1.022c0.858,0 1.58,0.152 2.142,0.445c0.566,0.292 1.018,0.691 1.349,1.181c0.334,0.505 0.581,1.109 0.725,1.8c0.149,0.715 0.221,1.482 0.221,2.276c-0,0.984 -0.084,1.994 -0.251,3.008c-0.156,0.946 -0.353,1.873 -0.581,2.762c-0.642,2.446 -2.01,5.538 -2.974,7.627m3.441,0.122c0.312,-0.604 0.615,-1.227 0.896,-1.858c0.316,-0.695 0.597,-1.428 0.84,-2.169c0.395,-1.177 0.726,-2.434 0.976,-3.734c0.255,-1.306 0.38,-2.628 0.38,-3.931c0,-1.212 -0.133,-2.386 -0.395,-3.491c-0.27,-1.128 -0.722,-2.135 -1.352,-2.997c-0.635,-0.87 -1.486,-1.576 -2.526,-2.093c-1.037,-0.513 -2.325,-0.771 -3.818,-0.771c-1.835,-0 -3.677,0.418 -5.477,1.242c-1.79,0.82 -3.472,1.975 -4.999,3.434c-1.52,1.447 -2.884,3.187 -4.057,5.166c-1.17,1.979 -2.071,4.159 -2.678,6.484c-0.259,0.984 -0.464,1.994 -0.6,2.99c-0.141,0.999 -0.209,1.99 -0.209,2.951c-0,1.523 0.186,2.917 0.554,4.141c0.376,1.234 0.919,2.298 1.618,3.16c0.703,0.866 1.581,1.542 2.602,2.002c1.018,0.459 2.177,0.691 3.442,0.691c1.257,0 2.537,-0.224 3.799,-0.665c1.257,-0.44 2.488,-1.067 3.661,-1.876c1.163,-0.798 2.291,-1.778 3.347,-2.91c0.961,-1.037 1.857,-2.195 2.667,-3.445" style="fill:#1d1d1b;fill-rule:nonzero;"/><path d="M197.176,31.466c-1.126,1.998 -2.231,3.765 -3.285,5.254c-1.05,1.489 -2.106,2.738 -3.139,3.722c-1.019,0.973 -2.048,1.71 -3.062,2.196c-0.995,0.478 -2.023,0.718 -3.057,0.718c-1.25,-0 -2.168,-0.308 -2.73,-0.912c-0.578,-0.627 -0.859,-1.39 -0.859,-2.344c0,-0.714 0.139,-1.565 0.41,-2.526c0.278,-0.983 0.633,-2.062 1.058,-3.198c0.427,-1.147 0.89,-2.34 1.385,-3.578c0.497,-1.242 0.967,-2.492 1.396,-3.712c0.433,-1.226 0.795,-2.431 1.079,-3.585c0.29,-1.17 0.436,-2.276 0.436,-3.286c0,-0.931 -0.145,-1.831 -0.433,-2.674c-0.29,-0.855 -0.734,-1.615 -1.317,-2.264c-0.584,-0.646 -1.314,-1.167 -2.17,-1.539c-0.852,-0.372 -1.858,-0.562 -2.989,-0.562c-1.25,0 -2.454,0.251 -3.581,0.745c-1.113,0.482 -2.227,1.223 -3.312,2.203c-1.071,0.965 -2.157,2.199 -3.231,3.662c-0.427,0.581 -0.863,1.208 -1.305,1.872l2.919,-7.992l-4.658,0l-11.407,31.285l4.658,0l5.472,-14.97l1.338,-2.367c1.172,-2.07 2.304,-3.908 3.364,-5.462c1.056,-1.546 2.105,-2.849 3.12,-3.871c0.999,-1.006 2.009,-1.774 2.997,-2.279c0.968,-0.49 1.972,-0.741 2.983,-0.741c0.648,0 1.209,0.095 1.664,0.282c0.45,0.182 0.825,0.433 1.119,0.752c0.291,0.311 0.508,0.695 0.644,1.132c0.142,0.455 0.213,0.961 0.213,1.5c0,0.783 -0.137,1.698 -0.41,2.716c-0.281,1.045 -0.637,2.161 -1.057,3.309c-0.428,1.173 -0.889,2.378 -1.385,3.616c-0.501,1.253 -0.97,2.496 -1.397,3.696c-0.426,1.204 -0.79,2.385 -1.077,3.506c-0.289,1.136 -0.436,2.18 -0.436,3.1c-0,0.881 0.147,1.728 0.436,2.514c0.292,0.798 0.737,1.505 1.322,2.109c0.587,0.607 1.322,1.086 2.184,1.432c0.859,0.341 1.863,0.516 2.992,0.516c1.37,0 2.686,-0.277 3.909,-0.832c1.209,-0.55 2.409,-1.379 3.567,-2.465c1.148,-1.079 2.309,-2.454 3.45,-4.091c1.137,-1.63 2.34,-3.544 3.573,-5.706l1.515,-2.678l-1.351,-0.953l-1.555,2.75Z" style="fill:#1d1d1b;fill-rule:nonzero;"/><path d="M213.459,43.356c-1.02,-0 -1.742,-0.319 -2.208,-0.976c-0.487,-0.692 -0.736,-1.672 -0.736,-2.922c0,-1.147 0.2,-2.605 0.594,-4.334c0.399,-1.747 1.003,-3.669 1.795,-5.705c0.966,-2.454 2.042,-4.619 3.195,-6.431c1.156,-1.812 2.345,-3.332 3.535,-4.509c1.18,-1.174 2.354,-2.059 3.487,-2.629c1.113,-0.562 2.13,-0.843 3.023,-0.843c0.436,-0 0.863,0.068 1.274,0.209c0.396,0.133 0.739,0.357 1.049,0.684c0.313,0.326 0.568,0.763 0.761,1.299c0.199,0.543 0.299,1.234 0.299,2.062c0,0.927 -0.132,1.995 -0.389,3.172c-0.262,1.185 -0.637,2.45 -1.116,3.753c-0.484,1.315 -1.064,2.667 -1.722,4.015c-0.664,1.364 -1.397,2.697 -2.181,3.97c-0.784,1.272 -1.627,2.488 -2.508,3.616c-0.875,1.117 -1.789,2.104 -2.718,2.929c-0.92,0.82 -1.855,1.477 -2.783,1.952c-0.901,0.456 -1.792,0.688 -2.651,0.688m31.349,-11.886c-1.121,2.021 -2.223,3.806 -3.272,5.303c-1.041,1.489 -2.092,2.739 -3.125,3.722c-1.02,0.969 -2.061,1.698 -3.094,2.166c-1.02,0.459 -2.089,0.695 -3.178,0.695c-1.195,-0 -2.079,-0.308 -2.621,-0.919c-0.558,-0.627 -0.84,-1.49 -0.84,-2.565c-0,-0.509 0.054,-1.067 0.163,-1.671c0.107,-0.6 0.25,-1.242 0.427,-1.907c0.183,-0.668 0.392,-1.352 0.625,-2.032c0.238,-0.703 0.477,-1.383 0.717,-2.051l11.67,-32.102l-4.657,-0l-6.453,17.77c-0.038,-0.247 -0.081,-0.49 -0.134,-0.726c-0.184,-0.813 -0.497,-1.519 -0.931,-2.104c-0.444,-0.593 -1.027,-1.056 -1.735,-1.383c-1.364,-0.63 -3.47,-0.642 -5.733,-0.065c-1.092,0.282 -2.219,0.711 -3.349,1.277c-1.129,0.57 -2.268,1.299 -3.384,2.165c-1.119,0.87 -2.205,1.918 -3.225,3.119c-1.016,1.2 -1.971,2.583 -2.835,4.114c-0.865,1.534 -1.619,3.255 -2.243,5.124c-0.45,1.352 -0.8,2.716 -1.042,4.06c-0.245,1.345 -0.368,2.644 -0.368,3.864c0,1.139 0.117,2.207 0.347,3.168c0.233,0.976 0.608,1.846 1.114,2.579c0.517,0.748 1.185,1.333 1.983,1.747c0.798,0.414 1.774,0.623 2.898,0.623c2.351,0 4.688,-0.98 6.949,-2.913c1.809,-1.55 3.654,-3.753 5.496,-6.568c-0.009,0.053 -0.017,0.106 -0.026,0.156c-0.122,0.79 -0.185,1.546 -0.185,2.237c0,1.048 0.145,2.021 0.433,2.879c0.291,0.874 0.731,1.634 1.308,2.257c0.578,0.623 1.303,1.113 2.152,1.447c0.84,0.334 1.82,0.505 2.913,0.505c1.386,0 2.712,-0.269 3.942,-0.805c1.218,-0.532 2.425,-1.345 3.586,-2.427c1.143,-1.068 2.309,-2.439 3.464,-4.076c1.139,-1.622 2.355,-3.571 3.61,-5.786l1.515,-2.681l-1.354,-0.95l-1.528,2.754Z" style="fill:#1d1d1b;fill-rule:nonzero;"/><path d="M261.291,26.745c0.611,-1.562 1.325,-3.028 2.127,-4.369c0.889,-1.493 1.857,-2.811 2.879,-3.909c1.015,-1.09 2.078,-1.952 3.161,-2.564c1.056,-0.596 2.104,-0.9 3.111,-0.9c0.342,0 0.661,0.042 0.953,0.118c0.266,0.068 0.502,0.186 0.699,0.349c0.19,0.156 0.342,0.357 0.452,0.612c0.114,0.254 0.171,0.589 0.171,0.991c0,0.87 -0.167,1.721 -0.498,2.526c-0.338,0.821 -0.786,1.596 -1.333,2.299c-0.554,0.71 -1.196,1.352 -1.911,1.899c-0.714,0.551 -1.462,1.007 -2.225,1.356c-0.969,0.452 -2.12,0.828 -3.419,1.117c-1.163,0.262 -2.56,0.421 -4.167,0.475m19.908,4.721c-0.843,1.489 -1.846,2.963 -2.974,4.388c-1.125,1.42 -2.386,2.7 -3.749,3.81c-1.353,1.105 -2.845,2.005 -4.433,2.681c-1.569,0.673 -3.248,1.011 -4.988,1.011c-2.036,-0 -3.536,-0.49 -4.456,-1.455c-0.926,-0.976 -1.397,-2.617 -1.397,-4.885c-0,-1.531 0.14,-3.05 0.417,-4.52c0.262,-1.379 0.62,-2.728 1.064,-4.012c1.956,-0.011 3.734,-0.155 5.288,-0.429c1.637,-0.285 3.156,-0.725 4.509,-1.299c1.109,-0.452 2.115,-1.003 3,-1.622c0.885,-0.623 1.657,-1.303 2.295,-2.032c0.646,-0.733 1.143,-1.523 1.485,-2.348c0.346,-0.835 0.52,-1.702 0.52,-2.571c0,-1.577 -0.547,-2.823 -1.625,-3.708c-1.056,-0.858 -2.507,-1.299 -4.308,-1.299c-1.751,0 -3.514,0.422 -5.238,1.25c-1.713,0.82 -3.332,1.971 -4.817,3.419c-1.477,1.443 -2.803,3.179 -3.939,5.154c-1.136,1.975 -2.028,4.156 -2.651,6.477c-0.278,1.037 -0.487,2.066 -0.616,3.061c-0.129,0.999 -0.197,1.953 -0.197,2.83c-0,3.305 0.889,5.839 2.644,7.529c1.751,1.691 4.258,2.545 7.456,2.545c1.941,0 3.803,-0.334 5.531,-0.991c1.724,-0.654 3.358,-1.577 4.862,-2.731c1.504,-1.155 2.91,-2.549 4.186,-4.145c1.265,-1.587 2.45,-3.342 3.521,-5.227l1.516,-2.681l-1.352,-0.95l-1.554,2.75Z" style="fill:#1d1d1b;fill-rule:nonzero;"/><path d="M309.396,13.176c-0.896,0 -1.823,0.232 -2.746,0.684c-0.912,0.448 -1.892,1.196 -2.914,2.226c-1.003,1.014 -2.108,2.362 -3.286,4.011c-0.558,0.786 -1.147,1.668 -1.762,2.632l3.305,-9.063l-4.657,0l-11.408,31.285l4.684,0l4.931,-13.629l1.287,-2.268c1.596,-2.818 3.047,-5.17 4.315,-6.989c1.262,-1.816 2.413,-3.259 3.419,-4.3c0.992,-1.026 1.884,-1.751 2.652,-2.15c1.432,-0.749 2.757,-0.714 3.335,-0.247c0.144,0.118 0.254,0.232 0.315,0.353c-0.52,-0.091 -1.102,-0.053 -1.565,0.209c-0.281,0.163 -0.528,0.372 -0.729,0.627c-0.202,0.247 -0.357,0.539 -0.468,0.87c-0.106,0.323 -0.159,0.645 -0.159,0.961c-0,0.402 0.076,0.767 0.232,1.079c0.155,0.303 0.353,0.562 0.596,0.778c0.251,0.217 0.532,0.376 0.851,0.479c0.733,0.239 1.527,0.186 2.154,-0.16c0.357,-0.201 0.664,-0.471 0.915,-0.809c0.243,-0.33 0.426,-0.725 0.551,-1.17c0.118,-0.433 0.179,-0.896 0.179,-1.382c-0,-1.182 -0.361,-2.158 -1.075,-2.899c-0.718,-0.748 -1.71,-1.128 -2.952,-1.128" style="fill:#1d1d1b;fill-rule:nonzero;"/><path d="M449.119,17.157c-0.087,-0.741 -0.224,-1.398 -0.402,-1.953c-0.187,-0.581 -0.433,-1.052 -0.734,-1.401c-0.653,-0.752 -1.728,-0.786 -2.45,-0.137c-0.353,0.319 -0.528,0.695 -0.528,1.121c0,0.315 0.103,0.638 0.308,0.953c0.148,0.224 0.327,0.566 0.52,1.011c0.194,0.433 0.373,1.033 0.528,1.781c0.156,0.752 0.236,1.778 0.236,3.047c0,1.766 -0.19,3.494 -0.57,5.131c-0.376,1.645 -0.881,3.29 -1.508,4.882c-0.676,1.686 -1.481,3.27 -2.385,4.706c-0.912,1.44 -1.896,2.697 -2.933,3.742c-1.029,1.04 -2.108,1.865 -3.198,2.454c-1.068,0.573 -2.12,0.862 -3.13,0.862c-0.965,-0 -1.679,-0.285 -2.177,-0.874c-0.509,-0.6 -0.767,-1.478 -0.767,-2.61c-0,-0.801 0.156,-1.827 0.459,-3.042c0.32,-1.239 0.813,-2.792 1.471,-4.619l6.704,-18.545l-4.657,0l-6.606,18.271c-0.57,1.558 -1.307,3.054 -2.199,4.452c-0.889,1.39 -1.869,2.617 -2.914,3.647c-1.044,1.025 -2.131,1.846 -3.24,2.442c-1.086,0.585 -2.131,0.878 -3.107,0.878c-0.965,-0 -1.679,-0.285 -2.177,-0.874c-0.509,-0.6 -0.767,-1.478 -0.767,-2.61c-0,-0.801 0.156,-1.827 0.463,-3.042c0.316,-1.239 0.81,-2.792 1.467,-4.619l6.731,-18.545l-4.657,0l-6.633,18.275c-0.417,1.181 -0.737,2.332 -0.953,3.415c-0.217,1.086 -0.331,2.097 -0.331,2.997c0,1.048 0.137,2.013 0.407,2.872c0.27,0.87 0.676,1.629 1.208,2.249c0.535,0.626 1.193,1.116 1.956,1.458c1.596,0.711 3.757,0.676 5.785,-0.11c1.049,-0.406 2.086,-0.988 3.077,-1.725c0.992,-0.733 1.956,-1.633 2.868,-2.666c0.597,-0.676 1.178,-1.417 1.732,-2.215l0,0.137c0,1.045 0.133,2.013 0.403,2.872c0.273,0.87 0.68,1.629 1.212,2.249c0.531,0.626 1.192,1.116 1.956,1.458c0.76,0.338 1.633,0.509 2.591,0.509c1.359,0 2.727,-0.334 4.064,-0.995c1.314,-0.65 2.598,-1.561 3.814,-2.716c1.208,-1.147 2.351,-2.534 3.403,-4.121c1.045,-1.581 1.987,-3.339 2.8,-5.22c0.384,-0.892 0.76,-1.846 1.113,-2.841c0.365,-1.003 0.687,-2.066 0.965,-3.164c0.277,-1.083 0.497,-2.219 0.665,-3.373c0.163,-1.155 0.246,-2.337 0.246,-3.518c0,-0.82 -0.041,-1.607 -0.129,-2.336" style="fill:#1d1d1b;fill-rule:nonzero;"/><path d="M362.386,0.983l0.346,-0.923l4.653,-0l-0.19,0.535l-11.479,31.57c-0.239,0.665 -0.479,1.349 -0.718,2.04c-0.236,0.688 -0.444,1.371 -0.623,2.028c-0.171,0.654 -0.315,1.303 -0.429,1.923c-0.107,0.604 -0.16,1.166 -0.16,1.667c0,1.079 0.281,1.941 0.84,2.568c0.543,0.608 1.424,0.919 2.621,0.919c1.086,0 2.15,-0.239 3.164,-0.71c1.026,-0.475 2.066,-1.208 3.084,-2.177c1.026,-0.976 2.074,-2.229 3.123,-3.722c1.06,-1.512 2.169,-3.286 3.301,-5.28l1.557,-2.758l1.315,0.961l-1.482,2.674c-1.257,2.218 -2.473,4.163 -3.612,5.789c-1.155,1.637 -2.325,3.009 -3.48,4.076c-1.166,1.079 -2.374,1.896 -3.593,2.427c-1.231,0.536 -2.557,0.806 -3.943,0.806c-1.094,-0 -2.07,-0.171 -2.914,-0.506c-0.847,-0.338 -1.572,-0.824 -2.154,-1.451c-0.577,-0.623 -1.018,-1.382 -1.306,-2.256c-0.285,-0.851 -0.433,-1.823 -0.433,-2.876c-0,-0.919 0.11,-1.933 0.33,-3.012c0.217,-1.075 0.536,-2.218 0.954,-3.4l10.594,-29.081l0.634,-1.831Z" style="fill:#1d1d1b;fill-rule:nonzero;"/><path d="M347.469,0.284c2.393,0.653 3.746,1.888 4.653,3.096c1.167,1.561 2.04,6.472 -2.282,6.066c-2.371,-0.22 -3.005,-3.662 -0.726,-4.889c0.053,-0.817 -0.866,-1.979 -1.785,-2.313c-2.226,-0.817 -4.779,-0.327 -6.538,0.277c-0.98,0.338 -1.888,0.923 -2.697,1.744c-0.832,0.835 -1.625,1.956 -2.366,3.331c-0.752,1.394 -1.527,3.157 -2.306,5.238l-0.281,0.722l7.563,-0l-0,1.827l-8.224,0l-15.646,43.015l-4.654,0l0.194,-0.532l15.449,-42.483l-6.955,0l-0,-1.827l7.635,-0l0.289,-0.771c0.79,-2.203 1.694,-4.133 2.681,-5.732c0.999,-1.607 2.128,-2.948 3.362,-3.993c1.246,-1.048 2.636,-1.83 4.137,-2.324c2.469,-0.813 5.557,-0.935 8.497,-0.452" style="fill:#1d1d1b;fill-rule:nonzero;"/></g><g><path d="M104.325,87.582l-0,-14.809l9.866,-0l0,2.065l-7.53,0l0,4.421l6.301,0l-0,1.94l-6.301,-0l0,6.383l-2.336,0Z" style="fill:#1d1d1b;fill-rule:nonzero;"/><path d="M119.011,87.582l-0,-14.809l2.337,-0l-0,12.747l7.948,0l0,2.062l-10.285,0Z" style="fill:#1d1d1b;fill-rule:nonzero;"/><path d="M134.304,80.179c-0,0.695 0.11,1.367 0.334,2.024c0.223,0.653 0.539,1.229 0.948,1.729c0.411,0.5 0.907,0.901 1.492,1.203c0.584,0.298 1.238,0.446 1.961,0.446c0.751,0 1.414,-0.156 1.992,-0.469c0.578,-0.313 1.067,-0.726 1.47,-1.241c0.404,-0.515 0.711,-1.092 0.919,-1.733c0.209,-0.642 0.313,-1.294 0.313,-1.959c0,-0.71 -0.11,-1.389 -0.334,-2.035c-0.223,-0.649 -0.539,-1.217 -0.949,-1.714c-0.411,-0.492 -0.904,-0.886 -1.482,-1.187c-0.576,-0.298 -1.219,-0.447 -1.929,-0.447c-0.752,0 -1.42,0.153 -2.002,0.466c-0.584,0.317 -1.079,0.722 -1.483,1.222c-0.403,0.5 -0.711,1.076 -0.928,1.721c-0.216,0.649 -0.322,1.306 -0.322,1.974m4.715,7.51c-1.058,-0 -2.021,-0.214 -2.889,-0.638c-0.87,-0.423 -1.618,-0.988 -2.245,-1.691c-0.625,-0.699 -1.107,-1.504 -1.45,-2.409c-0.34,-0.901 -0.51,-1.825 -0.51,-2.772c0,-0.989 0.18,-1.935 0.541,-2.84c0.363,-0.901 0.86,-1.703 1.493,-2.398c0.634,-0.695 1.383,-1.248 2.253,-1.66c0.868,-0.409 1.818,-0.615 2.848,-0.615c1.056,-0 2.02,0.217 2.891,0.656c0.868,0.44 1.612,1.012 2.23,1.722c0.62,0.71 1.099,1.512 1.44,2.413c0.341,0.894 0.512,1.81 0.512,2.741c-0,0.989 -0.179,1.932 -0.533,2.837c-0.355,0.905 -0.852,1.703 -1.493,2.39c-0.638,0.687 -1.392,1.237 -2.263,1.649c-0.869,0.409 -1.811,0.615 -2.825,0.615" style="fill:#1d1d1b;fill-rule:nonzero;"/><path d="M155.874,72.834l2.212,-0l1.816,5.028l1.835,-5.028l2.192,-0l-2.526,6.593l2.211,5.444l4.611,-12.098l2.566,-0l-6.113,14.809l-2.002,0l-2.754,-6.632l-2.775,6.632l-2.003,0l-6.113,-14.809l2.546,-0l4.631,12.098l2.211,-5.444l-2.545,-6.593Z" style="fill:#1d1d1b;fill-rule:nonzero;"/><path d="M181.264,80.072c0,-0.889 0.161,-1.775 0.48,-2.661c0.32,-0.882 0.79,-1.672 1.409,-2.374c0.618,-0.703 1.372,-1.272 2.263,-1.703c0.891,-0.431 1.9,-0.645 3.025,-0.645c1.348,-0 2.503,0.298 3.463,0.897c0.962,0.596 1.684,1.374 2.17,2.336l-1.836,1.23c-0.208,-0.443 -0.459,-0.821 -0.751,-1.126c-0.292,-0.306 -0.613,-0.55 -0.96,-0.73c-0.346,-0.179 -0.709,-0.309 -1.084,-0.385c-0.376,-0.077 -0.737,-0.119 -1.085,-0.119c-0.779,0 -1.461,0.161 -2.045,0.474c-0.584,0.313 -1.073,0.725 -1.472,1.241c-0.396,0.515 -0.694,1.091 -0.895,1.729c-0.202,0.641 -0.303,1.283 -0.303,1.92c-0,0.722 0.118,1.413 0.354,2.066c0.238,0.653 0.568,1.229 0.991,1.729c0.425,0.504 0.929,0.901 1.513,1.203c0.584,0.298 1.223,0.447 1.919,0.447c0.363,-0 0.734,-0.046 1.115,-0.134c0.384,-0.092 0.753,-0.237 1.108,-0.439c0.353,-0.202 0.682,-0.454 0.98,-0.764c0.299,-0.305 0.546,-0.672 0.74,-1.103l1.94,1.103c-0.236,0.558 -0.569,1.05 -1.001,1.474c-0.432,0.424 -0.918,0.783 -1.46,1.073c-0.543,0.294 -1.116,0.515 -1.721,0.668c-0.605,0.153 -1.2,0.229 -1.784,0.229c-1.043,-0 -1.997,-0.221 -2.858,-0.664c-0.862,-0.447 -1.607,-1.027 -2.233,-1.745c-0.625,-0.714 -1.112,-1.531 -1.46,-2.44c-0.348,-0.912 -0.522,-1.84 -0.522,-2.787" style="fill:#1d1d1b;fill-rule:nonzero;"/><path d="M201.418,80.366l4.09,0c0.333,0 0.635,-0.076 0.906,-0.221c0.271,-0.145 0.504,-0.348 0.7,-0.603c0.194,-0.26 0.348,-0.554 0.459,-0.886c0.111,-0.336 0.165,-0.691 0.165,-1.065c-0,-0.374 -0.066,-0.733 -0.198,-1.065c-0.132,-0.336 -0.306,-0.626 -0.521,-0.875c-0.216,-0.252 -0.467,-0.45 -0.751,-0.595c-0.284,-0.145 -0.581,-0.218 -0.886,-0.218l-3.964,0l0,5.528Zm-2.336,7.216l-0,-14.809l6.446,-0c0.668,-0 1.283,0.137 1.846,0.416c0.563,0.279 1.046,0.645 1.449,1.096c0.404,0.45 0.72,0.965 0.95,1.542c0.231,0.576 0.345,1.164 0.345,1.764c-0,0.5 -0.071,0.981 -0.209,1.439c-0.139,0.458 -0.334,0.886 -0.584,1.271c-0.25,0.39 -0.557,0.73 -0.919,1.012c-0.362,0.287 -0.758,0.5 -1.19,0.638l3.484,5.631l-2.648,0l-3.212,-5.15l-3.422,-0l0,5.15l-2.336,0Z" style="fill:#1d1d1b;fill-rule:nonzero;"/><path d="M221.217,71.227l-1.504,-0.459l1.191,-2.294l2.19,-0l-1.877,2.753Zm4.423,14.29l-0,2.065l-10.16,0l-0,-14.809l9.972,-0l-0,2.065l-7.636,0l0,4.211l6.613,0l0,1.943l-6.613,0l0,4.525l7.824,-0Z" style="fill:#1d1d1b;fill-rule:nonzero;"/><path d="M238.427,81.825l-2.378,-6.365l-2.462,6.365l4.84,-0Zm-3.4,-9.056l2.043,-0l5.843,14.817l-2.463,-0l-1.565,-4.028l-5.716,0l-1.543,4.028l-2.482,-0l5.883,-14.817Z" style="fill:#1d1d1b;fill-rule:nonzero;"/><path d="M256.765,74.838l-4.923,0l-0,12.744l-2.358,0l0,-12.744l-4.944,0l-0,-2.065l12.225,-0l0,2.065Z" style="fill:#1d1d1b;fill-rule:nonzero;"/><rect x="261.354" y="72.77" width="2.336" height="14.812" style="fill:#1d1d1b;"/><path d="M269.639,87.582l0,-14.809l9.865,-0l0,2.065l-7.528,0l-0,4.421l6.299,0l-0,1.94l-6.299,-0l-0,6.383l-2.337,0Z" style="fill:#1d1d1b;fill-rule:nonzero;"/><path d="M301.789,85.517l-0,2.065l-10.163,0l-0,-14.809l9.972,-0l-0,2.065l-7.636,0l0,4.211l6.617,0l-0,1.943l-6.617,0l0,4.525l7.827,-0Z" style="fill:#1d1d1b;fill-rule:nonzero;"/><path d="M309.153,77.152l0,10.43l-2.34,0l0,-14.809l1.836,-0l8.472,10.682l0,-10.663l2.356,-0l-0,14.79l-1.94,0l-8.384,-10.43Z" style="fill:#1d1d1b;fill-rule:nonzero;"/><path d="M340.299,81.825l-2.378,-6.365l-2.463,6.365l4.841,-0Zm-3.402,-9.056l2.047,-0l5.841,14.817l-2.463,-0l-1.565,-4.028l-5.715,0l-1.543,4.028l-2.485,-0l5.883,-14.817Z" style="fill:#1d1d1b;fill-rule:nonzero;"/><path d="M347.748,80.072c-0,-0.889 0.16,-1.775 0.477,-2.661c0.32,-0.882 0.79,-1.672 1.409,-2.374c0.618,-0.703 1.374,-1.272 2.263,-1.703c0.89,-0.431 1.898,-0.645 3.028,-0.645c1.348,-0 2.501,0.298 3.463,0.897c0.958,0.596 1.683,1.374 2.168,2.336l-1.836,1.23c-0.21,-0.443 -0.458,-0.821 -0.752,-1.126c-0.294,-0.306 -0.611,-0.55 -0.958,-0.73c-0.348,-0.179 -0.711,-0.309 -1.085,-0.385c-0.378,-0.077 -0.737,-0.119 -1.084,-0.119c-0.779,0 -1.462,0.161 -2.046,0.474c-0.584,0.313 -1.073,0.725 -1.47,1.241c-0.397,0.515 -0.695,1.091 -0.897,1.729c-0.203,0.641 -0.306,1.283 -0.306,1.92c0,0.722 0.122,1.413 0.359,2.066c0.237,0.653 0.565,1.229 0.989,1.729c0.424,0.504 0.928,0.901 1.512,1.203c0.584,0.298 1.225,0.447 1.92,0.447c0.363,-0 0.733,-0.046 1.115,-0.134c0.386,-0.092 0.752,-0.237 1.107,-0.439c0.355,-0.202 0.68,-0.454 0.981,-0.764c0.298,-0.305 0.546,-0.672 0.741,-1.103l1.939,1.103c-0.236,0.558 -0.569,1.05 -1,1.474c-0.431,0.424 -0.92,0.783 -1.462,1.073c-0.542,0.294 -1.115,0.515 -1.718,0.668c-0.607,0.153 -1.203,0.229 -1.787,0.229c-1.042,-0 -1.997,-0.221 -2.856,-0.664c-0.862,-0.447 -1.607,-1.027 -2.233,-1.745c-0.626,-0.714 -1.115,-1.531 -1.462,-2.44c-0.348,-0.912 -0.519,-1.84 -0.519,-2.787" style="fill:#1d1d1b;fill-rule:nonzero;"/><path d="M376.286,74.838l-4.922,0l0,12.744l-2.359,0l0,-12.744l-4.944,0l0,-2.065l12.225,-0l-0,2.065Z" style="fill:#1d1d1b;fill-rule:nonzero;"/><rect x="380.875" y="72.77" width="2.336" height="14.812" style="fill:#1d1d1b;"/><path d="M390.595,80.179c-0,0.695 0.11,1.367 0.336,2.024c0.221,0.653 0.538,1.229 0.95,1.729c0.409,0.5 0.905,0.901 1.489,1.203c0.588,0.298 1.241,0.446 1.963,0.446c0.752,0 1.416,-0.156 1.993,-0.469c0.576,-0.313 1.065,-0.726 1.469,-1.241c0.401,-0.515 0.711,-1.092 0.921,-1.733c0.206,-0.642 0.313,-1.294 0.313,-1.959c-0,-0.71 -0.115,-1.389 -0.336,-2.035c-0.222,-0.649 -0.539,-1.217 -0.947,-1.714c-0.413,-0.492 -0.905,-0.886 -1.482,-1.187c-0.58,-0.298 -1.221,-0.447 -1.931,-0.447c-0.752,0 -1.421,0.153 -2.005,0.466c-0.58,0.317 -1.076,0.722 -1.481,1.222c-0.401,0.5 -0.71,1.076 -0.928,1.721c-0.214,0.649 -0.324,1.306 -0.324,1.974m4.715,7.51c-1.058,-0 -2.016,-0.214 -2.886,-0.638c-0.871,-0.423 -1.619,-0.988 -2.245,-1.691c-0.623,-0.699 -1.108,-1.504 -1.447,-2.409c-0.344,-0.901 -0.512,-1.825 -0.512,-2.772c0,-0.989 0.18,-1.935 0.542,-2.84c0.363,-0.901 0.859,-1.703 1.489,-2.398c0.638,-0.695 1.386,-1.248 2.256,-1.66c0.867,-0.409 1.818,-0.615 2.849,-0.615c1.053,-0 2.019,0.217 2.886,0.656c0.87,0.44 1.615,1.012 2.233,1.722c0.619,0.71 1.1,1.512 1.44,2.413c0.343,0.894 0.511,1.81 0.511,2.741c0,0.989 -0.175,1.932 -0.531,2.837c-0.355,0.905 -0.855,1.703 -1.492,2.39c-0.642,0.687 -1.398,1.237 -2.264,1.649c-0.871,0.409 -1.814,0.615 -2.829,0.615" style="fill:#1d1d1b;fill-rule:nonzero;"/><path d="M409.791,77.152l-0,10.43l-2.337,0l0,-14.809l1.837,-0l8.471,10.682l0,-10.663l2.356,-0l-0,14.79l-1.94,0l-8.387,-10.43Z" style="fill:#1d1d1b;fill-rule:nonzero;"/></g><text x="39.928px" y="148.448px" style="font-family:'Raleway-SemiBold', 'Raleway';font-weight:600;font-size:26px;">L<tspan x="50.77px 54.722px 70.53px " y="148.448px 148.448px 148.448px ">’AT</tspan>ELIER SE DÉROULE EN 3 <tspan x="391.526px " y="148.448px ">T</tspan>EMPS:</text><g transform="matrix(0.48,0,0,0.48,-1370.08,-991.041)"><text x="3010.29px" y="2570.86px" style="font-family:'Raleway-Bold', 'Raleway';font-weight:700;font-size:66.667px;">JOURNÉE EN</text><text x="3010.29px" y="2637.52px" style="font-family:'Raleway-Bold', 'Raleway';font-weight:700;font-size:66.667px;">PRÉSENTIEL</text></g><g><path d="M440.091,258.691c-0.896,-0 -1.676,-0.635 -1.809,-1.515l-0.769,-5.122c-0.633,-4.214 -4.434,-7.39 -8.843,-7.39l-12.111,-0c-4.408,-0 -8.21,3.176 -8.84,7.389l-0.769,5.123c-0.144,0.966 -1.066,1.639 -2.075,1.496c-1,-0.139 -1.694,-1.036 -1.55,-2.003l0.769,-5.123c0.888,-5.939 6.25,-10.419 12.465,-10.419l12.111,-0c6.218,-0 11.577,4.479 12.468,10.419l0.769,5.123c0.144,0.967 -0.55,1.864 -1.55,2.003c-0.089,0.013 -0.179,0.019 -0.266,0.019Z" style="fill-rule:nonzero;"/><path d="M422.615,230.191c-3.122,0 -5.663,2.453 -5.663,5.468c-0,3.015 2.541,5.468 5.663,5.468c3.122,-0 5.662,-2.453 5.662,-5.468c0,-3.015 -2.54,-5.468 -5.662,-5.468Zm-0,14.473c-5.143,-0 -9.326,-4.04 -9.326,-9.005c0,-4.966 4.183,-9.004 9.326,-9.004c5.142,-0 9.328,4.038 9.328,9.004c-0,4.965 -4.186,9.005 -9.328,9.005Z" style="fill-rule:nonzero;"/><path d="M407.786,313.109c-3.186,0 -5.958,-2.186 -6.594,-5.2l-3.628,-17.185l-13.658,-0c-4.602,-0 -8.345,-3.615 -8.345,-8.058l-0,-30.726c-0,-4.582 3.859,-8.31 8.605,-8.31l1.318,0c4.654,0 8.629,3.058 9.672,7.438l2.443,10.278l8.186,0c3.351,0 6.076,2.632 6.076,5.867c0,3.234 -2.725,5.866 -6.076,5.866l-14.788,0c-2.365,0 -4.449,-1.539 -5.068,-3.743l-1.705,-6.093c-0.263,-0.944 0.315,-1.914 1.289,-2.169c0.977,-0.258 1.983,0.302 2.246,1.245l1.709,6.094c0.185,0.665 0.815,1.13 1.529,1.13l14.788,-0c1.33,-0 2.411,-1.046 2.411,-2.33c0,-1.285 -1.081,-2.33 -2.411,-2.33l-9.646,-0c-0.853,-0 -1.592,-0.569 -1.786,-1.373l-2.769,-11.651c-0.657,-2.763 -3.166,-4.692 -6.1,-4.692l-1.318,-0c-2.726,-0 -4.943,2.141 -4.943,4.773l0,30.726c0,2.494 2.102,4.521 4.683,4.521l15.156,0c0.87,0 1.618,0.592 1.795,1.415l3.922,18.6c0.292,1.374 1.556,2.371 3.007,2.371c0.896,-0 1.746,-0.378 2.329,-1.037c0.584,-0.66 0.839,-1.529 0.7,-2.387l-3.636,-22.202c-0.365,-2.223 -2.319,-3.835 -4.649,-3.835l-9.871,-0c-1.012,-0 -1.83,-0.791 -1.83,-1.768c0,-0.977 0.818,-1.769 1.83,-1.769l9.871,0c4.146,0 7.62,2.868 8.268,6.819l3.633,22.204c0.31,1.881 -0.248,3.788 -1.529,5.235c-1.281,1.446 -3.148,2.276 -5.116,2.276Z" style="fill-rule:nonzero;"/><path d="M385.129,232.415c-3.203,0 -5.807,2.516 -5.807,5.607c-0,3.093 2.604,5.608 5.807,5.608c3.203,0 5.81,-2.515 5.81,-5.608c-0,-3.091 -2.607,-5.607 -5.81,-5.607Zm-0,14.752c-5.224,-0 -9.47,-4.102 -9.47,-9.145c0,-5.041 4.246,-9.143 9.47,-9.143c5.223,-0 9.472,4.102 9.472,9.143c0,5.043 -4.249,9.145 -9.472,9.145Z" style="fill-rule:nonzero;"/><path d="M392.616,297.953l-10.942,0c-7.885,0 -14.302,-6.196 -14.302,-13.811l-0,-30.467c-0,-0.977 0.818,-1.769 1.829,-1.769c1.012,0 1.833,0.792 1.833,1.769l0,30.467c0,5.665 4.772,10.275 10.64,10.275l10.942,-0c1.011,-0 1.832,0.791 1.832,1.768c0,0.977 -0.821,1.768 -1.832,1.768Z" style="fill-rule:nonzero;"/><path d="M381.674,314.12c-1.011,-0 -1.829,-0.792 -1.829,-1.768l-0,-16.167c-0,-0.977 0.818,-1.768 1.829,-1.768c1.012,-0 1.833,0.791 1.833,1.768l0,16.167c0,0.976 -0.821,1.768 -1.833,1.768Z" style="fill-rule:nonzero;"/><path d="M392.616,314.12l-21.883,-0c-1.011,-0 -1.832,-0.792 -1.832,-1.768c-0,-0.977 0.821,-1.769 1.832,-1.769l21.883,0c1.011,0 1.832,0.792 1.832,1.769c0,0.976 -0.821,1.768 -1.832,1.768Z" style="fill-rule:nonzero;"/><path d="M437.446,313.109c-1.971,0 -3.835,-0.83 -5.116,-2.276c-1.281,-1.447 -1.838,-3.354 -1.532,-5.234l3.634,-22.205c0.65,-3.951 4.124,-6.819 8.27,-6.819l9.868,0c1.015,0 1.833,0.792 1.833,1.769c-0,0.977 -0.818,1.768 -1.833,1.768l-9.868,-0c-2.333,-0 -4.287,1.612 -4.651,3.835l-3.634,22.204c-0.139,0.856 0.116,1.725 0.7,2.385c0.581,0.659 1.43,1.037 2.329,1.037c1.452,-0 2.715,-0.997 3.004,-2.371l3.925,-18.6c0.174,-0.823 0.925,-1.415 1.795,-1.415l15.153,0c2.584,0 4.683,-2.027 4.683,-4.521l-0,-30.726c-0,-2.632 -2.217,-4.773 -4.943,-4.773l-1.315,-0c-2.934,-0 -5.446,1.929 -6.102,4.692l-2.77,11.651c-0.19,0.804 -0.93,1.373 -1.783,1.373l-9.646,-0c-1.33,-0 -2.414,1.045 -2.414,2.33c0,1.284 1.084,2.33 2.414,2.33l14.788,-0c0.714,-0 1.342,-0.465 1.529,-1.13l1.706,-6.094c0.263,-0.942 1.269,-1.498 2.246,-1.245c0.977,0.255 1.555,1.225 1.292,2.169l-1.709,6.093c-0.615,2.204 -2.699,3.743 -5.064,3.743l-14.788,0c-3.35,0 -6.076,-2.632 -6.076,-5.866c-0,-3.235 2.726,-5.867 6.076,-5.867l8.186,0l2.443,-10.278c1.04,-4.38 5.018,-7.438 9.672,-7.438l1.315,0c4.746,0 8.608,3.728 8.608,8.31l0,30.726c0,4.443 -3.746,8.058 -8.348,8.058l-13.655,-0l-3.628,17.185c-0.636,3.014 -3.408,5.2 -6.594,5.2Z" style="fill-rule:nonzero;"/><path d="M460.1,232.415c-3.202,0 -5.807,2.516 -5.807,5.607c0,3.093 2.605,5.608 5.807,5.608c3.206,0 5.811,-2.515 5.811,-5.608c-0,-3.091 -2.605,-5.607 -5.811,-5.607Zm0,14.752c-5.22,-0 -9.469,-4.102 -9.469,-9.145c-0,-5.041 4.249,-9.143 9.469,-9.143c5.224,-0 9.473,4.102 9.473,9.143c0,5.043 -4.249,9.145 -9.473,9.145Z" style="fill-rule:nonzero;"/><path d="M463.554,297.953l-10.94,0c-1.012,0 -1.83,-0.791 -1.83,-1.768c-0,-0.977 0.818,-1.768 1.83,-1.768l10.94,-0c5.868,-0 10.644,-4.61 10.644,-10.275l0,-30.467c0,-0.977 0.818,-1.769 1.83,-1.769c1.012,0 1.833,0.792 1.833,1.769l-0,30.467c-0,7.615 -6.418,13.811 -14.307,13.811Z" style="fill-rule:nonzero;"/><path d="M463.554,314.12c-1.011,-0 -1.829,-0.792 -1.829,-1.768l-0,-16.167c-0,-0.977 0.818,-1.768 1.829,-1.768c1.015,-0 1.833,0.791 1.833,1.768l0,16.167c0,0.976 -0.818,1.768 -1.833,1.768Z" style="fill-rule:nonzero;"/><path d="M474.496,314.12l-21.882,-0c-1.012,-0 -1.833,-0.792 -1.833,-1.768c-0,-0.977 0.821,-1.769 1.833,-1.769l21.882,0c1.011,0 1.832,0.792 1.832,1.769c0,0.976 -0.821,1.768 -1.832,1.768Z" style="fill-rule:nonzero;"/><path d="M440.233,273.079l-34.448,0c-1.011,0 -1.832,-0.791 -1.832,-1.768c-0,-0.977 0.821,-1.768 1.832,-1.768l34.448,-0c1.012,-0 1.83,0.791 1.83,1.768c-0,0.977 -0.818,1.768 -1.83,1.768Z" style="fill-rule:nonzero;"/></g><text x="130.124px" y="328.686px" style="font-family:'Raleway-SemiBold', 'Raleway';font-weight:600;font-size:28px;">1 journée</text><text x="130.124px" y="801.498px" style="font-family:'Raleway-SemiBold', 'Raleway';font-weight:600;font-size:28px;">45 minut<tspan x="244.812px " y="801.498px ">e</tspan>s</text><text x="130.124px" y="1086.99px" style="font-family:'Raleway-SemiBold', 'Raleway';font-weight:600;font-size:28px;">45 minut<tspan x="244.812px " y="1086.99px ">e</tspan>s</text><text x="130.124px" y="382.148px" style="font-family:'Raleway-SemiBold', 'Raleway';font-weight:600;font-size:28px;">17 no<tspan x="198.64px 213.368px " y="382.148px 382.148px ">ve</tspan>mbr<tspan x="283.788px " y="382.148px ">e</tspan> de 9h à 16h</text><text x="130.124px" y="854.69px" style="font-family:'Raleway-SemiBold', 'Raleway';font-weight:600;font-size:28px;">24 no<tspan x="201.272px 216px " y="854.69px 854.69px ">ve</tspan>mbr<tspan x="286.42px " y="854.69px ">e</tspan> à 14h</text><text x="130.124px" y="908.972px" style="font-family:'Raleway-SemiBold', 'Raleway';font-weight:600;font-size:28px;">Z<tspan x="147.344px " y="908.972px ">o</tspan>om</text><text x="130.124px" y="1198.26px" style="font-family:'Raleway-SemiBold', 'Raleway';font-weight:600;font-size:28px;">Z<tspan x="147.344px " y="1198.26px ">o</tspan>om</text><text x="130.124px" y="1143.18px" style="font-family:'Raleway-SemiBold', 'Raleway';font-weight:600;font-size:28px;">1er<tspan x="169.828px " y="1143.18px "> </tspan>déc<tspan x="226.752px " y="1143.18px ">e</tspan>mbr<tspan x="297.172px " y="1143.18px ">e</tspan> à 14h</text><g><text x="130.124px" y="436.704px" style="font-family:'Raleway-SemiBold', 'Raleway';font-weight:600;font-size:26px;">Espac<tspan x="203.938px " y="436.704px ">e</tspan> R<tspan x="242.574px " y="436.704px ">o</tspan>dier</text><g transform="matrix(0.75,0,0,0.75,-353.263,-138.859)"><text x="643.267px" y="816.938px" style="font-family:'Raleway-Medium', 'Raleway';font-weight:500;font-size:34.667px;">914 rue N<tspan x="796.459px 816.947px 829.149px 841.317px " y="816.938px 816.938px 816.938px 816.938px ">otre</tspan>-D<tspan x="901.117px " y="816.938px ">a</tspan>me Ouest</text><text x="643.267px" y="859.604px" style="font-family:'Raleway-Medium', 'Raleway';font-weight:500;font-size:34.667px;">M<tspan x="673.253px 694.019px 714.299px 726.501px 738.669px " y="859.604px 859.604px 859.604px 859.604px 859.604px ">ontré</tspan>al, QC  H3C 1J9</text></g></g><path d="M106.336,327.273l2.054,-2.053l-7.256,-7.301l0,-9.172l-2.738,-0l0,10.267l7.94,8.259Zm-6.708,9.446c-2.494,0 -4.852,-0.479 -7.073,-1.437c-2.221,-0.958 -4.16,-2.266 -5.818,-3.924c-1.658,-1.658 -2.966,-3.598 -3.924,-5.819c-0.959,-2.22 -1.438,-4.578 -1.438,-7.073c0,-2.494 0.479,-4.852 1.438,-7.073c0.958,-2.221 2.266,-4.16 3.924,-5.818c1.658,-1.658 3.597,-2.966 5.818,-3.924c2.221,-0.959 4.579,-1.438 7.073,-1.438c2.495,0 4.853,0.479 7.073,1.438c2.221,0.958 4.161,2.266 5.819,3.924c1.658,1.658 2.966,3.597 3.924,5.818c0.958,2.221 1.437,4.579 1.437,7.073c0,2.495 -0.479,4.853 -1.437,7.073c-0.958,2.221 -2.266,4.161 -3.924,5.819c-1.658,1.658 -3.598,2.966 -5.819,3.924c-2.22,0.958 -4.578,1.437 -7.073,1.437Zm0,-2.737c4.259,-0 7.91,-1.522 10.952,-4.564c3.042,-3.042 4.564,-6.693 4.564,-10.952c-0,-4.259 -1.522,-7.909 -4.564,-10.952c-3.042,-3.042 -6.693,-4.563 -10.952,-4.563c-4.259,0 -7.909,1.521 -10.952,4.563c-3.042,3.043 -4.563,6.693 -4.563,10.952c0,4.259 1.521,7.91 4.563,10.952c3.043,3.042 6.693,4.564 10.952,4.564Z" style="fill-rule:nonzero;"/><path d="M106.336,800.086l2.054,-2.054l-7.256,-7.301l0,-9.172l-2.738,-0l0,10.267l7.94,8.26Zm-6.708,9.446c-2.494,-0 -4.852,-0.48 -7.073,-1.438c-2.221,-0.958 -4.16,-2.266 -5.818,-3.924c-1.658,-1.658 -2.966,-3.598 -3.924,-5.819c-0.959,-2.22 -1.438,-4.578 -1.438,-7.073c0,-2.494 0.479,-4.852 1.438,-7.073c0.958,-2.221 2.266,-4.16 3.924,-5.818c1.658,-1.658 3.597,-2.966 5.818,-3.924c2.221,-0.959 4.579,-1.438 7.073,-1.438c2.495,0 4.853,0.479 7.073,1.438c2.221,0.958 4.161,2.266 5.819,3.924c1.658,1.658 2.966,3.597 3.924,5.818c0.958,2.221 1.437,4.579 1.437,7.073c0,2.495 -0.479,4.853 -1.437,7.073c-0.958,2.221 -2.266,4.161 -3.924,5.819c-1.658,1.658 -3.598,2.966 -5.819,3.924c-2.22,0.958 -4.578,1.438 -7.073,1.438Zm0,-2.738c4.259,-0 7.91,-1.522 10.952,-4.564c3.042,-3.042 4.564,-6.693 4.564,-10.952c-0,-4.259 -1.522,-7.909 -4.564,-10.952c-3.042,-3.042 -6.693,-4.563 -10.952,-4.563c-4.259,0 -7.909,1.521 -10.952,4.563c-3.042,3.043 -4.563,6.693 -4.563,10.952c0,4.259 1.521,7.91 4.563,10.952c3.043,3.042 6.693,4.564 10.952,4.564Z" style="fill-rule:nonzero;"/><path d="M106.336,1089.56l2.054,-2.054l-7.256,-7.301l0,-9.172l-2.738,-0l0,10.267l7.94,8.26Zm-6.708,9.446c-2.494,-0 -4.852,-0.479 -7.073,-1.438c-2.221,-0.958 -4.16,-2.266 -5.818,-3.924c-1.658,-1.658 -2.966,-3.598 -3.924,-5.818c-0.959,-2.221 -1.438,-4.579 -1.438,-7.073c0,-2.495 0.479,-4.853 1.438,-7.074c0.958,-2.22 2.266,-4.16 3.924,-5.818c1.658,-1.658 3.597,-2.966 5.818,-3.924c2.221,-0.958 4.579,-1.438 7.073,-1.438c2.495,0 4.853,0.48 7.073,1.438c2.221,0.958 4.161,2.266 5.819,3.924c1.658,1.658 2.966,3.598 3.924,5.818c0.958,2.221 1.437,4.579 1.437,7.074c0,2.494 -0.479,4.852 -1.437,7.073c-0.958,2.22 -2.266,4.16 -3.924,5.818c-1.658,1.658 -3.598,2.966 -5.819,3.924c-2.22,0.959 -4.578,1.438 -7.073,1.438Zm0,-2.738c4.259,-0 7.91,-1.521 10.952,-4.564c3.042,-3.042 4.564,-6.692 4.564,-10.951c-0,-4.259 -1.522,-7.91 -4.564,-10.952c-3.042,-3.043 -6.693,-4.564 -10.952,-4.564c-4.259,0 -7.909,1.521 -10.952,4.564c-3.042,3.042 -4.563,6.693 -4.563,10.952c0,4.259 1.521,7.909 4.563,10.951c3.043,3.043 6.693,4.564 10.952,4.564Z" style="fill-rule:nonzero;"/><path d="M85.516,390.745c-0.753,-0 -1.411,-0.282 -1.976,-0.847c-0.564,-0.564 -0.846,-1.223 -0.846,-1.975l-0,-29.166c-0,-0.752 0.282,-1.411 0.846,-1.976c0.565,-0.564 1.223,-0.846 1.976,-0.846l3.058,-0l-0,-2.823l3.057,0l0,2.823l15.994,-0l0,-2.823l3.058,0l-0,2.823l3.058,-0c0.752,-0 1.411,0.282 1.975,0.846c0.565,0.565 0.847,1.224 0.847,1.976l0,29.166c0,0.752 -0.282,1.411 -0.847,1.975c-0.564,0.565 -1.223,0.847 -1.975,0.847l-28.225,-0Zm0,-2.822l28.225,-0l-0,-20.228l-28.225,-0l0,20.228Zm0,-23.051l28.225,0l-0,-6.115l-28.225,0l0,6.115Zm0,0l0,-6.115l0,6.115Zm14.112,10.82c-0.533,-0 -0.98,-0.18 -1.34,-0.541c-0.361,-0.361 -0.541,-0.808 -0.541,-1.341c-0,-0.533 0.18,-0.98 0.541,-1.34c0.36,-0.361 0.807,-0.541 1.34,-0.541c0.533,-0 0.98,0.18 1.341,0.541c0.361,0.36 0.541,0.807 0.541,1.34c-0,0.533 -0.18,0.98 -0.541,1.341c-0.361,0.361 -0.808,0.541 -1.341,0.541Zm-7.526,-0c-0.533,-0 -0.98,-0.18 -1.341,-0.541c-0.361,-0.361 -0.541,-0.808 -0.541,-1.341c0,-0.533 0.18,-0.98 0.541,-1.34c0.361,-0.361 0.808,-0.541 1.341,-0.541c0.533,-0 0.98,0.18 1.34,0.541c0.361,0.36 0.541,0.807 0.541,1.34c0,0.533 -0.18,0.98 -0.541,1.341c-0.36,0.361 -0.807,0.541 -1.34,0.541Zm15.053,-0c-0.533,-0 -0.98,-0.18 -1.341,-0.541c-0.36,-0.361 -0.541,-0.808 -0.541,-1.341c0,-0.533 0.181,-0.98 0.541,-1.34c0.361,-0.361 0.808,-0.541 1.341,-0.541c0.533,-0 0.98,0.18 1.341,0.541c0.36,0.36 0.541,0.807 0.541,1.34c-0,0.533 -0.181,0.98 -0.541,1.341c-0.361,0.361 -0.808,0.541 -1.341,0.541Zm-7.527,7.526c-0.533,0 -0.98,-0.18 -1.34,-0.541c-0.361,-0.36 -0.541,-0.807 -0.541,-1.34c-0,-0.533 0.18,-0.98 0.541,-1.341c0.36,-0.361 0.807,-0.541 1.34,-0.541c0.533,0 0.98,0.18 1.341,0.541c0.361,0.361 0.541,0.808 0.541,1.341c-0,0.533 -0.18,0.98 -0.541,1.34c-0.361,0.361 -0.808,0.541 -1.341,0.541Zm-7.526,0c-0.533,0 -0.98,-0.18 -1.341,-0.541c-0.361,-0.36 -0.541,-0.807 -0.541,-1.34c0,-0.533 0.18,-0.98 0.541,-1.341c0.361,-0.361 0.808,-0.541 1.341,-0.541c0.533,0 0.98,0.18 1.34,0.541c0.361,0.361 0.541,0.808 0.541,1.341c0,0.533 -0.18,0.98 -0.541,1.34c-0.36,0.361 -0.807,0.541 -1.34,0.541Zm15.053,0c-0.533,0 -0.98,-0.18 -1.341,-0.541c-0.36,-0.36 -0.541,-0.807 -0.541,-1.34c0,-0.533 0.181,-0.98 0.541,-1.341c0.361,-0.361 0.808,-0.541 1.341,-0.541c0.533,0 0.98,0.18 1.341,0.541c0.36,0.361 0.541,0.808 0.541,1.341c-0,0.533 -0.181,0.98 -0.541,1.34c-0.361,0.361 -0.808,0.541 -1.341,0.541Z" style="fill-rule:nonzero;"/><path d="M86.321,863.287c-0.753,0 -1.412,-0.282 -1.976,-0.847c-0.565,-0.564 -0.847,-1.223 -0.847,-1.975l0,-29.166c0,-0.752 0.282,-1.411 0.847,-1.975c0.564,-0.565 1.223,-0.847 1.976,-0.847l3.057,-0l0,-2.823l3.058,0l-0,2.823l15.994,-0l-0,-2.823l3.057,0l0,2.823l3.058,-0c0.753,-0 1.411,0.282 1.976,0.847c0.564,0.564 0.847,1.223 0.847,1.975l-0,29.166c-0,0.752 -0.283,1.411 -0.847,1.975c-0.565,0.565 -1.223,0.847 -1.976,0.847l-28.224,0Zm-0,-2.822l28.224,-0l0,-20.228l-28.224,0l-0,20.228Zm-0,-23.05l28.224,-0l0,-6.116l-28.224,0l-0,6.116Zm-0,-0l-0,-6.116l-0,6.116Zm14.112,10.819c-0.533,-0 -0.98,-0.18 -1.341,-0.541c-0.36,-0.361 -0.541,-0.808 -0.541,-1.341c0,-0.533 0.181,-0.98 0.541,-1.34c0.361,-0.361 0.808,-0.541 1.341,-0.541c0.533,-0 0.98,0.18 1.341,0.541c0.36,0.36 0.541,0.807 0.541,1.34c-0,0.533 -0.181,0.98 -0.541,1.341c-0.361,0.361 -0.808,0.541 -1.341,0.541Zm-7.527,-0c-0.533,-0 -0.98,-0.18 -1.34,-0.541c-0.361,-0.361 -0.541,-0.808 -0.541,-1.341c-0,-0.533 0.18,-0.98 0.541,-1.34c0.36,-0.361 0.807,-0.541 1.34,-0.541c0.533,-0 0.98,0.18 1.341,0.541c0.361,0.36 0.541,0.807 0.541,1.34c-0,0.533 -0.18,0.98 -0.541,1.341c-0.361,0.361 -0.808,0.541 -1.341,0.541Zm15.053,-0c-0.533,-0 -0.98,-0.18 -1.34,-0.541c-0.361,-0.361 -0.541,-0.808 -0.541,-1.341c-0,-0.533 0.18,-0.98 0.541,-1.34c0.36,-0.361 0.807,-0.541 1.34,-0.541c0.534,-0 0.98,0.18 1.341,0.541c0.361,0.36 0.541,0.807 0.541,1.34c0,0.533 -0.18,0.98 -0.541,1.341c-0.361,0.361 -0.807,0.541 -1.341,0.541Zm-7.526,7.527c-0.533,-0 -0.98,-0.181 -1.341,-0.541c-0.36,-0.361 -0.541,-0.808 -0.541,-1.341c0,-0.533 0.181,-0.98 0.541,-1.341c0.361,-0.36 0.808,-0.541 1.341,-0.541c0.533,0 0.98,0.181 1.341,0.541c0.36,0.361 0.541,0.808 0.541,1.341c-0,0.533 -0.181,0.98 -0.541,1.341c-0.361,0.36 -0.808,0.541 -1.341,0.541Zm-7.527,-0c-0.533,-0 -0.98,-0.181 -1.34,-0.541c-0.361,-0.361 -0.541,-0.808 -0.541,-1.341c-0,-0.533 0.18,-0.98 0.541,-1.341c0.36,-0.36 0.807,-0.541 1.34,-0.541c0.533,0 0.98,0.181 1.341,0.541c0.361,0.361 0.541,0.808 0.541,1.341c-0,0.533 -0.18,0.98 -0.541,1.341c-0.361,0.36 -0.808,0.541 -1.341,0.541Zm15.053,-0c-0.533,-0 -0.98,-0.181 -1.34,-0.541c-0.361,-0.361 -0.541,-0.808 -0.541,-1.341c-0,-0.533 0.18,-0.98 0.541,-1.341c0.36,-0.36 0.807,-0.541 1.34,-0.541c0.534,0 0.98,0.181 1.341,0.541c0.361,0.361 0.541,0.808 0.541,1.341c0,0.533 -0.18,0.98 -0.541,1.341c-0.361,0.36 -0.807,0.541 -1.341,0.541Z" style="fill-rule:nonzero;"/><path d="M86.321,1153.45c-0.753,0 -1.412,-0.282 -1.976,-0.847c-0.565,-0.564 -0.847,-1.223 -0.847,-1.975l0,-29.166c0,-0.752 0.282,-1.411 0.847,-1.975c0.564,-0.565 1.223,-0.847 1.976,-0.847l3.057,-0l0,-2.823l3.058,0l-0,2.823l15.994,-0l-0,-2.823l3.057,0l0,2.823l3.058,-0c0.753,-0 1.411,0.282 1.976,0.847c0.564,0.564 0.847,1.223 0.847,1.975l-0,29.166c-0,0.752 -0.283,1.411 -0.847,1.975c-0.565,0.565 -1.223,0.847 -1.976,0.847l-28.224,0Zm-0,-2.822l28.224,-0l0,-20.228l-28.224,0l-0,20.228Zm-0,-23.05l28.224,-0l0,-6.116l-28.224,0l-0,6.116Zm-0,-0l-0,-6.116l-0,6.116Zm14.112,10.819c-0.533,0 -0.98,-0.18 -1.341,-0.541c-0.36,-0.361 -0.541,-0.807 -0.541,-1.341c0,-0.533 0.181,-0.98 0.541,-1.34c0.361,-0.361 0.808,-0.541 1.341,-0.541c0.533,-0 0.98,0.18 1.341,0.541c0.36,0.36 0.541,0.807 0.541,1.34c-0,0.534 -0.181,0.98 -0.541,1.341c-0.361,0.361 -0.808,0.541 -1.341,0.541Zm-7.527,0c-0.533,0 -0.98,-0.18 -1.34,-0.541c-0.361,-0.361 -0.541,-0.807 -0.541,-1.341c-0,-0.533 0.18,-0.98 0.541,-1.34c0.36,-0.361 0.807,-0.541 1.34,-0.541c0.533,-0 0.98,0.18 1.341,0.541c0.361,0.36 0.541,0.807 0.541,1.34c-0,0.534 -0.18,0.98 -0.541,1.341c-0.361,0.361 -0.808,0.541 -1.341,0.541Zm15.053,0c-0.533,0 -0.98,-0.18 -1.34,-0.541c-0.361,-0.361 -0.541,-0.807 -0.541,-1.341c-0,-0.533 0.18,-0.98 0.541,-1.34c0.36,-0.361 0.807,-0.541 1.34,-0.541c0.534,-0 0.98,0.18 1.341,0.541c0.361,0.36 0.541,0.807 0.541,1.34c0,0.534 -0.18,0.98 -0.541,1.341c-0.361,0.361 -0.807,0.541 -1.341,0.541Zm-7.526,7.527c-0.533,-0 -0.98,-0.181 -1.341,-0.541c-0.36,-0.361 -0.541,-0.808 -0.541,-1.341c0,-0.533 0.181,-0.98 0.541,-1.341c0.361,-0.36 0.808,-0.541 1.341,-0.541c0.533,0 0.98,0.181 1.341,0.541c0.36,0.361 0.541,0.808 0.541,1.341c-0,0.533 -0.181,0.98 -0.541,1.341c-0.361,0.36 -0.808,0.541 -1.341,0.541Zm-7.527,-0c-0.533,-0 -0.98,-0.181 -1.34,-0.541c-0.361,-0.361 -0.541,-0.808 -0.541,-1.341c-0,-0.533 0.18,-0.98 0.541,-1.341c0.36,-0.36 0.807,-0.541 1.34,-0.541c0.533,0 0.98,0.181 1.341,0.541c0.361,0.361 0.541,0.808 0.541,1.341c-0,0.533 -0.18,0.98 -0.541,1.341c-0.361,0.36 -0.808,0.541 -1.341,0.541Zm15.053,-0c-0.533,-0 -0.98,-0.181 -1.34,-0.541c-0.361,-0.361 -0.541,-0.808 -0.541,-1.341c-0,-0.533 0.18,-0.98 0.541,-1.341c0.36,-0.36 0.807,-0.541 1.34,-0.541c0.534,0 0.98,0.181 1.341,0.541c0.361,0.361 0.541,0.808 0.541,1.341c0,0.533 -0.18,0.98 -0.541,1.341c-0.361,0.36 -0.807,0.541 -1.341,0.541Z" style="fill-rule:nonzero;"/><path d="M99.633,425.711c0.917,0 1.702,-0.326 2.353,-0.98c0.651,-0.654 0.976,-1.44 0.976,-2.357c0,-0.918 -0.327,-1.703 -0.98,-2.354c-0.654,-0.651 -1.44,-0.976 -2.358,-0.976c-0.918,-0 -1.702,0.327 -2.353,0.981c-0.651,0.653 -0.976,1.439 -0.976,2.357c-0,0.918 0.326,1.702 0.98,2.353c0.654,0.651 1.44,0.976 2.358,0.976Zm-0.005,15.764c4.223,-3.841 7.343,-7.326 9.359,-10.453c2.016,-3.128 3.024,-5.882 3.024,-8.263c-0,-3.74 -1.195,-6.802 -3.586,-9.187c-2.39,-2.384 -5.323,-3.577 -8.797,-3.577c-3.474,0 -6.406,1.193 -8.796,3.577c-2.391,2.385 -3.586,5.447 -3.586,9.187c-0,2.381 1.032,5.135 3.095,8.263c2.064,3.127 5.16,6.612 9.287,10.453Zm0,3.763c-5.111,-4.35 -8.929,-8.39 -11.453,-12.121c-2.525,-3.73 -3.787,-7.183 -3.787,-10.358c0,-4.763 1.532,-8.557 4.596,-11.383c3.064,-2.825 6.612,-4.238 10.644,-4.238c4.033,-0 7.581,1.413 10.645,4.238c3.063,2.826 4.595,6.62 4.595,11.383c0,3.175 -1.262,6.628 -3.786,10.358c-2.524,3.731 -6.342,7.771 -11.454,12.121Z" style="fill-rule:nonzero;"/><path d="M99.633,898.276c0.917,-0 1.702,-0.327 2.353,-0.981c0.651,-0.654 0.976,-1.439 0.976,-2.357c0,-0.918 -0.327,-1.703 -0.98,-2.354c-0.654,-0.65 -1.44,-0.976 -2.358,-0.976c-0.918,0 -1.702,0.327 -2.353,0.981c-0.651,0.653 -0.976,1.439 -0.976,2.357c-0,0.918 0.326,1.702 0.98,2.353c0.654,0.651 1.44,0.977 2.358,0.977Zm-0.005,15.763c4.223,-3.841 7.343,-7.326 9.359,-10.453c2.016,-3.128 3.024,-5.882 3.024,-8.263c-0,-3.74 -1.195,-6.802 -3.586,-9.187c-2.39,-2.384 -5.323,-3.577 -8.797,-3.577c-3.474,0 -6.406,1.193 -8.796,3.577c-2.391,2.385 -3.586,5.447 -3.586,9.187c-0,2.381 1.032,5.135 3.095,8.263c2.064,3.127 5.16,6.612 9.287,10.453Zm0,3.763c-5.111,-4.35 -8.929,-8.39 -11.453,-12.121c-2.525,-3.73 -3.787,-7.183 -3.787,-10.358c0,-4.763 1.532,-8.557 4.596,-11.383c3.064,-2.825 6.612,-4.238 10.644,-4.238c4.033,-0 7.581,1.413 10.645,4.238c3.063,2.826 4.595,6.62 4.595,11.383c0,3.175 -1.262,6.628 -3.786,10.358c-2.524,3.731 -6.342,7.771 -11.454,12.121Z" style="fill-rule:nonzero;"/><path d="M99.633,1188.86c0.917,-0 1.702,-0.327 2.353,-0.981c0.651,-0.653 0.976,-1.439 0.976,-2.357c0,-0.918 -0.327,-1.702 -0.98,-2.353c-0.654,-0.651 -1.44,-0.977 -2.358,-0.977c-0.918,0 -1.702,0.327 -2.353,0.981c-0.651,0.654 -0.976,1.439 -0.976,2.357c-0,0.918 0.326,1.703 0.98,2.354c0.654,0.65 1.44,0.976 2.358,0.976Zm-0.005,15.764c4.223,-3.842 7.343,-7.327 9.359,-10.454c2.016,-3.127 3.024,-5.882 3.024,-8.263c-0,-3.74 -1.195,-6.802 -3.586,-9.186c-2.39,-2.385 -5.323,-3.577 -8.797,-3.577c-3.474,-0 -6.406,1.192 -8.796,3.577c-2.391,2.384 -3.586,5.446 -3.586,9.186c-0,2.381 1.032,5.136 3.095,8.263c2.064,3.127 5.16,6.612 9.287,10.454Zm0,3.762c-5.111,-4.35 -8.929,-8.39 -11.453,-12.12c-2.525,-3.731 -3.787,-7.184 -3.787,-10.359c0,-4.762 1.532,-8.556 4.596,-11.382c3.064,-2.826 6.612,-4.239 10.644,-4.239c4.033,0 7.581,1.413 10.645,4.239c3.063,2.826 4.595,6.62 4.595,11.382c0,3.175 -1.262,6.628 -3.786,10.359c-2.524,3.73 -6.342,7.77 -11.454,12.12Z" style="fill-rule:nonzero;"/><text x="6.833px" y="377.439px" style="font-family:'Raleway-Medium', 'Raleway';font-weight:500;font-size:128px;">1</text><text x="-1.103px" y="849.62px" style="font-family:'Raleway-Medium', 'Raleway';font-weight:500;font-size:128px;">2</text><text x="-2.255px" y="1136.57px" style="font-family:'Raleway-Medium', 'Raleway';font-weight:500;font-size:128px;">3</text><g transform="matrix(0.48,0,0,0.48,-1480.01,-289.844)"><text x="3089.43px" y="1751.42px" style="font-family:'Raleway-Medium', 'Raleway';font-weight:500;font-size:50px;">7 e<tspan x="3158.13px " y="1751.42px ">t</tspan> 14 jours suiv<tspan x="3470.73px 3498.43px 3527.68px " y="1751.42px 1751.42px 1751.42px ">ant</tspan> l<tspan x="3571.43px 3581.93px 3609.43px 3626.68px " y="1751.42px 1751.42px 1751.42px 1751.42px ">&apos;ate</tspan>lier<tspan x="3728.58px " y="1751.42px "> </tspan>pour<tspan x="3849.38px " y="1751.42px "> </tspan>ra<tspan x="3907.68px " y="1751.42px ">f</tspan>raichir</text><text x="3089.43px" y="1818.09px" style="font-family:'Raleway-Medium', 'Raleway';font-weight:500;font-size:50px;">v<tspan x="3115.48px 3145.03px 3162.63px 3180.18px " y="1818.09px 1818.09px 1818.09px 1818.09px ">otre</tspan> esprit cr<tspan x="3412.63px 3442.18px 3469.68px " y="1818.09px 1818.09px 1818.09px ">éat</tspan>if<tspan x="3514.83px 3527.48px 3556.78px " y="1818.09px 1818.09px 1818.09px "> et</tspan> r<tspan x="3604.58px 3634.13px 3663.38px 3679.93px 3709.88px 3727.43px 3754.88px 3784.43px 3801.43px 3812.73px 3838.78px 3868.33px 3885.93px 3903.48px " y="1818.09px 1818.09px 1818.09px 1818.09px 1818.09px 1818.09px 1818.09px 1818.09px 1818.09px 1818.09px 1818.09px 1818.09px 1818.09px 1818.09px ">enforcer votre</tspan> plan</text><text x="3089.43px" y="1884.76px" style="font-family:'Raleway-Medium', 'Raleway';font-weight:500;font-size:50px;">d&apos;action dans la dur<tspan x="3547.38px " y="1884.76px ">é</tspan>e pour<tspan x="3727.28px " y="1884.76px "> </tspan>des r<tspan x="3855.53px " y="1884.76px ">é</tspan>sulta<tspan x="3998.93px " y="1884.76px ">t</tspan>s</text><text x="3089.43px" y="1951.42px" style="font-family:'Raleway-Medium', 'Raleway';font-weight:500;font-size:50px;">c<tspan x="3116.88px " y="1951.42px ">o</tspan>ncr<tspan x="3221.58px 3250.88px " y="1951.42px 1951.42px ">et</tspan>s.</text></g><g transform="matrix(0.48,0,0,0.48,-1361.22,-521.305)"><text x="3010.29px" y="2570.86px" style="font-family:'Raleway-Bold', 'Raleway';font-weight:700;font-size:66.667px;">SESSION EN</text><text x="3010.29px" y="2637.52px" style="font-family:'Raleway-Bold', 'Raleway';font-weight:700;font-size:66.667px;">LIGNE</text></g><g><text x="1px" y="1282.38px" style="font-family:'Raleway-ExtraBold', 'Raleway';font-weight:800;font-size:36px;">Prix</text><text x="3.703px" y="1324.33px" style="font-family:'Raleway-Medium', 'Raleway';font-weight:500;font-size:32px;">696$</text><text x="3.703px" y="1390.02px" style="font-family:'Raleway-Medium', 'Raleway';font-weight:500;font-size:32px;">549$</text><path d="M1,1312.28l80.503,-0" style="fill:none;stroke:#000;stroke-width:2px;stroke-linecap:round;stroke-linejoin:round;stroke-miterlimit:1.5;"/><text x="1px" y="1342.61px" style="font-family:'Raleway-Medium', 'Raleway';font-weight:500;font-size:12px;">Inclut le diner</text></g><g><text x="167.383px" y="1282.38px" style="font-family:'Raleway-ExtraBold', 'Raleway';font-weight:800;font-size:36px;">Plac<tspan x="243.307px " y="1282.38px ">e</tspan>s</text><text x="167.383px" y="1326.17px" style="font-family:'Raleway-Medium', 'Raleway';font-weight:500;font-size:32px;">12</text></g><g><text x="368.803px" y="1282.38px" style="font-family:'Raleway-ExtraBold', 'Raleway';font-weight:800;font-size:36px;">Langue</text><text x="368.803px" y="1327.59px" style="font-family:'Raleway-Medium', 'Raleway';font-weight:500;font-size:32px;">F<tspan x="386.243px " y="1327.59px ">r</tspan>ançais</text></g><g transform="matrix(0.48,0,0,0.48,-1361.22,-232.907)"><text x="3010.29px" y="2570.86px" style="font-family:'Raleway-Bold', 'Raleway';font-weight:700;font-size:66.667px;">SESSION EN</text><text x="3010.29px" y="2637.52px" style="font-family:'Raleway-Bold', 'Raleway';font-weight:700;font-size:66.667px;">LIGNE</text></g><text x="1px" y="1412.21px" style="font-family:'Raleway-Medium', 'Raleway';font-weight:500;font-size:12px;">Jusqu&apos;au 29 sep<tspan x="90.76px " y="1412.21px ">t</tspan>embr<tspan x="124.768px " y="1412.21px ">e</tspan> 2023</text><g><path d="M408.933,1071.63c-0.014,0 -0.032,0 -0.049,-0.002l-16.616,-0.498c-0.426,-0.012 -0.827,-0.198 -1.114,-0.512c-0.287,-0.315 -0.433,-0.733 -0.403,-1.159l0.653,-9.876c0.057,-0.866 0.807,-1.522 1.668,-1.463c0.864,0.057 1.518,0.805 1.461,1.669l-0.545,8.255l14.992,0.45c0.864,0.025 1.545,0.748 1.52,1.614c-0.025,0.851 -0.723,1.522 -1.567,1.522Z" style="fill-rule:nonzero;"/><path d="M406.146,1082.18l-20.509,-0c-6.131,-0 -11.168,-4.797 -11.47,-10.924c-0.384,-7.797 0.453,-15.566 2.49,-23.101l0.089,-0.322c1.171,-4.334 4.797,-7.608 9.232,-8.334l16.094,-2.631c0.352,-0.052 0.708,0.008 1.017,0.181l8.58,4.78l8.579,-4.78c0.309,-0.173 0.665,-0.233 1.014,-0.181l15.931,2.604c0.854,0.141 1.433,0.948 1.295,1.802c-0.142,0.854 -0.946,1.436 -1.802,1.295l-15.389,-2.515l-8.866,4.938c-0.475,0.265 -1.052,0.265 -1.527,-0l-8.864,-4.938l-15.557,2.542c-3.225,0.527 -5.859,2.906 -6.71,6.062l-0.089,0.321c-1.948,7.211 -2.753,14.656 -2.386,22.124c0.22,4.453 3.883,7.938 8.339,7.938l20.509,-0c0.867,-0 1.57,0.703 1.57,1.569c-0,0.867 -0.703,1.57 -1.57,1.57Z" style="fill-rule:nonzero;"/><path d="M402.325,1039.99c-0.206,0 -0.416,-0.042 -0.617,-0.126c-0.797,-0.342 -1.166,-1.265 -0.824,-2.06l1.342,-3.141c0.341,-0.794 1.264,-1.165 2.059,-0.826c0.797,0.341 1.166,1.264 0.827,2.059l-1.344,3.141c-0.255,0.597 -0.834,0.953 -1.443,0.953Z" style="fill-rule:nonzero;"/><path d="M421.008,1039.99c-0.609,0 -1.189,-0.356 -1.444,-0.953l-1.344,-3.141c-0.339,-0.795 0.03,-1.718 0.827,-2.059c0.797,-0.339 1.718,0.032 2.06,0.826l1.341,3.141c0.342,0.795 -0.027,1.718 -0.824,2.06c-0.201,0.084 -0.411,0.126 -0.616,0.126Z" style="fill-rule:nonzero;"/><path d="M423.889,1018.67l-0,0.003l-0,-0.003Zm-24.386,0.022l0.002,0l-0.002,0Zm0.146,0.075m-0.032,-0.033c0.448,0.189 0.784,0.575 0.908,1.05c1.374,5.232 5.114,11.346 11.144,11.346c7.915,0 10.589,-8.683 11.22,-11.341c0.111,-0.478 0.44,-0.871 0.883,-1.072c0.409,-0.445 0.951,-2.351 1.156,-4.084c0.097,-1.542 -0.386,-1.735 -0.774,-1.891c-0.614,-0.248 -1.005,-0.852 -0.983,-1.515c0.289,-7.896 -2.404,-10.096 -4.186,-11.549l-0.123,-0.102c-2.137,-1.752 -7.305,-2.782 -11.515,-2.304c-2.503,0.287 -2.691,0.683 -2.792,0.893c-0.203,0.426 -0.542,1.136 -1.545,1.624c-2.611,1.267 -3.047,8.225 -2.849,11.396c0.045,0.676 -0.351,1.304 -0.98,1.554c-0.386,0.156 -0.864,0.347 -0.775,1.929c0.228,1.742 0.792,3.631 1.211,4.066Zm12.052,15.532c-7.57,0 -12.221,-6.915 -14.01,-13.086c-1.53,-1.285 -2.136,-4.307 -2.371,-6.168c-0.005,-0.033 -0.008,-0.065 -0.008,-0.099c-0.131,-2.084 0.443,-3.602 1.711,-4.525c-0.072,-3.007 0.158,-11.24 4.648,-13.421c0.032,-0.032 0.057,-0.094 0.084,-0.153c0.673,-1.409 1.713,-2.25 5.267,-2.656c4.448,-0.51 10.641,0.354 13.859,2.993l0.121,0.096c2.05,1.676 5.436,4.441 5.357,13.131c1.279,0.923 1.859,2.443 1.725,4.537c-0.223,1.906 -0.792,4.891 -2.262,6.198c-1.706,6.47 -6.248,13.153 -14.121,13.153Z" style="fill-rule:nonzero;"/><path d="M401.753,1000.66l0.01,0l-0.01,0Zm22.507,6.087c-0.71,-0 -1.354,-0.485 -1.525,-1.208c-0.141,-0.594 -0.445,-0.995 -0.987,-1.304c-1.812,-1.033 -5.82,-0.736 -10.721,0.792c-4.603,1.433 -8.044,1.346 -10.235,-0.263c-2.113,-1.557 -2.175,-3.851 -2.175,-4.106c-0,-0.866 0.703,-1.567 1.569,-1.567c0.859,0 1.554,0.688 1.567,1.545c0.005,0.076 0.067,1.014 0.935,1.628c0.763,0.537 2.741,1.226 7.406,-0.232c4.164,-1.297 9.834,-2.443 13.206,-0.523c1.289,0.733 2.148,1.877 2.487,3.307c0.201,0.844 -0.322,1.688 -1.166,1.889c-0.121,0.03 -0.242,0.042 -0.361,0.042Z" style="fill-rule:nonzero;"/><path d="M408.223,1079.05l49.358,-0l8.327,-29.267l-49.361,0l-8.324,29.267Zm50.544,3.139l-52.621,-0c-0.49,-0 -0.953,-0.233 -1.25,-0.624c-0.297,-0.394 -0.391,-0.901 -0.257,-1.374l9.215,-32.405c0.193,-0.674 0.81,-1.139 1.51,-1.139l52.621,-0c0.492,-0 0.955,0.23 1.252,0.624c0.295,0.391 0.391,0.901 0.255,1.373l-9.218,32.403c-0.19,0.676 -0.807,1.142 -1.507,1.142Z" style="fill-rule:nonzero;"/><path d="M463.846,1014.82c-1.195,0 -2.168,0.973 -2.168,2.168c-0,1.196 0.973,2.169 2.168,2.169c1.195,-0 2.168,-0.973 2.168,-2.169c0,-1.195 -0.973,-2.168 -2.168,-2.168Zm0,7.473c-2.926,-0 -5.304,-2.379 -5.304,-5.305c-0,-2.925 2.378,-5.304 5.304,-5.304c2.926,-0 5.304,2.379 5.304,5.304c0,2.926 -2.378,5.305 -5.304,5.305Z" style="fill-rule:nonzero;"/><path d="M450.138,1014.82c-1.195,0 -2.168,0.973 -2.168,2.168c0,1.196 0.973,2.169 2.168,2.169c1.196,-0 2.169,-0.973 2.169,-2.169c-0,-1.195 -0.973,-2.168 -2.169,-2.168Zm0,7.473c-2.923,-0 -5.304,-2.379 -5.304,-5.305c-0,-2.925 2.381,-5.304 5.304,-5.304c2.926,-0 5.305,2.379 5.305,5.304c-0,2.926 -2.379,5.305 -5.305,5.305Z" style="fill-rule:nonzero;"/><path d="M477.554,1014.82c-1.196,0 -2.168,0.973 -2.168,2.168c-0,1.196 0.972,2.169 2.168,2.169c1.195,-0 2.168,-0.973 2.168,-2.169c0,-1.195 -0.973,-2.168 -2.168,-2.168Zm-0,7.473c-2.926,-0 -5.305,-2.379 -5.305,-5.305c0,-2.925 2.379,-5.304 5.305,-5.304c2.926,-0 5.304,2.379 5.304,5.304c0,2.926 -2.378,5.305 -5.304,5.305Z" style="fill-rule:nonzero;"/><path d="M446.703,1043.68c-0.594,-0 -1.191,-0.144 -1.733,-0.436c-1.195,-0.641 -1.938,-1.879 -1.938,-3.235l-0,-4.228l-0.688,0c-3.847,0 -6.973,-3.129 -6.973,-6.973c0,-0.866 0.701,-1.569 1.567,-1.569c0.866,0 1.569,0.703 1.569,1.569c0,2.114 1.723,3.837 3.837,3.837l2.257,0c0.867,0 1.57,0.701 1.57,1.567l-0,5.797c-0,0.277 0.175,0.413 0.279,0.47c0.107,0.057 0.315,0.129 0.545,-0.025l11.346,-7.547c0.258,-0.173 0.56,-0.262 0.869,-0.262l26.138,0c2.117,0 3.837,-1.723 3.837,-3.837l-0,-23.645c-0,-2.117 -1.72,-3.837 -3.837,-3.837l-43.004,0c-2.114,0 -3.837,1.72 -3.837,3.837l0,16.844c0,0.866 -0.703,1.569 -1.569,1.569c-0.866,-0 -1.567,-0.703 -1.567,-1.569l0,-16.844c0,-3.847 3.126,-6.975 6.973,-6.975l43.004,-0c3.847,-0 6.973,3.128 6.973,6.975l-0,23.645c-0,3.844 -3.126,6.973 -6.973,6.973l-25.665,0l-10.948,7.285c-0.616,0.408 -1.322,0.614 -2.032,0.614Z" style="fill-rule:nonzero;"/></g><g><path d="M408.933,789.785c-0.014,-0 -0.032,-0 -0.049,-0.003l-16.616,-0.497c-0.426,-0.013 -0.827,-0.198 -1.114,-0.513c-0.287,-0.314 -0.433,-0.732 -0.403,-1.158l0.653,-9.876c0.057,-0.866 0.807,-1.522 1.668,-1.463c0.864,0.057 1.518,0.804 1.461,1.668l-0.545,8.255l14.992,0.451c0.864,0.024 1.545,0.747 1.52,1.613c-0.025,0.852 -0.723,1.523 -1.567,1.523Z" style="fill-rule:nonzero;"/><path d="M406.146,800.339l-20.509,0c-6.131,0 -11.168,-4.797 -11.47,-10.923c-0.384,-7.797 0.453,-15.567 2.49,-23.101l0.089,-0.322c1.171,-4.334 4.797,-7.609 9.232,-8.334l16.094,-2.631c0.352,-0.052 0.708,0.007 1.017,0.18l8.58,4.78l8.579,-4.78c0.309,-0.173 0.665,-0.232 1.014,-0.18l15.931,2.604c0.854,0.141 1.433,0.948 1.295,1.802c-0.142,0.854 -0.946,1.435 -1.802,1.294l-15.389,-2.515l-8.866,4.938c-0.475,0.265 -1.052,0.265 -1.527,0l-8.864,-4.938l-15.557,2.542c-3.225,0.528 -5.859,2.906 -6.71,6.062l-0.089,0.322c-1.948,7.21 -2.753,14.656 -2.386,22.123c0.22,4.453 3.883,7.938 8.339,7.938l20.509,0c0.867,0 1.57,0.703 1.57,1.57c-0,0.866 -0.703,1.569 -1.57,1.569Z" style="fill-rule:nonzero;"/><path d="M402.325,758.147c-0.206,-0 -0.416,-0.043 -0.617,-0.127c-0.797,-0.341 -1.166,-1.265 -0.824,-2.059l1.342,-3.141c0.341,-0.795 1.264,-1.166 2.059,-0.827c0.797,0.342 1.166,1.265 0.827,2.06l-1.344,3.141c-0.255,0.596 -0.834,0.953 -1.443,0.953Z" style="fill-rule:nonzero;"/><path d="M421.008,758.147c-0.609,-0 -1.189,-0.357 -1.444,-0.953l-1.344,-3.141c-0.339,-0.795 0.03,-1.718 0.827,-2.06c0.797,-0.339 1.718,0.032 2.06,0.827l1.341,3.141c0.342,0.794 -0.027,1.718 -0.824,2.059c-0.201,0.084 -0.411,0.127 -0.616,0.127Z" style="fill-rule:nonzero;"/><path d="M423.889,736.823l-0,0.002l-0,-0.002Zm-24.386,0.022l0.002,-0l-0.002,-0Zm0.146,0.074m-0.032,-0.032c0.448,0.188 0.784,0.574 0.908,1.049c1.374,5.233 5.114,11.347 11.144,11.347c7.915,-0 10.589,-8.683 11.22,-11.342c0.111,-0.477 0.44,-0.871 0.883,-1.071c0.409,-0.446 0.951,-2.352 1.156,-4.085c0.097,-1.542 -0.386,-1.735 -0.774,-1.891c-0.614,-0.247 -1.005,-0.851 -0.983,-1.514c0.289,-7.896 -2.404,-10.097 -4.186,-11.55l-0.123,-0.101c-2.137,-1.753 -7.305,-2.782 -11.515,-2.305c-2.503,0.287 -2.691,0.683 -2.792,0.894c-0.203,0.426 -0.542,1.136 -1.545,1.624c-2.611,1.267 -3.047,8.225 -2.849,11.395c0.045,0.676 -0.351,1.305 -0.98,1.555c-0.386,0.156 -0.864,0.346 -0.775,1.928c0.228,1.743 0.792,3.631 1.211,4.067Zm12.052,15.532c-7.57,-0 -12.221,-6.916 -14.01,-13.087c-1.53,-1.284 -2.136,-4.306 -2.371,-6.168c-0.005,-0.032 -0.008,-0.064 -0.008,-0.099c-0.131,-2.084 0.443,-3.601 1.711,-4.525c-0.072,-3.007 0.158,-11.239 4.648,-13.42c0.032,-0.032 0.057,-0.094 0.084,-0.154c0.673,-1.408 1.713,-2.25 5.267,-2.656c4.448,-0.509 10.641,0.354 13.859,2.993l0.121,0.097c2.05,1.675 5.436,4.44 5.357,13.131c1.279,0.923 1.859,2.443 1.725,4.537c-0.223,1.906 -0.792,4.891 -2.262,6.198c-1.706,6.47 -6.248,13.153 -14.121,13.153Z" style="fill-rule:nonzero;"/><path d="M401.753,718.813l0.01,-0l-0.01,-0Zm22.507,6.086c-0.71,0 -1.354,-0.485 -1.525,-1.207c-0.141,-0.595 -0.445,-0.996 -0.987,-1.305c-1.812,-1.032 -5.82,-0.735 -10.721,0.792c-4.603,1.433 -8.044,1.347 -10.235,-0.262c-2.113,-1.557 -2.175,-3.852 -2.175,-4.107c-0,-0.866 0.703,-1.566 1.569,-1.566c0.859,-0 1.554,0.688 1.567,1.544c0.005,0.077 0.067,1.015 0.935,1.629c0.763,0.537 2.741,1.225 7.406,-0.233c4.164,-1.297 9.834,-2.443 13.206,-0.522c1.289,0.733 2.148,1.876 2.487,3.307c0.201,0.844 -0.322,1.688 -1.166,1.888c-0.121,0.03 -0.242,0.042 -0.361,0.042Z" style="fill-rule:nonzero;"/><path d="M408.223,797.2l49.358,0l8.327,-29.266l-49.361,-0l-8.324,29.266Zm50.544,3.139l-52.621,0c-0.49,0 -0.953,-0.233 -1.25,-0.624c-0.297,-0.393 -0.391,-0.901 -0.257,-1.373l9.215,-32.406c0.193,-0.673 0.81,-1.139 1.51,-1.139l52.621,0c0.492,0 0.955,0.231 1.252,0.624c0.295,0.391 0.391,0.901 0.255,1.374l-9.218,32.403c-0.19,0.676 -0.807,1.141 -1.507,1.141Z" style="fill-rule:nonzero;"/><path d="M463.846,732.974c-1.195,-0 -2.168,0.972 -2.168,2.168c-0,1.195 0.973,2.168 2.168,2.168c1.195,0 2.168,-0.973 2.168,-2.168c0,-1.196 -0.973,-2.168 -2.168,-2.168Zm0,7.472c-2.926,0 -5.304,-2.378 -5.304,-5.304c-0,-2.926 2.378,-5.305 5.304,-5.305c2.926,0 5.304,2.379 5.304,5.305c0,2.926 -2.378,5.304 -5.304,5.304Z" style="fill-rule:nonzero;"/><path d="M450.138,732.974c-1.195,-0 -2.168,0.972 -2.168,2.168c0,1.195 0.973,2.168 2.168,2.168c1.196,0 2.169,-0.973 2.169,-2.168c-0,-1.196 -0.973,-2.168 -2.169,-2.168Zm0,7.472c-2.923,0 -5.304,-2.378 -5.304,-5.304c-0,-2.926 2.381,-5.305 5.304,-5.305c2.926,0 5.305,2.379 5.305,5.305c-0,2.926 -2.379,5.304 -5.305,5.304Z" style="fill-rule:nonzero;"/><path d="M477.554,732.974c-1.196,-0 -2.168,0.972 -2.168,2.168c-0,1.195 0.972,2.168 2.168,2.168c1.195,0 2.168,-0.973 2.168,-2.168c0,-1.196 -0.973,-2.168 -2.168,-2.168Zm-0,7.472c-2.926,0 -5.305,-2.378 -5.305,-5.304c0,-2.926 2.379,-5.305 5.305,-5.305c2.926,0 5.304,2.379 5.304,5.305c0,2.926 -2.378,5.304 -5.304,5.304Z" style="fill-rule:nonzero;"/><path d="M446.703,761.837c-0.594,0 -1.191,-0.144 -1.733,-0.436c-1.195,-0.641 -1.938,-1.878 -1.938,-3.235l-0,-4.227l-0.688,-0c-3.847,-0 -6.973,-3.129 -6.973,-6.973c0,-0.866 0.701,-1.569 1.567,-1.569c0.866,-0 1.569,0.703 1.569,1.569c0,2.114 1.723,3.837 3.837,3.837l2.257,-0c0.867,-0 1.57,0.7 1.57,1.566l-0,5.797c-0,0.278 0.175,0.414 0.279,0.471c0.107,0.057 0.315,0.128 0.545,-0.025l11.346,-7.547c0.258,-0.173 0.56,-0.262 0.869,-0.262l26.138,-0c2.117,-0 3.837,-1.723 3.837,-3.837l-0,-23.646c-0,-2.116 -1.72,-3.836 -3.837,-3.836l-43.004,-0c-2.114,-0 -3.837,1.72 -3.837,3.836l0,16.844c0,0.866 -0.703,1.569 -1.569,1.569c-0.866,0 -1.567,-0.703 -1.567,-1.569l0,-16.844c0,-3.846 3.126,-6.975 6.973,-6.975l43.004,0c3.847,0 6.973,3.129 6.973,6.975l-0,23.646c-0,3.844 -3.126,6.973 -6.973,6.973l-25.665,-0l-10.948,7.284c-0.616,0.409 -1.322,0.614 -2.032,0.614Z" style="fill-rule:nonzero;"/></g><text x="152.133px" y="1494.59px" style="font-family:'Raleway-Medium', 'Raleway';font-weight:500;font-size:24px;">A<tspan x="168.117px " y="1494.59px ">u</tspan>cun pr<tspan x="253.869px " y="1494.59px ">é</tspan>-r<tspan x="286.629px " y="1494.59px ">e</tspan>quis!</text></svg>