<?xml version="1.0" encoding="UTF-8" standalone="no"?><!DOCTYPE svg PUBLIC "-//W3C//DTD SVG 1.1//EN" "http://www.w3.org/Graphics/SVG/1.1/DTD/svg11.dtd"><svg width="100%" height="100%" viewBox="0 0 413 413" version="1.1" xmlns="http://www.w3.org/2000/svg" xmlns:xlink="http://www.w3.org/1999/xlink" xml:space="preserve" xmlns:serif="http://www.serif.com/" style="fill-rule:evenodd;clip-rule:evenodd;stroke-linejoin:round;stroke-miterlimit:2;"><path d="M289.594,0l-166.706,0c-67.395,0.051 -122.837,55.493 -122.888,122.888l0,166.706c0.041,67.402 55.486,122.855 122.888,122.906l166.706,-0c67.398,-0.062 122.836,-55.508 122.887,-122.906l0,-166.707c-0.031,-67.402 -55.485,-122.856 -122.887,-122.887Zm81.412,289.594c-0.01,44.657 -36.755,81.402 -81.412,81.412l-166.707,0c-44.651,0 -81.393,-36.742 -81.393,-81.394c-0,-0.006 -0,-0.012 -0,-0.018l-0,-166.707c-0,-0.006 -0,-0.012 -0,-0.018c-0,-44.641 36.734,-81.375 81.375,-81.375c0.006,-0 0.012,-0 0.019,-0l166.706,-0c44.647,0.01 81.383,36.746 81.394,81.393l0.018,166.707Z" style="fill:#333;fill-rule:nonzero;"/><path d="M206.25,99.6c-58.837,0 -106.65,47.831 -106.65,106.65c0,58.819 47.831,106.65 106.65,106.65c58.819,0 106.65,-47.831 106.65,-106.65c0,-58.819 -47.813,-106.65 -106.65,-106.65Zm0,171.806c-0.003,0 -0.006,0 -0.009,0c-35.744,0 -65.157,-29.412 -65.157,-65.156c0,-35.74 29.407,-65.151 65.147,-65.156c0.003,-0 0.006,-0 0.01,-0c35.743,-0 65.156,29.412 65.156,65.156c-0,35.74 -29.407,65.151 -65.147,65.156Zm106.875,-196.575c14.013,0.011 25.537,11.544 25.537,25.556c0,14.02 -11.536,25.557 -25.556,25.557c-14.012,-0 -25.546,-11.525 -25.556,-25.538c-0,-14.1 9.562,-25.575 25.575,-25.575Z" style="fill:#333;fill-rule:nonzero;"/></svg>