<?xml version="1.0" encoding="UTF-8" standalone="no"?><!DOCTYPE svg PUBLIC "-//W3C//DTD SVG 1.1//EN" "http://www.w3.org/Graphics/SVG/1.1/DTD/svg11.dtd"><svg width="100%" height="100%" viewBox="0 0 800 800" version="1.1" xmlns="http://www.w3.org/2000/svg" xmlns:xlink="http://www.w3.org/1999/xlink" xml:space="preserve" xmlns:serif="http://www.serif.com/" style="fill-rule:evenodd;clip-rule:evenodd;stroke-linejoin:round;stroke-miterlimit:2;"><g id="SVGRepo_iconCarrier"><g id="XMLID_801_"><path id="XMLID_802_" d="M186.219,257.368l-160.601,-0c-7.128,-0 -12.903,5.778 -12.903,12.903l-0,515.943c-0,7.128 5.775,12.903 12.903,12.903l160.601,0c7.128,0 12.904,-5.775 12.904,-12.903l-0,-515.943c-0,-7.125 -5.776,-12.903 -12.904,-12.903Z" style="fill:#333;fill-rule:nonzero;"/><path id="XMLID_803_" d="M105.977,0.88c-58.436,0 -105.977,47.489 -105.977,105.861c0,58.397 47.541,105.904 105.977,105.904c58.389,0 105.891,-47.51 105.891,-105.904c0.003,-58.372 -47.502,-105.861 -105.891,-105.861Z" style="fill:#333;fill-rule:nonzero;"/><path id="XMLID_804_" d="M594.72,244.545c-64.503,-0 -112.186,27.729 -141.107,59.236l-0,-33.51c-0,-7.125 -5.776,-12.903 -12.903,-12.903l-153.804,-0c-7.128,-0 -12.903,5.778 -12.903,12.903l-0,515.943c-0,7.128 5.775,12.903 12.903,12.903l160.25,0c7.128,0 12.903,-5.775 12.903,-12.903l0,-255.272c0,-86.021 23.366,-119.533 83.329,-119.533c65.306,0 70.496,53.724 70.496,123.959l-0,250.849c-0,7.128 5.775,12.903 12.903,12.903l160.31,0c7.128,0 12.903,-5.775 12.903,-12.903l-0,-283.004c-0,-127.91 -24.39,-258.668 -205.28,-258.668Z" style="fill:#333;fill-rule:nonzero;"/></g></g></svg>