<svg xmlns="http://www.w3.org/2000/svg" xml:space="preserve" style="fill-rule:evenodd;clip-rule:evenodd;stroke-miterlimit:10" viewBox="0 0 592 517">
  <path d="M103.56 632a62 62 0 1 0 0 124 62 62 0 0 0 0-124" style="fill:#fff590;fill-rule:nonzero" transform="matrix(0 -4.16667 -4.16667 0 3194.09 689.83)"/>
  <path d="M44.97 666.38c6.62-8.32 9.72-10.5 19.44-13.13 9.72-2.63 18.13-5.52 26.27-7.62 8.21-2.12 18.92-4.2 27.72-4.73 8.26-.5 14.84 0 19.31.26 6.04.36 13.92.79 22.07 9.98 8.14 9.2 9.34 26.5 7.35 39.54-2.1 13.8-10.64 30.75-22.72 41.39-9.7 8.53-20.42 14.82-31.66 16.02-9.85 1.05-13.4-.15-18.65 0-9.72.26-24.43-3.42-32.31-8.41-7.89-5-18.22-11.53-22.86-23.64-6.04-15.77-2.1-39.41 6.04-49.66Z" style="fill:none;fill-rule:nonzero;stroke:#1d1d1b;stroke-width:1px" transform="translate(-129.06 -2639.76) scale(4.16667)"/>
  <path d="M61.12 686.74v-3.88h2.59v.54h-1.98v1.15h1.65v.51h-1.65v1.68h-.6Zm3.85 0v-3.88h.61v3.34h2.08v.53h-2.7Zm4-1.94c0 .18.03.35.1.53a1.24 1.24 0 0 0 .64.77c.14.07.31.11.5.11.2 0 .37-.04.53-.12a1.39 1.39 0 0 0 .62-.78 1.67 1.67 0 0 0 0-1.05 1.4 1.4 0 0 0-.25-.45 1.08 1.08 0 0 0-.4-.3 1.08 1.08 0 0 0-.5-.12c-.2 0-.37.04-.52.12-.15.08-.28.19-.39.32a1.61 1.61 0 0 0-.33.97m1.24 1.96a1.7 1.7 0 0 1-.76-.16 1.88 1.88 0 0 1-.97-1.08 2.04 2.04 0 0 1 .4-2.1 2 2 0 0 1 .6-.43 1.78 1.78 0 0 1 1.5.01 1.91 1.91 0 0 1 .96 1.08 2 2 0 0 1-1 2.52c-.22.1-.47.16-.73.16m4.41-3.89h.58l.48 1.32.48-1.32h.57l-.66 1.73.58 1.42 1.2-3.16h.68l-1.6 3.88h-.53l-.72-1.74-.72 1.74h-.53l-1.6-3.88h.67l1.21 3.16.58-1.42-.67-1.73Z" style="fill:#1d1d1b;fill-rule:nonzero" transform="translate(-129.06 -2556.63) scale(4.16667)"/>
  <path d="M81.27 684.76a2.03 2.03 0 0 1 .5-1.32 1.8 1.8 0 0 1 1.38-.62c.36 0 .66.08.91.24.25.15.44.36.57.61l-.48.32a.97.97 0 0 0-.73-.59l-.29-.03a1.12 1.12 0 0 0-.92.45 1.66 1.66 0 0 0-.22 1.5 1.43 1.43 0 0 0 .66.77c.15.08.32.12.5.12.1 0 .19-.02.29-.04a1.1 1.1 0 0 0 .74-.6l.5.28c-.05.15-.14.28-.25.4a1.96 1.96 0 0 1-1.3.52 1.67 1.67 0 0 1-.75-.19 1.97 1.97 0 0 1-.97-1.1c-.1-.23-.14-.48-.14-.72" style="fill:#1d1d1b;fill-rule:nonzero" transform="translate(-129.06 -2556.58) scale(4.16667)"/>
  <path d="M86.55 684.85h1.07a.5.5 0 0 0 .24-.06c.07-.04.13-.1.19-.16a.8.8 0 0 0 .16-.51.78.78 0 0 0-.19-.5.64.64 0 0 0-.2-.17.5.5 0 0 0-.23-.05h-1.04v1.45Zm-.6 1.88v-3.87h1.68c.17 0 .34.03.48.1a1.34 1.34 0 0 1 .72 1.15 1.3 1.3 0 0 1-.2.72 1.07 1.07 0 0 1-.56.43l.91 1.48h-.69l-.84-1.35h-.9v1.35h-.6Z" style="fill:#1d1d1b;fill-rule:nonzero" transform="translate(-129.06 -2556.63) scale(4.16667)"/>
  <path d="m91.74 683.58-.4-.12.32-.6h.57l-.5.72Zm1.16 3.74v.54h-2.66v-3.88h2.6v.54h-2v1.1h1.74v.51h-1.73v1.19h2.05Z" style="fill:#1d1d1b;fill-rule:nonzero" transform="translate(-129.06 -2561.32) scale(4.16667)"/>
  <path d="m96.25 685.23-.63-1.67-.64 1.67h1.27Zm-.9-2.38h.54l1.53 3.89h-.64l-.41-1.06h-1.5l-.4 1.06h-.66l1.55-3.88Zm5.7.55h-1.29v3.34h-.62v-3.34h-1.3v-.54h3.21v.54Z" style="fill:#1d1d1b;fill-rule:nonzero" transform="translate(-129.06 -2556.63) scale(4.16667)"/>
  <path d="M102.25 682.86h.61v3.88h-.61z" style="fill:#1d1d1b" transform="translate(-129.06 -2556.63) scale(4.16667)"/>
  <path d="M104.42 686.74v-3.88h2.59v.54h-1.98v1.15h1.65v.51h-1.65v1.68h-.6Zm8.42-.54v.53h-2.66v-3.87h2.61v.54h-2v1.1h1.74v.5h-1.74v1.2h2.05Zm1.93-2.2v2.74h-.61v-3.88h.48l2.22 2.8v-2.8h.62v3.88h-.51l-2.2-2.74Zm8.16 1.23-.62-1.67-.65 1.67h1.27Zm-.9-2.38h.55l1.53 3.89h-.65l-.41-1.06h-1.5l-.4 1.06h-.65l1.54-3.88Z" style="fill:#1d1d1b;fill-rule:nonzero" transform="translate(-129.06 -2556.63) scale(4.16667)"/>
  <path d="M124.88 684.76a2.06 2.06 0 0 1 .5-1.32 1.8 1.8 0 0 1 1.39-.62c.34 0 .65.08.9.24.25.15.44.36.57.61l-.49.32a1.1 1.1 0 0 0-.2-.3.96.96 0 0 0-.53-.29l-.28-.03a1.12 1.12 0 0 0-.92.45 1.67 1.67 0 0 0-.22 1.5 1.43 1.43 0 0 0 .66.77 1 1 0 0 0 .5.12c.09 0 .19-.02.29-.04a1.09 1.09 0 0 0 .74-.6l.5.28c-.06.15-.14.28-.26.4a1.94 1.94 0 0 1-1.3.52 1.74 1.74 0 0 1-.75-.19 1.97 1.97 0 0 1-.96-1.1c-.1-.23-.14-.48-.14-.72" style="fill:#1d1d1b;fill-rule:nonzero" transform="translate(-129.06 -2556.58) scale(4.16667)"/>
  <path d="M132.36 683.4h-1.3v3.34h-.61v-3.34h-1.3v-.54h3.2v.54Z" style="fill:#1d1d1b;fill-rule:nonzero" transform="translate(-129.06 -2556.63) scale(4.16667)"/>
  <path d="M133.56 682.86h.61v3.88h-.61z" style="fill:#1d1d1b" transform="translate(-129.06 -2556.63) scale(4.16667)"/>
  <path d="M136.1 684.8a1.62 1.62 0 0 0 .34.98c.1.13.24.24.4.31.15.08.32.12.5.12.2 0 .38-.04.53-.12a1.39 1.39 0 0 0 .62-.78 1.67 1.67 0 0 0 0-1.05 1.26 1.26 0 0 0-.64-.76 1.09 1.09 0 0 0-.5-.11c-.2 0-.38.04-.53.12a1.28 1.28 0 0 0-.63.77c-.06.17-.09.34-.09.52m1.24 1.96a1.7 1.7 0 0 1-.76-.16 1.88 1.88 0 0 1-.96-1.08 2.02 2.02 0 0 1 .98-2.53c.23-.1.48-.16.75-.16.28 0 .53.05.76.17.22.12.42.26.58.45a2.06 2.06 0 0 1-.02 2.72 1.83 1.83 0 0 1-1.33.59m3.79-2.76v2.74h-.61v-3.88h.48l2.22 2.8v-2.8h.62v3.88h-.51l-2.2-2.74Z" style="fill:#1d1d1b;fill-rule:nonzero" transform="translate(-129.06 -2556.63) scale(4.16667)"/>
  <path d="M64.12 694.45a1.05 1.05 0 0 0-.2-.36.45.45 0 0 0-.64-.04.39.39 0 0 0-.14.3c0 .08.03.16.08.25.04.05.09.14.14.26.05.12.1.27.14.47a6.01 6.01 0 0 1-.09 2.15 8.9 8.9 0 0 1-1.03 2.53c-.23.38-.5.7-.77.98s-.55.5-.84.65c-.28.15-.56.23-.82.23a.71.71 0 0 1-.58-.24c-.13-.15-.2-.38-.2-.68 0-.21.04-.48.12-.8.09-.33.22-.74.4-1.22l1.76-4.88h-1.23l-1.74 4.8a6.03 6.03 0 0 1-1.35 2.14c-.27.27-.56.49-.85.64-.28.16-.56.24-.82.24-.25 0-.44-.08-.57-.24-.13-.15-.2-.38-.2-.68 0-.21.04-.48.12-.8.08-.33.21-.74.39-1.22l1.77-4.88h-1.23L54 698.86a5.55 5.55 0 0 0-.35 1.69c0 .27.05.53.12.75.07.23.17.43.31.6.14.16.32.29.52.38a2 2 0 0 0 1.52-.03c.28-.1.55-.26.81-.45a4.96 4.96 0 0 0 1.21-1.29v.04c0 .27.04.53.1.75.08.23.19.43.33.6a1.48 1.48 0 0 0 1.2.51c.35 0 .71-.08 1.06-.26a5.45 5.45 0 0 0 1.9-1.8 9 9 0 0 0 1.04-2.12 9.18 9.18 0 0 0 .42-1.72 6.64 6.64 0 0 0 .03-1.54 2.4 2.4 0 0 0-.1-.52" style="fill:#1d1d1b;fill-rule:nonzero" transform="translate(-129.06 -2668.1) scale(4.16667)"/>
  <path d="M71.6 699.44a6.34 6.34 0 0 1-1.36 1.77c-.25.21-.51.38-.77.5-.25.1-.5.16-.75.16-.7 0-1.03-.48-1.03-1.49a9.07 9.07 0 0 1 .97-3.73c.25-.46.53-.87.83-1.2.3-.33.62-.59.95-.77.33-.18.67-.27 1-.27a1.07 1.07 0 0 1 .92.42c.09.14.15.3.19.48a4.88 4.88 0 0 1 0 1.4 8.49 8.49 0 0 1-.94 2.73m.9.03a8.82 8.82 0 0 0 .46-1.06 6.2 6.2 0 0 0 .36-2.02c0-.32-.04-.63-.1-.92-.08-.3-.2-.56-.36-.79a1.8 1.8 0 0 0-.67-.55c-.27-.13-.61-.2-1-.2-.49 0-.97.11-1.45.33-.47.21-.91.52-1.31.9a6.36 6.36 0 0 0-1.77 3.07 6.73 6.73 0 0 0-.22 1.56c0 .4.05.77.15 1.1.1.32.24.6.42.83a1.97 1.97 0 0 0 1.59.7c.34 0 .67-.05 1-.17.34-.12.66-.28.97-.5a5.37 5.37 0 0 0 1.58-1.67m66.36-.64a6.34 6.34 0 0 1-1.37 1.77c-.25.21-.5.38-.76.5-.26.1-.51.16-.76.16-.69 0-1.02-.48-1.02-1.49a9.07 9.07 0 0 1 .97-3.73c.24-.46.52-.87.83-1.2.3-.33.62-.59.95-.77.33-.18.66-.27 1-.27a1.07 1.07 0 0 1 .92.42c.08.14.15.3.19.48a4.88 4.88 0 0 1 0 1.4 8.49 8.49 0 0 1-.95 2.73m.9.03a9.6 9.6 0 0 0 .47-1.06 7.02 7.02 0 0 0 .35-2.02c0-.32-.03-.63-.1-.92-.07-.3-.2-.56-.36-.79a1.8 1.8 0 0 0-.66-.55c-.28-.13-.62-.2-1-.2-.5 0-.98.11-1.45.33-.47.21-.91.52-1.32.9a6.33 6.33 0 0 0-1.77 3.07 6.73 6.73 0 0 0-.21 1.56c0 .4.05.77.14 1.1.1.32.25.6.43.83a1.97 1.97 0 0 0 1.59.7c.33 0 .67-.05 1-.17.33-.12.66-.28.97-.5a5.37 5.37 0 0 0 1.58-1.67m-53.31-1.33c-.3.52-.59.99-.86 1.38-.28.4-.56.72-.83.98-.27.25-.54.45-.8.58a2 2 0 0 1-.81.19c-.33 0-.57-.09-.72-.24a.87.87 0 0 1-.22-.62c0-.19.03-.41.1-.67l.28-.84.37-.94.36-.98c.12-.32.21-.64.29-.94.07-.3.11-.6.11-.87 0-.24-.04-.48-.11-.7a1.65 1.65 0 0 0-.92-1 2.34 2.34 0 0 0-1.73.05c-.3.12-.59.32-.87.58a6.35 6.35 0 0 0-1.2 1.45l.77-2.1h-1.22l-3 8.24h1.22l1.44-3.94.35-.63c.31-.54.6-1.03.89-1.44a7 7 0 0 1 .82-1.01c.26-.27.53-.47.79-.6.25-.13.52-.2.78-.2a.93.93 0 0 1 .74.27c.07.08.13.18.17.3.03.12.05.25.05.4 0 .2-.03.44-.1.71a32.31 32.31 0 0 1-.64 1.82 26.17 26.17 0 0 0-.66 1.9c-.08.3-.11.57-.11.82 0 .23.03.45.11.66a1.57 1.57 0 0 0 .92.93 2.48 2.48 0 0 0 1.82-.08c.32-.15.63-.37.94-.65.3-.29.6-.65.9-1.08.3-.43.62-.93.95-1.5l.4-.7-.36-.26-.4.73Z" style="fill:#1d1d1b;fill-rule:nonzero" transform="translate(-129.06 -2668.15) scale(4.16667)"/>
  <path d="M90.06 705.32c-.27 0-.46-.09-.58-.26a1.3 1.3 0 0 1-.2-.77c0-.3.06-.69.16-1.14a10.81 10.81 0 0 1 1.31-3.2c.3-.47.62-.87.93-1.18.31-.31.62-.54.92-.7.3-.14.56-.22.8-.22.11 0 .22.02.33.06.1.03.2.1.28.18.08.08.15.2.2.34.05.14.08.33.08.54 0 .25-.04.53-.1.84a11.66 11.66 0 0 1-1.98 4.04c-.24.3-.48.55-.72.77-.24.22-.49.39-.73.51-.24.13-.48.19-.7.19m8.25-3.13c-.3.53-.58 1-.86 1.4-.28.38-.55.71-.82.97a2.9 2.9 0 0 1-.82.57c-.27.12-.55.19-.83.19-.32 0-.55-.09-.7-.25a.98.98 0 0 1-.22-.67 5.96 5.96 0 0 1 .32-1.48l.2-.54 3.06-8.45h-1.22l-1.7 4.68a2.8 2.8 0 0 0-.03-.2c-.05-.2-.13-.4-.25-.55a1.17 1.17 0 0 0-.46-.36 2.4 2.4 0 0 0-1.5-.02 4.5 4.5 0 0 0-1.78.9 7.02 7.02 0 0 0-2.19 3.25 7.7 7.7 0 0 0-.36 2.1c0 .3.02.58.09.83a2 2 0 0 0 .29.68 1.43 1.43 0 0 0 1.28.62 2.8 2.8 0 0 0 1.83-.76 8 8 0 0 0 1.45-1.73v.04c-.04.2-.06.4-.06.59 0 .27.04.53.12.76.07.23.2.43.34.6.16.15.35.28.57.37a2.58 2.58 0 0 0 1.8-.08c.33-.14.64-.35.95-.64.3-.28.6-.64.91-1.07.3-.43.62-.94.95-1.52l.4-.7-.36-.26-.4.73Z" style="fill:#1d1d1b;fill-rule:nonzero" transform="translate(-129.06 -2682.48) scale(4.16667)"/>
  <path d="M102.65 697.5a7.76 7.76 0 0 1 1.32-2.18c.27-.28.55-.51.83-.67.28-.16.55-.24.82-.24a1 1 0 0 1 .25.03.4.4 0 0 1 .18.1c.05.04.1.09.12.16a.6.6 0 0 1 .05.26c0 .23-.05.45-.13.66a2.6 2.6 0 0 1-.86 1.1c-.19.15-.38.27-.58.36a4.4 4.4 0 0 1-.9.3c-.3.07-.68.1-1.1.12m5.24 1.25a8.32 8.32 0 0 1-1.77 2.15c-.36.3-.75.53-1.17.71-.4.18-.85.27-1.3.27-.55 0-.94-.13-1.18-.39-.25-.25-.37-.69-.37-1.28a6.43 6.43 0 0 1 .39-2.25c.52 0 .98-.04 1.4-.11a5.44 5.44 0 0 0 1.97-.77 3.15 3.15 0 0 0 1-1.15 2 2 0 0 0 .13-.68c0-.42-.14-.74-.43-.98a1.75 1.75 0 0 0-1.13-.34c-.46 0-.93.11-1.38.33-.45.22-.88.52-1.27.9s-.74.84-1.03 1.36a7.13 7.13 0 0 0-.92 3.25c0 .87.24 1.54.7 1.99.46.44 1.12.66 1.96.66.51 0 1-.08 1.46-.26a5.2 5.2 0 0 0 2.38-1.81c.33-.41.64-.88.93-1.37l.4-.7-.36-.26-.4.73Z" style="fill:#1d1d1b;fill-rule:nonzero" transform="translate(-129.06 -2668.15) scale(4.16667)"/>
  <path d="M115.31 694.06c-.23 0-.48.06-.72.18s-.5.31-.77.59a8.79 8.79 0 0 0-1.32 1.75l.86-2.4h-1.22l-3 8.25h1.23l1.3-3.6.34-.59c.42-.74.8-1.36 1.13-1.84.33-.48.64-.86.9-1.13.26-.27.5-.46.7-.57.38-.2.73-.19.88-.06a.3.3 0 0 1 .08.09.63.63 0 0 0-.41.05.72.72 0 0 0-.31.4.8.8 0 0 0-.05.25.63.63 0 0 0 .44.62c.2.06.4.05.57-.04.1-.06.18-.13.24-.22.07-.08.11-.19.15-.3.03-.12.04-.24.04-.37 0-.31-.1-.57-.28-.76-.19-.2-.45-.3-.78-.3" style="fill:#1d1d1b;fill-rule:nonzero" transform="translate(-129.06 -2668.69) scale(4.16667)"/>
  <path d="M152.1 694.97c-.03-.2-.06-.37-.1-.52a1.06 1.06 0 0 0-.2-.37.45.45 0 0 0-.65-.03.39.39 0 0 0-.14.3c0 .08.03.16.09.25l.13.26c.05.12.1.27.14.47a5.99 5.99 0 0 1-.09 2.15 8.99 8.99 0 0 1-1.02 2.53c-.24.38-.5.7-.77.98-.28.28-.56.5-.85.65-.28.15-.55.23-.82.23-.25 0-.44-.08-.57-.24-.14-.15-.2-.38-.2-.68 0-.21.04-.48.12-.8.08-.33.21-.74.38-1.22l1.77-4.88h-1.23l-1.74 4.8a6.03 6.03 0 0 1-1.34 2.14 3.8 3.8 0 0 1-.86.64c-.28.16-.56.24-.81.24-.26 0-.45-.08-.58-.24-.13-.15-.2-.38-.2-.68 0-.21.04-.48.12-.8.09-.33.22-.74.39-1.22l1.77-4.88h-1.22l-1.75 4.81a6.6 6.6 0 0 0-.34 1.69c0 .27.04.53.1.75.08.23.19.43.33.6.14.16.31.29.51.38a2 2 0 0 0 1.52-.03c.28-.1.55-.26.81-.45a4.92 4.92 0 0 0 1.21-1.29v.04c0 .27.04.53.11.75.07.23.18.43.32.6.14.16.31.29.52.38.2.09.42.13.68.13.36 0 .72-.08 1.07-.26a4 4 0 0 0 1-.71c.32-.3.62-.67.9-1.09a8.9 8.9 0 0 0 1.03-2.12 8.63 8.63 0 0 0 .5-2.65c0-.21-.02-.42-.04-.61" style="fill:#1d1d1b;fill-rule:nonzero" transform="translate(-129.06 -2668.1) scale(4.16667)"/>
  <path d="m129.26 694.19.1-.25h1.22l-.05.14-3.02 8.31a46.48 46.48 0 0 0-.36 1.08 7.07 7.07 0 0 0-.15.94c0 .29.07.51.22.68.14.16.38.24.7.24.28 0 .56-.06.82-.19.27-.12.55-.32.82-.57.27-.26.54-.59.82-.98.28-.4.57-.87.87-1.4l.4-.72.35.26-.39.7c-.33.58-.65 1.1-.95 1.52-.3.43-.61.8-.91 1.08-.31.28-.63.5-.95.64a2.58 2.58 0 0 1-1.8.08 1.54 1.54 0 0 1-.92-.98 2.4 2.4 0 0 1-.11-.76 4 4 0 0 1 .09-.8c.05-.27.14-.58.25-.89l2.79-7.65.16-.48Z" style="fill:#1d1d1b;fill-rule:nonzero" transform="translate(-129.06 -2682.59) scale(4.16667)"/>
  <path d="M125.34 690.65c.63.17.98.5 1.22.81.3.41.54 1.7-.6 1.6-.62-.06-.79-.96-.19-1.29.01-.21-.23-.52-.47-.6a2.68 2.68 0 0 0-1.72.07c-.26.09-.5.24-.71.46-.22.21-.43.51-.62.87-.2.37-.4.83-.61 1.38l-.08.2h2v.47h-2.17l-4.12 11.33h-1.22l.05-.14 4.07-11.19h-1.84v-.48h2.01l.08-.2c.2-.58.45-1.09.7-1.51.27-.42.57-.78.9-1.05.32-.28.69-.48 1.08-.61a4.88 4.88 0 0 1 2.24-.12" style="fill:#1d1d1b;fill-rule:nonzero" transform="translate(-129.06 -2668.61) scale(4.16667)"/>
</svg>
