<?xml version="1.0" encoding="UTF-8" standalone="no"?><!DOCTYPE svg PUBLIC "-//W3C//DTD SVG 1.1//EN" "http://www.w3.org/Graphics/SVG/1.1/DTD/svg11.dtd"><svg width="100%" height="100%" viewBox="0 0 237 222" version="1.1" xmlns="http://www.w3.org/2000/svg" xmlns:xlink="http://www.w3.org/1999/xlink" xml:space="preserve" xmlns:serif="http://www.serif.com/" style="fill-rule:evenodd;clip-rule:evenodd;stroke-linejoin:round;stroke-miterlimit:2;"><path d="M231.214,110.831c0,60.569 -49.101,109.669 -109.669,109.669c-60.568,0 -109.669,-49.1 -109.669,-109.669c-0,-60.568 49.101,-109.668 109.669,-109.668c60.568,0 109.669,49.1 109.669,109.668" style="fill:#fff590;fill-rule:nonzero;"/><path d="M17.428,58.861c-14.506,18.25 -21.545,60.363 -10.782,88.44c8.271,21.578 26.643,33.239 40.678,42.128c14.027,8.883 40.209,15.434 57.509,14.967c9.316,-0.252 15.59,1.858 33.043,-0.004c19.995,-2.132 39.087,-13.298 56.342,-28.489c21.486,-18.917 36.665,-49.053 40.402,-73.574c3.543,-23.256 1.351,-54.061 -13.162,-70.446c-14.566,-16.446 -28.666,-17.233 -39.465,-17.868c-7.917,-0.466 -19.586,-1.339 -34.23,-0.465c-15.605,0.932 -34.585,4.626 -49.144,8.383c-14.408,3.719 -29.281,8.831 -46.477,13.479c-17.356,4.69 -22.905,8.592 -34.714,23.449Zm0.979,0.778c11.589,-14.581 17.029,-18.417 34.061,-23.021c17.191,-4.646 32.06,-9.757 46.463,-13.474c14.489,-3.739 33.377,-7.419 48.906,-8.346c14.581,-0.87 26.199,0.001 34.082,0.465c10.561,0.621 24.359,1.366 38.604,17.449c14.298,16.144 16.353,46.515 12.861,69.429c-3.698,24.271 -18.725,54.1 -39.992,72.824c-17.048,15.009 -35.894,26.077 -55.649,28.184c-17.4,1.856 -23.656,-0.254 -32.944,-0.003c-17.088,0.462 -42.952,-5.999 -56.806,-14.773c-13.847,-8.77 -32.02,-20.23 -40.18,-41.519c-10.613,-27.687 -3.711,-69.219 10.594,-87.215Z" style="fill:#333;"/><g><path d="M46.484,130.542l0,-6.862l4.571,0l0,0.956l-3.489,0l0,2.05l2.919,0l0,0.898l-2.919,0l0,2.958l-1.082,0Zm6.804,0l-0,-6.862l1.082,0l-0,5.905l3.683,0l-0,0.957l-4.765,0Zm7.085,-3.431c-0,0.322 0.051,0.635 0.155,0.937c0.103,0.304 0.25,0.571 0.439,0.803c0.19,0.232 0.42,0.417 0.692,0.556c0.27,0.138 0.573,0.207 0.908,0.207c0.348,0 0.655,-0.072 0.923,-0.218c0.268,-0.144 0.494,-0.336 0.681,-0.574c0.187,-0.239 0.329,-0.506 0.426,-0.803c0.097,-0.296 0.145,-0.599 0.145,-0.908c0,-0.329 -0.051,-0.643 -0.155,-0.943c-0.103,-0.3 -0.25,-0.563 -0.44,-0.793c-0.189,-0.228 -0.422,-0.415 -0.686,-0.55c-0.277,-0.141 -0.584,-0.213 -0.894,-0.208c-0.323,-0.006 -0.642,0.068 -0.928,0.217c-0.264,0.141 -0.498,0.333 -0.687,0.566c-0.189,0.238 -0.335,0.508 -0.43,0.797c-0.1,0.3 -0.149,0.604 -0.149,0.914m2.184,3.479c-0.489,0 -0.936,-0.098 -1.338,-0.295c-0.395,-0.19 -0.748,-0.456 -1.04,-0.783c-0.291,-0.327 -0.518,-0.706 -0.671,-1.116c-0.157,-0.41 -0.237,-0.846 -0.237,-1.285c0,-0.458 0.083,-0.895 0.251,-1.315c0.168,-0.418 0.398,-0.789 0.691,-1.111c0.294,-0.323 0.649,-0.584 1.044,-0.769c0.413,-0.192 0.864,-0.29 1.32,-0.285c0.489,0 0.936,0.101 1.339,0.304c0.402,0.204 0.747,0.469 1.033,0.798c0.287,0.329 0.51,0.7 0.667,1.117c0.483,1.262 0.211,2.695 -0.701,3.692c-0.297,0.319 -0.653,0.579 -1.048,0.764c-0.403,0.189 -0.84,0.284 -1.31,0.284m7.81,-6.882l1.025,-0l0.841,2.33l0.85,-2.33l1.016,-0l-1.171,3.055l1.025,2.522l2.136,-5.606l1.189,-0l-2.832,6.863l-0.928,-0l-1.276,-3.073l-1.285,3.073l-0.928,-0l-2.832,-6.863l1.179,-0l2.146,5.606l1.024,-2.522l-1.179,-3.055Zm11.763,3.354c-0,-0.412 0.075,-0.822 0.223,-1.232c0.148,-0.409 0.365,-0.776 0.652,-1.102c0.293,-0.33 0.65,-0.598 1.049,-0.787c0.412,-0.2 0.88,-0.301 1.401,-0.301c0.625,-0 1.16,0.139 1.605,0.416c0.445,0.277 0.78,0.638 1.005,1.083l-0.85,0.571c-0.087,-0.192 -0.204,-0.368 -0.348,-0.522c-0.129,-0.137 -0.279,-0.251 -0.445,-0.339c-0.159,-0.083 -0.328,-0.143 -0.503,-0.179c-0.165,-0.035 -0.333,-0.053 -0.502,-0.053c-0.329,-0.008 -0.655,0.067 -0.948,0.217c-0.27,0.145 -0.497,0.337 -0.681,0.575c-0.184,0.24 -0.322,0.507 -0.415,0.802c-0.093,0.288 -0.14,0.588 -0.141,0.89c-0,0.335 0.055,0.655 0.165,0.957c0.11,0.303 0.263,0.57 0.458,0.802c0.197,0.232 0.431,0.417 0.701,0.556c0.271,0.139 0.567,0.207 0.89,0.207c0.168,0 0.339,-0.02 0.516,-0.062c0.178,-0.042 0.349,-0.109 0.513,-0.203c0.164,-0.094 0.316,-0.211 0.455,-0.353c0.138,-0.141 0.253,-0.312 0.343,-0.512l0.898,0.512c-0.108,0.256 -0.266,0.488 -0.464,0.682c-0.2,0.196 -0.425,0.362 -0.676,0.497c-0.252,0.136 -0.519,0.24 -0.797,0.309c-0.28,0.072 -0.556,0.107 -0.827,0.107c-0.483,0 -0.925,-0.103 -1.324,-0.309c-0.392,-0.202 -0.743,-0.475 -1.034,-0.807c-0.291,-0.334 -0.52,-0.717 -0.677,-1.131c-0.159,-0.412 -0.241,-0.849 -0.242,-1.291m9.338,0.136l1.894,0c0.146,0.002 0.291,-0.033 0.42,-0.102c0.127,-0.069 0.238,-0.164 0.325,-0.28c0.09,-0.119 0.161,-0.256 0.212,-0.411c0.052,-0.154 0.077,-0.319 0.077,-0.493c0.001,-0.169 -0.03,-0.336 -0.092,-0.493c-0.057,-0.148 -0.139,-0.285 -0.241,-0.406c-0.097,-0.113 -0.215,-0.207 -0.348,-0.275c-0.127,-0.066 -0.268,-0.101 -0.411,-0.102l-1.836,0l-0,2.562Zm-1.083,3.344l-0,-6.862l2.987,0c0.309,0 0.594,0.063 0.855,0.192c0.261,0.129 0.485,0.299 0.671,0.508c0.188,0.21 0.334,0.448 0.441,0.715c0.107,0.268 0.159,0.54 0.159,0.817c0.002,0.446 -0.125,0.882 -0.367,1.257c-0.116,0.18 -0.258,0.337 -0.426,0.468c-0.164,0.131 -0.351,0.231 -0.551,0.295l1.614,2.61l-1.226,0l-1.489,-2.387l-1.585,0l-0,2.387l-1.083,0Zm10.256,-7.578l-0.697,-0.213l0.552,-1.063l1.014,0l-0.869,1.276Zm2.049,6.621l-0,0.957l-4.707,0l-0,-6.863l4.62,0l-0,0.957l-3.538,0l-0,1.953l3.064,0l-0,0.899l-3.064,0l-0,2.097l3.625,0Zm5.924,-1.71l-1.101,-2.949l-1.141,2.949l2.242,0Zm-1.575,-4.196l0.946,0l2.708,6.863l-1.142,0l-0.725,-1.865l-2.648,0l-0.715,1.865l-1.15,0l2.726,-6.863Zm10.072,0.957l-2.282,0l-0,5.906l-1.092,0l-0,-5.906l-2.291,0l-0,-0.957l5.665,0l-0,0.957Z" style="fill:#333;fill-rule:nonzero;"/><rect x="119.237" y="123.679" width="1.083" height="6.863" style="fill:#333;"/><path d="M123.075,130.542l0,-6.862l4.572,0l0,0.956l-3.49,0l0,2.05l2.919,0l0,0.898l-2.919,0l0,2.958l-1.082,0Zm14.895,-0.957l-0,0.957l-4.708,0l-0,-6.863l4.621,0l-0,0.957l-3.538,0l-0,1.953l3.064,0l-0,0.899l-3.064,0l-0,2.097l3.625,0Zm3.412,-3.876l-0,4.833l-1.083,0l-0,-6.862l0.851,0l3.924,4.948l-0,-4.939l1.092,0l-0,6.853l-0.899,0l-3.885,-4.833Zm14.431,2.166l-1.102,-2.949l-1.141,2.949l2.243,-0Zm-1.576,-4.196l0.947,-0l2.707,6.863l-1.141,-0l-0.725,-1.865l-2.648,-0l-0.715,1.865l-1.151,-0l2.726,-6.863Zm5.026,3.383c-0,-0.412 0.074,-0.822 0.222,-1.232c0.148,-0.409 0.366,-0.776 0.653,-1.102c0.293,-0.33 0.649,-0.598 1.048,-0.787c0.413,-0.2 0.88,-0.301 1.402,-0.301c0.625,-0 1.16,0.139 1.605,0.416c0.444,0.277 0.779,0.638 1.004,1.083l-0.85,0.571c-0.086,-0.192 -0.204,-0.369 -0.348,-0.522c-0.129,-0.137 -0.279,-0.251 -0.445,-0.339c-0.158,-0.083 -0.327,-0.143 -0.502,-0.179c-0.165,-0.035 -0.334,-0.053 -0.503,-0.053c-0.36,-0 -0.676,0.072 -0.947,0.217c-0.266,0.141 -0.498,0.337 -0.682,0.575c-0.183,0.24 -0.322,0.507 -0.415,0.802c-0.092,0.288 -0.14,0.588 -0.141,0.89c-0,0.335 0.056,0.655 0.165,0.957c0.11,0.303 0.263,0.57 0.459,0.802c0.197,0.232 0.43,0.417 0.701,0.556c0.271,0.139 0.567,0.207 0.889,0.207c0.168,-0 0.34,-0.02 0.517,-0.062c0.18,-0.043 0.353,-0.111 0.513,-0.203c0.167,-0.096 0.32,-0.215 0.454,-0.353c0.139,-0.141 0.253,-0.312 0.343,-0.512l0.899,0.512c-0.108,0.256 -0.266,0.488 -0.464,0.682c-0.2,0.196 -0.425,0.362 -0.676,0.497c-0.252,0.136 -0.52,0.24 -0.798,0.309c-0.27,0.07 -0.547,0.106 -0.826,0.107c-0.484,-0 -0.925,-0.103 -1.325,-0.309c-0.392,-0.202 -0.743,-0.475 -1.034,-0.807c-0.291,-0.333 -0.52,-0.717 -0.676,-1.131c-0.16,-0.412 -0.242,-0.849 -0.242,-1.291m13.223,-2.426l-2.281,-0l-0,5.906l-1.092,0l-0,-5.906l-2.291,0l-0,-0.957l5.664,0l-0,0.957Z" style="fill:#333;fill-rule:nonzero;"/><rect x="174.612" y="123.679" width="1.083" height="6.863" style="fill:#333;"/><path d="M179.116,127.111c0,0.322 0.051,0.635 0.154,0.937c0.104,0.304 0.25,0.571 0.441,0.803c0.19,0.232 0.42,0.417 0.69,0.556c0.272,0.138 0.574,0.207 0.909,0.207c0.349,0 0.656,-0.072 0.923,-0.218c0.268,-0.144 0.495,-0.336 0.681,-0.574c0.188,-0.24 0.333,-0.512 0.426,-0.803c0.097,-0.296 0.145,-0.599 0.145,-0.908c0,-0.329 -0.052,-0.643 -0.154,-0.943c-0.098,-0.288 -0.247,-0.557 -0.44,-0.793c-0.19,-0.228 -0.423,-0.415 -0.687,-0.55c-0.277,-0.141 -0.584,-0.213 -0.894,-0.208c-0.348,0 -0.657,0.072 -0.928,0.217c-0.27,0.146 -0.499,0.334 -0.686,0.566c-0.187,0.232 -0.33,0.497 -0.43,0.797c-0.1,0.3 -0.15,0.604 -0.15,0.914m2.184,3.479c-0.49,0 -0.935,-0.098 -1.338,-0.295c-0.395,-0.19 -0.748,-0.456 -1.04,-0.783c-0.291,-0.327 -0.518,-0.706 -0.671,-1.116c-0.319,-0.838 -0.314,-1.765 0.014,-2.6c0.162,-0.409 0.397,-0.785 0.692,-1.111c0.294,-0.323 0.649,-0.584 1.044,-0.769c0.402,-0.19 0.842,-0.285 1.319,-0.285c0.489,0 0.936,0.101 1.339,0.304c0.403,0.204 0.748,0.469 1.034,0.798c0.287,0.329 0.509,0.7 0.667,1.117c0.483,1.262 0.211,2.695 -0.701,3.692c-0.298,0.319 -0.654,0.578 -1.049,0.764c-0.41,0.191 -0.858,0.288 -1.31,0.284m6.709,-4.881l-0,4.833l-1.083,-0l-0,-6.862l0.851,-0l3.924,4.948l-0,-4.939l1.092,-0l-0,6.853l-0.898,-0l-3.886,-4.833Zm-136.224,-28.838c-0.07,-0.237 -0.186,-0.459 -0.341,-0.651c-0.149,-0.177 -0.37,-0.279 -0.601,-0.279c-0.201,-0 -0.394,0.076 -0.54,0.214c-0.154,0.13 -0.244,0.321 -0.246,0.522c-0,0.148 0.048,0.298 0.144,0.444c0.07,0.107 0.152,0.265 0.243,0.47c0.09,0.202 0.172,0.481 0.246,0.831c0.073,0.351 0.109,0.827 0.109,1.418c-0,0.822 -0.089,1.626 -0.264,2.391c-0.179,0.774 -0.414,1.533 -0.704,2.272c-0.303,0.763 -0.675,1.497 -1.111,2.192c-0.391,0.628 -0.848,1.212 -1.365,1.742c-0.48,0.484 -0.981,0.868 -1.49,1.141c-0.496,0.268 -0.987,0.403 -1.457,0.403c-0.45,-0 -0.782,-0.133 -1.014,-0.407c-0.237,-0.28 -0.358,-0.689 -0.358,-1.216c-0,-0.375 0.073,-0.851 0.216,-1.416c0.146,-0.574 0.375,-1.297 0.684,-2.151l3.121,-8.636l-2.168,-0l-3.076,8.509c-0.264,0.726 -0.608,1.421 -1.024,2.072c-0.388,0.615 -0.843,1.185 -1.357,1.699c-0.448,0.448 -0.956,0.831 -1.51,1.137c-0.504,0.272 -0.991,0.409 -1.445,0.409c-0.45,-0 -0.782,-0.133 -1.014,-0.407c-0.237,-0.28 -0.358,-0.689 -0.358,-1.216c-0,-0.375 0.073,-0.851 0.216,-1.416c0.146,-0.574 0.375,-1.297 0.684,-2.151l3.133,-8.636l-2.168,-0l-3.089,8.511c-0.184,0.519 -0.332,1.05 -0.443,1.589c-0.102,0.51 -0.154,0.98 -0.154,1.396c-0,0.488 0.064,0.938 0.188,1.338c0.127,0.405 0.316,0.757 0.563,1.047c0.249,0.292 0.556,0.52 0.911,0.678c0.743,0.331 1.75,0.314 2.695,-0.05c0.488,-0.189 0.97,-0.459 1.433,-0.803c0.486,-0.367 0.933,-0.783 1.334,-1.242c0.279,-0.316 0.549,-0.661 0.807,-1.03l-0,0.062c-0,0.488 0.064,0.938 0.189,1.338c0.126,0.405 0.316,0.757 0.562,1.047c0.249,0.292 0.556,0.52 0.911,0.678c0.382,0.163 0.793,0.244 1.208,0.237c0.632,-0 1.269,-0.155 1.891,-0.462c0.652,-0.33 1.252,-0.757 1.777,-1.265c0.599,-0.578 1.13,-1.223 1.585,-1.92c0.487,-0.737 0.926,-1.556 1.303,-2.431c0.176,-0.407 0.351,-0.853 0.52,-1.323c0.169,-0.471 0.319,-0.966 0.448,-1.472c0.129,-0.505 0.233,-1.034 0.309,-1.571c0.077,-0.539 0.116,-1.09 0.116,-1.638c-0,-0.38 -0.02,-0.747 -0.061,-1.088c-0.033,-0.309 -0.096,-0.613 -0.188,-0.91m13.245,8.8c-0.34,0.634 -0.717,1.22 -1.118,1.741c-0.385,0.508 -0.822,0.974 -1.304,1.391c-0.443,0.378 -0.9,0.674 -1.356,0.877c-0.418,0.193 -0.872,0.296 -1.332,0.301c-1.222,-0 -1.815,-0.864 -1.815,-2.641c-0,-0.546 0.053,-1.163 0.159,-1.835c0.106,-0.672 0.26,-1.352 0.457,-2.019c0.29,-0.998 0.66,-1.92 1.099,-2.744c0.438,-0.821 0.931,-1.536 1.465,-2.125c0.531,-0.585 1.099,-1.043 1.688,-1.363c0.581,-0.315 1.175,-0.475 1.763,-0.475c0.399,-0 0.735,0.07 0.998,0.207c0.263,0.136 0.473,0.321 0.627,0.55c0.157,0.234 0.271,0.516 0.338,0.838c0.069,0.333 0.104,0.689 0.104,1.058c-0,0.46 -0.04,0.931 -0.118,1.402c-0.073,0.441 -0.164,0.873 -0.271,1.285c-0.298,1.14 -0.936,2.581 -1.384,3.552m1.602,0.057c0.146,-0.281 0.287,-0.57 0.418,-0.864c0.146,-0.324 0.278,-0.665 0.39,-1.011c0.185,-0.548 0.338,-1.133 0.456,-1.738c0.117,-0.604 0.176,-1.217 0.177,-1.832c-0,-0.563 -0.062,-1.109 -0.185,-1.625c-0.115,-0.503 -0.329,-0.977 -0.63,-1.396c-0.307,-0.415 -0.71,-0.749 -1.175,-0.974c-0.484,-0.239 -1.083,-0.36 -1.779,-0.36c-0.853,-0 -1.712,0.195 -2.551,0.58c-0.859,0.4 -1.646,0.94 -2.327,1.598c-0.737,0.712 -1.372,1.521 -1.889,2.406c-0.554,0.944 -0.973,1.96 -1.247,3.019c-0.121,0.459 -0.216,0.928 -0.28,1.393c-0.064,0.455 -0.097,0.914 -0.098,1.373c-0,0.71 0.087,1.359 0.26,1.929c0.174,0.575 0.427,1.07 0.752,1.471c0.329,0.404 0.736,0.718 1.213,0.933c0.505,0.22 1.052,0.33 1.603,0.322c0.585,-0 1.181,-0.104 1.769,-0.31c0.604,-0.215 1.176,-0.508 1.703,-0.873c0.567,-0.394 1.09,-0.849 1.559,-1.356c0.447,-0.482 0.865,-1.021 1.241,-1.603m117.38,-1.139c-0.34,0.634 -0.716,1.22 -1.118,1.741c-0.385,0.508 -0.822,0.974 -1.303,1.391c-0.408,0.355 -0.865,0.65 -1.356,0.877c-0.449,0.2 -0.898,0.301 -1.333,0.301c-1.221,-0 -1.815,-0.864 -1.815,-2.641c-0,-0.546 0.054,-1.163 0.159,-1.835c0.107,-0.672 0.261,-1.352 0.457,-2.019c0.291,-0.998 0.66,-1.92 1.1,-2.744c0.438,-0.821 0.93,-1.536 1.464,-2.125c0.531,-0.585 1.099,-1.043 1.689,-1.363c0.581,-0.315 1.174,-0.475 1.762,-0.475c0.399,-0 0.735,0.07 0.999,0.207c0.262,0.136 0.472,0.321 0.626,0.55c0.157,0.234 0.271,0.516 0.338,0.838c0.069,0.333 0.104,0.689 0.104,1.058c-0,0.46 -0.039,0.931 -0.118,1.402c-0.072,0.441 -0.164,0.873 -0.271,1.285c-0.297,1.14 -0.935,2.581 -1.384,3.552m1.603,0.057c0.145,-0.281 0.286,-0.57 0.418,-0.864c0.145,-0.324 0.277,-0.665 0.389,-1.011c0.185,-0.548 0.338,-1.133 0.456,-1.738c0.117,-0.604 0.176,-1.217 0.177,-1.832c-0,-0.563 -0.062,-1.109 -0.184,-1.625c-0.115,-0.503 -0.329,-0.977 -0.63,-1.396c-0.308,-0.415 -0.711,-0.749 -1.176,-0.974c-0.484,-0.239 -1.082,-0.36 -1.778,-0.36c-0.854,-0 -1.713,0.195 -2.551,0.58c-0.859,0.399 -1.646,0.94 -2.327,1.598c-0.737,0.712 -1.373,1.521 -1.89,2.406c-0.554,0.944 -0.973,1.96 -1.247,3.019c-0.121,0.458 -0.214,0.924 -0.28,1.393c-0.064,0.455 -0.096,0.914 -0.097,1.373c-0.008,0.652 0.079,1.302 0.259,1.929c0.174,0.575 0.427,1.07 0.753,1.471c0.328,0.404 0.736,0.718 1.212,0.933c0.505,0.22 1.052,0.33 1.603,0.322c0.585,-0 1.181,-0.104 1.769,-0.31c0.604,-0.215 1.177,-0.508 1.704,-0.873c0.567,-0.394 1.089,-0.849 1.558,-1.356c0.448,-0.482 0.865,-1.021 1.242,-1.603m-94.29,-2.365c-0.468,0.84 -0.979,1.657 -1.529,2.446c-0.489,0.692 -0.981,1.276 -1.462,1.734c-0.474,0.451 -0.954,0.794 -1.426,1.021c-0.443,0.218 -0.929,0.332 -1.423,0.335c-0.582,-0 -1.01,-0.144 -1.271,-0.426c-0.27,-0.29 -0.4,-0.647 -0.4,-1.09c-0,-0.333 0.064,-0.729 0.191,-1.177c0.129,-0.458 0.294,-0.959 0.492,-1.489c0.199,-0.534 0.415,-1.09 0.645,-1.667c0.232,-0.578 0.45,-1.159 0.65,-1.727c0.202,-0.571 0.37,-1.133 0.503,-1.67c0.134,-0.546 0.203,-1.06 0.203,-1.53c-0,-0.434 -0.068,-0.854 -0.202,-1.246c-0.131,-0.389 -0.339,-0.748 -0.613,-1.054c-0.282,-0.308 -0.627,-0.552 -1.011,-0.716c-0.397,-0.173 -0.865,-0.261 -1.391,-0.261c-0.583,-0 -1.143,0.116 -1.668,0.345c-0.518,0.226 -1.037,0.571 -1.542,1.026c-0.557,0.517 -1.062,1.089 -1.505,1.706c-0.209,0.286 -0.412,0.577 -0.608,0.872l1.36,-3.721l-2.169,-0l-5.312,14.568l2.169,-0l2.548,-6.971l0.623,-1.103c0.487,-0.869 1.01,-1.718 1.567,-2.544c0.491,-0.719 0.98,-1.325 1.452,-1.801c0.466,-0.47 0.936,-0.827 1.396,-1.061c0.429,-0.224 0.905,-0.342 1.389,-0.345c0.302,-0 0.563,0.043 0.775,0.13c0.209,0.085 0.384,0.203 0.521,0.35c0.135,0.146 0.236,0.323 0.299,0.527c0.067,0.213 0.1,0.448 0.1,0.7c-0,0.364 -0.064,0.789 -0.191,1.264c-0.142,0.52 -0.306,1.035 -0.492,1.541c-0.206,0.565 -0.421,1.126 -0.645,1.684c-0.228,0.569 -0.445,1.143 -0.65,1.721c-0.199,0.561 -0.368,1.11 -0.502,1.633c-0.127,0.47 -0.195,0.955 -0.203,1.442c-0,0.411 0.068,0.805 0.203,1.172c0.136,0.371 0.343,0.701 0.615,0.982c0.289,0.291 0.636,0.518 1.018,0.666c0.4,0.16 0.867,0.241 1.393,0.241c0.638,-0 1.25,-0.13 1.82,-0.388c0.563,-0.255 1.122,-0.642 1.661,-1.148c0.535,-0.502 1.075,-1.143 1.607,-1.904c0.593,-0.861 1.148,-1.747 1.663,-2.657l0.706,-1.248l-0.629,-0.444l-0.725,1.282Zm7.583,5.536c-0.475,-0 -0.811,-0.149 -1.028,-0.455c-0.227,-0.321 -0.343,-0.778 -0.343,-1.36c-0,-0.535 0.093,-1.214 0.276,-2.019c0.186,-0.813 0.467,-1.707 0.836,-2.657c0.45,-1.143 0.951,-2.149 1.488,-2.993c0.538,-0.845 1.092,-1.551 1.646,-2.101c0.55,-0.545 1.096,-0.958 1.624,-1.224c0.518,-0.261 0.992,-0.393 1.407,-0.393c0.203,-0 0.403,0.033 0.594,0.098c0.184,0.062 0.344,0.166 0.488,0.318c0.146,0.153 0.265,0.357 0.355,0.606c0.092,0.253 0.139,0.575 0.139,0.96c-0,0.432 -0.062,0.929 -0.181,1.476c-0.134,0.594 -0.308,1.178 -0.52,1.749c-0.236,0.636 -0.503,1.261 -0.802,1.87c-0.309,0.633 -0.65,1.254 -1.015,1.847c-0.358,0.582 -0.748,1.145 -1.168,1.684c-0.381,0.492 -0.804,0.948 -1.266,1.365c-0.391,0.357 -0.827,0.662 -1.296,0.908c-0.419,0.212 -0.834,0.321 -1.234,0.321m14.597,-5.535c-0.465,0.849 -0.973,1.673 -1.523,2.469c-0.485,0.693 -0.974,1.276 -1.455,1.734c-0.475,0.451 -0.96,0.79 -1.441,1.007c-0.464,0.213 -0.969,0.324 -1.48,0.325c-0.557,-0 -0.968,-0.144 -1.221,-0.429c-0.259,-0.291 -0.391,-0.693 -0.391,-1.194c-0,-0.236 0.026,-0.497 0.076,-0.777c0.05,-0.28 0.117,-0.579 0.199,-0.888c0.085,-0.313 0.183,-0.631 0.291,-0.947c0.111,-0.326 0.223,-0.645 0.334,-0.955l5.434,-14.949l-2.168,-0l-3.005,8.275c-0.017,-0.113 -0.038,-0.225 -0.062,-0.337c-0.075,-0.354 -0.223,-0.688 -0.434,-0.981c-0.211,-0.279 -0.489,-0.501 -0.808,-0.644c-0.635,-0.293 -1.616,-0.299 -2.669,-0.029c-0.54,0.142 -1.063,0.341 -1.56,0.594c-0.556,0.285 -1.084,0.623 -1.576,1.008c-0.521,0.404 -1.027,0.893 -1.502,1.453c-0.499,0.596 -0.94,1.237 -1.319,1.915c-0.423,0.761 -0.773,1.56 -1.045,2.387c-0.21,0.628 -0.373,1.264 -0.486,1.889c-0.11,0.594 -0.167,1.196 -0.171,1.8c-0,0.53 0.055,1.027 0.162,1.474c0.108,0.456 0.283,0.861 0.519,1.201c0.241,0.349 0.551,0.622 0.923,0.814c0.372,0.193 0.826,0.291 1.35,0.291c1.094,-0 2.183,-0.456 3.235,-1.357c0.843,-0.721 1.702,-1.747 2.56,-3.058c-0.063,0.368 -0.096,0.741 -0.098,1.114c-0,0.489 0.067,0.94 0.201,1.34c0.135,0.408 0.341,0.761 0.609,1.051c0.269,0.291 0.607,0.518 1.002,0.675c0.433,0.163 0.893,0.243 1.356,0.235c0.646,-0 1.264,-0.126 1.836,-0.375c0.567,-0.247 1.13,-0.627 1.67,-1.131c0.532,-0.496 1.075,-1.135 1.613,-1.898c0.603,-0.87 1.164,-1.769 1.681,-2.693l0.705,-1.249l-0.63,-0.443l-0.712,1.283Zm7.677,-2.2c0.284,-0.728 0.617,-1.411 0.989,-2.035c0.414,-0.696 0.865,-1.308 1.341,-1.82c0.427,-0.47 0.924,-0.872 1.472,-1.193c0.492,-0.278 0.98,-0.419 1.448,-0.419c0.159,-0 0.308,0.018 0.444,0.054c0.119,0.03 0.23,0.085 0.325,0.162c0.09,0.073 0.159,0.166 0.211,0.285c0.054,0.119 0.08,0.275 0.08,0.463c-0,0.404 -0.078,0.8 -0.231,1.175c-0.158,0.384 -0.367,0.744 -0.622,1.071c-0.258,0.331 -0.557,0.628 -0.89,0.884c-0.32,0.249 -0.668,0.461 -1.037,0.631c-0.451,0.21 -0.986,0.385 -1.591,0.52c-0.542,0.122 -1.192,0.196 -1.939,0.222m9.269,2.198c-0.393,0.693 -0.86,1.38 -1.385,2.043c-0.516,0.653 -1.101,1.248 -1.745,1.774c-0.626,0.512 -1.32,0.932 -2.064,1.249c-0.735,0.313 -1.525,0.474 -2.324,0.471c-0.948,-0 -1.647,-0.228 -2.075,-0.679c-0.431,-0.453 -0.65,-1.218 -0.65,-2.274c-0,-0.712 0.066,-1.419 0.195,-2.104c0.118,-0.634 0.284,-1.258 0.495,-1.868c0.91,-0.005 1.739,-0.073 2.463,-0.2c0.72,-0.122 1.424,-0.325 2.099,-0.604c0.492,-0.199 0.961,-0.453 1.396,-0.757c0.393,-0.271 0.752,-0.589 1.069,-0.945c0.301,-0.342 0.533,-0.71 0.692,-1.095c0.16,-0.389 0.242,-0.791 0.242,-1.197c-0,-0.734 -0.255,-1.314 -0.758,-1.726c-0.491,-0.4 -1.165,-0.604 -2.004,-0.604c-0.816,-0 -1.637,0.195 -2.44,0.581c-0.83,0.405 -1.587,0.942 -2.243,1.592c-0.718,0.713 -1.335,1.521 -1.834,2.401c-0.54,0.948 -0.956,1.961 -1.235,3.016c-0.129,0.482 -0.225,0.962 -0.286,1.425c-0.061,0.465 -0.092,0.909 -0.092,1.318c-0,1.539 0.414,2.719 1.232,3.506c0.814,0.786 1.982,1.184 3.471,1.184c0.88,0.005 1.753,-0.151 2.576,-0.461c0.813,-0.311 1.576,-0.74 2.264,-1.272c0.7,-0.537 1.355,-1.187 1.948,-1.93c0.609,-0.767 1.158,-1.581 1.641,-2.433l0.706,-1.249l-0.63,-0.442l-0.724,1.28Zm13.131,-8.516c-0.418,-0 -0.849,0.107 -1.281,0.318c-0.423,0.208 -0.88,0.557 -1.355,1.037c-0.468,0.472 -0.982,1.1 -1.53,1.867c-0.26,0.367 -0.534,0.776 -0.821,1.226l1.538,-4.221l-2.169,-0l-5.31,14.569l2.181,-0l2.295,-6.348l0.6,-1.055c0.743,-1.312 1.419,-2.407 2.009,-3.255c0.588,-0.844 1.124,-1.518 1.592,-2.002c0.463,-0.478 0.877,-0.815 1.234,-1.001c0.668,-0.348 1.284,-0.332 1.554,-0.115c0.06,0.044 0.11,0.1 0.146,0.165c-0.241,-0.044 -0.513,-0.025 -0.728,0.097c-0.267,0.153 -0.466,0.402 -0.557,0.696c-0.05,0.151 -0.075,0.301 -0.075,0.448c0,0.188 0.037,0.357 0.109,0.503c0.071,0.14 0.164,0.262 0.278,0.362c0.393,0.325 0.945,0.383 1.398,0.148c0.168,-0.093 0.313,-0.221 0.426,-0.376c0.113,-0.155 0.199,-0.338 0.256,-0.545c0.057,-0.21 0.085,-0.426 0.084,-0.643c0,-0.55 -0.168,-1.005 -0.5,-1.351c-0.336,-0.348 -0.797,-0.524 -1.374,-0.524m65.061,1.853c-0.033,-0.308 -0.096,-0.613 -0.187,-0.909c-0.07,-0.238 -0.186,-0.46 -0.342,-0.653c-0.149,-0.176 -0.369,-0.278 -0.6,-0.278c-0.201,-0 -0.394,0.077 -0.54,0.215c-0.155,0.129 -0.245,0.32 -0.246,0.521c0,0.148 0.047,0.297 0.143,0.444c0.07,0.105 0.152,0.264 0.243,0.47c0.09,0.202 0.173,0.481 0.246,0.831c0.073,0.349 0.11,0.827 0.11,1.418c0,0.822 -0.089,1.627 -0.266,2.39c-0.177,0.774 -0.412,1.534 -0.703,2.273c-0.303,0.763 -0.675,1.497 -1.111,2.192c-0.391,0.628 -0.848,1.212 -1.365,1.742c-0.437,0.452 -0.939,0.836 -1.489,1.141c-0.498,0.268 -0.988,0.403 -1.457,0.403c-0.45,-0 -0.783,-0.134 -1.015,-0.407c-0.236,-0.28 -0.357,-0.689 -0.357,-1.216c0,-0.373 0.073,-0.85 0.215,-1.416c0.195,-0.727 0.423,-1.445 0.684,-2.151l3.122,-8.635l-2.168,-0l-3.076,8.508c-0.265,0.726 -0.609,1.421 -1.024,2.072c-0.388,0.615 -0.843,1.184 -1.357,1.699c-0.447,0.448 -0.955,0.831 -1.509,1.137c-0.506,0.272 -0.992,0.409 -1.447,0.409c-0.449,-0 -0.782,-0.134 -1.014,-0.407c-0.236,-0.28 -0.357,-0.689 -0.357,-1.216c0,-0.373 0.073,-0.85 0.215,-1.416c0.195,-0.727 0.423,-1.445 0.684,-2.151l3.134,-8.635l-2.169,-0l-3.087,8.51c-0.195,0.55 -0.345,1.085 -0.445,1.589c-0.096,0.459 -0.147,0.927 -0.153,1.396c0,0.489 0.063,0.938 0.188,1.338c0.126,0.405 0.316,0.757 0.563,1.046c0.249,0.293 0.555,0.521 0.911,0.679c0.744,0.332 1.75,0.316 2.694,-0.05c0.489,-0.189 0.97,-0.46 1.434,-0.803c0.461,-0.343 0.91,-0.761 1.333,-1.242c0.279,-0.316 0.55,-0.661 0.808,-1.031l-0.001,0.063c0,0.487 0.063,0.937 0.189,1.338c0.126,0.405 0.316,0.757 0.563,1.046c0.249,0.293 0.555,0.521 0.911,0.679c0.354,0.158 0.76,0.238 1.207,0.238c0.633,-0 1.27,-0.156 1.892,-0.463c0.652,-0.331 1.251,-0.757 1.776,-1.265c0.599,-0.578 1.131,-1.222 1.585,-1.919c0.486,-0.737 0.925,-1.555 1.303,-2.432c0.179,-0.415 0.354,-0.859 0.519,-1.322c0.357,-0.986 0.612,-2.006 0.759,-3.044c0.076,-0.537 0.115,-1.088 0.115,-1.638c0,-0.383 -0.02,-0.748 -0.061,-1.088m-40.386,-7.531l0.16,-0.43l2.168,-0l-0.09,0.249l-5.344,14.7c-0.112,0.31 -0.223,0.628 -0.335,0.95c-0.212,0.6 -0.376,1.215 -0.49,1.841c-0.047,0.256 -0.072,0.516 -0.075,0.776c0,0.502 0.132,0.903 0.391,1.195c0.253,0.284 0.664,0.428 1.221,0.428c0.509,-0.001 1.012,-0.114 1.473,-0.33c0.478,-0.222 0.962,-0.564 1.436,-1.014c0.478,-0.455 0.967,-1.038 1.455,-1.733c0.55,-0.795 1.063,-1.616 1.536,-2.459l0.726,-1.284l0.612,0.447l-0.69,1.246c-0.517,0.924 -1.078,1.823 -1.682,2.694c-0.537,0.764 -1.082,1.403 -1.619,1.899c-0.544,0.503 -1.108,0.884 -1.675,1.13c-0.573,0.25 -1.19,0.375 -1.836,0.375c-0.508,-0 -0.964,-0.079 -1.357,-0.235c-0.38,-0.147 -0.723,-0.378 -1.002,-0.675c-0.276,-0.302 -0.483,-0.66 -0.608,-1.05c-0.139,-0.433 -0.208,-0.885 -0.202,-1.34c0,-0.429 0.052,-0.901 0.154,-1.403c0.1,-0.5 0.249,-1.032 0.444,-1.583l4.932,-13.543l0.297,-0.851Zm-6.947,-0.326c1.115,0.303 1.745,0.879 2.166,1.441c0.545,0.727 0.951,3.015 -1.063,2.826c-1.103,-0.103 -1.398,-1.706 -0.337,-2.278c0.026,-0.379 -0.403,-0.921 -0.831,-1.077c-1.037,-0.379 -2.225,-0.151 -3.044,0.13c-0.476,0.17 -0.907,0.448 -1.257,0.812c-0.386,0.389 -0.756,0.91 -1.101,1.551c-0.35,0.649 -0.712,1.47 -1.074,2.438l-0.13,0.336l3.521,-0l0,0.852l-3.83,-0l-7.285,20.031l-2.168,-0l0.091,-0.249l7.193,-19.782l-3.238,-0l0,-0.852l3.554,-0l0.135,-0.358c0.369,-1.025 0.789,-1.924 1.249,-2.668c0.465,-0.749 0.991,-1.374 1.567,-1.859c0.566,-0.482 1.22,-0.85 1.925,-1.084c1.15,-0.378 2.587,-0.435 3.957,-0.21" style="fill:#333;fill-rule:nonzero;"/></g></svg>