<svg width="592" height="517" viewBox="0 0 592 517" fill="none" xmlns="http://www.w3.org/2000/svg">
<g clip-path="url(#clip0_1_24)">
<path d="M560.755 258.33C560.755 326.844 533.538 392.552 485.091 440.999C436.644 489.446 370.935 516.663 302.421 516.663C233.907 516.663 168.199 489.446 119.752 440.999C71.3047 392.552 44.0876 326.844 44.0876 258.33C44.0876 189.815 71.3047 124.107 119.752 75.6603C168.199 27.2133 233.907 -0.00385284 302.421 -0.00385284C370.935 -0.00385284 436.644 27.2133 485.091 75.6603C533.538 124.107 560.755 189.815 560.755 258.33Z" fill="#FFF590"/>
<path d="M125.607 304.789V288.622H136.399V290.872H128.149V295.664H135.024V297.789H128.149V304.789H125.649H125.607ZM141.649 304.789V288.622H144.19V302.539H152.857V304.747H141.607L141.649 304.789ZM158.315 296.705C158.315 297.455 158.44 298.164 158.732 298.914C158.929 299.605 159.268 300.247 159.727 300.799C160.186 301.352 160.755 301.802 161.399 302.122C161.982 302.414 162.69 302.581 163.482 302.581C164.315 302.581 165.024 302.414 165.69 302.081C166.923 301.354 167.844 300.196 168.274 298.831C168.744 297.41 168.744 295.876 168.274 294.456C168.045 293.772 167.692 293.136 167.232 292.581C166.782 292.039 166.211 291.611 165.565 291.331C164.921 290.999 164.206 290.827 163.482 290.831C162.649 290.831 161.94 290.997 161.315 291.331C160.69 291.664 160.149 292.122 159.69 292.664C158.804 293.825 158.321 295.244 158.315 296.705ZM163.482 304.872C162.389 304.897 161.305 304.669 160.315 304.205C159.377 303.761 158.536 303.134 157.843 302.361C157.149 301.589 156.615 300.686 156.274 299.706C155.715 298.236 155.575 296.639 155.869 295.095C156.163 293.55 156.88 292.117 157.94 290.955C158.655 290.208 159.503 289.601 160.44 289.164C161.422 288.715 162.49 288.487 163.57 288.494C164.649 288.501 165.714 288.744 166.69 289.206C168.561 290.124 169.998 291.74 170.69 293.706C171.441 295.659 171.43 297.824 170.658 299.769C169.886 301.715 168.41 303.298 166.524 304.205C165.607 304.622 164.565 304.872 163.482 304.872ZM181.857 288.664H184.274L186.274 294.164L188.274 288.664H190.649L187.899 295.872L190.315 301.789L195.315 288.622H198.149L191.482 304.789H189.274L186.274 297.539L183.274 304.789H181.065L174.399 288.622H177.19L182.232 301.789L184.649 295.872L181.857 288.664Z" fill="#1D1D1B"/>
<path d="M209.565 296.589C209.579 294.565 210.319 292.614 211.649 291.089C212.362 290.267 213.246 289.61 214.239 289.164C215.232 288.718 216.31 288.493 217.399 288.506C218.899 288.506 220.149 288.839 221.19 289.506C222.232 290.131 223.024 291.006 223.565 292.047L221.565 293.381C221.308 292.747 220.894 292.189 220.362 291.759C219.83 291.329 219.197 291.041 218.524 290.922L217.315 290.797C216.573 290.782 215.838 290.945 215.172 291.271C214.505 291.597 213.926 292.077 213.482 292.672C212.844 293.566 212.428 294.6 212.268 295.686C212.109 296.773 212.211 297.883 212.565 298.922C213.059 300.292 214.037 301.433 215.315 302.131C215.94 302.464 216.649 302.631 217.399 302.631C217.815 302.631 218.19 302.547 218.607 302.464C219.275 302.305 219.9 301.998 220.433 301.565C220.967 301.132 221.397 300.585 221.69 299.964L223.774 301.13C223.565 301.755 223.19 302.297 222.732 302.797C221.255 304.162 219.326 304.933 217.315 304.964C216.226 304.948 215.156 304.677 214.19 304.172C212.303 303.222 210.856 301.58 210.149 299.589C209.732 298.631 209.565 297.589 209.565 296.589Z" fill="#1D1D1B"/>
<path d="M231.565 296.914H236.024C236.373 296.916 236.717 296.83 237.024 296.664C237.315 296.497 237.565 296.247 237.815 295.997C238.275 295.386 238.51 294.636 238.482 293.872C238.472 293.106 238.192 292.368 237.69 291.789C237.464 291.498 237.181 291.257 236.857 291.081C236.559 290.936 236.23 290.865 235.899 290.872H231.565V296.914ZM229.065 304.747V288.622H236.065C236.774 288.622 237.482 288.747 238.065 289.039C238.947 289.498 239.689 290.185 240.217 291.027C240.744 291.869 241.037 292.837 241.065 293.831C241.087 294.891 240.797 295.934 240.232 296.831C239.679 297.675 238.857 298.306 237.899 298.622L241.69 304.789H238.815L235.315 299.164H231.565V304.789H229.065V304.747Z" fill="#1D1D1B"/>
<path d="M253.19 286.932L251.524 286.432L252.857 283.932H255.232L253.149 286.932H253.19ZM258.024 302.516V304.766H246.94V288.599H257.774V290.849H249.44V295.432H256.69V297.557H249.482V302.516H258.024Z" fill="#1D1D1B"/>
<path d="M271.982 298.497L269.357 291.539L266.69 298.497H271.982ZM268.232 288.581H270.482L276.857 304.789H274.19L272.482 300.372H266.232L264.565 304.789H261.815L268.274 288.622L268.232 288.581ZM291.982 290.872H286.607V304.789H284.024V290.872H278.607V288.622H291.982V290.872Z" fill="#1D1D1B"/>
<path fill-rule="evenodd" clip-rule="evenodd" d="M296.982 288.622H299.524V304.789H296.982V288.622Z" fill="#1D1D1B"/>
<path d="M306.024 304.789V288.622H316.815V290.872H308.565V295.664H315.44V297.789H308.565V304.789H306.065H306.024ZM341.107 302.539V304.747H330.024V288.622H340.899V290.872H332.565V295.456H339.815V297.539H332.565V302.539H341.107ZM349.149 293.372V304.789H346.607V288.622H348.607L357.857 300.289V288.622H360.44V304.789H358.315L349.149 293.372ZM383.149 298.497L380.565 291.539L377.857 298.497H383.149ZM379.399 288.581H381.69L388.065 304.789H385.357L383.649 300.372H377.399L375.732 304.789H373.024L379.44 288.622L379.399 288.581Z" fill="#1D1D1B"/>
<path d="M391.274 296.589C391.299 294.568 392.037 292.62 393.357 291.089C394.075 290.262 394.966 289.601 395.966 289.155C396.967 288.709 398.053 288.487 399.149 288.506C400.565 288.506 401.857 288.839 402.899 289.506C403.94 290.131 404.732 291.006 405.274 292.047L403.232 293.381C403.025 292.921 402.743 292.499 402.399 292.131C401.812 291.501 401.037 291.077 400.19 290.922L399.024 290.797C398.282 290.783 397.547 290.945 396.88 291.271C396.214 291.597 395.634 292.078 395.19 292.672C394.555 293.568 394.141 294.601 393.982 295.687C393.823 296.773 393.923 297.882 394.274 298.922C394.768 300.292 395.746 301.433 397.024 302.131C397.663 302.476 398.381 302.649 399.107 302.631C399.482 302.631 399.899 302.547 400.315 302.464C400.985 302.308 401.611 302.002 402.145 301.569C402.679 301.136 403.108 300.587 403.399 299.964L405.482 301.131C405.232 301.756 404.899 302.297 404.399 302.797C402.926 304.169 400.994 304.941 398.982 304.964C397.894 304.938 396.826 304.667 395.857 304.172C393.986 303.213 392.554 301.573 391.857 299.589C391.44 298.631 391.274 297.589 391.274 296.589Z" fill="#1D1D1B"/>
<path d="M422.44 290.872H417.024V304.789H414.482V290.872H409.065V288.622H422.399V290.872H422.44Z" fill="#1D1D1B"/>
<path fill-rule="evenodd" clip-rule="evenodd" d="M427.44 288.622H429.982V304.789H427.44V288.622Z" fill="#1D1D1B"/>
<path d="M438.024 296.706C438.036 298.185 438.533 299.62 439.44 300.789C439.857 301.331 440.44 301.789 441.107 302.081C441.732 302.414 442.44 302.581 443.19 302.581C444.024 302.581 444.774 302.414 445.399 302.081C446.632 301.354 447.552 300.196 447.982 298.831C448.453 297.41 448.453 295.876 447.982 294.456C447.776 293.775 447.433 293.143 446.974 292.598C446.516 292.054 445.951 291.608 445.316 291.289C444.667 290.973 443.953 290.816 443.232 290.831C442.399 290.831 441.649 290.997 441.024 291.331C440.394 291.663 439.838 292.118 439.387 292.669C438.936 293.22 438.6 293.856 438.399 294.539C438.149 295.247 438.024 295.956 438.024 296.706ZM443.19 304.872C442.098 304.897 441.014 304.669 440.024 304.206C439.093 303.756 438.261 303.128 437.574 302.355C436.888 301.583 436.361 300.683 436.024 299.706C435.274 297.755 435.278 295.596 436.032 293.647C436.787 291.699 438.239 290.101 440.107 289.164C441.066 288.747 442.107 288.497 443.232 288.497C444.399 288.497 445.44 288.706 446.399 289.206C447.315 289.706 448.149 290.289 448.815 291.081C450.181 292.657 450.926 294.677 450.91 296.763C450.895 298.849 450.121 300.857 448.732 302.414C448.026 303.181 447.169 303.795 446.216 304.217C445.263 304.64 444.233 304.863 443.19 304.872ZM458.982 293.372V304.789H456.441V288.622H458.44L467.691 300.289V288.622H470.274V304.789H468.149L458.982 293.372Z" fill="#1D1D1B"/>
<path d="M138.107 225.444C137.931 224.894 137.648 224.384 137.274 223.944C137.11 223.756 136.912 223.603 136.689 223.493C136.466 223.383 136.223 223.318 135.975 223.303C135.727 223.287 135.478 223.321 135.243 223.403C135.008 223.484 134.792 223.611 134.607 223.777C134.424 223.93 134.277 224.121 134.176 224.337C134.075 224.553 134.023 224.789 134.024 225.027C134.024 225.361 134.149 225.694 134.357 226.069C134.524 226.277 134.732 226.652 134.94 227.152C135.149 227.652 135.357 228.277 135.524 229.111C135.939 232.095 135.811 235.13 135.149 238.069C134.269 241.783 132.821 245.339 130.857 248.611C129.899 250.194 128.774 251.527 127.649 252.694C126.524 253.861 125.357 254.778 124.149 255.403C122.982 256.028 121.815 256.361 120.732 256.361C120.279 256.39 119.826 256.316 119.407 256.142C118.988 255.969 118.614 255.702 118.315 255.361C117.774 254.736 117.482 253.777 117.482 252.527C117.482 251.652 117.649 250.528 117.982 249.194C118.357 247.819 118.899 246.111 119.649 244.111L126.982 223.777H121.857L114.607 243.777C113.384 247.114 111.466 250.153 108.982 252.694C107.857 253.819 106.649 254.736 105.44 255.361C104.274 256.027 103.107 256.361 102.024 256.361C100.982 256.361 100.19 256.027 99.6485 255.361C99.1069 254.736 98.8152 253.777 98.8152 252.527C98.8152 251.652 98.9819 250.528 99.3152 249.194C99.6485 247.819 100.19 246.111 100.94 244.111L108.315 223.777H103.19L95.9402 243.819C95.0899 246.076 94.5978 248.452 94.4819 250.861C94.4819 251.986 94.6902 253.069 94.9819 253.986C95.2735 254.944 95.6902 255.778 96.2735 256.486C96.8569 257.153 97.6069 257.694 98.4402 258.069C100.485 258.863 102.761 258.818 104.774 257.944C105.94 257.527 107.065 256.861 108.149 256.069C110.138 254.594 111.845 252.773 113.19 250.694V250.861C113.19 251.986 113.357 253.069 113.607 253.986C113.94 254.944 114.399 255.778 114.982 256.486C115.598 257.198 116.369 257.76 117.235 258.128C118.102 258.497 119.042 258.662 119.982 258.611C121.44 258.611 122.94 258.278 124.399 257.528C127.607 255.708 130.325 253.133 132.315 250.027C134.141 247.286 135.598 244.316 136.649 241.194C137.461 238.867 138.048 236.467 138.399 234.027C138.689 231.901 138.731 229.747 138.524 227.611C138.465 226.875 138.325 226.149 138.107 225.444Z" fill="#1D1D1B"/>
<path d="M169.274 246.186C167.836 248.96 165.917 251.457 163.607 253.561C162.565 254.436 161.482 255.144 160.399 255.644C159.357 256.061 158.315 256.311 157.274 256.311C154.357 256.311 152.982 254.311 152.982 250.102C153.2 244.692 154.579 239.392 157.024 234.561C158.065 232.644 159.232 230.936 160.482 229.561C161.732 228.186 163.065 227.102 164.44 226.352C165.815 225.602 167.232 225.227 168.607 225.227C169.341 225.18 170.075 225.316 170.743 225.621C171.412 225.926 171.995 226.392 172.44 226.977C172.815 227.561 173.065 228.227 173.232 228.977C173.512 230.912 173.512 232.876 173.232 234.811C172.585 238.798 171.261 242.645 169.315 246.186M173.065 246.311C173.8 244.882 174.44 243.406 174.982 241.894C175.946 239.191 176.453 236.347 176.482 233.477C176.482 232.144 176.315 230.852 176.065 229.644C175.732 228.394 175.232 227.311 174.565 226.352C173.835 225.372 172.877 224.586 171.774 224.061C170.649 223.519 169.232 223.227 167.607 223.227C165.565 223.227 163.565 223.686 161.565 224.602C159.607 225.477 157.774 226.769 156.107 228.352C152.486 231.831 149.929 236.267 148.732 241.144C148.173 243.267 147.865 245.449 147.815 247.644C147.815 249.311 148.024 250.852 148.44 252.227C148.857 253.561 149.44 254.727 150.19 255.686C150.998 256.646 152.015 257.408 153.164 257.914C154.312 258.419 155.561 258.655 156.815 258.602C158.232 258.602 159.607 258.394 160.982 257.894C162.399 257.394 163.732 256.727 165.024 255.811C167.695 253.994 169.94 251.62 171.607 248.852M448.107 246.186C446.657 248.963 444.724 251.46 442.399 253.561C441.357 254.436 440.315 255.144 439.232 255.644C438.149 256.061 437.107 256.311 436.065 256.311C433.19 256.311 431.815 254.311 431.815 250.102C432.034 244.692 433.412 239.392 435.857 234.561C436.857 232.644 438.024 230.936 439.315 229.561C440.565 228.186 441.899 227.102 443.274 226.352C444.649 225.602 446.024 225.227 447.44 225.227C448.174 225.18 448.908 225.316 449.577 225.621C450.246 225.926 450.829 226.392 451.274 226.977C451.607 227.561 451.899 228.227 452.065 228.977C452.346 230.912 452.346 232.876 452.065 234.811C451.406 238.801 450.067 242.648 448.107 246.186ZM451.857 246.311C452.598 244.879 453.252 243.404 453.815 241.894C454.711 239.175 455.202 236.339 455.274 233.477C455.274 232.144 455.149 230.852 454.857 229.644C454.565 228.394 454.024 227.311 453.357 226.352C452.639 225.378 451.695 224.591 450.607 224.061C449.44 223.519 448.024 223.227 446.44 223.227C444.357 223.227 442.357 223.686 440.399 224.602C438.44 225.477 436.607 226.769 434.899 228.352C431.273 231.827 428.714 236.265 427.524 241.144C426.979 243.269 426.685 245.45 426.649 247.644C426.649 249.311 426.857 250.852 427.232 252.227C427.649 253.561 428.274 254.727 429.024 255.686C429.832 256.646 430.849 257.408 431.997 257.914C433.146 258.419 434.395 258.655 435.649 258.602C437.024 258.602 438.44 258.394 439.815 257.894C441.19 257.394 442.565 256.727 443.857 255.811C446.528 253.994 448.774 251.62 450.44 248.852M228.315 243.311C227.065 245.477 225.857 247.436 224.732 249.061C223.565 250.727 222.399 252.061 221.274 253.144C220.149 254.186 219.024 255.019 217.94 255.561C216.883 256.058 215.733 256.328 214.565 256.352C213.19 256.352 212.19 255.977 211.565 255.352C210.933 254.644 210.604 253.717 210.649 252.769C210.649 251.977 210.774 251.061 211.065 249.977L212.232 246.477L213.774 242.561L215.274 238.477C215.774 237.144 216.149 235.811 216.482 234.561C216.774 233.311 216.94 232.061 216.94 230.936C216.94 229.936 216.774 228.936 216.482 228.019C216.175 227.092 215.675 226.241 215.014 225.523C214.353 224.804 213.547 224.235 212.649 223.852C210.307 222.998 207.728 223.073 205.44 224.061C204.19 224.561 202.982 225.394 201.815 226.477C199.858 228.232 198.173 230.268 196.815 232.519L200.024 223.769H194.94L182.44 258.102H187.524L193.524 241.686L194.982 239.061C196.274 236.811 197.482 234.769 198.69 233.061C199.696 231.555 200.84 230.146 202.107 228.852C203.19 227.727 204.315 226.894 205.399 226.352C206.44 225.811 207.565 225.519 208.649 225.519C209.214 225.469 209.782 225.544 210.315 225.739C210.848 225.933 211.332 226.242 211.732 226.644C212.024 226.977 212.274 227.394 212.44 227.894C212.565 228.394 212.649 228.936 212.649 229.561C212.649 230.394 212.524 231.394 212.232 232.519C211.419 235.073 210.529 237.602 209.565 240.102C208.547 242.705 207.63 245.346 206.815 248.019C206.482 249.269 206.357 250.394 206.357 251.436C206.357 252.394 206.482 253.311 206.815 254.186C207.138 255.069 207.648 255.873 208.309 256.541C208.971 257.21 209.769 257.728 210.649 258.061C213.127 258.916 215.838 258.797 218.232 257.727C219.565 257.102 220.857 256.186 222.149 255.019C223.399 253.811 224.649 252.311 225.899 250.519C227.149 248.727 228.482 246.644 229.857 244.269L231.524 241.352L230.024 240.269L228.357 243.311H228.315Z" fill="#1D1D1B"/>
<path d="M246.19 256.356C245.065 256.356 244.274 255.981 243.774 255.272C243.167 254.316 242.876 253.194 242.94 252.064C242.94 250.814 243.19 249.189 243.607 247.314C244.699 242.606 246.542 238.103 249.065 233.981C250.315 232.022 251.649 230.356 252.94 229.064C254.232 227.772 255.524 226.814 256.774 226.147C258.024 225.564 259.107 225.231 260.107 225.231C260.565 225.231 261.024 225.314 261.482 225.481C261.899 225.606 262.315 225.897 262.649 226.231C262.982 226.564 263.274 227.064 263.482 227.647C263.69 228.231 263.815 229.022 263.815 229.897C263.815 230.939 263.649 232.106 263.399 233.397C261.768 239.491 258.965 245.208 255.149 250.231C254.149 251.481 253.149 252.522 252.149 253.439C251.149 254.356 250.107 255.064 249.107 255.564C248.107 256.106 247.107 256.356 246.19 256.356ZM280.565 243.314C279.315 245.522 278.149 247.481 276.982 249.147C275.815 250.731 274.69 252.106 273.565 253.189C272.572 254.172 271.416 254.976 270.149 255.564C269.024 256.064 267.857 256.356 266.69 256.356C265.357 256.356 264.399 255.981 263.774 255.314C263.132 254.529 262.806 253.535 262.857 252.522C263.037 250.419 263.485 248.346 264.19 246.356L265.024 244.106L277.774 208.897H272.69L265.607 228.397C265.575 228.118 265.534 227.84 265.482 227.564C265.274 226.731 264.94 225.897 264.44 225.272C263.938 224.618 263.279 224.102 262.524 223.772C260.503 223.077 258.312 223.048 256.274 223.689C253.552 224.368 251.018 225.65 248.857 227.439C244.591 230.995 241.426 235.692 239.732 240.981C238.829 243.814 238.324 246.759 238.232 249.731C238.232 250.981 238.315 252.147 238.607 253.189C238.83 254.2 239.24 255.161 239.815 256.022C240.402 256.881 241.202 257.571 242.138 258.024C243.074 258.477 244.112 258.678 245.149 258.606C247.991 258.515 250.703 257.389 252.774 255.439C255.118 253.334 257.152 250.907 258.815 248.231V248.397C258.649 249.231 258.565 250.064 258.565 250.856C258.565 251.981 258.732 253.064 259.065 254.022C259.357 254.981 259.899 255.814 260.482 256.522C261.149 257.147 261.94 257.689 262.857 258.064C265.316 258.858 267.978 258.74 270.357 257.731C271.732 257.147 273.024 256.272 274.315 255.064C275.565 253.897 276.815 252.397 278.107 250.606C279.357 248.814 280.69 246.689 282.065 244.272L283.732 241.356L282.232 240.272L280.565 243.314Z" fill="#1D1D1B"/>
<path d="M298.649 238.102C299.969 234.792 301.827 231.723 304.149 229.019C305.274 227.852 306.44 226.894 307.607 226.227C308.774 225.561 309.899 225.227 311.024 225.227C311.375 225.225 311.725 225.267 312.065 225.352C312.347 225.423 312.606 225.567 312.815 225.769C313.024 225.936 313.232 226.144 313.315 226.436C313.465 226.777 313.536 227.147 313.524 227.519C313.524 228.477 313.315 229.394 312.982 230.269C312.228 232.095 310.989 233.68 309.399 234.852C308.607 235.477 307.815 235.977 306.982 236.352C305.781 236.903 304.523 237.322 303.232 237.602C301.982 237.894 300.399 238.019 298.649 238.102ZM320.482 243.311C318.544 246.69 316.051 249.719 313.107 252.269C311.607 253.519 309.982 254.477 308.232 255.227C306.565 255.977 304.69 256.352 302.815 256.352C300.524 256.352 298.899 255.811 297.899 254.727C296.857 253.686 296.357 251.852 296.357 249.394C296.335 246.197 296.885 243.022 297.982 240.019C300.149 240.019 302.065 239.852 303.815 239.561C306.735 239.039 309.524 237.949 312.024 236.352C313.784 235.12 315.215 233.475 316.19 231.561C316.534 230.655 316.718 229.696 316.732 228.727C316.732 226.977 316.149 225.644 314.94 224.644C313.582 223.641 311.918 223.14 310.232 223.227C308.315 223.227 306.357 223.686 304.482 224.602C302.607 225.519 300.815 226.769 299.19 228.352C297.565 229.936 296.107 231.852 294.899 234.019C292.555 238.161 291.24 242.805 291.065 247.561C291.065 251.186 292.065 253.977 293.982 255.852C295.899 257.686 298.649 258.602 302.149 258.602C304.274 258.602 306.315 258.269 308.232 257.519C312.205 256.03 315.653 253.408 318.149 249.977C319.524 248.269 320.815 246.311 322.024 244.269L323.69 241.353L322.19 240.269L320.524 243.311H320.482Z" fill="#1D1D1B"/>
<path d="M351.399 223.229C350.44 223.229 349.399 223.479 348.399 223.979C347.399 224.479 346.315 225.271 345.19 226.437C343.06 228.629 341.212 231.079 339.69 233.729L343.274 223.729H338.19L325.69 258.104H330.815L336.232 243.104L337.649 240.646C339.399 237.562 340.982 234.979 342.357 232.979C343.732 230.979 345.024 229.396 346.107 228.271C347.19 227.146 348.19 226.354 349.024 225.896C350.607 225.062 352.065 225.104 352.69 225.646C352.826 225.747 352.939 225.874 353.024 226.021C352.447 225.896 351.845 225.97 351.315 226.229C350.697 226.61 350.238 227.202 350.024 227.896C349.899 228.229 349.829 228.581 349.815 228.937C349.798 229.509 349.968 230.07 350.298 230.537C350.629 231.003 351.103 231.348 351.649 231.521C352.482 231.771 353.315 231.729 354.024 231.354C354.44 231.104 354.774 230.812 355.024 230.437C355.315 230.104 355.482 229.646 355.649 229.187C355.774 228.687 355.815 228.187 355.815 227.646C355.815 226.354 355.399 225.271 354.649 224.479C353.857 223.646 352.774 223.229 351.399 223.229Z" fill="#1D1D1B"/>
<path d="M504.691 227.61C504.566 226.777 504.441 226.069 504.274 225.444C504.102 224.88 503.818 224.355 503.441 223.902C503.274 223.711 503.071 223.556 502.843 223.446C502.614 223.335 502.366 223.272 502.113 223.261C501.86 223.249 501.607 223.289 501.37 223.378C501.132 223.466 500.915 223.602 500.732 223.777C500.549 223.93 500.402 224.121 500.301 224.337C500.2 224.553 500.148 224.789 500.149 225.027C500.149 225.36 500.274 225.694 500.524 226.069L501.065 227.152C501.274 227.652 501.482 228.277 501.649 229.111C502.066 232.095 501.939 235.13 501.274 238.069C500.402 241.778 498.968 245.333 497.024 248.611C496.024 250.194 494.941 251.527 493.816 252.694C492.649 253.861 491.482 254.777 490.274 255.402C489.107 256.027 487.982 256.361 486.857 256.361C485.816 256.361 485.024 256.027 484.482 255.361C483.899 254.736 483.649 253.777 483.649 252.527C483.649 251.652 483.815 250.527 484.149 249.194C484.482 247.819 485.024 246.111 485.732 244.111L493.107 223.777H487.982L480.732 243.777C479.521 247.11 477.618 250.149 475.149 252.694C474.086 253.748 472.88 254.646 471.565 255.361C470.399 256.027 469.232 256.361 468.19 256.361C467.107 256.361 466.315 256.027 465.774 255.361C465.232 254.736 464.94 253.777 464.94 252.527C464.94 251.652 465.107 250.527 465.44 249.194C465.815 247.819 466.357 246.111 467.066 244.111L474.44 223.777H469.357L462.065 243.819C461.287 246.094 460.811 248.462 460.649 250.861C460.649 251.986 460.815 253.069 461.065 253.986C461.399 254.944 461.857 255.777 462.441 256.486C463.024 257.152 463.732 257.694 464.565 258.069C466.611 258.863 468.886 258.818 470.899 257.944C472.066 257.527 473.19 256.861 474.274 256.069C476.265 254.596 477.973 252.776 479.315 250.694V250.861C479.315 251.986 479.482 253.069 479.774 253.986C480.065 254.944 480.524 255.777 481.107 256.486C481.691 257.152 482.399 257.694 483.274 258.069C484.107 258.444 485.024 258.611 486.107 258.611C487.607 258.611 489.107 258.277 490.566 257.527C492.098 256.761 493.504 255.763 494.732 254.569C496.066 253.319 497.316 251.777 498.482 250.027C500.298 247.286 501.741 244.316 502.774 241.194C504.043 237.645 504.746 233.919 504.857 230.152C504.857 229.277 504.774 228.402 504.691 227.61Z" fill="#1D1D1B"/>
<path d="M409.524 209.871L409.94 208.829H415.024L414.815 209.412L402.232 244.037C401.714 245.531 401.214 247.031 400.732 248.537C400.436 249.827 400.227 251.136 400.107 252.454C400.107 253.662 400.399 254.579 401.024 255.287C401.607 255.954 402.607 256.287 403.94 256.287C405.107 256.287 406.274 256.037 407.357 255.496C408.482 254.996 409.649 254.162 410.774 253.121C411.899 252.037 413.024 250.662 414.19 249.037C415.357 247.371 416.565 245.412 417.815 243.204L419.482 240.204L420.94 241.287L419.315 244.204C417.94 246.621 416.607 248.787 415.357 250.537C414.107 252.329 412.815 253.871 411.565 255.037C410.274 256.204 408.94 257.121 407.607 257.704C405.228 258.713 402.566 258.831 400.107 258.037C399.201 257.691 398.385 257.143 397.721 256.436C397.057 255.729 396.562 254.88 396.274 253.954C395.952 252.93 395.797 251.861 395.815 250.787C395.828 249.666 395.954 248.55 396.19 247.454C396.399 246.329 396.774 245.037 397.232 243.746L408.857 211.871L409.524 209.871Z" fill="#1D1D1B"/>
<path d="M393.19 209.101C395.815 209.809 397.274 211.184 398.274 212.476C399.524 214.184 400.524 219.559 395.774 219.142C393.19 218.892 392.482 215.142 394.982 213.767C395.024 212.892 394.024 211.601 393.024 211.267C390.668 210.574 388.149 210.676 385.857 211.559C384.774 211.934 383.774 212.559 382.899 213.476C381.982 214.351 381.107 215.601 380.315 217.101C379.482 218.642 378.649 220.559 377.774 222.851L377.44 223.684H385.774V225.642H376.732L359.565 272.851H354.482L354.69 272.267L371.649 225.642H363.982V223.642H372.357L372.69 222.809C373.524 220.392 374.565 218.267 375.607 216.517C376.732 214.767 377.982 213.267 379.357 212.142C380.69 210.976 382.232 210.142 383.857 209.601C386.887 208.712 390.083 208.54 393.19 209.101Z" fill="#1D1D1B"/>
</g>
<defs>
<clipPath id="clip0_1_24">
<rect width="592" height="517" fill="white"/>
</clipPath>
</defs>
</svg>
