<svg width="592" height="517" viewBox="0 0 592 517" fill="none" xmlns="http://www.w3.org/2000/svg">
<path d="M58.3151 136.826C85.8985 102.159 98.8152 93.0756 139.315 82.1173C179.815 71.159 214.857 59.1173 248.774 50.3673C282.982 41.534 327.607 32.8674 364.274 30.659C398.69 28.5757 426.107 30.6588 444.732 31.7421C469.899 33.2421 502.732 35.034 536.691 73.3257C570.607 111.659 575.607 183.742 567.316 238.076C558.566 295.576 522.982 366.201 472.649 410.534C432.232 446.076 387.565 472.284 340.732 477.284C299.69 481.659 284.899 476.659 263.024 477.284C222.524 478.368 161.232 463.034 128.399 442.243C95.5235 421.409 52.4818 394.201 33.1485 343.742C7.98177 278.034 24.3984 179.534 58.3151 136.826Z" stroke="#1D1D1B" stroke-width="4.16667" stroke-miterlimit="10"/>
</svg>
