<?xml version="1.0" encoding="UTF-8" standalone="no"?><!DOCTYPE svg PUBLIC "-//W3C//DTD SVG 1.1//EN" "http://www.w3.org/Graphics/SVG/1.1/DTD/svg11.dtd"><svg width="100%" height="100%" viewBox="0 0 375 59" version="1.1" xmlns="http://www.w3.org/2000/svg" xmlns:xlink="http://www.w3.org/1999/xlink" xml:space="preserve" xmlns:serif="http://www.serif.com/" style="fill-rule:evenodd;clip-rule:evenodd;stroke-linejoin:round;stroke-miterlimit:2;"><g><path d="M39.731,15.204c-0.187,-0.581 -0.433,-1.048 -0.733,-1.397c-0.653,-0.756 -1.727,-0.79 -2.449,-0.141c-0.352,0.319 -0.53,0.695 -0.53,1.121c-0,0.319 0.104,0.638 0.31,0.953c0.151,0.228 0.327,0.57 0.522,1.011c0.193,0.433 0.37,1.033 0.528,1.781c0.157,0.756 0.235,1.778 0.235,3.047c-0,1.766 -0.192,3.49 -0.569,5.135c-0.378,1.649 -0.887,3.29 -1.512,4.878c-0.673,1.682 -1.475,3.27 -2.385,4.706c-0.907,1.44 -1.894,2.697 -2.93,3.742c-1.032,1.04 -2.108,1.865 -3.2,2.454c-1.066,0.573 -2.121,0.862 -3.129,0.862c-0.966,-0 -1.68,-0.285 -2.179,-0.874c-0.509,-0.6 -0.767,-1.478 -0.767,-2.61c-0,-0.805 0.156,-1.83 0.463,-3.042c0.312,-1.231 0.806,-2.785 1.469,-4.619l6.703,-18.545l-4.656,0l-6.606,18.271c-0.57,1.561 -1.309,3.058 -2.201,4.452c-0.885,1.39 -1.866,2.617 -2.913,3.647c-1.043,1.025 -2.134,1.846 -3.242,2.442c-1.084,0.585 -2.13,0.878 -3.104,0.878c-0.966,-0 -1.679,-0.285 -2.178,-0.874c-0.509,-0.6 -0.768,-1.478 -0.768,-2.61c0,-0.805 0.157,-1.83 0.463,-3.042c0.313,-1.231 0.807,-2.785 1.469,-4.619l6.729,-18.545l-4.656,0l-6.633,18.275c-0.413,1.178 -0.736,2.325 -0.953,3.415c-0.219,1.094 -0.329,2.104 -0.329,2.997c-0,1.048 0.136,2.013 0.404,2.872c0.271,0.87 0.679,1.629 1.208,2.249c0.536,0.63 1.193,1.116 1.957,1.458c1.595,0.711 3.758,0.673 5.786,-0.11c1.049,-0.406 2.084,-0.984 3.079,-1.725c0.989,-0.736 1.952,-1.633 2.864,-2.666c0.599,-0.676 1.18,-1.417 1.734,-2.211l0,0.133c0,1.048 0.136,2.013 0.404,2.872c0.271,0.87 0.679,1.629 1.209,2.249c0.535,0.63 1.193,1.116 1.956,1.458c0.76,0.338 1.633,0.509 2.593,0.509c1.359,0 2.726,-0.334 4.062,-0.995c1.316,-0.646 2.599,-1.561 3.816,-2.716c1.207,-1.147 2.352,-2.534 3.403,-4.121c1.046,-1.584 1.989,-3.343 2.799,-5.22c0.378,-0.877 0.753,-1.834 1.116,-2.841c0.362,-1.014 0.686,-2.078 0.963,-3.164c0.276,-1.083 0.499,-2.219 0.664,-3.373c0.164,-1.155 0.248,-2.34 0.248,-3.518c-0,-0.817 -0.044,-1.603 -0.131,-2.336c-0.088,-0.745 -0.224,-1.398 -0.403,-1.953" style="fill:#1d1d1b;fill-rule:nonzero;"/><path d="M68.175,34.102c-0.732,1.36 -1.54,2.618 -2.402,3.738c-0.895,1.163 -1.838,2.169 -2.799,2.986c-0.953,0.813 -1.933,1.447 -2.912,1.884c-0.965,0.429 -1.928,0.646 -2.862,0.646c-2.623,-0 -3.897,-1.854 -3.897,-5.671c-0,-1.174 0.115,-2.496 0.341,-3.94c0.229,-1.443 0.559,-2.906 0.981,-4.338c0.624,-2.142 1.418,-4.121 2.361,-5.891c0.941,-1.763 2,-3.301 3.146,-4.562c1.14,-1.258 2.36,-2.241 3.626,-2.929c1.247,-0.676 2.521,-1.022 3.784,-1.022c0.858,0 1.579,0.152 2.145,0.445c0.563,0.292 1.015,0.691 1.346,1.181c0.337,0.505 0.581,1.109 0.724,1.8c0.149,0.715 0.224,1.482 0.224,2.276c0,0.984 -0.084,1.994 -0.252,3.008c-0.156,0.946 -0.353,1.873 -0.583,2.762c-0.639,2.446 -2.009,5.538 -2.971,7.627m3.44,0.122c0.313,-0.604 0.615,-1.227 0.898,-1.858c0.313,-0.695 0.595,-1.428 0.836,-2.169c0.398,-1.177 0.727,-2.434 0.979,-3.734c0.253,-1.306 0.38,-2.628 0.38,-3.931c0,-1.212 -0.132,-2.386 -0.396,-3.491c-0.268,-1.128 -0.723,-2.135 -1.352,-2.997c-0.636,-0.87 -1.485,-1.576 -2.524,-2.093c-1.04,-0.513 -2.325,-0.771 -3.82,-0.771c-1.833,-0 -3.677,0.418 -5.478,1.242c-1.79,0.82 -3.473,1.975 -4.998,3.434c-1.518,1.447 -2.883,3.187 -4.057,5.166c-1.171,1.979 -2.071,4.159 -2.678,6.484c-0.26,0.984 -0.463,1.994 -0.602,2.99c-0.139,0.999 -0.209,1.99 -0.209,2.951c0,1.523 0.187,2.917 0.557,4.141c0.374,1.234 0.917,2.298 1.616,3.16c0.706,0.866 1.581,1.542 2.604,2.002c1.016,0.459 2.175,0.691 3.443,0.691c1.256,0 2.535,-0.224 3.798,-0.665c1.256,-0.44 2.485,-1.067 3.658,-1.876c1.166,-0.798 2.292,-1.778 3.347,-2.91c0.961,-1.037 1.859,-2.195 2.667,-3.445" style="fill:#1d1d1b;fill-rule:nonzero;"/><path d="M322.359,34.102c-0.729,1.36 -1.538,2.618 -2.401,3.738c-0.896,1.163 -1.838,2.169 -2.799,2.986c-0.954,0.813 -1.934,1.447 -2.914,1.884c-0.961,0.429 -1.926,0.646 -2.86,0.646c-2.621,-0 -3.897,-1.854 -3.897,-5.671c-0,-1.174 0.114,-2.496 0.342,-3.94c0.227,-1.443 0.558,-2.906 0.98,-4.338c0.626,-2.142 1.416,-4.121 2.362,-5.891c0.939,-1.763 1.998,-3.301 3.145,-4.562c1.14,-1.258 2.359,-2.241 3.628,-2.929c1.246,-0.676 2.519,-1.022 3.784,-1.022c0.858,0 1.58,0.152 2.142,0.445c0.566,0.292 1.018,0.691 1.348,1.181c0.335,0.505 0.582,1.109 0.726,1.8c0.148,0.715 0.22,1.482 0.22,2.276c0,0.984 -0.083,1.994 -0.25,3.008c-0.156,0.946 -0.354,1.873 -0.582,2.762c-0.642,2.446 -2.009,5.538 -2.974,7.627m3.442,0.122c0.311,-0.604 0.615,-1.227 0.896,-1.858c0.315,-0.695 0.596,-1.428 0.84,-2.169c0.395,-1.177 0.725,-2.434 0.976,-3.734c0.254,-1.306 0.38,-2.628 0.38,-3.931c-0,-1.212 -0.133,-2.386 -0.395,-3.491c-0.27,-1.128 -0.722,-2.135 -1.353,-2.997c-0.634,-0.87 -1.485,-1.576 -2.526,-2.093c-1.037,-0.513 -2.324,-0.771 -3.817,-0.771c-1.835,-0 -3.677,0.418 -5.478,1.242c-1.789,0.82 -3.472,1.975 -4.999,3.434c-1.519,1.447 -2.883,3.187 -4.057,5.166c-1.17,1.979 -2.07,4.159 -2.678,6.484c-0.258,0.984 -0.463,1.994 -0.6,2.99c-0.14,0.999 -0.209,1.99 -0.209,2.951c0,1.523 0.186,2.917 0.555,4.141c0.376,1.234 0.919,2.298 1.618,3.16c0.703,0.866 1.58,1.542 2.602,2.002c1.018,0.459 2.177,0.691 3.442,0.691c1.257,0 2.537,-0.224 3.798,-0.665c1.257,-0.44 2.488,-1.067 3.662,-1.876c1.162,-0.798 2.29,-1.778 3.346,-2.91c0.962,-1.037 1.858,-2.195 2.667,-3.445" style="fill:#1d1d1b;fill-rule:nonzero;"/><path d="M121.981,31.466c-1.125,1.998 -2.23,3.765 -3.284,5.254c-1.051,1.489 -2.106,2.738 -3.139,3.722c-1.019,0.973 -2.049,1.71 -3.063,2.196c-0.994,0.478 -2.023,0.718 -3.056,0.718c-1.25,-0 -2.168,-0.308 -2.73,-0.912c-0.578,-0.627 -0.859,-1.39 -0.859,-2.344c-0,-0.714 0.139,-1.565 0.41,-2.526c0.278,-0.983 0.632,-2.062 1.057,-3.198c0.428,-1.147 0.891,-2.34 1.386,-3.578c0.497,-1.242 0.966,-2.492 1.395,-3.712c0.433,-1.226 0.796,-2.431 1.08,-3.585c0.289,-1.17 0.436,-2.276 0.436,-3.286c-0,-0.931 -0.145,-1.831 -0.433,-2.674c-0.291,-0.855 -0.734,-1.615 -1.317,-2.264c-0.584,-0.646 -1.314,-1.167 -2.17,-1.539c-0.853,-0.372 -1.859,-0.562 -2.989,-0.562c-1.25,0 -2.454,0.251 -3.581,0.745c-1.113,0.482 -2.228,1.223 -3.312,2.203c-1.072,0.965 -2.157,2.199 -3.232,3.662c-0.426,0.581 -0.862,1.208 -1.304,1.872l2.919,-7.992l-4.658,0l-11.407,31.285l4.657,0l5.472,-14.97l1.338,-2.367c1.172,-2.07 2.304,-3.908 3.365,-5.462c1.055,-1.546 2.104,-2.849 3.12,-3.871c0.999,-1.006 2.008,-1.774 2.997,-2.279c0.967,-0.49 1.972,-0.741 2.982,-0.741c0.649,0 1.209,0.095 1.664,0.282c0.45,0.182 0.826,0.433 1.12,0.752c0.29,0.311 0.507,0.695 0.643,1.132c0.142,0.455 0.214,0.961 0.214,1.5c-0,0.783 -0.138,1.698 -0.41,2.716c-0.281,1.045 -0.638,2.161 -1.057,3.309c-0.429,1.173 -0.89,2.378 -1.385,3.616c-0.501,1.253 -0.971,2.496 -1.397,3.696c-0.426,1.204 -0.79,2.385 -1.078,3.506c-0.289,1.136 -0.435,2.18 -0.435,3.1c-0,0.881 0.146,1.728 0.435,2.514c0.292,0.798 0.738,1.505 1.322,2.109c0.588,0.607 1.322,1.086 2.185,1.432c0.859,0.341 1.863,0.516 2.992,0.516c1.37,0 2.685,-0.277 3.909,-0.832c1.208,-0.55 2.409,-1.379 3.567,-2.465c1.148,-1.079 2.309,-2.454 3.45,-4.091c1.137,-1.63 2.339,-3.544 3.572,-5.706l1.516,-2.678l-1.351,-0.953l-1.556,2.75Z" style="fill:#1d1d1b;fill-rule:nonzero;"/><path d="M138.265,43.356c-1.02,-0 -1.742,-0.319 -2.208,-0.976c-0.487,-0.692 -0.736,-1.672 -0.736,-2.922c-0,-1.147 0.199,-2.605 0.594,-4.334c0.399,-1.747 1.002,-3.669 1.794,-5.705c0.966,-2.454 2.042,-4.619 3.195,-6.431c1.157,-1.812 2.346,-3.332 3.536,-4.509c1.179,-1.174 2.353,-2.059 3.487,-2.629c1.113,-0.562 2.13,-0.843 3.022,-0.843c0.436,-0 0.864,0.068 1.275,0.209c0.395,0.133 0.739,0.357 1.048,0.684c0.313,0.326 0.569,0.763 0.762,1.299c0.198,0.543 0.299,1.234 0.299,2.062c-0,0.927 -0.133,1.995 -0.39,3.172c-0.262,1.185 -0.637,2.45 -1.116,3.753c-0.484,1.315 -1.063,2.667 -1.721,4.015c-0.664,1.364 -1.397,2.697 -2.181,3.97c-0.784,1.272 -1.627,2.488 -2.509,3.616c-0.875,1.117 -1.788,2.104 -2.718,2.929c-0.919,0.82 -1.855,1.477 -2.782,1.952c-0.901,0.456 -1.792,0.688 -2.651,0.688m31.348,-11.886c-1.12,2.021 -2.222,3.806 -3.271,5.303c-1.041,1.489 -2.092,2.739 -3.125,3.722c-1.021,0.969 -2.061,1.698 -3.095,2.166c-1.02,0.459 -2.088,0.695 -3.177,0.695c-1.196,-0 -2.079,-0.308 -2.622,-0.919c-0.557,-0.627 -0.84,-1.49 -0.84,-2.565c0,-0.509 0.055,-1.067 0.163,-1.671c0.107,-0.6 0.251,-1.242 0.428,-1.907c0.182,-0.668 0.391,-1.352 0.624,-2.032c0.238,-0.703 0.478,-1.383 0.717,-2.051l11.671,-32.102l-4.658,-0l-6.452,17.77c-0.038,-0.247 -0.082,-0.49 -0.134,-0.726c-0.184,-0.813 -0.497,-1.519 -0.931,-2.104c-0.444,-0.593 -1.027,-1.056 -1.736,-1.383c-1.364,-0.63 -3.469,-0.642 -5.732,-0.065c-1.092,0.282 -2.219,0.711 -3.35,1.277c-1.129,0.57 -2.267,1.299 -3.383,2.165c-1.12,0.87 -2.205,1.918 -3.226,3.119c-1.015,1.2 -1.97,2.583 -2.834,4.114c-0.865,1.534 -1.619,3.255 -2.243,5.124c-0.451,1.352 -0.8,2.716 -1.043,4.06c-0.244,1.345 -0.367,2.644 -0.367,3.864c-0,1.139 0.116,2.207 0.346,3.168c0.233,0.976 0.609,1.846 1.115,2.579c0.517,0.748 1.184,1.333 1.983,1.747c0.798,0.414 1.774,0.623 2.898,0.623c2.35,0 4.688,-0.98 6.949,-2.913c1.809,-1.55 3.653,-3.753 5.496,-6.568c-0.01,0.053 -0.018,0.106 -0.026,0.156c-0.123,0.79 -0.185,1.546 -0.185,2.237c-0,1.048 0.145,2.021 0.433,2.879c0.29,0.874 0.731,1.634 1.307,2.257c0.578,0.623 1.303,1.113 2.153,1.447c0.84,0.334 1.82,0.505 2.912,0.505c1.386,0 2.713,-0.269 3.942,-0.805c1.219,-0.532 2.426,-1.345 3.587,-2.427c1.143,-1.068 2.308,-2.439 3.463,-4.076c1.14,-1.622 2.355,-3.571 3.61,-5.786l1.516,-2.681l-1.355,-0.95l-1.528,2.754Z" style="fill:#1d1d1b;fill-rule:nonzero;"/><path d="M186.096,26.745c0.612,-1.562 1.326,-3.028 2.128,-4.369c0.888,-1.493 1.857,-2.811 2.879,-3.909c1.014,-1.09 2.078,-1.952 3.16,-2.564c1.056,-0.596 2.105,-0.9 3.111,-0.9c0.342,0 0.661,0.042 0.954,0.118c0.266,0.068 0.501,0.186 0.699,0.349c0.19,0.156 0.342,0.357 0.452,0.612c0.114,0.254 0.171,0.589 0.171,0.991c-0,0.87 -0.167,1.721 -0.498,2.526c-0.338,0.821 -0.786,1.596 -1.333,2.299c-0.555,0.71 -1.197,1.352 -1.911,1.899c-0.714,0.551 -1.462,1.007 -2.226,1.356c-0.969,0.452 -2.119,0.828 -3.419,1.117c-1.162,0.262 -2.56,0.421 -4.167,0.475m19.909,4.721c-0.844,1.489 -1.846,2.963 -2.975,4.388c-1.124,1.42 -2.385,2.7 -3.749,3.81c-1.352,1.105 -2.845,2.005 -4.433,2.681c-1.569,0.673 -3.248,1.011 -4.987,1.011c-2.036,-0 -3.537,-0.49 -4.456,-1.455c-0.927,-0.976 -1.398,-2.617 -1.398,-4.885c0,-1.531 0.141,-3.05 0.418,-4.52c0.262,-1.379 0.619,-2.728 1.064,-4.012c1.956,-0.011 3.734,-0.155 5.287,-0.429c1.637,-0.285 3.157,-0.725 4.509,-1.299c1.109,-0.452 2.116,-1.003 3.001,-1.622c0.885,-0.623 1.656,-1.303 2.294,-2.032c0.646,-0.733 1.144,-1.523 1.486,-2.348c0.345,-0.835 0.52,-1.702 0.52,-2.571c-0,-1.577 -0.547,-2.823 -1.626,-3.708c-1.056,-0.858 -2.507,-1.299 -4.307,-1.299c-1.752,0 -3.514,0.422 -5.239,1.25c-1.713,0.82 -3.331,1.971 -4.816,3.419c-1.478,1.443 -2.804,3.179 -3.939,5.154c-1.136,1.975 -2.029,4.156 -2.652,6.477c-0.277,1.037 -0.486,2.066 -0.615,3.061c-0.129,0.999 -0.198,1.953 -0.198,2.83c0,3.305 0.889,5.839 2.644,7.529c1.751,1.691 4.258,2.545 7.457,2.545c1.941,0 3.802,-0.334 5.53,-0.991c1.725,-0.654 3.358,-1.577 4.863,-2.731c1.504,-1.155 2.909,-2.549 4.186,-4.145c1.265,-1.587 2.45,-3.342 3.521,-5.227l1.516,-2.681l-1.353,-0.95l-1.553,2.75Z" style="fill:#1d1d1b;fill-rule:nonzero;"/><path d="M234.202,13.176c-0.897,0 -1.824,0.232 -2.747,0.684c-0.911,0.448 -1.891,1.196 -2.913,2.226c-1.003,1.014 -2.109,2.362 -3.286,4.011c-0.558,0.786 -1.147,1.668 -1.763,2.632l3.305,-9.063l-4.657,0l-11.407,31.285l4.684,0l4.93,-13.629l1.288,-2.268c1.595,-2.818 3.046,-5.17 4.315,-6.989c1.261,-1.816 2.412,-3.259 3.419,-4.3c0.991,-1.026 1.884,-1.751 2.651,-2.15c1.432,-0.749 2.758,-0.714 3.335,-0.247c0.145,0.118 0.255,0.232 0.316,0.353c-0.521,-0.091 -1.102,-0.053 -1.565,0.209c-0.281,0.163 -0.528,0.372 -0.73,0.627c-0.201,0.247 -0.357,0.539 -0.467,0.87c-0.106,0.323 -0.159,0.645 -0.159,0.961c-0,0.402 0.076,0.767 0.231,1.079c0.156,0.303 0.354,0.562 0.597,0.778c0.25,0.217 0.531,0.376 0.851,0.479c0.733,0.239 1.527,0.186 2.153,-0.16c0.357,-0.201 0.665,-0.471 0.916,-0.809c0.243,-0.33 0.425,-0.725 0.551,-1.17c0.117,-0.433 0.178,-0.896 0.178,-1.382c0,-1.182 -0.361,-2.158 -1.075,-2.899c-0.718,-0.748 -1.709,-1.128 -2.951,-1.128" style="fill:#1d1d1b;fill-rule:nonzero;"/><path d="M373.925,17.157c-0.088,-0.741 -0.224,-1.398 -0.403,-1.953c-0.186,-0.581 -0.433,-1.052 -0.733,-1.401c-0.653,-0.752 -1.728,-0.786 -2.45,-0.137c-0.353,0.319 -0.528,0.695 -0.528,1.121c-0,0.315 0.103,0.638 0.308,0.953c0.148,0.224 0.326,0.566 0.52,1.011c0.194,0.433 0.372,1.033 0.528,1.781c0.156,0.752 0.236,1.778 0.236,3.047c-0,1.766 -0.19,3.494 -0.57,5.131c-0.376,1.645 -0.881,3.29 -1.508,4.882c-0.676,1.686 -1.482,3.27 -2.386,4.706c-0.911,1.44 -1.895,2.697 -2.932,3.742c-1.03,1.04 -2.108,1.865 -3.199,2.454c-1.067,0.573 -2.119,0.862 -3.13,0.862c-0.965,-0 -1.679,-0.285 -2.176,-0.874c-0.509,-0.6 -0.768,-1.478 -0.768,-2.61c0,-0.801 0.156,-1.827 0.46,-3.042c0.319,-1.239 0.813,-2.792 1.47,-4.619l6.705,-18.545l-4.657,0l-6.606,18.271c-0.57,1.558 -1.307,3.054 -2.2,4.452c-0.888,1.39 -1.868,2.617 -2.913,3.647c-1.045,1.025 -2.131,1.846 -3.24,2.442c-1.087,0.585 -2.131,0.878 -3.108,0.878c-0.964,-0 -1.679,-0.285 -2.176,-0.874c-0.509,-0.6 -0.767,-1.478 -0.767,-2.61c-0,-0.801 0.155,-1.827 0.463,-3.042c0.315,-1.239 0.809,-2.792 1.466,-4.619l6.731,-18.545l-4.657,0l-6.632,18.275c-0.418,1.181 -0.737,2.332 -0.953,3.415c-0.217,1.086 -0.331,2.097 -0.331,2.997c0,1.048 0.137,2.013 0.406,2.872c0.27,0.87 0.677,1.629 1.208,2.249c0.536,0.626 1.193,1.116 1.957,1.458c1.595,0.711 3.756,0.676 5.785,-0.11c1.048,-0.406 2.085,-0.988 3.077,-1.725c0.991,-0.733 1.956,-1.633 2.868,-2.666c0.596,-0.676 1.177,-1.417 1.732,-2.215l-0,0.137c-0,1.045 0.133,2.013 0.403,2.872c0.273,0.87 0.679,1.629 1.211,2.249c0.532,0.626 1.193,1.116 1.957,1.458c0.759,0.338 1.633,0.509 2.59,0.509c1.36,0 2.728,-0.334 4.065,-0.995c1.314,-0.65 2.598,-1.561 3.813,-2.716c1.208,-1.147 2.352,-2.534 3.404,-4.121c1.045,-1.581 1.987,-3.339 2.8,-5.22c0.383,-0.892 0.759,-1.846 1.112,-2.841c0.365,-1.003 0.688,-2.066 0.965,-3.164c0.278,-1.083 0.498,-2.219 0.665,-3.373c0.163,-1.155 0.247,-2.337 0.247,-3.518c-0,-0.82 -0.042,-1.607 -0.129,-2.336" style="fill:#1d1d1b;fill-rule:nonzero;"/><path d="M287.192,0.983l0.345,-0.923l4.654,-0l-0.19,0.535l-11.479,31.57c-0.24,0.665 -0.479,1.349 -0.718,2.04c-0.236,0.688 -0.445,1.371 -0.623,2.028c-0.171,0.654 -0.316,1.303 -0.43,1.923c-0.106,0.604 -0.159,1.166 -0.159,1.667c-0,1.079 0.281,1.941 0.839,2.568c0.544,0.608 1.425,0.919 2.621,0.919c1.087,0 2.15,-0.239 3.165,-0.71c1.025,-0.475 2.066,-1.208 3.084,-2.177c1.026,-0.976 2.074,-2.229 3.122,-3.722c1.06,-1.512 2.169,-3.286 3.301,-5.28l1.558,-2.758l1.314,0.961l-1.481,2.674c-1.258,2.218 -2.473,4.163 -3.613,5.789c-1.155,1.637 -2.324,3.009 -3.479,4.076c-1.166,1.079 -2.374,1.896 -3.594,2.427c-1.23,0.536 -2.556,0.806 -3.943,0.806c-1.094,-0 -2.07,-0.171 -2.913,-0.506c-0.847,-0.338 -1.573,-0.824 -2.154,-1.451c-0.577,-0.623 -1.018,-1.382 -1.307,-2.256c-0.285,-0.851 -0.433,-1.823 -0.433,-2.876c0,-0.919 0.11,-1.933 0.331,-3.012c0.216,-1.075 0.535,-2.218 0.953,-3.4l10.594,-29.081l0.635,-1.831Z" style="fill:#1d1d1b;fill-rule:nonzero;"/><path d="M272.275,0.284c2.393,0.653 3.745,1.888 4.653,3.096c1.166,1.561 2.04,6.472 -2.283,6.066c-2.37,-0.22 -3.005,-3.662 -0.725,-4.889c0.053,-0.817 -0.867,-1.979 -1.786,-2.313c-2.226,-0.817 -4.778,-0.327 -6.537,0.277c-0.98,0.338 -1.888,0.923 -2.697,1.744c-0.832,0.835 -1.626,1.956 -2.367,3.331c-0.752,1.394 -1.527,3.157 -2.305,5.238l-0.281,0.722l7.563,-0l-0,1.827l-8.224,0l-15.647,43.015l-4.653,0l0.194,-0.532l15.449,-42.483l-6.956,0l0,-1.827l7.635,-0l0.289,-0.771c0.79,-2.203 1.694,-4.133 2.682,-5.732c0.999,-1.607 2.127,-2.948 3.362,-3.993c1.246,-1.048 2.636,-1.83 4.136,-2.324c2.469,-0.813 5.558,-0.935 8.498,-0.452" style="fill:#1d1d1b;fill-rule:nonzero;"/></g></svg>