<?xml version="1.0" encoding="UTF-8" standalone="no"?>
<!DOCTYPE svg PUBLIC "-//W3C//DTD SVG 1.1//EN" "http://www.w3.org/Graphics/SVG/1.1/DTD/svg11.dtd">
<svg width="100%" height="100%" viewBox="0 0 160 278" version="1.1" xmlns="http://www.w3.org/2000/svg" xmlns:xlink="http://www.w3.org/1999/xlink" xml:space="preserve" xmlns:serif="http://www.serif.com/" style="fill-rule:evenodd;clip-rule:evenodd;stroke-linejoin:round;stroke-miterlimit:2;">
    <g transform="matrix(1.00251,0,0,2,-76.3402,-95)">
        <rect x="-3.651" y="0" width="323.651" height="320" style="fill:rgb(207,199,112);"/>
    </g>
    <g transform="matrix(0.572984,0,0,0.572984,-90.9289,-93.2295)">
        <circle cx="158.356" cy="163.171" r="137.537" style="fill:rgb(232,224,147);"/>
    </g>
    <g transform="matrix(0.572984,0,0,0.572984,-90.9289,184.192)">
        <circle cx="158.356" cy="163.171" r="137.537" style="fill:rgb(232,224,147);"/>
    </g>
    <g transform="matrix(0.572984,0,0,0.572984,-169.161,44.3496)">
        <circle cx="158.356" cy="163.171" r="137.537" style="fill:rgb(232,224,147);"/>
    </g>
    <g transform="matrix(0.572984,0,0,0.572984,-10.5041,44.3496)">
        <circle cx="158.356" cy="163.171" r="137.537" style="fill:rgb(232,224,147);"/>
    </g>
    <g transform="matrix(0.572984,0,0,0.572984,69.3021,-93.2295)">
        <circle cx="158.356" cy="163.171" r="137.537" style="fill:rgb(232,224,147);"/>
    </g>
    <g transform="matrix(0.572984,0,0,0.572984,69.3021,184.192)">
        <circle cx="158.356" cy="163.171" r="137.537" style="fill:rgb(232,224,147);"/>
    </g>
    <g transform="matrix(0.572984,0,0,0.572984,148.543,44.3496)">
        <circle cx="158.356" cy="163.171" r="137.537" style="fill:rgb(232,224,147);"/>
    </g>
</svg>
