<?xml version="1.0" encoding="UTF-8" standalone="no"?>
<!DOCTYPE svg PUBLIC "-//W3C//DTD SVG 1.1//EN" "http://www.w3.org/Graphics/SVG/1.1/DTD/svg11.dtd">
<svg width="100%" height="100%" viewBox="0 0 900 600" version="1.1" xmlns="http://www.w3.org/2000/svg" xmlns:xlink="http://www.w3.org/1999/xlink" xml:space="preserve" xmlns:serif="http://www.serif.com/" style="fill-rule:evenodd;clip-rule:evenodd;stroke-linejoin:round;stroke-miterlimit:2;">
    <path d="M570.986,102.064C597.985,44.701 656.298,5 723.885,5C817.159,5 892.772,80.614 892.772,173.888C892.772,209.64 881.663,242.797 862.713,270.09C873.911,288.783 880.349,310.658 880.349,334.036C880.349,402.858 824.558,458.649 755.737,458.649L755.354,458.647C756.903,466.08 757.717,473.782 757.717,481.675C757.717,543.722 707.418,594.021 645.371,594.021C598.872,594.021 558.972,565.773 541.897,525.507C491.342,567.268 426.512,592.356 355.823,592.356C298.083,592.356 244.253,575.618 198.918,546.728C179.84,574.295 147.989,592.356 111.92,592.356C53.528,592.356 6.191,545.02 6.191,486.628C6.191,440.62 35.577,401.476 76.61,386.939C68.068,359.474 63.466,330.274 63.466,299.999C63.466,270.58 67.811,242.177 75.896,215.392C35.122,199.682 6.191,160.128 6.191,113.817C6.191,53.719 54.91,5 115.008,5C151.457,5 183.721,22.921 203.467,50.43C247.84,23.285 300.005,7.642 355.823,7.642C440.931,7.642 517.545,44.009 570.986,102.064Z" style="fill:white;fill-opacity:0.83;fill-rule:nonzero;stroke:white;stroke-width:3px;"/>
</svg>
