<?xml version="1.0" encoding="UTF-8" standalone="no"?>
<!DOCTYPE svg PUBLIC "-//W3C//DTD SVG 1.1//EN" "http://www.w3.org/Graphics/SVG/1.1/DTD/svg11.dtd">
<svg width="100%" height="100%" fill="#FEF590" viewBox="0 0 4267 1542" version="1.1" xmlns="http://www.w3.org/2000/svg" xmlns:xlink="http://www.w3.org/1999/xlink" xml:space="preserve" xmlns:serif="http://www.serif.com/" style="fill-rule:evenodd;clip-rule:evenodd;stroke-linejoin:round;stroke-miterlimit:2;">
    <g transform="matrix(4.16667,0,0,4.16667,0,0)">
        <g transform="matrix(1.32471,4.01024e-33,-2.20397e-33,0.728041,-155.34,-40.3531)">
            <path d="M118.019,291.193L168.196,291.193L168.196,265.297L152.322,265.297L152.322,196.573L167.649,196.573C175.494,196.573 177.866,199.561 181.151,209.521L201.039,273.597C205.418,287.541 207.973,291.193 218.921,291.193L229.868,291.193L229.868,265.297L226.037,265.297C221.475,265.297 219.103,263.969 217.096,257.661L198.85,199.893C196.66,192.257 193.376,188.937 193.376,188.937L193.376,188.273C209.798,180.637 220.015,156.401 220.015,122.537C220.015,90.665 211.075,70.081 197.572,61.781C190.456,57.465 182.975,56.801 173.852,56.801L118.019,56.801L118.019,82.365L134.075,82.365L134.075,265.297L118.019,265.297L118.019,291.193ZM152.322,169.349L152.322,84.025L173.67,84.025C179.874,84.025 185.347,85.353 189.544,88.341C197.572,94.317 201.587,106.933 201.587,125.193C201.587,152.749 192.281,169.349 178.231,169.349L152.322,169.349Z" style="fill-rule:nonzero;"/>
            <path d="M241.911,207.197C241.911,256.997 261.8,295.177 290.811,295.177C312.889,295.177 326.756,271.937 326.756,271.937L319.458,248.365C319.458,248.365 307.963,267.289 291.906,267.289C275.484,267.289 261.07,247.369 259.975,210.185L327.486,210.185C327.486,210.185 328.034,202.217 328.034,197.901C328.034,154.409 314.349,119.217 288.074,119.217C261.8,119.217 241.911,153.745 241.911,207.197ZM260.705,189.601C263.259,161.381 274.207,144.781 287.709,144.781C299.387,144.781 309.24,160.053 309.787,189.601L260.705,189.601Z" style="fill-rule:nonzero;"/>
            <path d="M342.996,255.005C342.996,281.565 362.337,295.177 379.123,295.177C400.107,295.177 416.163,277.581 416.163,245.709C416.163,214.501 399.924,203.545 385.692,194.913C374.562,187.941 364.344,181.301 364.344,165.365C364.344,151.753 372.007,145.113 380.765,145.113C389.706,145.113 397.005,152.085 397.005,162.377L397.005,173.333L412.514,173.333L412.514,153.081C412.514,128.513 393.538,119.217 380.583,119.217C364.526,119.217 346.462,132.497 346.462,165.697C346.462,196.241 361.607,207.529 375.292,216.825C388.064,225.125 398.282,230.437 398.282,247.369C398.282,261.313 390.071,268.949 379.671,268.949C369.453,268.949 358.505,262.309 358.505,248.033L358.505,237.077L342.996,237.077L342.996,255.005Z" style="fill-rule:nonzero;"/>
            <path d="M429.666,332.693L429.666,357.593L476.376,357.593L476.376,332.693L461.779,332.693L461.779,281.233C461.779,272.601 461.232,266.625 461.232,266.625L461.597,266.625C461.597,266.625 469.99,295.177 490.243,295.177C514.328,295.177 532.027,260.649 532.027,207.197C532.027,155.073 516.336,119.217 491.521,119.217C468.165,119.217 460.502,150.757 460.502,150.757L460.137,150.757C460.137,150.757 460.502,146.441 460.502,141.129L460.502,139.801C460.502,129.841 457.4,123.201 449.189,123.201L428.753,123.201L428.753,148.101L440.066,148.101C442.62,148.101 444.08,150.425 444.08,155.405L444.08,332.693L429.666,332.693ZM461.414,207.861C461.414,165.033 474.187,147.437 487.871,147.437C503.381,147.437 514.146,171.009 514.146,207.529C514.146,245.709 502.103,267.289 487.506,267.289C470.355,267.289 461.414,237.741 461.414,207.861Z" style="fill-rule:nonzero;"/>
            <path d="M562.499,89.669L581.11,89.669L581.11,56.801L562.499,56.801L562.499,89.669ZM548.449,291.193L595.16,291.193L595.16,266.293L580.563,266.293L580.563,123.201L547.537,123.201L547.537,148.101L562.864,148.101L562.864,266.293L548.449,266.293L548.449,291.193Z" style="fill-rule:nonzero;"/>
            <path d="M610.122,291.193L655.372,291.193L655.372,266.293L641.688,266.293L641.688,221.805C641.688,188.937 650.081,152.749 669.787,152.749C672.706,152.749 674.896,153.745 674.896,153.745L674.896,121.873C674.896,121.873 672.706,121.209 670.334,121.209C656.102,121.209 645.337,140.465 641.14,165.033L640.775,165.033C640.775,165.033 641.14,160.053 641.14,153.413L641.14,142.789C641.14,129.177 637.309,123.201 629.28,123.201L608.479,123.201L608.479,148.101L619.975,148.101C622.529,148.101 623.989,150.425 623.989,155.405L623.989,266.293L610.122,266.293L610.122,291.193Z" style="fill-rule:nonzero;"/>
            <path d="M685.661,207.197C685.661,256.997 705.55,295.177 734.561,295.177C756.639,295.177 770.507,271.937 770.507,271.937L763.208,248.365C763.208,248.365 751.713,267.289 735.656,267.289C719.234,267.289 704.82,247.369 703.725,210.185L771.236,210.185C771.236,210.185 771.784,202.217 771.784,197.901C771.784,154.409 758.099,119.217 731.824,119.217C705.55,119.217 685.661,153.745 685.661,207.197ZM704.455,189.601C707.009,161.381 717.957,144.781 731.459,144.781C743.137,144.781 752.99,160.053 753.538,189.601L704.455,189.601Z" style="fill-rule:nonzero;"/>
            <path d="M788.57,291.193L833.821,291.193L833.821,266.293L820.137,266.293L820.137,221.805C820.137,188.937 828.53,152.749 848.236,152.749C851.155,152.749 853.345,153.745 853.345,153.745L853.345,121.873C853.345,121.873 851.155,121.209 848.783,121.209C834.551,121.209 823.786,140.465 819.589,165.033L819.224,165.033C819.224,165.033 819.589,160.053 819.589,153.413L819.589,142.789C819.589,129.177 815.757,123.201 807.729,123.201L786.928,123.201L786.928,148.101L798.423,148.101C800.978,148.101 802.438,150.425 802.438,155.405L802.438,266.293L788.57,266.293L788.57,291.193Z" style="fill-rule:nonzero;"/>
            <rect x="870.496" y="256.333" width="18.976" height="34.86" style="fill-rule:nonzero;"/>
        </g>
        <g transform="matrix(0.803699,2.43301e-33,-1.45084e-33,0.479257,-94.3983,181.138)">
            <path d="M160.486,41.05L174.288,41.05L195.948,2.797L179.272,2.797L160.486,41.05ZM118.699,282.78L217.417,282.78L217.417,234.241L205.341,234.241L205.341,263.493L149.752,263.493L149.752,178.63L200.74,178.63L200.74,159.343L149.752,159.343L149.752,76.088L201.699,76.088L201.699,103.732L213.967,103.732L213.967,56.801L118.699,56.801L118.699,75.445L136.334,75.445L136.334,264.136L118.699,264.136L118.699,282.78Z" style="fill-rule:nonzero;"/>
            <path d="M237.16,202.417C237.16,253.849 260.354,286.637 287.957,286.637C310.192,286.637 323.61,264.779 325.527,261.564L319.968,244.849C318.627,247.099 306.934,267.029 288.34,267.029C267.638,267.029 250.578,241.956 250.578,201.774C250.578,162.558 266.872,136.842 287.765,136.842C296.583,136.842 311.151,143.592 311.151,158.057L311.151,169.951L323.227,169.951L323.227,152.271C323.227,125.591 299.841,117.233 287.574,117.233C259.779,117.233 237.16,152.271 237.16,202.417Z" style="fill-rule:nonzero;"/>
            <path d="M342.396,201.132C342.396,249.992 365.206,286.637 393.192,286.637C421.37,286.637 444.18,249.992 444.18,201.132C444.18,153.557 421.37,117.233 393.192,117.233C365.206,117.233 342.396,153.557 342.396,201.132ZM355.814,201.132C355.814,164.165 372.682,136.842 393.192,136.842C413.894,136.842 430.762,164.165 430.762,201.132C430.762,238.741 413.894,267.029 393.192,267.029C372.682,267.029 355.814,238.741 355.814,201.132Z" style="fill-rule:nonzero;"/>
            <path d="M473.317,223.954C473.317,266.386 482.517,286.637 504.945,286.637C528.905,286.637 540.598,257.064 543.09,245.17L543.473,245.17L543.473,248.385C543.473,250.635 543.282,253.206 543.282,256.742L543.282,264.779C543.282,277.315 546.54,282.78 554.783,282.78L571.076,282.78L571.076,265.1L560.15,265.1C557.275,265.1 555.933,262.85 555.933,258.028L555.933,121.091L525.647,121.091L525.647,139.092L542.898,139.092L542.898,197.917C542.898,232.955 529.097,266.386 507.436,266.386C488.651,266.386 486.351,244.206 486.351,218.49L486.351,121.091L456.065,121.091L456.065,139.092L473.317,139.092L473.317,223.954Z" style="fill-rule:nonzero;"/>
            <path d="M597.337,223.954C597.337,277.958 619.956,284.066 631.073,284.066C633.182,284.066 634.524,284.066 635.099,283.744C635.674,283.423 636.057,283.423 636.632,283.423L636.632,264.457C636.441,264.457 636.057,264.457 635.482,264.779C634.907,265.1 633.949,265.1 632.223,265.1C624.748,265.1 610.371,259.635 610.371,222.026L610.371,139.092L634.715,139.092L634.715,121.091L610.371,121.091L610.371,76.409L597.528,76.409L597.528,121.091L580.085,121.091L580.085,139.092L597.337,139.092L597.337,223.954Z" style="fill-rule:nonzero;"/>
            <path d="M650.625,202.096C650.625,251.921 672.477,286.637 701.038,286.637C711.964,286.637 720.974,281.494 727.108,275.386C730.75,271.85 733.817,268.315 736.692,264.136L730.75,247.742C728.449,251.278 725.766,254.492 722.699,257.385C717.523,262.207 710.431,267.029 701.422,267.029C681.487,267.029 664.618,243.563 664.043,202.096L738.034,202.096L738.417,198.238C738.609,195.988 738.609,194.06 738.609,191.809C738.609,151.628 724.807,117.233 698.163,117.233C672.094,117.233 650.625,149.057 650.625,202.096ZM664.618,186.023C667.685,153.235 681.678,135.556 697.78,135.556C711.964,135.556 724.424,151.628 724.999,186.023L664.618,186.023Z" style="fill-rule:nonzero;"/>
            <path d="M757.202,282.78L800.14,282.78L800.14,264.779L785.188,264.779L785.188,214.311C785.188,182.166 794.006,141.342 815.666,141.342C817.391,141.342 818.541,141.342 819.116,141.663C819.692,141.985 820.075,141.985 820.65,141.985L820.65,120.448L818.925,119.805C817.966,119.483 816.625,119.483 815.283,119.483C800.14,119.483 789.597,138.127 784.805,162.558L784.421,162.558C784.421,161.593 784.421,160.307 784.613,159.022C784.805,156.771 784.805,153.878 784.805,150.342L784.805,139.413C784.805,126.555 781.355,121.091 773.112,121.091L754.902,121.091L754.902,139.092L767.937,139.092C770.812,139.092 772.154,141.342 772.154,146.164L772.154,264.779L757.202,264.779L757.202,282.78Z" style="fill-rule:nonzero;"/>
            <rect x="839.435" y="256.099" width="15.526" height="26.68" style="fill-rule:nonzero;"/>
        </g>
        <g transform="matrix(1.28826,3.89991e-33,-2.63973e-34,0.0871984,-138.848,337.82)">
            <path d="M109.561,292.507L115.269,292.507L115.269,273.252L113.202,273.252L113.202,78.379L115.269,78.379L115.269,59.124L109.561,59.124L109.561,78.379L111.629,78.379L111.629,273.252L109.561,273.252L109.561,292.507Z" style="fill-rule:nonzero;"/>
            <path d="M118.482,250.677C118.482,282.547 119.538,293.503 121.044,293.503C121.291,293.503 121.493,293.503 121.651,293.171L121.92,292.507L121.92,273.252C121.875,273.252 121.83,273.252 121.763,273.584C121.696,273.916 121.538,273.916 121.291,273.916C120.28,273.916 120.01,262.628 120.01,249.017L120.01,59.124L116.482,59.124L116.482,77.715L118.482,77.715L118.482,250.677Z" style="fill-rule:nonzero;"/>
            <path d="M129.246,209.18C129.246,260.637 131.807,296.49 135.156,296.49C136.436,296.49 137.493,291.179 138.212,284.871C138.639,281.219 138.998,277.568 139.335,273.252L138.639,256.321C138.369,259.973 138.054,263.292 137.695,266.28C137.088,271.26 136.257,276.24 135.201,276.24C132.864,276.24 130.886,252.005 130.819,209.18L139.492,209.18L139.537,205.196C139.56,202.872 139.56,200.88 139.56,198.556C139.56,157.059 137.942,121.537 134.819,121.537C131.763,121.537 129.246,154.403 129.246,209.18ZM130.886,192.581C131.246,158.719 132.886,140.46 134.774,140.46C136.436,140.46 137.897,157.059 137.964,192.581L130.886,192.581Z" style="fill-rule:nonzero;"/>
            <path d="M141.605,256.985C141.605,282.215 143.784,296.49 145.874,296.49C148.391,296.49 150.144,278.232 150.144,249.349C150.144,219.471 148.211,208.184 146.458,199.22C144.953,191.253 143.605,183.617 143.605,165.358C143.605,149.091 144.728,141.124 145.987,141.124C147.177,141.124 148.301,148.759 148.301,161.042L148.301,173.326L149.694,173.326L149.694,154.071C149.694,131.164 147.47,121.537 145.942,121.537C144.054,121.537 142.032,135.48 142.032,166.022C142.032,195.568 143.852,205.86 145.537,215.819C147.155,224.783 148.593,231.422 148.593,250.677C148.593,267.94 147.38,276.904 145.942,276.904C144.638,276.904 142.998,269.932 142.998,252.669L142.998,240.718L141.605,240.718L141.605,256.985Z" style="fill-rule:nonzero;"/>
            <path d="M153.582,231.754C153.582,287.527 156.233,293.835 157.536,293.835C157.784,293.835 157.941,293.835 158.008,293.503C158.076,293.171 158.121,293.171 158.188,293.171L158.188,273.584C158.166,273.584 158.121,273.584 158.053,273.916C157.986,274.248 157.874,274.248 157.671,274.248C156.795,274.248 155.11,268.604 155.11,229.762L155.11,144.111L157.963,144.111L157.963,125.521L155.11,125.521L155.11,79.375L153.604,79.375L153.604,125.521L151.559,125.521L151.559,144.111L153.582,144.111L153.582,231.754Z" style="fill-rule:nonzero;"/>
            <path d="M166.817,231.754C166.817,287.527 169.468,293.835 170.772,293.835C171.019,293.835 171.176,293.835 171.244,293.503C171.311,293.171 171.356,293.171 171.423,293.171L171.423,273.584C171.401,273.584 171.356,273.584 171.289,273.916C171.221,274.248 171.109,274.248 170.907,274.248C170.03,274.248 168.345,268.604 168.345,229.762L168.345,144.111L171.199,144.111L171.199,125.521L168.345,125.521L168.345,79.375L166.839,79.375L166.839,125.521L164.794,125.521L164.794,144.111L166.817,144.111L166.817,231.754Z" style="fill-rule:nonzero;"/>
            <path d="M173.064,209.18C173.064,260.637 175.625,296.49 178.974,296.49C180.254,296.49 181.31,291.179 182.03,284.871C182.456,281.219 182.816,277.568 183.153,273.252L182.456,256.321C182.187,259.973 181.872,263.292 181.513,266.28C180.906,271.26 180.075,276.24 179.018,276.24C176.682,276.24 174.704,252.005 174.637,209.18L183.31,209.18L183.355,205.196C183.378,202.872 183.378,200.88 183.378,198.556C183.378,157.059 181.76,121.537 178.636,121.537C175.58,121.537 173.064,154.403 173.064,209.18ZM174.704,192.581C175.064,158.719 176.704,140.46 178.592,140.46C180.254,140.46 181.715,157.059 181.782,192.581L174.704,192.581Z" style="fill-rule:nonzero;"/>
            <path d="M185.445,292.507L190.793,292.507L190.793,273.916L188.883,273.916L188.883,213.163C188.883,178.305 190.434,142.12 192.748,142.12C194.905,142.12 195.13,166.354 195.13,191.917L195.13,292.507L198.568,292.507L198.568,273.916L196.658,273.916L196.658,212.499C196.658,177.973 198.164,142.12 200.456,142.12C202.5,142.12 202.882,164.694 202.882,191.917L202.882,292.507L206.32,292.507L206.32,273.916L204.41,273.916L204.41,186.273C204.41,144.775 203.399,121.537 200.68,121.537C198.748,121.537 197.152,142.12 196.501,164.03L196.456,164.03C196.119,135.812 195.085,121.537 193.018,121.537C191.198,121.537 189.4,143.115 188.816,165.69L188.771,165.69L188.816,162.038C188.838,159.715 188.861,157.391 188.861,153.739L188.861,144.111C188.861,131.828 188.411,125.521 187.49,125.521L185.333,125.521L185.333,144.111L186.861,144.111C187.198,144.111 187.355,146.435 187.355,151.415L187.355,273.916L185.445,273.916L185.445,292.507Z" style="fill-rule:nonzero;"/>
            <path d="M207.489,340.312L207.489,358.903L212.837,358.903L212.837,340.312L210.927,340.312L210.927,277.9C210.927,273.584 210.927,269.932 210.904,267.276L210.859,263.292L210.904,263.292C211.129,269.6 211.421,274.912 211.758,279.891C212.365,288.191 213.286,296.49 214.635,296.49C217.578,296.49 219.713,262.296 219.713,209.18C219.713,157.391 217.848,121.537 214.792,121.537C213.264,121.537 212.275,129.836 211.668,138.8C211.309,143.779 211.039,149.755 210.837,156.063L210.792,156.063L210.837,152.743C210.859,150.419 210.859,148.095 210.859,144.443L210.859,143.115C210.859,131.496 210.477,125.521 209.511,125.521L207.377,125.521L207.377,144.111L208.905,144.111C209.242,144.111 209.399,146.435 209.399,151.415L209.399,340.312L207.489,340.312ZM210.904,209.512C210.904,162.038 212.657,142.12 214.545,142.12C216.634,142.12 218.14,168.346 218.14,209.18C218.14,251.673 216.477,276.24 214.477,276.24C212.163,276.24 210.904,243.042 210.904,209.512Z" style="fill-rule:nonzero;"/>
            <path d="M221.803,256.985C221.803,282.215 223.982,296.49 226.072,296.49C228.589,296.49 230.342,278.232 230.342,249.349C230.342,219.471 228.409,208.184 226.656,199.22C225.151,191.253 223.803,183.617 223.803,165.358C223.803,149.091 224.926,141.124 226.185,141.124C227.375,141.124 228.499,148.759 228.499,161.042L228.499,173.326L229.892,173.326L229.892,154.071C229.892,131.164 227.668,121.537 226.14,121.537C224.252,121.537 222.23,135.48 222.23,166.022C222.23,195.568 224.05,205.86 225.735,215.819C227.353,224.783 228.791,231.422 228.791,250.677C228.791,267.94 227.578,276.904 226.14,276.904C224.836,276.904 223.196,269.932 223.196,252.669L223.196,240.718L221.803,240.718L221.803,256.985Z" style="fill-rule:nonzero;"/>
            <path d="M238.049,209.18C238.049,260.637 239.914,296.49 242.948,296.49C244.476,296.49 245.442,287.527 246.071,278.564C246.453,273.252 246.723,267.276 246.925,260.969L246.97,260.969L246.925,263.624C246.903,265.948 246.88,268.272 246.88,271.26L246.88,274.248C246.88,286.199 247.262,292.507 248.228,292.507L250.093,292.507L250.093,273.916L248.835,273.916C248.498,273.916 248.341,271.592 248.341,266.612L248.341,59.124L244.79,59.124L244.79,77.715L246.813,77.715L246.813,141.124C246.813,144.775 246.835,148.095 246.858,150.419C246.88,151.747 246.88,153.075 246.88,154.071L246.835,154.071C246.633,148.095 246.341,142.784 246.004,137.804C245.397,129.504 244.498,121.537 243.15,121.537C240.139,121.537 238.049,155.731 238.049,209.18ZM239.622,209.18C239.622,166.686 241.262,142.12 243.285,142.12C245.689,142.12 246.858,174.986 246.858,209.18C246.858,256.321 245.082,276.24 243.195,276.24C241.083,276.24 239.622,250.013 239.622,209.18Z" style="fill-rule:nonzero;"/>
            <path d="M251.824,209.18C251.824,260.637 254.385,296.49 257.733,296.49C259.014,296.49 260.07,291.179 260.789,284.871C261.216,281.219 261.576,277.568 261.913,273.252L261.216,256.321C260.947,259.973 260.632,263.292 260.273,266.28C259.666,271.26 258.834,276.24 257.778,276.24C255.441,276.24 253.464,252.005 253.397,209.18L262.07,209.18L262.115,205.196C262.138,202.872 262.138,200.88 262.138,198.556C262.138,157.059 260.52,121.537 257.396,121.537C254.34,121.537 251.824,154.403 251.824,209.18ZM253.464,192.581C253.823,158.719 255.464,140.46 257.351,140.46C259.014,140.46 260.475,157.059 260.542,192.581L253.464,192.581Z" style="fill-rule:nonzero;"/>
            <path d="M269.823,292.507L276.272,292.507L276.272,260.969L274.339,260.969L274.339,154.735L276.923,154.735L276.923,123.197L274.339,123.197L274.339,114.565C274.339,89.667 275.643,88.007 276.272,88.007C276.564,88.007 276.766,88.007 276.923,88.339L277.148,89.003L277.148,55.141L276.811,54.477C276.609,54.145 276.317,53.813 275.98,53.813C274.452,53.813 271.485,61.116 271.485,115.561L271.485,123.197L269.71,123.197L269.71,154.735L271.485,154.735L271.485,260.969L269.823,260.969L269.823,292.507Z" style="fill-rule:nonzero;"/>
            <path d="M278.204,245.034C278.204,279.559 280.024,296.49 282.002,296.49C283.35,296.49 284.204,288.523 284.811,280.223C285.148,275.244 285.417,269.932 285.62,263.956L285.665,263.956C285.665,264.62 285.665,265.284 285.642,266.28C285.62,267.94 285.597,269.932 285.597,272.588L285.597,274.58C285.597,284.207 286.002,292.507 287.058,292.507L289.754,292.507L289.754,260.969L288.721,260.969C288.383,260.969 288.226,258.645 288.226,253.665L288.226,185.941C288.226,142.452 286.586,119.213 283.507,119.213C282.137,119.213 280.991,124.193 280.204,129.504C279.732,132.492 279.328,136.144 278.968,140.128L280.024,169.342C280.316,166.354 280.654,163.366 281.013,161.042C281.62,157.059 282.384,153.075 283.26,153.075C284.451,153.075 285.372,160.71 285.372,182.289L285.372,187.933L284.653,187.933C282.811,187.933 278.204,193.245 278.204,245.034ZM281.08,241.714C281.08,216.151 283.777,213.495 284.923,213.495L285.395,213.495L285.395,219.139C285.395,240.386 284.294,264.952 282.743,264.952C281.687,264.952 281.08,254.661 281.08,241.714Z" style="fill-rule:nonzero;"/>
            <path d="M292.945,94.314L295.821,94.314L295.821,56.801L292.945,56.801L292.945,94.314ZM291.305,292.507L297.462,292.507L297.462,260.969L295.821,260.969L295.821,123.197L291.192,123.197L291.192,154.735L292.967,154.735L292.967,260.969L291.305,260.969L291.305,292.507Z" style="fill-rule:nonzero;"/>
            <path d="M299.169,292.507L305.326,292.507L305.326,260.969L303.686,260.969L303.686,224.119C303.686,192.249 304.72,162.37 307.034,162.37C307.236,162.37 307.371,162.37 307.529,162.702C307.596,163.034 307.663,163.034 307.731,163.034L307.731,121.537C307.686,121.537 307.641,121.537 307.573,121.205C307.484,120.873 307.371,120.873 307.214,120.873C305.439,120.873 304.113,140.128 303.574,164.362L303.529,164.362C303.529,163.366 303.529,162.37 303.551,161.374C303.574,159.051 303.574,156.727 303.574,153.739L303.574,143.779C303.574,130.168 303.057,123.197 302.046,123.197L299.057,123.197L299.057,154.735L300.338,154.735C300.675,154.735 300.832,157.059 300.832,162.038L300.832,260.969L299.169,260.969L299.169,292.507Z" style="fill-rule:nonzero;"/>
            <path d="M308.922,207.852C308.922,255.657 311.281,296.49 315.079,296.49C316.517,296.49 317.663,290.847 318.472,284.539C318.944,280.887 319.371,277.236 319.708,272.92L318.607,243.042C318.314,246.361 318,249.349 317.64,252.005C317.034,256.985 316.247,260.969 315.281,260.969C313.551,260.969 312.023,244.702 311.843,213.827L319.775,213.827L319.82,208.516C319.842,205.528 319.842,201.876 319.842,199.552C319.842,154.735 318.045,119.213 314.742,119.213C311.304,119.213 308.922,155.731 308.922,207.852ZM311.91,188.929C312.18,166.354 313.214,151.747 314.674,151.747C315.91,151.747 316.831,165.358 316.899,188.929L311.91,188.929Z" style="fill-rule:nonzero;"/>
            <path d="M328.561,232.086C328.561,278.232 330.044,296.49 332.314,296.49C335.168,296.49 336.358,264.952 336.493,259.309L336.538,259.309L336.538,261.633C336.538,262.96 336.516,264.952 336.516,267.276L336.516,273.584C336.516,285.535 336.988,292.507 337.999,292.507L340.83,292.507L340.83,261.301L339.729,261.301C339.392,261.301 339.235,258.977 339.235,253.997L339.235,123.197L334.628,123.197L334.628,154.735L336.381,154.735L336.381,198.556C336.381,229.098 335.19,258.977 333.213,258.977C331.774,258.977 331.415,245.034 331.415,224.783L331.415,123.197L326.786,123.197L326.786,154.735L328.561,154.735L328.561,232.086Z" style="fill-rule:nonzero;"/>
            <path d="M342.538,292.507L348.695,292.507L348.695,260.969L347.055,260.969L347.055,216.483C347.055,186.937 348.268,157.723 350.335,157.723C351.773,157.723 352.155,171.334 352.155,192.249L352.155,292.507L356.65,292.507L356.65,260.969L354.987,260.969L354.987,183.617C354.987,138.468 353.593,119.213 351.144,119.213C348.29,119.213 347.032,151.747 346.92,157.059L346.875,157.059C346.875,156.395 346.875,155.731 346.897,154.735C346.92,153.407 346.92,151.415 346.92,149.755L346.92,142.12C346.92,130.168 346.448,123.197 345.437,123.197L342.426,123.197L342.426,154.735L343.706,154.735C344.043,154.735 344.201,157.059 344.201,162.038L344.201,260.969L342.538,260.969L342.538,292.507Z" style="fill-rule:nonzero;"/>
            <path d="M357.953,207.852C357.953,255.657 360.312,296.49 364.11,296.49C365.548,296.49 366.694,290.847 367.503,284.539C367.975,280.887 368.402,277.236 368.739,272.92L367.638,243.042C367.346,246.361 367.031,249.349 366.671,252.005C366.065,256.985 365.278,260.969 364.312,260.969C362.582,260.969 361.054,244.702 360.874,213.827L368.806,213.827L368.851,208.516C368.874,205.528 368.874,201.876 368.874,199.552C368.874,154.735 367.076,119.213 363.773,119.213C360.335,119.213 357.953,155.731 357.953,207.852ZM360.941,188.929C361.211,166.354 362.245,151.747 363.705,151.747C364.941,151.747 365.863,165.358 365.93,188.929L360.941,188.929Z" style="fill-rule:nonzero;"/>
            <path d="M376.087,327.365L376.087,358.903L382.266,358.903L382.266,327.365L380.603,327.365L380.603,287.195C380.603,282.879 380.603,279.227 380.581,276.572L380.536,272.588L380.581,272.588C380.806,276.904 381.075,280.887 381.39,284.539C381.929,290.847 382.738,296.49 383.884,296.49C386.895,296.49 389.12,261.633 389.12,207.852C389.12,155.399 387.142,119.213 384.041,119.213C382.693,119.213 381.794,125.852 381.188,133.488C380.85,137.804 380.558,142.452 380.356,147.763L380.311,147.763C380.334,147.099 380.334,146.435 380.334,145.439L380.334,139.132C380.334,130.168 379.974,123.197 378.918,123.197L375.974,123.197L375.974,154.735L377.255,154.735C377.592,154.735 377.75,157.059 377.75,162.038L377.75,327.365L376.087,327.365ZM380.513,208.848C380.513,171.666 381.884,155.399 383.39,155.399C385.097,155.399 386.243,176.314 386.243,208.516C386.243,242.046 384.94,260.969 383.367,260.969C381.48,260.969 380.513,235.074 380.513,208.848Z" style="fill-rule:nonzero;"/>
            <path d="M390.558,245.034C390.558,279.559 392.378,296.49 394.355,296.49C395.704,296.49 396.558,288.523 397.164,280.223C397.501,275.244 397.771,269.932 397.973,263.956L398.018,263.956C398.018,264.62 398.018,265.284 397.996,266.28C397.973,267.94 397.951,269.932 397.951,272.588L397.951,274.58C397.951,284.207 398.355,292.507 399.411,292.507L402.108,292.507L402.108,260.969L401.074,260.969C400.737,260.969 400.58,258.645 400.58,253.665L400.58,185.941C400.58,142.452 398.939,119.213 395.861,119.213C394.49,119.213 393.344,124.193 392.558,129.504C392.086,132.492 391.681,136.144 391.322,140.128L392.378,169.342C392.67,166.354 393.007,163.366 393.367,161.042C393.973,157.059 394.737,153.075 395.614,153.075C396.805,153.075 397.726,160.71 397.726,182.289L397.726,187.933L397.007,187.933C395.164,187.933 390.558,193.245 390.558,245.034ZM393.434,241.714C393.434,216.151 396.131,213.495 397.277,213.495L397.748,213.495L397.748,219.139C397.748,240.386 396.647,264.952 395.097,264.952C394.041,264.952 393.434,254.661 393.434,241.714Z" style="fill-rule:nonzero;"/>
            <path d="M404.737,232.086C404.737,278.232 406.22,296.49 408.489,296.49C411.343,296.49 412.534,264.952 412.669,259.309L412.714,259.309L412.714,261.633C412.714,262.96 412.691,264.952 412.691,267.276L412.691,273.584C412.691,285.535 413.163,292.507 414.175,292.507L417.006,292.507L417.006,261.301L415.905,261.301C415.568,261.301 415.41,258.977 415.41,253.997L415.41,123.197L410.804,123.197L410.804,154.735L412.557,154.735L412.557,198.556C412.557,229.098 411.366,258.977 409.388,258.977C407.95,258.977 407.591,245.034 407.591,224.783L407.591,123.197L402.962,123.197L402.962,154.735L404.737,154.735L404.737,232.086Z" style="fill-rule:nonzero;"/>
            <path d="M418.466,255.657C418.466,283.211 421.051,296.49 423.118,296.49C425.747,296.49 427.949,279.559 427.949,245.034C427.949,211.835 425.882,200.88 424.129,192.913C422.848,187.601 421.725,181.625 421.725,167.682C421.725,157.059 422.489,152.411 423.388,152.411C424.399,152.411 425.073,157.391 425.073,166.354L425.073,175.982L427.522,175.982L427.522,154.403C427.522,128.84 425.05,119.213 423.388,119.213C421.32,119.213 418.871,131.828 418.871,167.682C418.871,200.216 420.826,211.171 422.489,220.135C424.017,228.102 425.095,232.418 425.095,246.361C425.095,257.981 424.286,263.624 423.14,263.624C421.949,263.624 420.893,257.649 420.893,246.029L420.893,236.07L418.466,236.07L418.466,255.657Z" style="fill-rule:nonzero;"/>
            <path d="M429.545,207.852C429.545,255.657 431.904,296.49 435.702,296.49C437.14,296.49 438.286,290.847 439.095,284.539C439.566,280.887 439.993,277.236 440.33,272.92L439.229,243.042C438.937,246.361 438.623,249.349 438.263,252.005C437.656,256.985 436.87,260.969 435.904,260.969C434.173,260.969 432.645,244.702 432.466,213.827L440.398,213.827L440.443,208.516C440.465,205.528 440.465,201.876 440.465,199.552C440.465,154.735 438.668,119.213 435.364,119.213C431.926,119.213 429.545,155.731 429.545,207.852ZM432.533,188.929C432.803,166.354 433.836,151.747 435.297,151.747C436.533,151.747 437.454,165.358 437.522,188.929L432.533,188.929Z" style="fill-rule:nonzero;"/>
            <path d="M447.611,340.312L447.611,358.903L452.959,358.903L452.959,340.312L451.049,340.312L451.049,277.9C451.049,273.584 451.049,269.932 451.027,267.276L450.982,263.292L451.027,263.292C451.251,269.6 451.543,274.912 451.88,279.891C452.487,288.191 453.408,296.49 454.757,296.49C457.7,296.49 459.835,262.296 459.835,209.18C459.835,157.391 457.97,121.537 454.914,121.537C453.386,121.537 452.397,129.836 451.791,138.8C451.431,143.779 451.161,149.755 450.959,156.063L450.914,156.063L450.959,152.743C450.982,150.419 450.982,148.095 450.982,144.443L450.982,143.115C450.982,131.496 450.6,125.521 449.633,125.521L447.499,125.521L447.499,144.111L449.027,144.111C449.364,144.111 449.521,146.435 449.521,151.415L449.521,340.312L447.611,340.312ZM451.027,209.512C451.027,162.038 452.779,142.12 454.667,142.12C456.757,142.12 458.262,168.346 458.262,209.18C458.262,251.673 456.599,276.24 454.599,276.24C452.285,276.24 451.027,243.042 451.027,209.512Z" style="fill-rule:nonzero;"/>
            <path d="M461.925,208.184C461.925,258.645 464.599,296.49 467.88,296.49C471.183,296.49 473.857,258.645 473.857,208.184C473.857,159.051 471.183,121.537 467.88,121.537C464.599,121.537 461.925,159.051 461.925,208.184ZM463.498,208.184C463.498,170.006 465.475,141.788 467.88,141.788C470.306,141.788 472.284,170.006 472.284,208.184C472.284,247.025 470.306,276.24 467.88,276.24C465.475,276.24 463.498,247.025 463.498,208.184Z" style="fill-rule:nonzero;"/>
            <path d="M477.272,231.754C477.272,275.576 478.351,296.49 480.98,296.49C483.789,296.49 485.16,265.948 485.452,253.665L485.497,253.665L485.497,256.985C485.497,259.309 485.474,261.965 485.474,265.616L485.474,273.916C485.474,286.863 485.856,292.507 486.822,292.507L488.732,292.507L488.732,274.248L487.452,274.248C487.115,274.248 486.957,271.924 486.957,266.944L486.957,125.521L483.407,125.521L483.407,144.111L485.429,144.111L485.429,204.864C485.429,241.05 483.811,275.576 481.272,275.576C479.07,275.576 478.8,252.669 478.8,226.111L478.8,125.521L475.25,125.521L475.25,144.111L477.272,144.111L477.272,231.754Z" style="fill-rule:nonzero;"/>
            <path d="M490.642,292.507L495.676,292.507L495.676,273.916L493.923,273.916L493.923,221.795C493.923,188.597 494.957,146.435 497.496,146.435C497.698,146.435 497.833,146.435 497.9,146.767C497.968,147.099 498.013,147.099 498.08,147.099L498.08,124.857L497.878,124.193C497.766,123.861 497.608,123.861 497.451,123.861C495.676,123.861 494.44,143.115 493.878,168.346L493.833,168.346C493.833,167.35 493.833,166.022 493.856,164.694C493.878,162.37 493.878,159.383 493.878,155.731L493.878,144.443C493.878,131.164 493.474,125.521 492.507,125.521L490.373,125.521L490.373,144.111L491.901,144.111C492.238,144.111 492.395,146.435 492.395,151.415L492.395,273.916L490.642,273.916L490.642,292.507Z" style="fill-rule:nonzero;"/>
            <path d="M504.26,144.111L505.743,144.111L509.585,292.507L511.226,292.507L515.068,144.111L516.551,144.111L516.551,125.521L511.877,125.521L511.877,144.111L513.495,144.111L510.664,255.989C510.596,258.977 510.551,261.965 510.484,264.62C510.462,266.28 510.439,267.608 510.439,268.936L510.372,268.936C510.372,267.608 510.349,266.28 510.327,264.62C510.259,261.965 510.237,258.977 510.147,255.989L507.316,144.111L508.934,144.111L508.934,125.521L504.26,125.521L504.26,144.111Z" style="fill-rule:nonzero;"/>
            <path d="M517.742,208.184C517.742,258.645 520.416,296.49 523.697,296.49C527,296.49 529.674,258.645 529.674,208.184C529.674,159.051 527,121.537 523.697,121.537C520.416,121.537 517.742,159.051 517.742,208.184ZM519.315,208.184C519.315,170.006 521.292,141.788 523.697,141.788C526.124,141.788 528.101,170.006 528.101,208.184C528.101,247.025 526.124,276.24 523.697,276.24C521.292,276.24 519.315,247.025 519.315,208.184Z" style="fill-rule:nonzero;"/>
            <path d="M533.09,231.754C533.09,275.576 534.168,296.49 536.797,296.49C539.606,296.49 540.977,265.948 541.269,253.665L541.314,253.665L541.314,256.985C541.314,259.309 541.291,261.965 541.291,265.616L541.291,273.916C541.291,286.863 541.673,292.507 542.64,292.507L544.55,292.507L544.55,274.248L543.269,274.248C542.932,274.248 542.774,271.924 542.774,266.944L542.774,125.521L539.224,125.521L539.224,144.111L541.246,144.111L541.246,204.864C541.246,241.05 539.629,275.576 537.089,275.576C534.887,275.576 534.618,252.669 534.618,226.111L534.618,125.521L531.067,125.521L531.067,144.111L533.09,144.111L533.09,231.754Z" style="fill-rule:nonzero;"/>
            <path d="M546.325,256.985C546.325,282.215 548.505,296.49 550.594,296.49C553.111,296.49 554.864,278.232 554.864,249.349C554.864,219.471 552.931,208.184 551.179,199.22C549.673,191.253 548.325,183.617 548.325,165.358C548.325,149.091 549.448,141.124 550.707,141.124C551.898,141.124 553.021,148.759 553.021,161.042L553.021,173.326L554.414,173.326L554.414,154.071C554.414,131.164 552.19,121.537 550.662,121.537C548.774,121.537 546.752,135.48 546.752,166.022C546.752,195.568 548.572,205.86 550.257,215.819C551.875,224.783 553.313,231.422 553.313,250.677C553.313,267.94 552.1,276.904 550.662,276.904C549.358,276.904 547.718,269.932 547.718,252.669L547.718,240.718L546.325,240.718L546.325,256.985Z" style="fill-rule:nonzero;"/>
            <path d="M567.133,324.045C565.425,278.896 564.594,230.758 564.594,180.629C564.594,133.82 565.492,90.995 567.133,50.161L565.695,50.161C564.077,89.003 563.178,132.492 563.178,180.629C563.178,233.414 564.144,283.875 565.695,324.045L567.133,324.045Z" style="fill-rule:nonzero;"/>
            <path d="M569.402,292.507L574.436,292.507L574.436,273.916L572.683,273.916L572.683,221.795C572.683,188.597 573.717,146.435 576.256,146.435C576.458,146.435 576.593,146.435 576.66,146.767C576.728,147.099 576.773,147.099 576.84,147.099L576.84,124.857L576.638,124.193C576.526,123.861 576.368,123.861 576.211,123.861C574.436,123.861 573.2,143.115 572.638,168.346L572.593,168.346C572.593,167.35 572.593,166.022 572.616,164.694C572.638,162.37 572.638,159.383 572.638,155.731L572.638,144.443C572.638,131.164 572.234,125.521 571.267,125.521L569.133,125.521L569.133,144.111L570.661,144.111C570.998,144.111 571.155,146.435 571.155,151.415L571.155,273.916L569.402,273.916L569.402,292.507Z" style="fill-rule:nonzero;"/>
            <path d="M578.143,209.18C578.143,260.637 580.705,296.49 584.053,296.49C585.334,296.49 586.39,291.179 587.109,284.871C587.536,281.219 587.896,277.568 588.233,273.252L587.536,256.321C587.267,259.973 586.952,263.292 586.592,266.28C585.986,271.26 585.154,276.24 584.098,276.24C581.761,276.24 579.784,252.005 579.716,209.18L588.39,209.18L588.435,205.196C588.457,202.872 588.457,200.88 588.457,198.556C588.457,157.059 586.84,121.537 583.716,121.537C580.66,121.537 578.143,154.403 578.143,209.18ZM579.784,192.581C580.143,158.719 581.784,140.46 583.671,140.46C585.334,140.46 586.795,157.059 586.862,192.581L579.784,192.581Z" style="fill-rule:nonzero;"/>
            <path d="M592.03,324.045C593.626,283.875 594.57,233.414 594.57,180.629C594.57,132.492 593.648,89.003 592.03,50.161L590.615,50.161C592.233,90.995 593.154,133.82 593.154,180.629C593.154,230.758 592.322,278.896 590.615,324.045L592.03,324.045Z" style="fill-rule:nonzero;"/>
            <path d="M597.288,209.512C597.288,262.628 600.007,296.49 603.243,296.49C605.85,296.49 607.423,273.916 607.647,270.596L606.996,253.333C606.839,255.657 605.468,276.24 603.288,276.24C600.861,276.24 598.861,250.345 598.861,208.848C598.861,168.346 600.771,141.788 603.221,141.788C604.254,141.788 605.962,148.759 605.962,163.698L605.962,175.982L607.378,175.982L607.378,157.723C607.378,130.168 604.636,121.537 603.198,121.537C599.94,121.537 597.288,157.723 597.288,209.512Z" style="fill-rule:nonzero;"/>
            <path d="M609.625,208.184C609.625,258.645 612.299,296.49 615.58,296.49C618.883,296.49 621.557,258.645 621.557,208.184C621.557,159.051 618.883,121.537 615.58,121.537C612.299,121.537 609.625,159.051 609.625,208.184ZM611.198,208.184C611.198,170.006 613.175,141.788 615.58,141.788C618.006,141.788 619.984,170.006 619.984,208.184C619.984,247.025 618.006,276.24 615.58,276.24C613.175,276.24 611.198,247.025 611.198,208.184Z" style="fill-rule:nonzero;"/>
            <path d="M623.602,292.507L628.95,292.507L628.95,273.916L627.04,273.916L627.04,212.167C627.04,175.318 628.815,142.784 631.332,142.784C633.511,142.784 633.803,165.69 633.803,192.249L633.803,292.507L637.241,292.507L637.241,273.916L635.331,273.916L635.331,186.273C635.331,145.107 634.365,121.537 631.579,121.537C628.77,121.537 627.264,153.407 626.972,165.69L626.927,165.69L626.972,162.038C626.995,159.715 627.017,157.391 627.017,153.739L627.017,144.111C627.017,131.828 626.568,125.521 625.647,125.521L623.489,125.521L623.489,144.111L625.017,144.111C625.354,144.111 625.512,146.435 625.512,151.415L625.512,273.916L623.602,273.916L623.602,292.507Z" style="fill-rule:nonzero;"/>
            <path d="M638.747,292.507L644.095,292.507L644.095,273.916L642.185,273.916L642.185,212.167C642.185,175.318 643.96,142.784 646.477,142.784C648.657,142.784 648.949,165.69 648.949,192.249L648.949,292.507L652.387,292.507L652.387,273.916L650.477,273.916L650.477,186.273C650.477,145.107 649.51,121.537 646.724,121.537C643.915,121.537 642.41,153.407 642.118,165.69L642.073,165.69L642.118,162.038C642.14,159.715 642.162,157.391 642.162,153.739L642.162,144.111C642.162,131.828 641.713,125.521 640.792,125.521L638.635,125.521L638.635,144.111L640.163,144.111C640.5,144.111 640.657,146.435 640.657,151.415L640.657,273.916L638.747,273.916L638.747,292.507Z" style="fill-rule:nonzero;"/>
            <path d="M653.915,209.18C653.915,260.637 656.476,296.49 659.824,296.49C661.105,296.49 662.161,291.179 662.88,284.871C663.307,281.219 663.667,277.568 664.004,273.252L663.307,256.321C663.038,259.973 662.723,263.292 662.364,266.28C661.757,271.26 660.926,276.24 659.869,276.24C657.532,276.24 655.555,252.005 655.488,209.18L664.161,209.18L664.206,205.196C664.229,202.872 664.229,200.88 664.229,198.556C664.229,157.059 662.611,121.537 659.487,121.537C656.431,121.537 653.915,154.403 653.915,209.18ZM655.555,192.581C655.915,158.719 657.555,140.46 659.442,140.46C661.105,140.46 662.566,157.059 662.633,192.581L655.555,192.581Z" style="fill-rule:nonzero;"/>
            <path d="M666.296,209.512C666.296,262.628 669.015,296.49 672.251,296.49C674.857,296.49 676.43,273.916 676.655,270.596L676.003,253.333C675.846,255.657 674.475,276.24 672.296,276.24C669.869,276.24 667.869,250.345 667.869,208.848C667.869,168.346 669.779,141.788 672.228,141.788C673.262,141.788 674.97,148.759 674.97,163.698L674.97,175.982L676.385,175.982L676.385,157.723C676.385,130.168 673.644,121.537 672.206,121.537C668.948,121.537 666.296,157.723 666.296,209.512Z" style="fill-rule:nonzero;"/>
            <path d="M680.048,231.754C680.048,287.527 682.7,293.835 684.003,293.835C684.25,293.835 684.407,293.835 684.475,293.503C684.542,293.171 684.587,293.171 684.655,293.171L684.655,273.584C684.632,273.584 684.587,273.584 684.52,273.916C684.452,274.248 684.34,274.248 684.138,274.248C683.261,274.248 681.576,268.604 681.576,229.762L681.576,144.111L684.43,144.111L684.43,125.521L681.576,125.521L681.576,79.375L680.071,79.375L680.071,125.521L678.026,125.521L678.026,144.111L680.048,144.111L680.048,231.754Z" style="fill-rule:nonzero;"/>
            <path d="M686.295,209.18C686.295,260.637 688.857,296.49 692.205,296.49C693.486,296.49 694.542,291.179 695.261,284.871C695.688,281.219 696.047,277.568 696.384,273.252L695.688,256.321C695.418,259.973 695.104,263.292 694.744,266.28C694.137,271.26 693.306,276.24 692.25,276.24C689.913,276.24 687.935,252.005 687.868,209.18L696.542,209.18L696.587,205.196C696.609,202.872 696.609,200.88 696.609,198.556C696.609,157.059 694.991,121.537 691.868,121.537C688.812,121.537 686.295,154.403 686.295,209.18ZM687.935,192.581C688.295,158.719 689.935,140.46 691.823,140.46C693.486,140.46 694.946,157.059 695.014,192.581L687.935,192.581Z" style="fill-rule:nonzero;"/>
            <path d="M698.789,292.507L703.822,292.507L703.822,273.916L702.069,273.916L702.069,221.795C702.069,188.597 703.103,146.435 705.642,146.435C705.845,146.435 705.979,146.435 706.047,146.767C706.114,147.099 706.159,147.099 706.227,147.099L706.227,124.857L706.024,124.193C705.912,123.861 705.755,123.861 705.597,123.861C703.822,123.861 702.586,143.115 702.024,168.346L701.98,168.346C701.98,167.35 701.98,166.022 702.002,164.694C702.024,162.37 702.024,159.383 702.024,155.731L702.024,144.443C702.024,131.164 701.62,125.521 700.654,125.521L698.519,125.521L698.519,144.111L700.047,144.111C700.384,144.111 700.541,146.435 700.541,151.415L700.541,273.916L698.789,273.916L698.789,292.507Z" style="fill-rule:nonzero;"/>
            <path d="M713.08,246.693C713.08,280.887 714.99,296.49 716.855,296.49C718.316,296.49 719.26,286.863 719.866,277.236C720.226,271.592 720.518,265.284 720.72,258.313L720.765,258.313C720.765,259.309 720.765,260.305 720.743,261.633C720.72,263.956 720.698,267.276 720.698,271.26L720.698,274.248C720.698,286.199 721.08,292.507 722.046,292.507L723.888,292.507L723.888,273.916L722.653,273.916C722.316,273.916 722.158,271.592 722.158,266.612L722.158,184.281C722.158,142.784 720.765,121.537 718.001,121.537C716.72,121.537 715.687,125.852 714.99,130.832C714.586,133.488 714.226,136.808 713.911,140.46L714.631,157.391C714.9,154.403 715.215,151.415 715.552,149.091C716.159,145.107 716.945,141.124 717.911,141.124C719.484,141.124 720.63,152.079 720.63,183.285L720.63,190.257L719.889,190.257C717.979,190.257 713.08,192.581 713.08,246.693ZM714.653,244.37C714.653,205.86 719.057,207.188 719.979,207.188L720.63,207.188L720.63,215.155C720.63,244.37 719.349,277.9 717.08,277.9C715.507,277.9 714.653,261.633 714.653,244.37ZM717.484,98.63L719.102,98.63L716.9,59.124L714.945,59.124L717.484,98.63Z" style="fill-rule:nonzero;"/>
            <path d="M730.293,144.111L731.776,144.111L735.618,292.507L737.259,292.507L741.101,144.111L742.584,144.111L742.584,125.521L737.91,125.521L737.91,144.111L739.528,144.111L736.697,255.989C736.629,258.977 736.584,261.965 736.517,264.62C736.495,266.28 736.472,267.608 736.472,268.936L736.405,268.936C736.405,267.608 736.382,266.28 736.36,264.62C736.292,261.965 736.27,258.977 736.18,255.989L733.349,144.111L734.967,144.111L734.967,125.521L730.293,125.521L730.293,144.111Z" style="fill-rule:nonzero;"/>
            <path d="M743.775,208.184C743.775,258.645 746.449,296.49 749.73,296.49C753.033,296.49 755.707,258.645 755.707,208.184C755.707,159.051 753.033,121.537 749.73,121.537C746.449,121.537 743.775,159.051 743.775,208.184ZM745.348,208.184C745.348,170.006 747.325,141.788 749.73,141.788C752.157,141.788 754.134,170.006 754.134,208.184C754.134,247.025 752.157,276.24 749.73,276.24C747.325,276.24 745.348,247.025 745.348,208.184Z" style="fill-rule:nonzero;"/>
            <path d="M759.145,231.754C759.145,287.527 761.797,293.835 763.1,293.835C763.347,293.835 763.504,293.835 763.572,293.503C763.639,293.171 763.684,293.171 763.752,293.171L763.752,273.584C763.729,273.584 763.684,273.584 763.617,273.916C763.549,274.248 763.437,274.248 763.235,274.248C762.358,274.248 760.673,268.604 760.673,229.762L760.673,144.111L763.527,144.111L763.527,125.521L760.673,125.521L760.673,79.375L759.168,79.375L759.168,125.521L757.123,125.521L757.123,144.111L759.145,144.111L759.145,231.754Z" style="fill-rule:nonzero;"/>
            <path d="M765.482,292.507L770.515,292.507L770.515,273.916L768.763,273.916L768.763,221.795C768.763,188.597 769.796,146.435 772.335,146.435C772.538,146.435 772.672,146.435 772.74,146.767C772.807,147.099 772.852,147.099 772.92,147.099L772.92,124.857L772.717,124.193C772.605,123.861 772.448,123.861 772.29,123.861C770.515,123.861 769.279,143.115 768.718,168.346L768.673,168.346C768.673,167.35 768.673,166.022 768.695,164.694C768.718,162.37 768.718,159.383 768.718,155.731L768.718,144.443C768.718,131.164 768.313,125.521 767.347,125.521L765.212,125.521L765.212,144.111L766.74,144.111C767.077,144.111 767.235,146.435 767.235,151.415L767.235,273.916L765.482,273.916L765.482,292.507Z" style="fill-rule:nonzero;"/>
            <path d="M774.223,209.18C774.223,260.637 776.785,296.49 780.133,296.49C781.414,296.49 782.47,291.179 783.189,284.871C783.616,281.219 783.975,277.568 784.312,273.252L783.616,256.321C783.346,259.973 783.031,263.292 782.672,266.28C782.065,271.26 781.234,276.24 780.178,276.24C777.841,276.24 775.863,252.005 775.796,209.18L784.47,209.18L784.515,205.196C784.537,202.872 784.537,200.88 784.537,198.556C784.537,157.059 782.919,121.537 779.796,121.537C776.74,121.537 774.223,154.403 774.223,209.18ZM775.863,192.581C776.223,158.719 777.863,140.46 779.751,140.46C781.414,140.46 782.874,157.059 782.942,192.581L775.863,192.581Z" style="fill-rule:nonzero;"/>
            <path d="M791.952,208.184C791.952,262.628 794.918,296.49 798.267,296.49C800.469,296.49 802.221,281.219 803.008,270.264L801.997,240.386C801.368,247.689 800.042,260.969 798.424,260.969C796.469,260.969 794.829,242.046 794.829,207.188C794.829,176.314 796.109,155.067 798.199,155.067C799.165,155.067 800.334,160.046 800.334,171.666L800.334,182.953L802.806,182.953L802.806,159.715C802.806,129.836 800.019,119.213 798.109,119.213C794.581,119.213 791.952,157.723 791.952,208.184Z" style="fill-rule:nonzero;"/>
            <path d="M804.761,292.507L810.918,292.507L810.918,260.969L809.277,260.969L809.277,224.119C809.277,192.249 810.311,162.37 812.625,162.37C812.828,162.37 812.962,162.37 813.12,162.702C813.187,163.034 813.255,163.034 813.322,163.034L813.322,121.537C813.277,121.537 813.232,121.537 813.165,121.205C813.075,120.873 812.962,120.873 812.805,120.873C811.03,120.873 809.704,140.128 809.165,164.362L809.12,164.362C809.12,163.366 809.12,162.37 809.142,161.374C809.165,159.051 809.165,156.727 809.165,153.739L809.165,143.779C809.165,130.168 808.648,123.197 807.637,123.197L804.648,123.197L804.648,154.735L805.929,154.735C806.266,154.735 806.423,157.059 806.423,162.038L806.423,260.969L804.761,260.969L804.761,292.507Z" style="fill-rule:nonzero;"/>
            <path d="M818.692,102.282L821.187,102.282L824.22,57.133L821.119,57.133L818.692,102.282ZM814.513,207.852C814.513,255.657 816.872,296.49 820.67,296.49C822.108,296.49 823.254,290.847 824.063,284.539C824.535,280.887 824.962,277.236 825.299,272.92L824.198,243.042C823.906,246.361 823.591,249.349 823.232,252.005C822.625,256.985 821.838,260.969 820.872,260.969C819.142,260.969 817.614,244.702 817.434,213.827L825.366,213.827L825.411,208.516C825.434,205.528 825.434,201.876 825.434,199.552C825.434,154.735 823.636,119.213 820.333,119.213C816.895,119.213 814.513,155.731 814.513,207.852ZM817.502,188.929C817.771,166.354 818.805,151.747 820.265,151.747C821.501,151.747 822.423,165.358 822.49,188.929L817.502,188.929Z" style="fill-rule:nonzero;"/>
            <path d="M826.894,245.034C826.894,279.559 828.714,296.49 830.692,296.49C832.04,296.49 832.894,288.523 833.501,280.223C833.838,275.244 834.107,269.932 834.31,263.956L834.355,263.956C834.355,264.62 834.355,265.284 834.332,266.28C834.31,267.94 834.287,269.932 834.287,272.588L834.287,274.58C834.287,284.207 834.692,292.507 835.748,292.507L838.444,292.507L838.444,260.969L837.411,260.969C837.074,260.969 836.916,258.645 836.916,253.665L836.916,185.941C836.916,142.452 835.276,119.213 832.197,119.213C830.827,119.213 829.681,124.193 828.894,129.504C828.422,132.492 828.018,136.144 827.658,140.128L828.714,169.342C829.007,166.354 829.344,163.366 829.703,161.042C830.31,157.059 831.074,153.075 831.95,153.075C833.141,153.075 834.062,160.71 834.062,182.289L834.062,187.933L833.343,187.933C831.501,187.933 826.894,193.245 826.894,245.034ZM829.771,241.714C829.771,216.151 832.467,213.495 833.613,213.495L834.085,213.495L834.085,219.139C834.085,240.386 832.984,264.952 831.433,264.952C830.377,264.952 829.771,254.661 829.771,241.714Z" style="fill-rule:nonzero;"/>
            <path d="M841.006,230.426C841.006,287.195 844.174,294.167 845.792,294.167C846.062,294.167 846.264,294.167 846.421,293.835L846.669,293.171L846.669,258.645L846.534,258.645C846.444,258.645 846.309,258.977 846.152,258.977C845.343,258.977 843.86,255.325 843.86,226.111L843.86,154.735L846.466,154.735L846.466,123.197L843.86,123.197L843.86,77.051L841.096,77.051L841.096,123.197L839.253,123.197L839.253,154.735L841.006,154.735L841.006,230.426Z" style="fill-rule:nonzero;"/>
            <path d="M850.039,94.314L852.915,94.314L852.915,56.801L850.039,56.801L850.039,94.314ZM848.399,292.507L854.556,292.507L854.556,260.969L852.915,260.969L852.915,123.197L848.286,123.197L848.286,154.735L850.062,154.735L850.062,260.969L848.399,260.969L848.399,292.507Z" style="fill-rule:nonzero;"/>
            <path d="M855.275,154.735L856.668,154.735L860.151,292.507L863.432,292.507L866.937,154.735L868.308,154.735L868.308,123.197L862.802,123.197L862.802,154.735L864.106,154.735L862.106,238.394C862.016,242.71 861.971,247.357 861.904,251.009L861.836,256.985L861.769,256.985L861.701,251.009C861.634,247.357 861.589,242.71 861.477,238.394L859.499,154.735L860.78,154.735L860.78,123.197L855.275,123.197L855.275,154.735Z" style="fill-rule:nonzero;"/>
            <path d="M871.207,94.314L874.083,94.314L874.083,56.801L871.207,56.801L871.207,94.314ZM869.566,292.507L875.723,292.507L875.723,260.969L874.083,260.969L874.083,123.197L869.454,123.197L869.454,154.735L871.229,154.735L871.229,260.969L869.566,260.969L869.566,292.507Z" style="fill-rule:nonzero;"/>
            <path d="M878.465,230.426C878.465,287.195 881.633,294.167 883.251,294.167C883.52,294.167 883.723,294.167 883.88,293.835L884.127,293.171L884.127,258.645L883.992,258.645C883.902,258.645 883.768,258.977 883.61,258.977C882.801,258.977 881.318,255.325 881.318,226.111L881.318,154.735L883.925,154.735L883.925,123.197L881.318,123.197L881.318,77.051L878.554,77.051L878.554,123.197L876.712,123.197L876.712,154.735L878.465,154.735L878.465,230.426Z" style="fill-rule:nonzero;"/>
            <path d="M889.79,102.282L892.284,102.282L895.318,57.133L892.217,57.133L889.79,102.282ZM885.61,207.852C885.61,255.657 887.97,296.49 891.767,296.49C893.205,296.49 894.351,290.847 895.16,284.539C895.632,280.887 896.059,277.236 896.396,272.92L895.295,243.042C895.003,246.361 894.688,249.349 894.329,252.005C893.722,256.985 892.936,260.969 891.969,260.969C890.239,260.969 888.711,244.702 888.531,213.827L896.464,213.827L896.509,208.516C896.531,205.528 896.531,201.876 896.531,199.552C896.531,154.735 894.733,119.213 891.43,119.213C887.992,119.213 885.61,155.731 885.61,207.852ZM888.599,188.929C888.869,166.354 889.902,151.747 891.363,151.747C892.599,151.747 893.52,165.358 893.587,188.929L888.599,188.929Z" style="fill-rule:nonzero;"/>
            <path d="M899.093,224.451L901.587,224.451L901.834,56.801L898.868,56.801L899.093,224.451ZM898.98,292.507L901.744,292.507L901.744,253.001L898.98,253.001L898.98,292.507Z" style="fill-rule:nonzero;"/>
        </g>
        <g transform="matrix(0.539596,1.6335e-33,-1.26829e-33,0.418956,546.62,194.109)">
            <path d="M117.009,173.601C117.009,242.173 157.767,295.324 213.555,295.324C238.774,295.324 287.939,284.825 287.939,249.063L287.939,211.332L247.181,211.332L247.181,229.377C247.181,243.485 225.019,246.11 216.867,246.11C186.553,246.11 164.136,218.878 164.136,170.32C164.136,127.012 184.77,102.077 214.319,102.077C226.547,102.077 245.143,105.686 245.143,118.81L245.143,136.855L285.901,136.855L285.901,99.781C285.901,61.722 234.444,52.863 212.282,52.863C159.041,52.863 117.009,103.718 117.009,173.601Z" style="fill-rule:nonzero;"/>
            <path d="M308.828,291.387L388.561,291.387L388.561,250.375L370.729,250.375L370.729,225.768C370.729,194.599 382.447,174.914 406.902,174.914C409.704,174.914 411.487,174.914 413.271,175.242L415.818,175.898L415.818,120.122C415.563,120.122 415.054,120.122 414.29,119.794C413.525,119.466 412.506,119.466 410.723,119.466C391.108,119.466 374.55,138.496 368.946,161.462L368.437,161.462C368.437,160.806 368.437,160.15 368.691,159.165C368.946,158.181 368.946,155.884 368.946,152.932L368.946,144.073C368.946,128.653 362.323,122.419 350.35,122.419L308.828,122.419L308.828,163.431L321.055,163.431C324.876,163.431 326.659,165.727 326.659,170.649L326.659,250.375L308.828,250.375L308.828,291.387Z" style="fill-rule:nonzero;"/>
            <path d="M426.517,206.739C426.517,251.687 451.736,295.324 498.608,295.324C516.695,295.324 530.196,289.746 540.131,283.512C545.735,279.903 550.83,275.966 555.16,271.701L539.112,232.33C535.8,235.283 531.979,237.907 527.903,240.204C521.025,244.141 512.109,248.406 502.175,248.406C487.909,248.406 474.917,239.22 471.606,217.238L554.906,217.238L555.415,210.676C555.67,207.067 555.924,202.802 555.924,200.177C555.924,153.26 534.017,118.482 494.787,118.482C452.5,118.482 426.517,157.197 426.517,206.739ZM472.625,186.069C474.917,172.945 480.776,161.134 493.768,161.134C503.703,161.134 510.326,172.617 510.326,186.069L472.625,186.069ZM471.351,106.014L507.524,106.014L545.99,56.801L500.901,56.801L471.351,106.014Z" style="fill-rule:nonzero;"/>
            <path d="M569.68,206.739C569.68,251.687 594.9,295.324 641.771,295.324C659.858,295.324 673.359,289.746 683.294,283.512C688.898,279.903 693.993,275.966 698.324,271.701L682.275,232.33C678.963,235.283 675.142,237.907 671.066,240.204C664.189,244.141 655.273,248.406 645.338,248.406C631.072,248.406 618.081,239.22 614.769,217.238L698.069,217.238L698.578,210.676C698.833,207.067 699.088,202.802 699.088,200.177C699.088,153.26 677.18,118.482 637.95,118.482C595.664,118.482 569.68,157.197 569.68,206.739ZM615.788,186.069C618.081,172.945 623.94,161.134 636.931,161.134C646.866,161.134 653.489,172.617 653.489,186.069L615.788,186.069Z" style="fill-rule:nonzero;"/>
            <path d="M716.41,291.387L796.143,291.387L796.143,250.375L778.312,250.375L778.312,225.768C778.312,194.599 790.03,174.914 814.485,174.914C817.287,174.914 819.07,174.914 820.853,175.242L823.4,175.898L823.4,120.122C823.146,120.122 822.636,120.122 821.872,119.794C821.108,119.466 820.089,119.466 818.306,119.466C798.691,119.466 782.133,138.496 776.528,161.462L776.019,161.462C776.019,160.806 776.019,160.15 776.274,159.165C776.528,158.181 776.528,155.884 776.528,152.932L776.528,144.073C776.528,128.653 769.905,122.419 757.932,122.419L716.41,122.419L716.41,163.431L728.637,163.431C732.459,163.431 734.242,165.727 734.242,170.649L734.242,250.375L716.41,250.375L716.41,291.387Z" style="fill-rule:nonzero;"/>
            <rect x="840.977" y="237.579" width="41.777" height="53.807" style="fill-rule:nonzero;"/>
        </g>
    </g>
</svg>
