<?xml version="1.0" encoding="UTF-8" standalone="no"?><!DOCTYPE svg PUBLIC "-//W3C//DTD SVG 1.1//EN" "http://www.w3.org/Graphics/SVG/1.1/DTD/svg11.dtd"><svg width="100%" height="100%" viewBox="0 0 1024 540" version="1.1" xmlns="http://www.w3.org/2000/svg" xmlns:xlink="http://www.w3.org/1999/xlink" xml:space="preserve" xmlns:serif="http://www.serif.com/" style="fill-rule:evenodd;clip-rule:evenodd;stroke-linejoin:round;stroke-miterlimit:2;"><g><path d="M1.449,519.85c0,7.215 5.954,10.506 11.767,10.506c4.553,0 7.494,-2.031 9.385,-4.062c1.121,-1.191 2.032,-2.521 2.662,-3.992l0.14,-0c0,0.21 0,0.42 -0.07,0.7c-0.07,0.49 -0.14,1.191 -0.14,2.031l-0,0.631c-0,2.521 1.191,3.852 4.202,3.852l5.744,0l-0,-3.922l-3.852,-0c-1.051,-0 -1.541,-0.491 -1.541,-1.541l-0,-17.37c-0,-8.756 -4.343,-13.238 -12.958,-13.238c-3.992,-0 -7.214,0.91 -9.385,1.961c-1.261,0.56 -2.382,1.261 -3.362,2.031l2.241,3.572c0.84,-0.63 1.821,-1.26 2.872,-1.751c1.891,-0.84 4.342,-1.681 7.354,-1.681c4.903,0 8.475,2.312 8.475,8.895l-0,1.471l-2.312,0c-5.953,0 -21.222,0.491 -21.222,11.907Zm4.903,-0.49c-0,-8.125 13.728,-7.845 16.6,-7.845l2.031,0l-0,1.681c-0,6.164 -3.993,13.238 -11.067,13.238c-4.903,0 -7.564,-3.432 -7.564,-7.074Zm8.825,-30.748l5.043,-0l-6.864,-8.335l-6.094,0l7.915,8.335Z" style="fill:#fef590;fill-rule:nonzero;"/><path d="M55.101,498.208l4.622,-0l11.977,31.308l5.113,0l11.977,-31.308l4.623,-0l0,-3.923l-14.569,0l0,3.923l5.043,-0l-8.825,23.603c-0.21,0.631 -0.35,1.261 -0.56,1.822c-0.07,0.35 -0.14,0.63 -0.14,0.91l-0.21,0c-0,-0.28 -0.07,-0.56 -0.14,-0.91c-0.211,-0.561 -0.281,-1.191 -0.561,-1.822l-8.825,-23.603l5.043,-0l0,-3.923l-14.568,0l-0,3.923Z" style="fill:#fef590;fill-rule:nonzero;"/><path d="M97.125,511.726c0,10.646 8.335,18.63 18.561,18.63c10.296,0 18.631,-7.984 18.631,-18.63c0,-10.367 -8.335,-18.281 -18.631,-18.281c-10.226,-0 -18.561,7.914 -18.561,18.281Zm4.903,-0c0,-8.055 6.164,-14.009 13.658,-14.009c7.565,0 13.728,5.954 13.728,14.009c0,8.194 -6.163,14.358 -13.728,14.358c-7.494,-0 -13.658,-6.164 -13.658,-14.358Z" style="fill:#fef590;fill-rule:nonzero;"/><path d="M145.033,516.698c0,11.767 8.265,13.098 12.328,13.098c0.77,0 1.26,0 1.47,-0.07c0.211,-0.07 0.351,-0.07 0.561,-0.07l-0,-4.132c-0.07,-0 -0.21,-0 -0.421,0.07c-0.21,0.07 -0.56,0.07 -1.19,0.07c-2.732,-0 -7.985,-1.191 -7.985,-9.386l0,-18.07l8.895,-0l0,-3.923l-8.895,0l0,-9.735l-4.693,-0l0,9.735l-6.373,0l-0,3.923l6.303,-0l0,18.49Z" style="fill:#fef590;fill-rule:nonzero;"/><path d="M164.785,529.516l15.689,0l0,-3.922l-5.463,-0l-0,-10.997c-0,-7.004 3.222,-15.899 11.136,-15.899c0.631,-0 1.051,-0 1.261,0.07c0.21,0.07 0.35,0.07 0.561,0.07l-0,-4.693l-0.631,-0.14c-0.35,-0.07 -0.84,-0.07 -1.331,-0.07c-5.533,0 -9.385,4.063 -11.136,9.386l-0.14,-0c-0,-0.21 -0,-0.491 0.07,-0.771c0.07,-0.49 0.07,-1.12 0.07,-1.891l-0,-2.381c-0,-2.802 -1.261,-3.993 -4.273,-3.993l-6.654,0l0,3.923l4.763,-0c1.051,-0 1.541,0.49 1.541,1.541l0,25.845l-5.463,-0l-0,3.922Z" style="fill:#fef590;fill-rule:nonzero;"/><path d="M192.031,511.936c-0,10.856 7.985,18.42 18.421,18.42c3.992,0 7.284,-1.12 9.525,-2.451c1.331,-0.77 2.452,-1.541 3.502,-2.451l-2.171,-3.572c-0.84,0.77 -1.821,1.47 -2.942,2.101c-1.891,1.05 -4.482,2.101 -7.774,2.101c-7.284,-0 -13.448,-5.113 -13.658,-14.148l27.036,-0l0.14,-0.841c0.07,-0.49 0.07,-0.91 0.07,-1.401c-0,-8.755 -5.043,-16.249 -14.779,-16.249c-9.525,-0 -17.37,6.934 -17.37,18.491Zm5.113,-3.502c1.121,-7.145 6.234,-10.997 12.117,-10.997c5.183,0 9.736,3.502 9.946,10.997l-22.063,-0Z" style="fill:#fef590;fill-rule:nonzero;"/><path d="M247.293,511.726c0,11.486 9.246,18.63 19.682,18.63c6.864,0 12.327,-3.221 14.779,-5.533l-3.152,-6.303c-1.961,1.54 -6.094,4.342 -11.137,4.342c-6.093,0 -11.206,-3.992 -11.206,-11.347c-0,-6.513 3.992,-10.996 10.506,-10.996c3.012,-0 6.654,1.051 6.654,3.502l-0,2.381l7.704,0l0,-4.902c0,-6.304 -8.685,-8.545 -14.638,-8.545c-10.997,-0 -19.192,8.124 -19.192,18.771Z" style="fill:#fef590;fill-rule:nonzero;"/><path d="M287.217,529.516l19.191,0l0,-6.654l-5.113,0l0,-7.774c0,-6.724 3.222,-13.028 10.436,-13.028c0.631,-0 1.051,-0 1.541,0.07c0.21,0.07 0.42,0.07 0.63,0.07l0,-8.755c-0.14,-0 -0.28,-0 -0.49,-0.07c-0.28,-0.07 -0.63,-0.07 -1.121,-0.07c-5.533,-0 -9.665,4.062 -11.346,9.175l-0.14,0c-0,-0.21 -0,-0.42 0.07,-0.63c0.07,-0.491 0.07,-0.981 0.07,-1.611l-0,-2.101c-0,-2.872 -1.611,-4.343 -4.763,-4.343l-9.315,0l-0,6.654l3.992,-0c1.051,-0 1.541,0.49 1.541,1.541l-0,20.872l-5.183,0l-0,6.654Z" style="fill:#fef590;fill-rule:nonzero;"/><path d="M330.642,489.382l7.775,0l9.455,-9.525l-9.665,-0l-7.565,9.525Zm-13.027,22.274c-0,10.085 7.354,18.7 19.191,18.7c4.483,0 8.055,-1.19 10.576,-2.521c1.471,-0.77 2.802,-1.541 3.852,-2.451l-3.432,-6.304c-0.91,0.7 -1.891,1.331 -3.011,1.891c-1.892,1.051 -4.343,1.891 -7.355,1.891c-5.393,0 -10.156,-3.432 -10.716,-9.946l24.724,0l0.141,-1.12c0.07,-0.631 0.07,-1.401 0.07,-1.892c-0,-9.455 -5.604,-16.949 -15.9,-16.949c-10.716,-0 -18.14,7.704 -18.14,18.701Zm9.315,-3.993c0.841,-4.763 4.062,-7.844 8.615,-7.844c3.852,-0 6.724,2.871 6.934,7.844l-15.549,0Z" style="fill:#fef590;fill-rule:nonzero;"/><path d="M356.207,519.5c0,7.284 5.674,10.856 11.837,10.856c4.203,0 6.864,-1.68 8.755,-3.432c1.051,-1.05 1.891,-2.171 2.522,-3.432l0.14,0c-0,0.141 -0,0.281 -0.07,0.491c-0.07,0.35 -0.14,0.77 -0.14,1.331l-0,0.42c-0,2.031 1.261,3.782 4.552,3.782l8.405,0l0,-6.654l-3.221,0c-1.051,0 -1.541,-0.49 -1.541,-1.541l-0,-14.288c-0,-9.176 -5.113,-14.078 -14.709,-14.078c-4.273,-0 -7.845,1.05 -10.296,2.171c-1.471,0.63 -2.732,1.401 -3.852,2.241l3.292,6.164c0.91,-0.631 1.961,-1.261 3.081,-1.751c1.892,-0.841 4.273,-1.681 7.005,-1.681c3.712,-0 6.583,1.611 6.583,6.163l0,1.191l-2.241,0c-5.743,0 -20.102,1.121 -20.102,12.047Zm8.966,-0.7c-0,-5.393 8.404,-5.954 11.977,-5.954l1.47,0l0,1.191c0,4.483 -3.432,9.666 -8.264,9.666c-3.292,-0 -5.183,-2.172 -5.183,-4.903Z" style="fill:#fef590;fill-rule:nonzero;"/><path d="M400.193,516.418c0,11.977 9.876,13.448 14.919,13.448c0.84,0 1.471,0 1.961,-0.07l0.77,-0.14l0,-7.284l-0.42,-0c-0.28,-0 -0.7,0.07 -1.19,0.07c-2.522,-0 -7.145,-0.771 -7.145,-6.934l0,-15.059l8.125,-0l0,-6.654l-8.125,0l0,-9.736l-8.615,0l0,9.736l-5.743,0l-0,6.654l5.463,-0l0,15.969Z" style="fill:#fef590;fill-rule:nonzero;"/><path d="M428.35,487.701l8.965,0l-0,-7.914l-8.965,-0l-0,7.914Zm-5.113,41.815l19.191,0l-0,-6.654l-5.113,0l-0,-29.067l-14.429,0l0,6.654l5.534,-0l-0,22.413l-5.183,0l-0,6.654Z" style="fill:#fef590;fill-rule:nonzero;"/><path d="M444.669,500.449l4.343,-0l10.856,29.067l10.226,0l10.927,-29.067l4.272,-0l0,-6.654l-17.16,0l-0,6.654l4.062,-0l-6.233,17.65c-0.28,0.911 -0.421,1.891 -0.631,2.662l-0.21,1.261l-0.21,-0l-0.21,-1.261c-0.21,-0.771 -0.35,-1.751 -0.7,-2.662l-6.164,-17.65l3.992,-0l0,-6.654l-17.16,0l0,6.654Z" style="fill:#fef590;fill-rule:nonzero;"/><path d="M494.328,487.701l8.966,0l-0,-7.914l-8.966,-0l0,7.914Zm-5.113,41.815l19.192,0l-0,-6.654l-5.113,0l-0,-29.067l-14.429,0l0,6.654l5.533,-0l0,22.413l-5.183,0l0,6.654Z" style="fill:#fef590;fill-rule:nonzero;"/><path d="M516.952,516.418c-0,11.977 9.875,13.448 14.918,13.448c0.841,0 1.471,0 1.962,-0.07l0.77,-0.14l0,-7.284l-0.42,-0c-0.28,-0 -0.701,0.07 -1.191,0.07c-2.521,-0 -7.144,-0.771 -7.144,-6.934l-0,-15.059l8.125,-0l-0,-6.654l-8.125,0l-0,-9.736l-8.615,0l-0,9.736l-5.744,0l0,6.654l5.464,-0l-0,15.969Z" style="fill:#fef590;fill-rule:nonzero;"/><path d="M552.252,489.382l7.775,0l9.455,-9.525l-9.665,-0l-7.565,9.525Zm-13.027,22.274c-0,10.085 7.354,18.7 19.191,18.7c4.483,0 8.055,-1.19 10.576,-2.521c1.471,-0.77 2.802,-1.541 3.852,-2.451l-3.432,-6.304c-0.91,0.7 -1.891,1.331 -3.011,1.891c-1.891,1.051 -4.343,1.891 -7.355,1.891c-5.393,0 -10.156,-3.432 -10.716,-9.946l24.725,0l0.14,-1.12c0.07,-0.631 0.07,-1.401 0.07,-1.892c-0,-9.455 -5.604,-16.949 -15.9,-16.949c-10.716,-0 -18.14,7.704 -18.14,18.701Zm9.315,-3.993c0.841,-4.763 4.063,-7.844 8.615,-7.844c3.853,-0 6.724,2.871 6.934,7.844l-15.549,0Z" style="fill:#fef590;fill-rule:nonzero;"/><path d="M581.249,515.158l7.775,-0l0.77,-35.371l-9.245,-0l0.7,35.371Zm-0.35,14.358l8.615,0l0,-8.335l-8.615,0l0,8.335Z" style="fill:#fef590;fill-rule:nonzero;"/></g><g><path d="M1.789,468.484l-0,3.803l16.161,-0l0,-3.803l-5.772,0l0,-12.766c0,-0.883 0,-1.63 -0.068,-2.173l-0.136,-0.815l0.136,-0c0.679,1.29 1.562,2.377 2.581,3.395c1.833,1.698 4.617,3.396 8.692,3.396c8.895,-0 15.346,-6.995 15.346,-17.86c0,-10.593 -5.636,-17.927 -14.871,-17.927c-4.618,0 -7.606,1.698 -9.439,3.531c-1.086,1.019 -1.901,2.241 -2.512,3.531l-0.136,0l0.136,-0.679c0.067,-0.475 0.067,-0.95 0.067,-1.697l0,-0.272c0,-2.377 -1.154,-3.599 -4.074,-3.599l-6.451,0l0,3.803l4.618,-0c1.018,-0 1.494,0.475 1.494,1.494l-0,38.638l-5.772,0Zm10.321,-26.755c0,-9.71 5.297,-13.785 11.001,-13.785c6.315,0 10.865,5.365 10.865,13.717c-0,8.692 -5.025,13.717 -11.069,13.717c-6.994,0 -10.797,-6.79 -10.797,-13.649Z" style="fill:#fef590;fill-rule:nonzero;"/><path d="M45.045,441.458c-0,10.321 8.08,18.063 17.995,18.063c9.982,-0 18.062,-7.742 18.062,-18.063c0,-10.05 -8.08,-17.724 -18.062,-17.724c-9.915,0 -17.995,7.674 -17.995,17.724Zm4.753,-0c-0,-7.81 5.976,-13.582 13.242,-13.582c7.333,0 13.309,5.772 13.309,13.582c0,7.945 -5.976,13.92 -13.309,13.92c-7.266,0 -13.242,-5.975 -13.242,-13.92Z" style="fill:#fef590;fill-rule:nonzero;"/><path d="M91.424,446.279c0,8.963 3.26,13.242 11.205,13.242c8.488,-0 12.63,-6.248 13.513,-8.76l0.136,-0l-0,0.679c-0,0.475 -0.068,1.018 -0.068,1.765l-0,1.698c-0,2.648 1.154,3.803 4.074,3.803l5.772,-0l0,-3.735l-3.871,-0c-1.018,-0 -1.494,-0.475 -1.494,-1.494l0,-28.928l-10.729,0l0,3.803l6.112,-0l-0,12.427c-0,7.401 -4.889,14.463 -12.563,14.463c-6.654,0 -7.469,-4.685 -7.469,-10.117l-0,-20.576l-10.729,0l-0,3.803l6.111,-0l0,17.927Z" style="fill:#fef590;fill-rule:nonzero;"/><path d="M131.828,458.706l15.211,-0l-0,-3.803l-5.297,-0l0,-10.661c0,-6.791 3.124,-15.415 10.797,-15.415c0.611,0 1.019,0 1.223,0.068c0.203,0.068 0.339,0.068 0.543,0.068l-0,-4.55l-0.611,-0.136c-0.34,-0.067 -0.815,-0.067 -1.291,-0.067c-5.364,-0 -9.099,3.938 -10.797,9.099l-0.135,-0c-0,-0.204 -0,-0.475 0.068,-0.747c0.067,-0.475 0.067,-1.087 0.067,-1.833l0,-2.309c0,-2.717 -1.222,-3.871 -4.142,-3.871l-6.451,0l0,3.803l4.618,-0c1.018,-0 1.494,0.475 1.494,1.494l-0,25.057l-5.297,-0l0,3.803Z" style="fill:#fef590;fill-rule:nonzero;"/><path d="M172.979,428.352l4.482,-0l11.612,30.354l4.957,-0l11.612,-30.354l4.481,-0l0,-3.803l-14.124,0l-0,3.803l4.889,-0l-8.556,22.884c-0.204,0.611 -0.339,1.222 -0.543,1.766c-0.068,0.339 -0.136,0.611 -0.136,0.882l-0.204,0c0,-0.271 -0.068,-0.543 -0.136,-0.882c-0.203,-0.544 -0.271,-1.155 -0.543,-1.766l-8.556,-22.884l4.889,-0l0,-3.803l-14.124,0l-0,3.803Z" style="fill:#fef590;fill-rule:nonzero;"/><path d="M213.722,441.458c0,10.321 8.081,18.063 17.995,18.063c9.983,-0 18.063,-7.742 18.063,-18.063c0,-10.05 -8.08,-17.724 -18.063,-17.724c-9.914,0 -17.995,7.674 -17.995,17.724Zm4.754,-0c-0,-7.81 5.975,-13.582 13.241,-13.582c7.334,0 13.31,5.772 13.31,13.582c-0,7.945 -5.976,13.92 -13.31,13.92c-7.266,0 -13.241,-5.975 -13.241,-13.92Z" style="fill:#fef590;fill-rule:nonzero;"/><path d="M260.102,446.279c-0,8.963 3.259,13.242 11.204,13.242c8.489,-0 12.631,-6.248 13.514,-8.76l0.135,-0l0,0.679c0,0.475 -0.067,1.018 -0.067,1.765l-0,1.698c-0,2.648 1.154,3.803 4.074,3.803l5.772,-0l-0,-3.735l-3.871,-0c-1.018,-0 -1.494,-0.475 -1.494,-1.494l0,-28.928l-10.729,0l0,3.803l6.112,-0l-0,12.427c-0,7.401 -4.889,14.463 -12.563,14.463c-6.655,0 -7.469,-4.685 -7.469,-10.117l-0,-20.576l-10.73,0l0,3.803l6.112,-0l-0,17.927Z" style="fill:#fef590;fill-rule:nonzero;"/><path d="M300.098,451.44c0,5.161 6.587,8.081 12.903,8.081c7.605,-0 12.902,-3.735 12.902,-9.643c-0,-6.112 -5.84,-8.42 -11.137,-10.254c-4.55,-1.63 -8.624,-3.191 -8.624,-6.926c0,-3.328 3.395,-4.957 7.198,-4.957c3.599,-0 6.994,1.561 6.994,4.074l0,2.513l4.211,-0l-0,-3.939c-0,-4.686 -6.723,-6.655 -11.341,-6.655c-5.704,0 -11.815,2.852 -11.815,9.1c-0,6.043 5.5,8.148 10.593,10.185c4.889,1.834 9.235,3.192 9.235,7.131c0,3.531 -3.667,5.364 -8.013,5.364c-3.938,0 -8.895,-1.426 -8.895,-4.957l-0,-2.445l-4.211,0l0,3.328Z" style="fill:#fef590;fill-rule:nonzero;"/><path d="M362.979,465.157c-5.161,-9.235 -7.673,-19.082 -7.673,-29.336c-0,-9.574 2.716,-18.334 7.673,-26.687l-4.346,0c-4.889,7.945 -7.605,16.841 -7.605,26.687c-0,10.797 2.92,21.119 7.605,29.336l4.346,-0Z" style="fill:#fef590;fill-rule:nonzero;"/><path d="M369.838,458.706l15.211,-0l-0,-3.803l-5.297,-0l-0,-10.661c-0,-6.791 3.124,-15.415 10.797,-15.415c0.611,0 1.018,0 1.222,0.068c0.204,0.068 0.34,0.068 0.543,0.068l0,-4.55l-0.611,-0.136c-0.339,-0.067 -0.815,-0.067 -1.29,-0.067c-5.364,-0 -9.099,3.938 -10.797,9.099l-0.136,-0c0,-0.204 0,-0.475 0.068,-0.747c0.068,-0.475 0.068,-1.087 0.068,-1.833l0,-2.309c0,-2.717 -1.222,-3.871 -4.142,-3.871l-6.451,0l-0,3.803l4.617,-0c1.019,-0 1.494,0.475 1.494,1.494l0,25.057l-5.296,-0l-0,3.803Z" style="fill:#fef590;fill-rule:nonzero;"/><path d="M396.253,441.661c-0,10.526 7.741,17.86 17.859,17.86c3.871,-0 7.062,-1.087 9.235,-2.377c1.291,-0.747 2.377,-1.494 3.396,-2.377l-2.105,-3.463c-0.815,0.747 -1.766,1.426 -2.852,2.037c-1.834,1.019 -4.346,2.037 -7.538,2.037c-7.062,0 -13.038,-4.957 -13.242,-13.717l26.212,0l0.136,-0.815c0.068,-0.475 0.068,-0.882 0.068,-1.358c-0,-8.488 -4.89,-15.754 -14.328,-15.754c-9.236,0 -16.841,6.723 -16.841,17.927Zm4.957,-3.395c1.087,-6.926 6.044,-10.661 11.748,-10.661c5.025,-0 9.439,3.395 9.642,10.661l-21.39,0Z" style="fill:#fef590;fill-rule:nonzero;"/><path d="M438.219,465.157c4.821,-8.217 7.673,-18.539 7.673,-29.336c0,-9.846 -2.784,-18.742 -7.673,-26.687l-4.278,0c4.889,8.353 7.673,17.113 7.673,26.687c-0,10.254 -2.513,20.101 -7.673,29.336l4.278,-0Z" style="fill:#fef590;fill-rule:nonzero;"/><path d="M454.109,441.729c-0,10.865 8.216,17.792 17.995,17.792c7.877,-0 12.63,-4.618 13.309,-5.297l-1.969,-3.531c-0.475,0.475 -4.618,4.685 -11.205,4.685c-7.333,0 -13.377,-5.296 -13.377,-13.785c0,-8.284 5.772,-13.717 13.174,-13.717c3.123,0 8.284,1.426 8.284,4.482l0,2.513l4.278,-0l0,-3.735c0,-5.636 -8.284,-7.402 -12.63,-7.402c-9.846,0 -17.859,7.402 -17.859,17.995Z" style="fill:#fef590;fill-rule:nonzero;"/><path d="M491.389,441.458c-0,10.321 8.081,18.063 17.995,18.063c9.982,-0 18.063,-7.742 18.063,-18.063c-0,-10.05 -8.081,-17.724 -18.063,-17.724c-9.914,0 -17.995,7.674 -17.995,17.724Zm4.753,-0c0,-7.81 5.976,-13.582 13.242,-13.582c7.334,0 13.309,5.772 13.309,13.582c0,7.945 -5.975,13.92 -13.309,13.92c-7.266,0 -13.242,-5.975 -13.242,-13.92Z" style="fill:#fef590;fill-rule:nonzero;"/><path d="M533.626,458.706l16.162,-0l-0,-3.803l-5.772,-0l-0,-12.631c-0,-7.537 5.364,-14.192 12.97,-14.192c6.587,0 7.469,4.686 7.469,10.118l0,20.508l10.39,-0l0,-3.803l-5.772,-0l0,-17.927c0,-8.42 -2.92,-13.242 -11.34,-13.242c-8.488,0 -13.038,6.519 -13.921,9.032l-0.136,-0l0.136,-0.747c0.068,-0.476 0.136,-0.951 0.136,-1.698l-0,-1.969c-0,-2.513 -1.358,-3.803 -4.142,-3.803l-6.519,0l-0,3.803l4.617,-0c1.019,-0 1.494,0.475 1.494,1.494l0,25.057l-5.772,-0l0,3.803Z" style="fill:#fef590;fill-rule:nonzero;"/><path d="M579.395,458.706l16.161,-0l0,-3.803l-5.772,-0l0,-12.631c0,-7.537 5.365,-14.192 12.97,-14.192c6.587,0 7.47,4.686 7.47,10.118l-0,20.508l10.39,-0l-0,-3.803l-5.772,-0l-0,-17.927c-0,-8.42 -2.92,-13.242 -11.341,-13.242c-8.488,0 -13.038,6.519 -13.92,9.032l-0.136,-0l0.136,-0.747c0.068,-0.476 0.135,-0.951 0.135,-1.698l0,-1.969c0,-2.513 -1.358,-3.803 -4.142,-3.803l-6.519,0l0,3.803l4.618,-0c1.018,-0 1.494,0.475 1.494,1.494l-0,25.057l-5.772,-0l-0,3.803Z" style="fill:#fef590;fill-rule:nonzero;"/><path d="M625.231,441.661c0,10.526 7.741,17.86 17.859,17.86c3.871,-0 7.063,-1.087 9.235,-2.377c1.291,-0.747 2.377,-1.494 3.396,-2.377l-2.105,-3.463c-0.815,0.747 -1.766,1.426 -2.852,2.037c-1.834,1.019 -4.346,2.037 -7.538,2.037c-7.062,0 -13.038,-4.957 -13.241,-13.717l26.211,0l0.136,-0.815c0.068,-0.475 0.068,-0.882 0.068,-1.358c-0,-8.488 -4.889,-15.754 -14.328,-15.754c-9.235,0 -16.841,6.723 -16.841,17.927Zm4.957,-3.395c1.087,-6.926 6.044,-10.661 11.748,-10.661c5.025,-0 9.439,3.395 9.643,10.661l-21.391,0Z" style="fill:#fef590;fill-rule:nonzero;"/><path d="M662.647,441.729c0,10.865 8.217,17.792 17.995,17.792c7.877,-0 12.631,-4.618 13.31,-5.297l-1.97,-3.531c-0.475,0.475 -4.617,4.685 -11.204,4.685c-7.334,0 -13.377,-5.296 -13.377,-13.785c-0,-8.284 5.772,-13.717 13.173,-13.717c3.124,0 8.285,1.426 8.285,4.482l-0,2.513l4.278,-0l-0,-3.735c-0,-5.636 -8.285,-7.402 -12.631,-7.402c-9.846,0 -17.859,7.402 -17.859,17.995Z" style="fill:#fef590;fill-rule:nonzero;"/><path d="M704.205,446.279c0,11.408 8.013,12.698 11.952,12.698c0.747,0 1.222,0 1.426,-0.068c0.204,-0.068 0.339,-0.068 0.543,-0.068l0,-4.006c-0.068,0 -0.204,0 -0.407,0.068c-0.204,0.068 -0.544,0.068 -1.155,0.068c-2.648,-0 -7.741,-1.155 -7.741,-9.1l0,-17.519l8.624,-0l0,-3.803l-8.624,0l0,-9.439l-4.55,0l0,9.439l-6.179,0l-0,3.803l6.111,-0l0,17.927Z" style="fill:#fef590;fill-rule:nonzero;"/><path d="M723.083,441.661c0,10.526 7.742,17.86 17.859,17.86c3.871,-0 7.063,-1.087 9.236,-2.377c1.29,-0.747 2.376,-1.494 3.395,-2.377l-2.105,-3.463c-0.815,0.747 -1.766,1.426 -2.852,2.037c-1.834,1.019 -4.346,2.037 -7.538,2.037c-7.062,0 -13.038,-4.957 -13.241,-13.717l26.211,0l0.136,-0.815c0.068,-0.475 0.068,-0.882 0.068,-1.358c0,-8.488 -4.889,-15.754 -14.328,-15.754c-9.235,0 -16.841,6.723 -16.841,17.927Zm4.957,-3.395c1.087,-6.926 6.044,-10.661 11.748,-10.661c5.025,-0 9.439,3.395 9.643,10.661l-21.391,0Z" style="fill:#fef590;fill-rule:nonzero;"/><path d="M760.839,458.706l15.211,-0l-0,-3.803l-5.297,-0l0,-10.661c0,-6.791 3.124,-15.415 10.797,-15.415c0.611,0 1.019,0 1.222,0.068c0.204,0.068 0.34,0.068 0.544,0.068l-0,-4.55l-0.611,-0.136c-0.34,-0.067 -0.815,-0.067 -1.291,-0.067c-5.364,-0 -9.099,3.938 -10.797,9.099l-0.136,-0c0,-0.204 0,-0.475 0.068,-0.747c0.068,-0.475 0.068,-1.087 0.068,-1.833l0,-2.309c0,-2.717 -1.222,-3.871 -4.142,-3.871l-6.451,0l-0,3.803l4.618,-0c1.018,-0 1.494,0.475 1.494,1.494l-0,25.057l-5.297,-0l-0,3.803Z" style="fill:#fef590;fill-rule:nonzero;"/></g><g><path d="M1.449,387.776l17.6,0l0,-4.019l-6.375,0l0,-40.674l6.375,-0l0,-4.019l-17.6,-0l0,4.019l6.375,-0l-0,40.674l-6.375,0l0,4.019Z" style="fill:#fef590;fill-rule:nonzero;"/><path d="M28.958,379.045c-0,6.652 3.257,8.939 7.899,8.939c0.763,-0 1.386,-0 1.871,-0.069l0.832,-0.139l-0,-4.019c-0.139,0 -0.277,0 -0.485,0.069c-0.208,0.07 -0.693,0.07 -1.455,0.07c-3.119,-0 -3.95,-2.356 -3.95,-5.197l-0,-39.635l-10.879,-0l-0,3.88l6.167,0l-0,36.101Z" style="fill:#fef590;fill-rule:nonzero;"/><path d="M62.149,370.384c-0,10.74 7.899,18.224 18.224,18.224c3.949,-0 7.206,-1.109 9.423,-2.426c1.317,-0.762 2.426,-1.524 3.465,-2.425l-2.148,-3.534c-0.831,0.762 -1.802,1.455 -2.91,2.079c-1.871,1.039 -4.435,2.079 -7.692,2.079c-7.206,-0 -13.304,-5.059 -13.512,-13.997l26.747,-0l0.139,-0.832c0.069,-0.485 0.069,-0.901 0.069,-1.386c0,-8.661 -4.989,-16.075 -14.621,-16.075c-9.423,-0 -17.184,6.86 -17.184,18.293Zm5.058,-3.465c1.109,-7.068 6.167,-10.879 11.988,-10.879c5.127,0 9.631,3.465 9.839,10.879l-21.827,0Z" style="fill:#fef590;fill-rule:nonzero;"/><path d="M100.26,380.362c-0,5.266 6.721,8.246 13.165,8.246c7.761,-0 13.166,-3.812 13.166,-9.84c-0,-6.236 -5.96,-8.592 -11.364,-10.463c-4.643,-1.663 -8.8,-3.257 -8.8,-7.068c-0,-3.395 3.464,-5.058 7.345,-5.058c3.672,-0 7.137,1.594 7.137,4.157l-0,2.564l4.296,0l-0,-4.019c-0,-4.781 -6.86,-6.79 -11.572,-6.79c-5.821,-0 -12.057,2.91 -12.057,9.285c0,6.167 5.613,8.315 10.81,10.394c4.989,1.87 9.423,3.256 9.423,7.275c0,3.603 -3.741,5.474 -8.176,5.474c-4.019,0 -9.077,-1.455 -9.077,-5.058l-0,-2.495l-4.296,0l-0,3.396Z" style="fill:#fef590;fill-rule:nonzero;"/><path d="M137.192,375.096c0,11.641 8.177,12.957 12.196,12.957c0.762,0 1.247,0 1.455,-0.069c0.208,-0.069 0.346,-0.069 0.554,-0.069l0,-4.089c-0.069,0 -0.208,0 -0.416,0.07c-0.207,0.069 -0.554,0.069 -1.178,0.069c-2.702,-0 -7.899,-1.178 -7.899,-9.285l0,-17.878l8.8,0l0,-3.88l-8.8,0l0,-9.632l-4.642,0l-0,9.632l-6.306,0l0,3.88l6.236,0l0,18.294Z" style="fill:#fef590;fill-rule:nonzero;"/><path d="M178.005,375.096c0,11.641 8.177,12.957 12.196,12.957c0.762,0 1.247,0 1.455,-0.069c0.208,-0.069 0.346,-0.069 0.554,-0.069l0,-4.089c-0.069,0 -0.208,0 -0.415,0.07c-0.208,0.069 -0.555,0.069 -1.178,0.069c-2.703,-0 -7.9,-1.178 -7.9,-9.285l0,-17.878l8.8,0l0,-3.88l-8.8,0l0,-9.632l-4.642,0l-0,9.632l-6.306,0l0,3.88l6.236,0l0,18.294Z" style="fill:#fef590;fill-rule:nonzero;"/><path d="M197.269,370.384c-0,10.74 7.899,18.224 18.223,18.224c3.95,-0 7.207,-1.109 9.424,-2.426c1.317,-0.762 2.425,-1.524 3.465,-2.425l-2.148,-3.534c-0.832,0.762 -1.802,1.455 -2.911,2.079c-1.87,1.039 -4.434,2.079 -7.691,2.079c-7.206,-0 -13.304,-5.059 -13.512,-13.997l26.747,-0l0.138,-0.832c0.07,-0.485 0.07,-0.901 0.07,-1.386c-0,-8.661 -4.989,-16.075 -14.621,-16.075c-9.424,-0 -17.184,6.86 -17.184,18.293Zm5.058,-3.465c1.109,-7.068 6.167,-10.879 11.987,-10.879c5.128,0 9.632,3.465 9.84,10.879l-21.827,0Z" style="fill:#fef590;fill-rule:nonzero;"/><path d="M235.449,387.776l16.491,0l0,-3.88l-5.89,-0l0,-12.681c0,-7.275 4.781,-14.828 11.919,-14.828c6.652,-0 7.344,5.058 7.344,10.394l0,20.995l10.602,0l0,-3.88l-5.89,-0l0,-12.819c0,-7.207 4.643,-14.69 11.711,-14.69c6.305,-0 7.483,4.712 7.483,10.394l0,20.995l10.602,0l-0,-3.88l-5.89,-0l0,-18.293c0,-8.662 -3.118,-13.512 -11.502,-13.512c-5.959,-0 -10.879,4.296 -12.889,8.869l-0.138,-0c-1.04,-5.89 -4.227,-8.869 -10.602,-8.869c-5.613,-0 -11.156,4.504 -12.958,9.215l-0.138,0l0.138,-0.762c0.07,-0.485 0.139,-0.97 0.139,-1.732l-0,-2.01c-0,-2.563 -1.386,-3.88 -4.227,-3.88l-6.652,0l0,3.88l4.712,0c1.039,0 1.524,0.486 1.524,1.525l0,25.569l-5.889,-0l-0,3.88Z" style="fill:#fef590;fill-rule:nonzero;"/><path d="M303.424,397.754l0,3.88l16.492,0l-0,-3.88l-5.89,0l-0,-13.027c-0,-0.901 -0,-1.663 -0.069,-2.217l-0.139,-0.832l0.139,0c0.692,1.317 1.593,2.426 2.633,3.465c1.871,1.732 4.712,3.465 8.869,3.465c9.077,-0 15.66,-7.138 15.66,-18.224c0,-10.81 -5.751,-18.293 -15.175,-18.293c-4.712,-0 -7.761,1.732 -9.632,3.603c-1.108,1.039 -1.94,2.286 -2.563,3.603l-0.139,-0l0.139,-0.693c0.069,-0.485 0.069,-0.97 0.069,-1.732l-0,-0.277c-0,-2.426 -1.178,-3.673 -4.158,-3.673l-6.582,0l-0,3.88l4.712,0c1.039,0 1.524,0.486 1.524,1.525l-0,39.427l-5.89,0Zm10.533,-27.301c-0,-9.909 5.404,-14.066 11.225,-14.066c6.444,-0 11.087,5.474 11.087,13.997c-0,8.869 -5.128,13.997 -11.295,13.997c-7.137,-0 -11.017,-6.929 -11.017,-13.928Z" style="fill:#fef590;fill-rule:nonzero;"/><path d="M347.563,380.362c0,5.266 6.722,8.246 13.166,8.246c7.76,-0 13.165,-3.812 13.165,-9.84c0,-6.236 -5.959,-8.592 -11.364,-10.463c-4.642,-1.663 -8.8,-3.257 -8.8,-7.068c0,-3.395 3.465,-5.058 7.345,-5.058c3.673,-0 7.137,1.594 7.137,4.157l0,2.564l4.296,0l0,-4.019c0,-4.781 -6.86,-6.79 -11.571,-6.79c-5.821,-0 -12.057,2.91 -12.057,9.285c-0,6.167 5.612,8.315 10.809,10.394c4.989,1.87 9.424,3.256 9.424,7.275c0,3.603 -3.742,5.474 -8.176,5.474c-4.019,0 -9.078,-1.455 -9.078,-5.058l0,-2.495l-4.296,0l0,3.396Z" style="fill:#fef590;fill-rule:nonzero;"/><path d="M397.661,370.384c0,10.74 5.752,18.224 15.106,18.224c4.712,-0 7.692,-1.871 9.632,-3.742c1.178,-1.109 2.009,-2.356 2.633,-3.673l0.138,0l-0.138,0.555c-0.069,0.485 -0.139,0.97 -0.139,1.593l0,0.624c0,2.494 1.178,3.811 4.158,3.811l5.751,0l0,-3.88l-3.88,-0c-1.04,-0 -1.525,-0.485 -1.525,-1.525l0,-43.307l-10.948,-0l0,3.88l6.236,0l0,13.235c0,0.762 0.07,1.455 0.139,1.94c0.069,0.277 0.069,0.554 0.069,0.762l-0.138,0c-0.624,-1.247 -1.525,-2.356 -2.564,-3.395c-1.871,-1.732 -4.643,-3.395 -8.8,-3.395c-9.285,-0 -15.73,7.137 -15.73,18.293Zm4.851,-0c-0,-8.87 5.058,-13.997 11.295,-13.997c7.414,-0 11.017,6.86 11.017,13.997c-0,9.839 -5.474,13.997 -11.295,13.997c-6.513,-0 -11.017,-5.474 -11.017,-13.997Z" style="fill:#fef590;fill-rule:nonzero;"/><path d="M440.138,370.384c-0,10.74 7.899,18.224 18.223,18.224c3.95,-0 7.207,-1.109 9.424,-2.426c1.317,-0.762 2.425,-1.524 3.465,-2.425l-2.148,-3.534c-0.832,0.762 -1.802,1.455 -2.911,2.079c-1.871,1.039 -4.434,2.079 -7.691,2.079c-7.206,-0 -13.304,-5.059 -13.512,-13.997l26.747,-0l0.138,-0.832c0.07,-0.485 0.07,-0.901 0.07,-1.386c-0,-8.661 -4.989,-16.075 -14.621,-16.075c-9.424,-0 -17.184,6.86 -17.184,18.293Zm5.058,-3.465c1.109,-7.068 6.167,-10.879 11.987,-10.879c5.128,0 9.632,3.465 9.84,10.879l-21.827,0Z" style="fill:#fef590;fill-rule:nonzero;"/><path d="M495.641,387.776l19.886,0l0,-6.583l-5.959,0l0,-22.173l7.969,-0l-0,-6.583l-7.969,0l0,-1.802c0,-5.196 4.019,-5.543 5.959,-5.543c0.901,0 1.525,0 2.01,0.069l0.693,0.139l-0,-7.068l-1.04,-0.138c-0.623,-0.07 -1.524,-0.139 -2.563,-0.139c-4.712,0 -13.859,1.524 -13.859,12.888l0,1.594l-5.474,0l0,6.583l5.474,-0l0,22.173l-5.127,0l-0,6.583Z" style="fill:#fef590;fill-rule:nonzero;"/><path d="M521.487,377.867c-0,7.207 5.612,10.741 11.71,10.741c4.157,-0 6.791,-1.663 8.661,-3.396c1.04,-1.039 1.871,-2.148 2.495,-3.395l0.139,-0c-0,0.139 -0,0.277 -0.07,0.485c-0.069,0.346 -0.138,0.762 -0.138,1.317l-0,0.415c-0,2.01 1.247,3.742 4.504,3.742l8.315,0l-0,-6.583l-3.188,0c-1.039,0 -1.524,-0.485 -1.524,-1.524l-0,-14.136c-0,-9.077 -5.059,-13.927 -14.552,-13.927c-4.226,-0 -7.76,1.039 -10.185,2.148c-1.456,0.623 -2.703,1.385 -3.812,2.217l3.257,6.098c0.901,-0.624 1.94,-1.248 3.049,-1.733c1.871,-0.831 4.227,-1.663 6.929,-1.663c3.673,0 6.514,1.594 6.514,6.098l-0,1.178l-2.218,0c-5.682,0 -19.886,1.109 -19.886,11.918Zm8.869,-0.693c-0,-5.335 8.315,-5.889 11.849,-5.889l1.455,-0l-0,1.177c-0,4.435 -3.395,9.563 -8.176,9.563c-3.257,-0 -5.128,-2.148 -5.128,-4.851Z" style="fill:#fef590;fill-rule:nonzero;"/><path d="M566.942,346.409l8.87,-0l-0,-7.83l-8.87,-0l0,7.83Zm-5.058,41.367l18.986,0l-0,-6.583l-5.058,0l-0,-28.756l-14.275,0l0,6.583l5.474,-0l0,22.173l-5.127,0l-0,6.583Z" style="fill:#fef590;fill-rule:nonzero;"/><path d="M586.136,387.776l18.986,0l0,-6.583l-5.058,0l-0,-7.691c-0,-6.652 3.187,-12.888 10.324,-12.888c0.624,-0 1.04,-0 1.525,0.069c0.208,0.069 0.416,0.069 0.623,0.069l0,-8.661c-0.138,-0 -0.277,-0 -0.485,-0.07c-0.277,-0.069 -0.623,-0.069 -1.108,-0.069c-5.474,0 -9.563,4.019 -11.226,9.077l-0.138,0c-0,-0.208 -0,-0.415 0.069,-0.623c0.069,-0.485 0.069,-0.97 0.069,-1.594l0,-2.079c0,-2.841 -1.593,-4.296 -4.712,-4.296l-9.215,0l-0,6.583l3.949,-0c1.04,-0 1.525,0.485 1.525,1.524l-0,20.649l-5.128,0l0,6.583Z" style="fill:#fef590;fill-rule:nonzero;"/><path d="M616.209,370.107c-0,9.978 7.276,18.501 18.986,18.501c4.435,-0 7.969,-1.178 10.463,-2.495c1.455,-0.762 2.772,-1.524 3.811,-2.425l-3.395,-6.236c-0.901,0.692 -1.871,1.316 -2.98,1.87c-1.871,1.04 -4.296,1.871 -7.275,1.871c-5.336,0 -10.048,-3.395 -10.602,-9.839l24.46,-0l0.139,-1.109c0.069,-0.623 0.069,-1.386 0.069,-1.871c-0,-9.354 -5.544,-16.768 -15.729,-16.768c-10.602,-0 -17.947,7.622 -17.947,18.501Zm9.216,-3.95c0.831,-4.712 4.019,-7.761 8.523,-7.761c3.811,0 6.652,2.841 6.86,7.761l-15.383,-0Z" style="fill:#fef590;fill-rule:nonzero;"/><path d="M676.77,375.165c0,9.631 4.573,13.443 11.572,13.443c8.8,-0 12.473,-6.583 12.888,-7.761l0.139,-0l-0,0.485c-0,0.277 -0.069,0.693 -0.069,1.178l-0,1.316c-0,2.495 1.455,3.95 4.573,3.95l8.731,0l-0,-6.513l-3.396,-0c-1.039,-0 -1.524,-0.485 -1.524,-1.525l-0,-27.301l-14.205,0l0,6.583l5.405,-0l-0,9.146c-0,6.375 -3.673,12.612 -9.77,12.612c-4.435,-0 -5.544,-2.911 -5.544,-7.138l0,-21.203l-14.274,0l0,6.583l5.474,-0l0,16.145Z" style="fill:#fef590;fill-rule:nonzero;"/><path d="M719.87,387.776l18.986,0l-0,-6.583l-5.058,0l-0,-9.285c-0,-6.167 3.741,-12.265 10.116,-12.265c4.435,0 5.613,2.841 5.613,7.207l-0,20.926l13.858,0l0,-6.583l-5.127,0l-0,-16.145c-0,-9.424 -4.296,-13.442 -11.849,-13.442c-8.8,-0 -12.681,6.79 -13.027,7.899l-0.139,-0c0,-0.139 0,-0.277 0.07,-0.485c0.069,-0.277 0.069,-0.693 0.069,-1.04l-0,-1.593c-0,-2.495 -1.455,-3.95 -4.573,-3.95l-9.286,0l0,6.583l3.95,-0c1.039,-0 1.525,0.485 1.525,1.524l-0,20.649l-5.128,0l-0,6.583Z" style="fill:#fef590;fill-rule:nonzero;"/><path d="M767.404,370.107c0,9.978 7.276,18.501 18.986,18.501c4.435,-0 7.969,-1.178 10.463,-2.495c1.456,-0.762 2.772,-1.524 3.812,-2.425l-3.396,-6.236c-0.901,0.692 -1.871,1.316 -2.979,1.87c-1.871,1.04 -4.296,1.871 -7.276,1.871c-5.336,0 -10.047,-3.395 -10.602,-9.839l24.46,-0l0.139,-1.109c0.069,-0.623 0.069,-1.386 0.069,-1.871c0,-9.354 -5.543,-16.768 -15.729,-16.768c-10.602,-0 -17.947,7.622 -17.947,18.501Zm9.216,-3.95c0.832,-4.712 4.019,-7.761 8.523,-7.761c3.811,0 6.652,2.841 6.86,7.761l-15.383,-0Z" style="fill:#fef590;fill-rule:nonzero;"/><path d="M823.323,395.052l0,6.582l19.055,0l0,-6.582l-5.127,-0l-0,-8.385c-0,-0.9 -0,-1.663 -0.07,-2.217l-0.138,-0.831l0.138,-0c0.693,0.9 1.525,1.732 2.495,2.494c1.663,1.317 4.158,2.495 7.691,2.495c9.286,-0 16.146,-7.276 16.146,-18.501c-0,-10.949 -6.098,-18.501 -15.661,-18.501c-4.157,-0 -6.929,1.385 -8.8,2.979c-1.039,0.901 -1.94,1.871 -2.563,2.98l-0.139,-0c0.069,-0.139 0.069,-0.277 0.069,-0.485l0,-1.317c0,-1.871 -1.108,-3.326 -4.365,-3.326l-9.077,0l-0,6.583l3.949,-0c1.04,-0 1.525,0.485 1.525,1.524l-0,34.508l-5.128,-0Zm13.651,-24.738c-0,-7.76 4.226,-11.156 8.869,-11.156c5.266,0 8.8,4.366 8.8,11.087c0,6.999 -4.019,10.948 -8.869,10.948c-5.821,0 -8.8,-5.404 -8.8,-10.879Z" style="fill:#fef590;fill-rule:nonzero;"/><path d="M867.947,377.867c0,7.207 5.613,10.741 11.711,10.741c4.157,-0 6.79,-1.663 8.661,-3.396c1.039,-1.039 1.871,-2.148 2.495,-3.395l0.138,-0c0,0.139 0,0.277 -0.069,0.485c-0.069,0.346 -0.139,0.762 -0.139,1.317l0,0.415c0,2.01 1.248,3.742 4.504,3.742l8.315,0l0,-6.583l-3.187,0c-1.039,0 -1.525,-0.485 -1.525,-1.524l0,-14.136c0,-9.077 -5.058,-13.927 -14.551,-13.927c-4.227,-0 -7.761,1.039 -10.186,2.148c-1.455,0.623 -2.702,1.385 -3.811,2.217l3.257,6.098c0.901,-0.624 1.94,-1.248 3.049,-1.733c1.871,-0.831 4.227,-1.663 6.929,-1.663c3.672,0 6.513,1.594 6.513,6.098l0,1.178l-2.217,0c-5.682,0 -19.887,1.109 -19.887,11.918Zm8.87,-0.693c-0,-5.335 8.315,-5.889 11.849,-5.889l1.455,-0l-0,1.177c-0,4.435 -3.396,9.563 -8.177,9.563c-3.257,-0 -5.127,-2.148 -5.127,-4.851Z" style="fill:#fef590;fill-rule:nonzero;"/><path d="M911.671,375.165c-0,9.631 4.573,13.443 11.571,13.443c8.8,-0 12.473,-6.583 12.889,-7.761l0.138,-0l0,0.485c0,0.277 -0.069,0.693 -0.069,1.178l-0,1.316c-0,2.495 1.455,3.95 4.573,3.95l8.731,0l0,-6.513l-3.395,-0c-1.04,-0 -1.525,-0.485 -1.525,-1.525l0,-27.301l-14.205,0l0,6.583l5.405,-0l0,9.146c0,6.375 -3.672,12.612 -9.77,12.612c-4.435,-0 -5.543,-2.911 -5.543,-7.138l-0,-21.203l-14.275,0l0,6.583l5.475,-0l-0,16.145Z" style="fill:#fef590;fill-rule:nonzero;"/><path d="M954.008,380.085c0,5.751 7.969,8.523 14.344,8.523c8.107,-0 14.897,-3.534 14.897,-10.741c0,-6.929 -6.375,-9.216 -11.779,-10.879c-3.95,-1.108 -7.415,-2.356 -7.415,-5.266c0,-2.217 2.356,-3.187 5.128,-3.187c3.118,-0 5.197,1.039 5.197,2.91l-0,2.01l7.553,-0l-0,-4.504c-0,-5.336 -7.622,-7.345 -12.75,-7.345c-6.375,-0 -13.928,2.633 -13.928,10.116c0,6.791 6.029,9.077 11.156,10.948c4.712,1.663 8.038,2.564 8.038,5.474c0,2.426 -2.494,3.604 -6.028,3.604c-3.673,-0 -6.929,-1.248 -6.929,-3.673l-0,-2.079l-7.484,0l0,4.089Z" style="fill:#fef590;fill-rule:nonzero;"/><path d="M988.169,370.107c0,9.978 7.276,18.501 18.986,18.501c4.435,-0 7.969,-1.178 10.463,-2.495c1.455,-0.762 2.772,-1.524 3.811,-2.425l-3.395,-6.236c-0.901,0.692 -1.871,1.316 -2.98,1.87c-1.87,1.04 -4.296,1.871 -7.275,1.871c-5.336,0 -10.048,-3.395 -10.602,-9.839l24.46,-0l0.139,-1.109c0.069,-0.623 0.069,-1.386 0.069,-1.871c0,-9.354 -5.543,-16.768 -15.729,-16.768c-10.602,-0 -17.947,7.622 -17.947,18.501Zm9.216,-3.95c0.831,-4.712 4.019,-7.761 8.523,-7.761c3.811,0 6.652,2.841 6.86,7.761l-15.383,-0Z" style="fill:#fef590;fill-rule:nonzero;"/></g><g><path d="M592.026,269.092c0,29.909 22.897,53.092 54.237,53.092c14.168,0 41.787,-4.579 41.787,-20.178l0,-16.457l-22.897,0l0,7.871c0,6.153 -12.45,7.298 -17.029,7.298c-17.03,0 -29.623,-11.878 -29.623,-33.057c-0,-18.89 11.591,-29.766 28.192,-29.766c6.869,-0 17.315,1.574 17.315,7.298l0,7.871l22.897,0l0,-16.171c0,-16.6 -28.907,-20.464 -41.357,-20.464c-29.909,0 -53.522,22.181 -53.522,52.663Z" style="fill:#fef590;fill-rule:nonzero;"/><path d="M699.785,320.467l44.792,-0l-0,-17.888l-10.018,-0l0,-10.733c0,-13.595 6.583,-22.182 20.321,-22.182c1.575,0 2.576,0 3.578,0.143l1.431,0.287l0,-24.328c-0.143,-0 -0.429,-0 -0.859,-0.143c-0.429,-0.144 -1.001,-0.144 -2.003,-0.144c-11.019,0 -20.321,8.301 -23.469,18.318l-0.287,-0c0,-0.286 0,-0.572 0.144,-1.002c0.143,-0.429 0.143,-1.431 0.143,-2.719l-0,-3.864c-0,-6.726 -3.721,-9.445 -10.447,-9.445l-23.326,0l-0,17.889l6.869,-0c2.146,-0 3.148,1.001 3.148,3.148l0,34.775l-10.017,-0l-0,17.888Z" style="fill:#fef590;fill-rule:nonzero;"/><path d="M765.9,283.546c-0,19.605 14.167,38.638 40.498,38.638c10.161,0 17.745,-2.433 23.327,-5.152c3.148,-1.574 6.01,-3.291 8.443,-5.152l-9.016,-17.172c-1.86,1.288 -4.007,2.433 -6.297,3.434c-3.863,1.718 -8.872,3.578 -14.453,3.578c-8.014,-0 -15.312,-4.007 -17.173,-13.595l46.796,-0l0.286,-2.862c0.143,-1.574 0.286,-3.435 0.286,-4.58c0,-20.464 -12.307,-35.633 -34.345,-35.633c-23.756,0 -38.352,16.887 -38.352,38.496Zm25.902,-9.016c1.288,-5.724 4.579,-10.876 11.877,-10.876c5.581,-0 9.302,5.009 9.302,10.876l-21.179,-0Zm-0.716,-34.918l20.321,0l21.609,-21.466l-25.33,0l-16.6,21.466Z" style="fill:#fef590;fill-rule:nonzero;"/><path d="M846.325,283.546c-0,19.605 14.167,38.638 40.499,38.638c10.16,0 17.745,-2.433 23.326,-5.152c3.148,-1.574 6.01,-3.291 8.443,-5.152l-9.016,-17.172c-1.86,1.288 -4.007,2.433 -6.296,3.434c-3.864,1.718 -8.873,3.578 -14.454,3.578c-8.014,-0 -15.312,-4.007 -17.173,-13.595l46.796,-0l0.286,-2.862c0.143,-1.574 0.286,-3.435 0.286,-4.58c0,-20.464 -12.307,-35.633 -34.345,-35.633c-23.755,0 -38.352,16.887 -38.352,38.496Zm25.902,-9.016c1.288,-5.724 4.579,-10.876 11.878,-10.876c5.581,-0 9.301,5.009 9.301,10.876l-21.179,-0Z" style="fill:#fef590;fill-rule:nonzero;"/><path d="M928.754,320.467l44.792,-0l-0,-17.888l-10.018,-0l0,-10.733c0,-13.595 6.583,-22.182 20.321,-22.182c1.574,0 2.576,0 3.578,0.143l1.431,0.287l-0,-24.328c-0.143,-0 -0.429,-0 -0.859,-0.143c-0.429,-0.144 -1.002,-0.144 -2.003,-0.144c-11.019,0 -20.321,8.301 -23.47,18.318l-0.286,-0c0,-0.286 0,-0.572 0.143,-1.002c0.143,-0.429 0.143,-1.431 0.143,-2.719l0,-3.864c0,-6.726 -3.72,-9.445 -10.446,-9.445l-23.326,0l-0,17.889l6.869,-0c2.146,-0 3.148,1.001 3.148,3.148l-0,34.775l-10.017,-0l-0,17.888Z" style="fill:#fef590;fill-rule:nonzero;"/><rect x="998.732" y="296.997" width="23.469" height="23.469" style="fill:#fef590;fill-rule:nonzero;"/></g><g><path d="M34.38,203.333l11.038,0l17.323,-18.243l-13.337,0l-15.024,18.243Zm-33.42,115.283l78.951,0l-0,-23.148l-9.658,-0l-0,13.95l-44.458,0l0,-40.472l40.779,0l-0,-9.198l-40.779,0l0,-39.705l41.545,-0l0,13.184l9.811,-0l0,-22.382l-76.191,-0l0,8.891l14.104,0l0,89.989l-14.104,-0l0,8.891Z" style="fill:#fef590;fill-rule:nonzero;"/><path d="M95.701,280.291c0,24.528 18.55,40.165 40.625,40.165c17.783,0 28.514,-10.425 30.047,-11.958l-4.445,-7.971c-1.073,1.073 -10.425,10.578 -25.295,10.578c-16.557,-0 -30.201,-11.958 -30.201,-31.121c0,-18.703 13.031,-30.967 29.741,-30.967c7.052,0 18.703,3.219 18.703,10.118l-0,5.672l9.658,0l-0,-8.431c-0,-12.724 -18.703,-16.71 -28.514,-16.71c-22.229,-0 -40.319,16.71 -40.319,40.625Z" style="fill:#fef590;fill-rule:nonzero;"/><path d="M179.864,279.678c0,23.302 18.243,40.778 40.625,40.778c22.536,0 40.779,-17.476 40.779,-40.778c-0,-22.689 -18.243,-40.012 -40.779,-40.012c-22.382,-0 -40.625,17.323 -40.625,40.012Zm10.731,-0c0,-17.63 13.491,-30.661 29.894,-30.661c16.557,0 30.047,13.031 30.047,30.661c0,17.936 -13.49,31.427 -30.047,31.427c-16.403,-0 -29.894,-13.491 -29.894,-31.427Z" style="fill:#fef590;fill-rule:nonzero;"/><path d="M284.569,290.562c0,20.236 7.359,29.894 25.295,29.894c19.163,0 28.515,-14.104 30.508,-19.776l0.306,0l0,1.533c0,1.073 -0.153,2.3 -0.153,3.986l-0,3.832c-0,5.979 2.606,8.585 9.198,8.585l13.031,0l-0,-8.431l-8.739,-0c-2.299,-0 -3.372,-1.073 -3.372,-3.373l-0,-65.307l-24.222,0l0,8.585l13.797,0l0,28.055c0,16.71 -11.038,32.653 -28.361,32.653c-15.023,-0 -16.863,-10.578 -16.863,-22.842l0,-46.451l-24.222,0l0,8.585l13.797,0l0,40.472Z" style="fill:#fef590;fill-rule:nonzero;"/><path d="M383.756,290.562c0,25.755 18.09,28.668 26.981,28.668c1.687,-0 2.76,-0 3.22,-0.154c0.46,-0.153 0.766,-0.153 1.226,-0.153l0,-9.045c-0.153,0 -0.46,0 -0.92,0.153c-0.46,0.154 -1.226,0.154 -2.606,0.154c-5.979,-0 -17.476,-2.606 -17.476,-20.543l-0,-39.552l19.469,0l0,-8.585l-19.469,0l-0,-21.309l-10.272,0l0,21.309l-13.95,0l-0,8.585l13.797,0l0,40.472Z" style="fill:#fef590;fill-rule:nonzero;"/><path d="M426.374,280.137c0,23.762 17.477,40.319 40.319,40.319c8.738,0 15.943,-2.453 20.849,-5.366c2.913,-1.686 5.365,-3.372 7.665,-5.365l-4.752,-7.819c-1.84,1.687 -3.986,3.22 -6.439,4.599c-4.139,2.3 -9.812,4.6 -17.017,4.6c-15.943,-0 -29.434,-11.192 -29.894,-30.968l59.175,0l0.307,-1.839c0.153,-1.073 0.153,-1.993 0.153,-3.066c-0,-19.163 -11.038,-35.566 -32.347,-35.566c-20.849,-0 -38.019,15.177 -38.019,40.471Zm11.191,-7.665c2.453,-15.636 13.644,-24.068 26.522,-24.068c11.344,-0 21.309,7.665 21.768,24.068l-48.29,0Z" style="fill:#fef590;fill-rule:nonzero;"/><path d="M511.61,318.616l34.34,0l-0,-8.585l-11.958,0l0,-24.068c0,-15.33 7.052,-34.8 24.375,-34.8c1.38,0 2.3,0 2.76,0.154c0.46,0.153 0.766,0.153 1.226,0.153l0,-10.271l-1.379,-0.307c-0.767,-0.153 -1.84,-0.153 -2.913,-0.153c-12.111,-0 -20.543,8.891 -24.375,20.542l-0.307,0c0,-0.46 0,-1.073 0.153,-1.686c0.154,-1.073 0.154,-2.453 0.154,-4.139l-0,-5.212c-0,-6.133 -2.76,-8.739 -9.352,-8.739l-14.563,0l-0,8.585l10.424,0c2.3,0 3.373,1.073 3.373,3.373l-0,56.568l-11.958,0l0,8.585Z" style="fill:#fef590;fill-rule:nonzero;"/><rect x="577.377" y="305.892" width="12.417" height="12.724" style="fill:#fef590;fill-rule:nonzero;"/></g><g><path d="M1.342,171.561l66.437,0l-0,-18.844l-21.018,0l-0,-50.008l20.293,-0c10.388,-0 13.529,2.174 17.878,9.422l26.333,46.626c5.798,10.147 9.18,12.804 23.675,12.804l14.496,0l-0,-18.844l-5.074,0c-6.039,0 -9.18,-0.966 -11.837,-5.556l-24.159,-42.037c-2.899,-5.556 -7.248,-7.972 -7.248,-7.972l0,-0.483c21.743,-5.557 35.272,-23.193 35.272,-47.835c-0,-23.192 -11.838,-38.17 -29.715,-44.21c-9.422,-3.141 -19.327,-3.624 -31.407,-3.624l-73.926,0l0,18.602l21.26,0l-0,133.115l-21.26,0l0,18.844Zm45.419,-88.663l-0,-62.088l28.266,0c8.214,0 15.461,0.967 21.018,3.141c10.63,4.348 15.945,13.529 15.945,26.816c-0,20.052 -12.321,32.131 -30.924,32.131l-34.305,0Z" style="fill:#fef590;fill-rule:nonzero;"/><path d="M165.38,110.439c0,36.239 26.334,64.021 64.746,64.021c29.232,0 47.593,-16.911 47.593,-16.911l-9.664,-17.153c0,0 -15.22,13.771 -36.479,13.771c-21.743,-0 -40.829,-14.495 -42.278,-41.553l89.387,-0c0,-0 0.725,-5.798 0.725,-8.939c0,-31.648 -18.119,-57.256 -52.908,-57.256c-34.788,-0 -61.122,25.125 -61.122,64.02Zm24.884,-12.804c3.382,-20.535 17.878,-32.614 35.755,-32.614c15.462,-0 28.507,11.113 29.232,32.614l-64.987,0Z" style="fill:#fef590;fill-rule:nonzero;"/><path d="M299.22,145.228c0,19.327 25.609,29.232 47.835,29.232c27.782,0 49.042,-12.804 49.042,-35.996c0,-22.71 -21.501,-30.682 -40.345,-36.963c-14.737,-5.074 -28.266,-9.905 -28.266,-21.502c0,-9.905 10.147,-14.737 21.743,-14.737c11.838,0 21.501,5.074 21.501,12.563l0,7.972l20.535,0l0,-14.736c0,-17.878 -25.125,-24.642 -42.278,-24.642c-21.259,-0 -45.177,9.663 -45.177,33.822c0,22.226 20.052,30.44 38.171,37.204c16.912,6.04 30.44,9.906 30.44,22.227c0,10.146 -10.871,15.703 -24.642,15.703c-13.528,-0 -28.024,-4.832 -28.024,-15.22l0,-7.973l-20.535,0l0,13.046Z" style="fill:#fef590;fill-rule:nonzero;"/><path d="M413.975,201.76l-0,18.119l61.846,-0l0,-18.119l-19.327,-0l0,-37.446c0,-6.282 -0.725,-10.63 -0.725,-10.63l0.484,-0c-0,-0 11.113,20.776 37.929,20.776c31.889,0 55.324,-25.125 55.324,-64.021c-0,-37.929 -20.777,-64.02 -53.633,-64.02c-30.923,-0 -41.07,22.95 -41.07,22.95l-0.483,0c-0,0 0.483,-3.14 0.483,-7.006l0,-0.966c0,-7.248 -4.107,-12.079 -14.978,-12.079l-27.058,-0l-0,18.119l14.978,-0c3.382,-0 5.315,1.691 5.315,5.315l0,129.008l-19.085,-0Zm42.036,-90.837c-0,-31.165 16.911,-43.969 35.03,-43.969c20.535,-0 34.789,17.152 34.789,43.727c-0,27.783 -15.945,43.486 -35.272,43.486c-22.709,-0 -34.547,-21.502 -34.547,-43.244Z" style="fill:#fef590;fill-rule:nonzero;"/><path d="M589.851,24.917l24.642,0l-0,-23.917l-24.642,0l-0,23.917Zm-18.603,146.644l61.847,0l-0,-18.119l-19.327,0l-0,-104.124l-43.727,-0l-0,18.119l20.293,-0l-0,86.005l-19.086,0l0,18.119Z" style="fill:#fef590;fill-rule:nonzero;"/><path d="M652.905,171.561l59.914,0l0,-18.119l-18.119,0l-0,-32.373c-0,-23.917 11.113,-50.25 37.205,-50.25c3.865,-0 6.764,0.725 6.764,0.725l-0,-23.193c-0,0 -2.899,-0.483 -6.04,-0.483c-18.844,0 -33.097,14.012 -38.654,31.89l-0.483,-0c0,-0 0.483,-3.624 0.483,-8.456l0,-7.731c0,-9.905 -5.073,-14.253 -15.703,-14.253l-27.541,-0l-0,18.119l15.22,-0c3.382,-0 5.315,1.691 5.315,5.315l-0,80.69l-18.361,0l0,18.119Z" style="fill:#fef590;fill-rule:nonzero;"/><path d="M752.923,110.439c-0,36.239 26.333,64.021 64.745,64.021c29.232,0 47.593,-16.911 47.593,-16.911l-9.663,-17.153c-0,0 -15.22,13.771 -36.48,13.771c-21.743,-0 -40.829,-14.495 -42.278,-41.553l89.387,-0c0,-0 0.725,-5.798 0.725,-8.939c0,-31.648 -18.119,-57.256 -52.908,-57.256c-34.788,-0 -61.121,25.125 -61.121,64.02Zm24.883,-12.804c3.382,-20.535 17.878,-32.614 35.755,-32.614c15.462,-0 28.508,11.113 29.232,32.614l-64.987,0Z" style="fill:#fef590;fill-rule:nonzero;"/><path d="M889.178,171.561l59.914,0l0,-18.119l-18.119,0l0,-32.373c0,-23.917 11.113,-50.25 37.205,-50.25c3.865,-0 6.764,0.725 6.764,0.725l0,-23.193c0,0 -2.899,-0.483 -6.04,-0.483c-18.843,0 -33.097,14.012 -38.654,31.89l-0.483,-0c0,-0 0.483,-3.624 0.483,-8.456l0,-7.731c0,-9.905 -5.073,-14.253 -15.703,-14.253l-27.541,-0l0,18.119l15.22,-0c3.382,-0 5.315,1.691 5.315,5.315l0,80.69l-18.361,0l0,18.119Z" style="fill:#fef590;fill-rule:nonzero;"/><rect x="997.651" y="146.194" width="25.125" height="25.367" style="fill:#fef590;fill-rule:nonzero;"/></g></svg>