<?xml version="1.0" encoding="UTF-8" standalone="no"?>
<!DOCTYPE svg PUBLIC "-//W3C//DTD SVG 1.1//EN" "http://www.w3.org/Graphics/SVG/1.1/DTD/svg11.dtd">
<svg width="100%" height="100%" viewBox="0 0 1024 600" version="1.1" xmlns="http://www.w3.org/2000/svg" xmlns:xlink="http://www.w3.org/1999/xlink" xml:space="preserve" xmlns:serif="http://www.serif.com/" style="fill-rule:evenodd;clip-rule:evenodd;stroke-linejoin:round;stroke-miterlimit:2;">
    <g transform="matrix(1.32404,0,0,0.727673,-154.919,-40.3322)">
        <path d="M118.019,291.193L168.196,291.193L168.196,265.297L152.322,265.297L152.322,196.573L167.649,196.573C175.494,196.573 177.866,199.561 181.151,209.521L201.039,273.597C205.418,287.541 207.973,291.193 218.921,291.193L229.868,291.193L229.868,265.297L226.037,265.297C221.475,265.297 219.103,263.969 217.096,257.661L198.85,199.893C196.66,192.257 193.376,188.937 193.376,188.937L193.376,188.273C209.798,180.637 220.015,156.401 220.015,122.537C220.015,90.665 211.075,70.081 197.572,61.781C190.456,57.465 182.975,56.801 173.852,56.801L118.019,56.801L118.019,82.365L134.075,82.365L134.075,265.297L118.019,265.297L118.019,291.193ZM152.322,169.349L152.322,84.025L173.67,84.025C179.874,84.025 185.347,85.353 189.544,88.341C197.572,94.317 201.587,106.933 201.587,125.193C201.587,152.749 192.281,169.349 178.231,169.349L152.322,169.349Z" style="fill:rgb(254,245,144);fill-rule:nonzero;"/>
        <path d="M241.911,207.197C241.911,256.997 261.8,295.177 290.811,295.177C312.889,295.177 326.756,271.937 326.756,271.937L319.458,248.365C319.458,248.365 307.963,267.289 291.906,267.289C275.484,267.289 261.07,247.369 259.975,210.185L327.486,210.185C327.486,210.185 328.034,202.217 328.034,197.901C328.034,154.409 314.349,119.217 288.074,119.217C261.8,119.217 241.911,153.745 241.911,207.197ZM260.705,189.601C263.259,161.381 274.207,144.781 287.709,144.781C299.387,144.781 309.24,160.053 309.787,189.601L260.705,189.601Z" style="fill:rgb(254,245,144);fill-rule:nonzero;"/>
        <path d="M342.996,255.005C342.996,281.565 362.337,295.177 379.123,295.177C400.107,295.177 416.163,277.581 416.163,245.709C416.163,214.501 399.924,203.545 385.692,194.913C374.562,187.941 364.344,181.301 364.344,165.365C364.344,151.753 372.007,145.113 380.765,145.113C389.706,145.113 397.005,152.085 397.005,162.377L397.005,173.333L412.514,173.333L412.514,153.081C412.514,128.513 393.538,119.217 380.583,119.217C364.526,119.217 346.462,132.497 346.462,165.697C346.462,196.241 361.607,207.529 375.292,216.825C388.064,225.125 398.282,230.437 398.282,247.369C398.282,261.313 390.071,268.949 379.671,268.949C369.453,268.949 358.505,262.309 358.505,248.033L358.505,237.077L342.996,237.077L342.996,255.005Z" style="fill:rgb(254,245,144);fill-rule:nonzero;"/>
        <path d="M429.666,332.693L429.666,357.593L476.376,357.593L476.376,332.693L461.779,332.693L461.779,281.233C461.779,272.601 461.232,266.625 461.232,266.625L461.597,266.625C461.597,266.625 469.99,295.177 490.243,295.177C514.328,295.177 532.027,260.649 532.027,207.197C532.027,155.073 516.336,119.217 491.521,119.217C468.165,119.217 460.502,150.757 460.502,150.757L460.137,150.757C460.137,150.757 460.502,146.441 460.502,141.129L460.502,139.801C460.502,129.841 457.4,123.201 449.189,123.201L428.753,123.201L428.753,148.101L440.066,148.101C442.62,148.101 444.08,150.425 444.08,155.405L444.08,332.693L429.666,332.693ZM461.414,207.861C461.414,165.033 474.187,147.437 487.871,147.437C503.381,147.437 514.146,171.009 514.146,207.529C514.146,245.709 502.103,267.289 487.506,267.289C470.355,267.289 461.414,237.741 461.414,207.861Z" style="fill:rgb(254,245,144);fill-rule:nonzero;"/>
        <path d="M562.499,89.669L581.11,89.669L581.11,56.801L562.499,56.801L562.499,89.669ZM548.449,291.193L595.16,291.193L595.16,266.293L580.563,266.293L580.563,123.201L547.537,123.201L547.537,148.101L562.864,148.101L562.864,266.293L548.449,266.293L548.449,291.193Z" style="fill:rgb(254,245,144);fill-rule:nonzero;"/>
        <path d="M610.122,291.193L655.372,291.193L655.372,266.293L641.688,266.293L641.688,221.805C641.688,188.937 650.081,152.749 669.787,152.749C672.706,152.749 674.896,153.745 674.896,153.745L674.896,121.873C674.896,121.873 672.706,121.209 670.334,121.209C656.102,121.209 645.337,140.465 641.14,165.033L640.775,165.033C640.775,165.033 641.14,160.053 641.14,153.413L641.14,142.789C641.14,129.177 637.309,123.201 629.28,123.201L608.479,123.201L608.479,148.101L619.975,148.101C622.529,148.101 623.989,150.425 623.989,155.405L623.989,266.293L610.122,266.293L610.122,291.193Z" style="fill:rgb(254,245,144);fill-rule:nonzero;"/>
        <path d="M685.661,207.197C685.661,256.997 705.55,295.177 734.561,295.177C756.639,295.177 770.507,271.937 770.507,271.937L763.208,248.365C763.208,248.365 751.713,267.289 735.656,267.289C719.234,267.289 704.82,247.369 703.725,210.185L771.236,210.185C771.236,210.185 771.784,202.217 771.784,197.901C771.784,154.409 758.099,119.217 731.824,119.217C705.55,119.217 685.661,153.745 685.661,207.197ZM704.455,189.601C707.009,161.381 717.957,144.781 731.459,144.781C743.137,144.781 752.99,160.053 753.538,189.601L704.455,189.601Z" style="fill:rgb(254,245,144);fill-rule:nonzero;"/>
        <path d="M788.57,291.193L833.821,291.193L833.821,266.293L820.137,266.293L820.137,221.805C820.137,188.937 828.53,152.749 848.236,152.749C851.155,152.749 853.345,153.745 853.345,153.745L853.345,121.873C853.345,121.873 851.155,121.209 848.783,121.209C834.551,121.209 823.786,140.465 819.589,165.033L819.224,165.033C819.224,165.033 819.589,160.053 819.589,153.413L819.589,142.789C819.589,129.177 815.757,123.201 807.729,123.201L786.928,123.201L786.928,148.101L798.423,148.101C800.978,148.101 802.438,150.425 802.438,155.405L802.438,266.293L788.57,266.293L788.57,291.193Z" style="fill:rgb(254,245,144);fill-rule:nonzero;"/>
        <rect x="870.496" y="256.333" width="18.976" height="34.86" style="fill:rgb(254,245,144);fill-rule:nonzero;"/>
    </g>
    <g transform="matrix(0.802793,0,0,0.478717,-94.3305,183.495)">
        <path d="M160.486,41.05L174.288,41.05L195.948,2.797L179.272,2.797L160.486,41.05ZM118.699,282.78L217.417,282.78L217.417,234.241L205.341,234.241L205.341,263.493L149.752,263.493L149.752,178.63L200.74,178.63L200.74,159.343L149.752,159.343L149.752,76.088L201.699,76.088L201.699,103.732L213.967,103.732L213.967,56.801L118.699,56.801L118.699,75.445L136.334,75.445L136.334,264.136L118.699,264.136L118.699,282.78Z" style="fill:rgb(254,245,144);fill-rule:nonzero;"/>
        <path d="M237.16,202.417C237.16,253.849 260.354,286.637 287.957,286.637C310.192,286.637 323.61,264.779 325.527,261.564L319.968,244.849C318.627,247.099 306.934,267.029 288.34,267.029C267.638,267.029 250.578,241.956 250.578,201.774C250.578,162.558 266.872,136.842 287.765,136.842C296.583,136.842 311.151,143.592 311.151,158.057L311.151,169.951L323.227,169.951L323.227,152.271C323.227,125.591 299.841,117.233 287.574,117.233C259.779,117.233 237.16,152.271 237.16,202.417Z" style="fill:rgb(254,245,144);fill-rule:nonzero;"/>
        <path d="M342.396,201.132C342.396,249.992 365.206,286.637 393.192,286.637C421.37,286.637 444.18,249.992 444.18,201.132C444.18,153.557 421.37,117.233 393.192,117.233C365.206,117.233 342.396,153.557 342.396,201.132ZM355.814,201.132C355.814,164.165 372.682,136.842 393.192,136.842C413.894,136.842 430.762,164.165 430.762,201.132C430.762,238.741 413.894,267.029 393.192,267.029C372.682,267.029 355.814,238.741 355.814,201.132Z" style="fill:rgb(254,245,144);fill-rule:nonzero;"/>
        <path d="M473.317,223.954C473.317,266.386 482.517,286.637 504.945,286.637C528.905,286.637 540.598,257.064 543.09,245.17L543.473,245.17L543.473,248.385C543.473,250.635 543.282,253.206 543.282,256.742L543.282,264.779C543.282,277.315 546.54,282.78 554.783,282.78L571.076,282.78L571.076,265.1L560.15,265.1C557.275,265.1 555.933,262.85 555.933,258.028L555.933,121.091L525.647,121.091L525.647,139.092L542.898,139.092L542.898,197.917C542.898,232.955 529.097,266.386 507.436,266.386C488.651,266.386 486.351,244.206 486.351,218.49L486.351,121.091L456.065,121.091L456.065,139.092L473.317,139.092L473.317,223.954Z" style="fill:rgb(254,245,144);fill-rule:nonzero;"/>
        <path d="M597.337,223.954C597.337,277.958 619.956,284.066 631.073,284.066C633.182,284.066 634.524,284.066 635.099,283.744C635.674,283.423 636.057,283.423 636.632,283.423L636.632,264.457C636.441,264.457 636.057,264.457 635.482,264.779C634.907,265.1 633.949,265.1 632.223,265.1C624.748,265.1 610.371,259.635 610.371,222.026L610.371,139.092L634.715,139.092L634.715,121.091L610.371,121.091L610.371,76.409L597.528,76.409L597.528,121.091L580.085,121.091L580.085,139.092L597.337,139.092L597.337,223.954Z" style="fill:rgb(254,245,144);fill-rule:nonzero;"/>
        <path d="M650.625,202.096C650.625,251.921 672.477,286.637 701.038,286.637C711.964,286.637 720.974,281.494 727.108,275.386C730.75,271.85 733.817,268.315 736.692,264.136L730.75,247.742C728.449,251.278 725.766,254.492 722.699,257.385C717.523,262.207 710.431,267.029 701.422,267.029C681.487,267.029 664.618,243.563 664.043,202.096L738.034,202.096L738.417,198.238C738.609,195.988 738.609,194.06 738.609,191.809C738.609,151.628 724.807,117.233 698.163,117.233C672.094,117.233 650.625,149.057 650.625,202.096ZM664.618,186.023C667.685,153.235 681.678,135.556 697.78,135.556C711.964,135.556 724.424,151.628 724.999,186.023L664.618,186.023Z" style="fill:rgb(254,245,144);fill-rule:nonzero;"/>
        <path d="M757.202,282.78L800.14,282.78L800.14,264.779L785.188,264.779L785.188,214.311C785.188,182.166 794.006,141.342 815.666,141.342C817.391,141.342 818.541,141.342 819.116,141.663C819.692,141.985 820.075,141.985 820.65,141.985L820.65,120.448L818.925,119.805C817.966,119.483 816.625,119.483 815.283,119.483C800.14,119.483 789.597,138.127 784.805,162.558L784.421,162.558C784.421,161.593 784.421,160.307 784.613,159.022C784.805,156.771 784.805,153.878 784.805,150.342L784.805,139.413C784.805,126.555 781.355,121.091 773.112,121.091L754.902,121.091L754.902,139.092L767.937,139.092C770.812,139.092 772.154,141.342 772.154,146.164L772.154,264.779L757.202,264.779L757.202,282.78Z" style="fill:rgb(254,245,144);fill-rule:nonzero;"/>
        <rect x="839.435" y="256.099" width="15.526" height="26.68" style="fill:rgb(254,245,144);fill-rule:nonzero;"/>
    </g>
    <g transform="matrix(1.44359,0,0,1.44359,-4.97352,-34.4253)">
        <g transform="matrix(0.965701,0,0,0.735106,-102.775,216.633)">
            <path d="M111.032,103.161L123.657,103.161L123.657,99.374L119.084,99.374L119.084,61.045L123.657,61.045L123.657,57.258L111.032,57.258L111.032,61.045L115.605,61.045L115.605,99.374L111.032,99.374L111.032,103.161Z" style="fill:rgb(254,245,144);fill-rule:nonzero;"/>
        </g>
        <g transform="matrix(0.965701,0,0,0.735106,-102.775,216.633)">
            <path d="M130.765,94.934C130.765,101.202 133.101,103.357 136.431,103.357C136.978,103.357 137.425,103.357 137.773,103.292L138.37,103.161L138.37,99.374C138.27,99.374 138.171,99.374 138.022,99.439C137.873,99.505 137.525,99.505 136.978,99.505C134.741,99.505 134.145,97.285 134.145,94.607L134.145,57.258L126.341,57.258L126.341,60.914L130.765,60.914L130.765,94.934Z" style="fill:rgb(254,245,144);fill-rule:nonzero;"/>
        </g>
        <g transform="matrix(0.965701,0,0,0.735106,-102.775,216.633)">
            <path d="M154.574,86.772C154.574,96.893 160.24,103.945 167.646,103.945C170.479,103.945 172.815,102.9 174.406,101.659C175.35,100.941 176.145,100.223 176.891,99.374L175.35,96.044C174.754,96.762 174.058,97.415 173.263,98.003C171.921,98.982 170.081,99.962 167.745,99.962C162.576,99.962 158.202,95.195 158.053,86.772L177.239,86.772L177.338,85.988C177.388,85.531 177.388,85.139 177.388,84.682C177.388,76.52 173.809,69.533 166.9,69.533C160.14,69.533 154.574,75.998 154.574,86.772ZM158.202,83.507C158.997,76.847 162.626,73.255 166.801,73.255C170.479,73.255 173.71,76.52 173.859,83.507L158.202,83.507Z" style="fill:rgb(254,245,144);fill-rule:nonzero;"/>
        </g>
        <g transform="matrix(0.965701,0,0,0.735106,-102.775,216.633)">
            <path d="M181.911,96.174C181.911,101.137 186.733,103.945 191.355,103.945C196.922,103.945 200.799,100.353 200.799,94.673C200.799,88.796 196.524,86.576 192.647,84.813C189.317,83.246 186.335,81.744 186.335,78.153C186.335,74.953 188.82,73.386 191.604,73.386C194.238,73.386 196.723,74.888 196.723,77.304L196.723,79.72L199.805,79.72L199.805,75.932C199.805,71.427 194.884,69.533 191.504,69.533C187.329,69.533 182.856,72.276 182.856,78.283C182.856,84.095 186.882,86.119 190.61,88.078C194.188,89.841 197.369,91.147 197.369,94.934C197.369,98.329 194.685,100.092 191.504,100.092C188.621,100.092 184.993,98.721 184.993,95.326L184.993,92.975L181.911,92.975L181.911,96.174Z" style="fill:rgb(254,245,144);fill-rule:nonzero;"/>
        </g>
        <g transform="matrix(0.965701,0,0,0.735106,-102.775,216.633)">
            <path d="M208.404,91.212C208.404,102.182 214.269,103.422 217.152,103.422C217.699,103.422 218.047,103.422 218.196,103.357C218.345,103.292 218.444,103.292 218.593,103.292L218.593,99.439C218.544,99.439 218.444,99.439 218.295,99.505C218.146,99.57 217.897,99.57 217.45,99.57C215.512,99.57 211.784,98.46 211.784,90.82L211.784,73.974L218.096,73.974L218.096,70.317L211.784,70.317L211.784,61.241L208.454,61.241L208.454,70.317L203.93,70.317L203.93,73.974L208.404,73.974L208.404,91.212Z" style="fill:rgb(254,245,144);fill-rule:nonzero;"/>
        </g>
        <g transform="matrix(0.965701,0,0,0.735106,-102.775,216.633)">
            <path d="M237.68,91.212C237.68,102.182 243.545,103.422 246.428,103.422C246.975,103.422 247.323,103.422 247.472,103.357C247.621,103.292 247.72,103.292 247.869,103.292L247.869,99.439C247.82,99.439 247.72,99.439 247.571,99.505C247.422,99.57 247.174,99.57 246.726,99.57C244.788,99.57 241.06,98.46 241.06,90.82L241.06,73.974L247.372,73.974L247.372,70.317L241.06,70.317L241.06,61.241L237.73,61.241L237.73,70.317L233.207,70.317L233.207,73.974L237.68,73.974L237.68,91.212Z" style="fill:rgb(254,245,144);fill-rule:nonzero;"/>
        </g>
        <g transform="matrix(0.965701,0,0,0.735106,-102.775,216.633)">
            <path d="M251.498,86.772C251.498,96.893 257.164,103.945 264.57,103.945C267.403,103.945 269.74,102.9 271.33,101.659C272.275,100.941 273.07,100.223 273.815,99.374L272.275,96.044C271.678,96.762 270.982,97.415 270.187,98.003C268.845,98.982 267.006,99.962 264.67,99.962C259.5,99.962 255.126,95.195 254.977,86.772L274.163,86.772L274.263,85.988C274.312,85.531 274.312,85.139 274.312,84.682C274.312,76.52 270.734,69.533 263.825,69.533C257.065,69.533 251.498,75.998 251.498,86.772ZM255.126,83.507C255.922,76.847 259.55,73.255 263.725,73.255C267.403,73.255 270.634,76.52 270.783,83.507L255.126,83.507Z" style="fill:rgb(254,245,144);fill-rule:nonzero;"/>
        </g>
        <g transform="matrix(0.965701,0,0,0.735106,-102.775,216.633)">
            <path d="M278.885,103.161L290.715,103.161L290.715,99.505L286.49,99.505L286.49,87.555C286.49,80.699 289.92,73.582 295.039,73.582C299.811,73.582 300.308,78.348 300.308,83.376L300.308,103.161L307.913,103.161L307.913,99.505L303.688,99.505L303.688,87.425C303.688,80.634 307.018,73.582 312.088,73.582C316.611,73.582 317.456,78.022 317.456,83.376L317.456,103.161L325.061,103.161L325.061,99.505L320.836,99.505L320.836,82.266C320.836,74.104 318.599,69.533 312.585,69.533C308.311,69.533 304.781,73.582 303.34,77.891L303.241,77.891C302.495,72.341 300.209,69.533 295.636,69.533C291.61,69.533 287.633,73.778 286.341,78.218L286.242,78.218L286.341,77.5C286.391,77.043 286.44,76.585 286.44,75.867L286.44,73.974C286.44,71.558 285.446,70.317 283.408,70.317L278.637,70.317L278.637,73.974L282.017,73.974C282.762,73.974 283.11,74.431 283.11,75.41L283.11,99.505L278.885,99.505L278.885,103.161Z" style="fill:rgb(254,245,144);fill-rule:nonzero;"/>
        </g>
        <g transform="matrix(0.965701,0,0,0.735106,-102.775,216.633)">
            <path d="M327.646,112.564L327.646,116.221L339.475,116.221L339.475,112.564L335.251,112.564L335.251,100.288C335.251,99.439 335.251,98.721 335.201,98.199L335.101,97.415L335.201,97.415C335.698,98.656 336.344,99.7 337.09,100.68C338.432,102.312 340.47,103.945 343.452,103.945C349.963,103.945 354.685,97.219 354.685,86.772C354.685,76.585 350.56,69.533 343.8,69.533C340.42,69.533 338.233,71.166 336.891,72.929C336.096,73.908 335.499,75.084 335.052,76.324L334.952,76.324L335.052,75.671C335.101,75.214 335.101,74.757 335.101,74.039L335.101,73.778C335.101,71.492 334.256,70.317 332.119,70.317L327.397,70.317L327.397,73.974L330.777,73.974C331.523,73.974 331.871,74.431 331.871,75.41L331.871,112.564L327.646,112.564ZM335.201,86.837C335.201,77.5 339.078,73.582 343.253,73.582C347.876,73.582 351.206,78.74 351.206,86.772C351.206,95.13 347.528,99.962 343.104,99.962C337.984,99.962 335.201,93.432 335.201,86.837Z" style="fill:rgb(254,245,144);fill-rule:nonzero;"/>
        </g>
        <g transform="matrix(0.965701,0,0,0.735106,-102.775,216.633)">
            <path d="M359.308,96.174C359.308,101.137 364.129,103.945 368.752,103.945C374.319,103.945 378.196,100.353 378.196,94.673C378.196,88.796 373.921,86.576 370.044,84.813C366.714,83.246 363.731,81.744 363.731,78.153C363.731,74.953 366.217,73.386 369,73.386C371.634,73.386 374.12,74.888 374.12,77.304L374.12,79.72L377.201,79.72L377.201,75.932C377.201,71.427 372.281,69.533 368.901,69.533C364.726,69.533 360.252,72.276 360.252,78.283C360.252,84.095 364.278,86.119 368.006,88.078C371.585,89.841 374.766,91.147 374.766,94.934C374.766,98.329 372.082,100.092 368.901,100.092C366.018,100.092 362.389,98.721 362.389,95.326L362.389,92.975L359.308,92.975L359.308,96.174Z" style="fill:rgb(254,245,144);fill-rule:nonzero;"/>
        </g>
        <g transform="matrix(0.965701,0,0,0.735106,-102.775,216.633)">
            <path d="M395.244,86.772C395.244,96.893 399.37,103.945 406.08,103.945C409.46,103.945 411.597,102.182 412.989,100.419C413.834,99.374 414.43,98.199 414.878,96.958L414.977,96.958L414.878,97.48C414.828,97.937 414.778,98.395 414.778,98.982L414.778,99.57C414.778,101.921 415.623,103.161 417.761,103.161L421.886,103.161L421.886,99.505L419.103,99.505C418.357,99.505 418.009,99.048 418.009,98.068L418.009,57.258L410.156,57.258L410.156,60.914L414.629,60.914L414.629,73.386C414.629,74.104 414.679,74.757 414.729,75.214C414.778,75.475 414.778,75.737 414.778,75.932L414.679,75.932C414.232,74.757 413.585,73.712 412.84,72.733C411.498,71.101 409.51,69.533 406.527,69.533C399.867,69.533 395.244,76.259 395.244,86.772ZM398.724,86.772C398.724,78.414 402.352,73.582 406.825,73.582C412.144,73.582 414.729,80.046 414.729,86.772C414.729,96.044 410.802,99.962 406.627,99.962C401.954,99.962 398.724,94.803 398.724,86.772Z" style="fill:rgb(254,245,144);fill-rule:nonzero;"/>
        </g>
        <g transform="matrix(0.965701,0,0,0.735106,-102.775,216.633)">
            <path d="M425.713,86.772C425.713,96.893 431.38,103.945 438.786,103.945C441.619,103.945 443.955,102.9 445.546,101.659C446.49,100.941 447.285,100.223 448.031,99.374L446.49,96.044C445.893,96.762 445.198,97.415 444.402,98.003C443.06,98.982 441.221,99.962 438.885,99.962C433.716,99.962 429.342,95.195 429.193,86.772L448.379,86.772L448.478,85.988C448.528,85.531 448.528,85.139 448.528,84.682C448.528,76.52 444.949,69.533 438.04,69.533C431.28,69.533 425.713,75.998 425.713,86.772ZM429.342,83.507C430.137,76.847 433.766,73.255 437.941,73.255C441.619,73.255 444.85,76.52 444.999,83.507L429.342,83.507Z" style="fill:rgb(254,245,144);fill-rule:nonzero;"/>
        </g>
        <g transform="matrix(0.965701,0,0,0.735106,-102.775,216.633)">
            <path d="M465.527,103.161L479.792,103.161L479.792,96.958L475.518,96.958L475.518,76.063L481.234,76.063L481.234,69.86L475.518,69.86L475.518,68.162C475.518,63.265 478.4,62.938 479.792,62.938C480.438,62.938 480.886,62.938 481.234,63.004L481.731,63.134L481.731,56.474L480.985,56.343C480.538,56.278 479.892,56.213 479.146,56.213C475.766,56.213 469.205,57.649 469.205,68.358L469.205,69.86L465.278,69.86L465.278,76.063L469.205,76.063L469.205,96.958L465.527,96.958L465.527,103.161Z" style="fill:rgb(254,245,144);fill-rule:nonzero;"/>
        </g>
        <g transform="matrix(0.965701,0,0,0.735106,-102.775,216.633)">
            <path d="M484.067,93.824C484.067,100.615 488.093,103.945 492.467,103.945C495.449,103.945 497.338,102.378 498.68,100.745C499.426,99.766 500.022,98.721 500.469,97.546L500.569,97.546C500.569,97.676 500.569,97.807 500.519,98.003C500.469,98.329 500.42,98.721 500.42,99.243L500.42,99.635C500.42,101.529 501.314,103.161 503.65,103.161L509.615,103.161L509.615,96.958L507.329,96.958C506.583,96.958 506.235,96.501 506.235,95.521L506.235,82.201C506.235,73.647 502.607,69.076 495.797,69.076C492.765,69.076 490.23,70.056 488.491,71.101C487.447,71.688 486.552,72.406 485.757,73.19L488.093,78.936C488.739,78.348 489.485,77.761 490.28,77.304C491.622,76.52 493.312,75.737 495.25,75.737C497.885,75.737 499.923,77.238 499.923,81.483L499.923,82.593L498.332,82.593C494.256,82.593 484.067,83.637 484.067,93.824ZM490.429,93.171C490.429,88.143 496.394,87.621 498.929,87.621L499.972,87.621L499.972,88.731C499.972,92.91 497.537,97.742 494.107,97.742C491.771,97.742 490.429,95.717 490.429,93.171Z" style="fill:rgb(254,245,144);fill-rule:nonzero;"/>
        </g>
        <g transform="matrix(0.965701,0,0,0.735106,-102.775,216.633)">
            <path d="M516.673,64.179L523.035,64.179L523.035,56.801L516.673,56.801L516.673,64.179ZM513.045,103.161L526.664,103.161L526.664,96.958L523.035,96.958L523.035,69.86L512.796,69.86L512.796,76.063L516.723,76.063L516.723,96.958L513.045,96.958L513.045,103.161Z" style="fill:rgb(254,245,144);fill-rule:nonzero;"/>
        </g>
        <g transform="matrix(0.965701,0,0,0.735106,-102.775,216.633)">
            <path d="M530.441,103.161L544.06,103.161L544.06,96.958L540.432,96.958L540.432,89.71C540.432,83.442 542.718,77.565 547.838,77.565C548.285,77.565 548.584,77.565 548.932,77.63C549.081,77.695 549.23,77.695 549.379,77.695L549.379,69.533C549.28,69.533 549.18,69.533 549.031,69.468C548.832,69.403 548.584,69.403 548.236,69.403C544.309,69.403 541.376,73.19 540.184,77.957L540.084,77.957C540.084,77.761 540.084,77.565 540.134,77.369C540.184,76.912 540.184,76.455 540.184,75.867L540.184,73.908C540.184,71.231 539.04,69.86 536.804,69.86L530.193,69.86L530.193,76.063L533.026,76.063C533.772,76.063 534.12,76.52 534.12,77.5L534.12,96.958L530.441,96.958L530.441,103.161Z" style="fill:rgb(254,245,144);fill-rule:nonzero;"/>
        </g>
        <g transform="matrix(0.965701,0,0,0.735106,-102.775,216.633)">
            <path d="M552.013,86.511C552.013,95.913 557.232,103.945 565.632,103.945C568.813,103.945 571.348,102.835 573.138,101.594C574.182,100.876 575.126,100.158 575.872,99.309L573.436,93.432C572.79,94.085 572.094,94.673 571.299,95.195C569.957,96.174 568.217,96.958 566.08,96.958C562.252,96.958 558.873,93.758 558.475,87.686L576.021,87.686L576.12,86.641C576.17,86.053 576.17,85.335 576.17,84.878C576.17,76.063 572.193,69.076 564.887,69.076C557.282,69.076 552.013,76.259 552.013,86.511ZM558.624,82.789C559.22,78.348 561.507,75.475 564.738,75.475C567.471,75.475 569.509,78.153 569.658,82.789L558.624,82.789Z" style="fill:rgb(254,245,144);fill-rule:nonzero;"/>
        </g>
        <g transform="matrix(0.965701,0,0,0.735106,-102.775,216.633)">
            <path d="M595.455,91.277C595.455,100.353 598.736,103.945 603.756,103.945C610.068,103.945 612.703,97.742 613.001,96.632L613.1,96.632L613.1,97.089C613.1,97.35 613.051,97.742 613.051,98.199L613.051,99.439C613.051,101.79 614.095,103.161 616.331,103.161L622.594,103.161L622.594,97.023L620.159,97.023C619.413,97.023 619.065,96.566 619.065,95.587L619.065,69.86L608.876,69.86L608.876,76.063L612.753,76.063L612.753,84.682C612.753,90.69 610.118,96.566 605.744,96.566C602.563,96.566 601.768,93.824 601.768,89.841L601.768,69.86L591.529,69.86L591.529,76.063L595.455,76.063L595.455,91.277Z" style="fill:rgb(254,245,144);fill-rule:nonzero;"/>
        </g>
        <g transform="matrix(0.965701,0,0,0.735106,-102.775,216.633)">
            <path d="M626.372,103.161L639.991,103.161L639.991,96.958L636.362,96.958L636.362,88.208C636.362,82.397 639.046,76.651 643.619,76.651C646.8,76.651 647.645,79.328 647.645,83.442L647.645,103.161L657.586,103.161L657.586,96.958L653.908,96.958L653.908,81.744C653.908,72.864 650.826,69.076 645.409,69.076C639.096,69.076 636.313,75.475 636.064,76.52L635.965,76.52C635.965,76.39 635.965,76.259 636.014,76.063C636.064,75.802 636.064,75.41 636.064,75.084L636.064,73.582C636.064,71.231 635.02,69.86 632.784,69.86L626.123,69.86L626.123,76.063L628.956,76.063C629.702,76.063 630.05,76.52 630.05,77.5L630.05,96.958L626.372,96.958L626.372,103.161Z" style="fill:rgb(254,245,144);fill-rule:nonzero;"/>
        </g>
        <g transform="matrix(0.965701,0,0,0.735106,-102.775,216.633)">
            <path d="M660.469,86.511C660.469,95.913 665.688,103.945 674.088,103.945C677.269,103.945 679.804,102.835 681.594,101.594C682.638,100.876 683.582,100.158 684.327,99.309L681.892,93.432C681.246,94.085 680.55,94.673 679.755,95.195C678.413,96.174 676.673,96.958 674.536,96.958C670.708,96.958 667.328,93.758 666.931,87.686L684.477,87.686L684.576,86.641C684.626,86.053 684.626,85.335 684.626,84.878C684.626,76.063 680.649,69.076 673.343,69.076C665.738,69.076 660.469,76.259 660.469,86.511ZM667.08,82.789C667.676,78.348 669.963,75.475 673.194,75.475C675.927,75.475 677.965,78.153 678.114,82.789L667.08,82.789Z" style="fill:rgb(254,245,144);fill-rule:nonzero;"/>
        </g>
        <g transform="matrix(0.965701,0,0,0.735106,-102.775,216.633)">
            <path d="M700.581,110.017L700.581,116.221L714.25,116.221L714.25,110.017L710.572,110.017L710.572,102.116C710.572,101.268 710.572,100.549 710.522,100.027L710.423,99.243L710.522,99.243C711.019,100.092 711.615,100.876 712.311,101.594C713.504,102.835 715.294,103.945 717.829,103.945C724.489,103.945 729.41,97.089 729.41,86.511C729.41,76.194 725.036,69.076 718.176,69.076C715.194,69.076 713.206,70.382 711.864,71.884C711.118,72.733 710.472,73.647 710.025,74.692L709.925,74.692C709.975,74.561 709.975,74.431 709.975,74.235L709.975,72.994C709.975,71.231 709.18,69.86 706.844,69.86L700.332,69.86L700.332,76.063L703.166,76.063C703.911,76.063 704.259,76.52 704.259,77.5L704.259,110.017L700.581,110.017ZM710.373,86.706C710.373,79.393 713.405,76.194 716.735,76.194C720.513,76.194 723.048,80.307 723.048,86.641C723.048,93.236 720.165,96.958 716.685,96.958C712.51,96.958 710.373,91.865 710.373,86.706Z" style="fill:rgb(254,245,144);fill-rule:nonzero;"/>
        </g>
        <g transform="matrix(0.965701,0,0,0.735106,-102.775,216.633)">
            <path d="M732.591,93.824C732.591,100.615 736.617,103.945 740.991,103.945C743.973,103.945 745.862,102.378 747.204,100.745C747.95,99.766 748.546,98.721 748.993,97.546L749.093,97.546C749.093,97.676 749.093,97.807 749.043,98.003C748.993,98.329 748.944,98.721 748.944,99.243L748.944,99.635C748.944,101.529 749.838,103.161 752.175,103.161L758.139,103.161L758.139,96.958L755.853,96.958C755.107,96.958 754.759,96.501 754.759,95.521L754.759,82.201C754.759,73.647 751.131,69.076 744.321,69.076C741.289,69.076 738.754,70.056 737.015,71.101C735.971,71.688 735.076,72.406 734.281,73.19L736.617,78.936C737.263,78.348 738.009,77.761 738.804,77.304C740.146,76.52 741.836,75.737 743.774,75.737C746.409,75.737 748.447,77.238 748.447,81.483L748.447,82.593L746.856,82.593C742.78,82.593 732.591,83.637 732.591,93.824ZM738.953,93.171C738.953,88.143 744.918,87.621 747.453,87.621L748.496,87.621L748.496,88.731C748.496,92.91 746.061,97.742 742.631,97.742C740.295,97.742 738.953,95.717 738.953,93.171Z" style="fill:rgb(254,245,144);fill-rule:nonzero;"/>
        </g>
        <g transform="matrix(0.965701,0,0,0.735106,-102.775,216.633)">
            <path d="M763.955,91.277C763.955,100.353 767.235,103.945 772.255,103.945C778.568,103.945 781.202,97.742 781.5,96.632L781.6,96.632L781.6,97.089C781.6,97.35 781.55,97.742 781.55,98.199L781.55,99.439C781.55,101.79 782.594,103.161 784.831,103.161L791.093,103.161L791.093,97.023L788.658,97.023C787.912,97.023 787.564,96.566 787.564,95.587L787.564,69.86L777.375,69.86L777.375,76.063L781.252,76.063L781.252,84.682C781.252,90.69 778.618,96.566 774.244,96.566C771.062,96.566 770.267,93.824 770.267,89.841L770.267,69.86L760.028,69.86L760.028,76.063L763.955,76.063L763.955,91.277Z" style="fill:rgb(254,245,144);fill-rule:nonzero;"/>
        </g>
        <g transform="matrix(0.965701,0,0,0.735106,-102.775,216.633)">
            <path d="M794.324,95.913C794.324,101.333 800.04,103.945 804.613,103.945C810.429,103.945 815.3,100.615 815.3,93.824C815.3,87.294 810.727,85.139 806.85,83.572C804.017,82.527 801.531,81.352 801.531,78.61C801.531,76.52 803.221,75.606 805.21,75.606C807.446,75.606 808.937,76.585 808.937,78.348L808.937,80.242L814.355,80.242L814.355,75.998C814.355,70.97 808.888,69.076 805.21,69.076C800.637,69.076 795.219,71.558 795.219,78.61C795.219,85.009 799.543,87.164 803.221,88.927C806.601,90.494 808.987,91.343 808.987,94.085C808.987,96.37 807.198,97.48 804.663,97.48C802.029,97.48 799.692,96.305 799.692,94.02L799.692,92.061L794.324,92.061L794.324,95.913Z" style="fill:rgb(254,245,144);fill-rule:nonzero;"/>
        </g>
        <g transform="matrix(0.965701,0,0,0.735106,-102.775,216.633)">
            <path d="M818.829,86.511C818.829,95.913 824.048,103.945 832.448,103.945C835.629,103.945 838.164,102.835 839.953,101.594C840.997,100.876 841.941,100.158 842.687,99.309L840.252,93.432C839.605,94.085 838.909,94.673 838.114,95.195C836.772,96.174 835.033,96.958 832.895,96.958C829.068,96.958 825.688,93.758 825.29,87.686L842.836,87.686L842.936,86.641C842.985,86.053 842.985,85.335 842.985,84.878C842.985,76.063 839.009,69.076 831.702,69.076C824.097,69.076 818.829,76.259 818.829,86.511ZM825.439,82.789C826.036,78.348 828.322,75.475 831.553,75.475C834.287,75.475 836.325,78.153 836.474,82.789L825.439,82.789Z" style="fill:rgb(254,245,144);fill-rule:nonzero;"/>
        </g>
    </g>
    <g transform="matrix(1.84001,0,0,1.84001,-2.60824,-199.706)">
        <g transform="matrix(0.965701,0,0,0.735106,-102.775,216.633)">
            <path d="M109.889,207.244L109.889,210.901L121.719,210.901L121.719,207.244L117.494,207.244L117.494,194.968C117.494,194.12 117.494,193.401 117.444,192.879L117.345,192.095L117.444,192.095C117.941,193.336 118.587,194.381 119.333,195.36C120.675,196.993 122.713,198.625 125.695,198.625C132.206,198.625 136.928,191.899 136.928,181.452C136.928,171.266 132.803,164.214 126.043,164.214C122.663,164.214 120.476,165.846 119.134,167.609C118.339,168.589 117.742,169.764 117.295,171.004L117.196,171.004L117.295,170.352C117.345,169.894 117.345,169.437 117.345,168.719L117.345,168.458C117.345,166.173 116.5,164.997 114.362,164.997L109.64,164.997L109.64,168.654L113.02,168.654C113.766,168.654 114.114,169.111 114.114,170.09L114.114,207.244L109.889,207.244ZM117.444,181.517C117.444,172.18 121.321,168.262 125.496,168.262C130.119,168.262 133.449,173.42 133.449,181.452C133.449,189.81 129.771,194.642 125.347,194.642C120.228,194.642 117.444,188.112 117.444,181.517Z" style="fill:rgb(254,245,144);fill-rule:nonzero;"/>
        </g>
        <g transform="matrix(0.965701,0,0,0.735106,-102.775,216.633)">
            <path d="M141.551,181.256C141.551,191.181 147.466,198.625 154.723,198.625C162.029,198.625 167.944,191.181 167.944,181.256C167.944,171.592 162.029,164.214 154.723,164.214C147.466,164.214 141.551,171.592 141.551,181.256ZM145.03,181.256C145.03,173.747 149.404,168.197 154.723,168.197C160.091,168.197 164.465,173.747 164.465,181.256C164.465,188.896 160.091,194.642 154.723,194.642C149.404,194.642 145.03,188.896 145.03,181.256Z" style="fill:rgb(254,245,144);fill-rule:nonzero;"/>
        </g>
        <g transform="matrix(0.965701,0,0,0.735106,-102.775,216.633)">
            <path d="M175.499,185.892C175.499,194.511 177.885,198.625 183.701,198.625C189.914,198.625 192.946,192.618 193.592,190.202L193.691,190.202L193.691,190.855C193.691,191.312 193.642,191.834 193.642,192.552L193.642,194.185C193.642,196.731 194.487,197.841 196.624,197.841L200.849,197.841L200.849,194.25L198.016,194.25C197.27,194.25 196.922,193.793 196.922,192.814L196.922,164.997L189.069,164.997L189.069,168.654L193.542,168.654L193.542,180.603C193.542,187.72 189.963,194.511 184.347,194.511C179.476,194.511 178.879,190.006 178.879,184.782L178.879,164.997L171.026,164.997L171.026,168.654L175.499,168.654L175.499,185.892Z" style="fill:rgb(254,245,144);fill-rule:nonzero;"/>
        </g>
        <g transform="matrix(0.965701,0,0,0.735106,-102.775,216.633)">
            <path d="M205.074,197.841L216.208,197.841L216.208,194.185L212.331,194.185L212.331,183.933C212.331,177.404 214.617,169.111 220.234,169.111C220.681,169.111 220.979,169.111 221.128,169.176C221.277,169.241 221.377,169.241 221.526,169.241L221.526,164.867L221.079,164.736C220.83,164.671 220.482,164.671 220.134,164.671C216.208,164.671 213.474,168.458 212.231,173.42L212.132,173.42C212.132,173.225 212.132,172.963 212.181,172.702C212.231,172.245 212.231,171.657 212.231,170.939L212.231,168.719C212.231,166.107 211.336,164.997 209.199,164.997L204.477,164.997L204.477,168.654L207.857,168.654C208.603,168.654 208.951,169.111 208.951,170.09L208.951,194.185L205.074,194.185L205.074,197.841Z" style="fill:rgb(254,245,144);fill-rule:nonzero;"/>
        </g>
        <g transform="matrix(0.965701,0,0,0.735106,-102.775,216.633)">
            <path d="M235.195,168.654L238.475,168.654L246.975,197.841L250.603,197.841L259.103,168.654L262.383,168.654L262.383,164.997L252.045,164.997L252.045,168.654L255.623,168.654L249.361,190.659C249.212,191.246 249.112,191.834 248.963,192.357C248.913,192.683 248.864,192.944 248.864,193.205L248.714,193.205C248.714,192.944 248.665,192.683 248.615,192.357C248.466,191.834 248.416,191.246 248.217,190.659L241.955,168.654L245.533,168.654L245.533,164.997L235.195,164.997L235.195,168.654Z" style="fill:rgb(254,245,144);fill-rule:nonzero;"/>
        </g>
        <g transform="matrix(0.965701,0,0,0.735106,-102.775,216.633)">
            <path d="M265.018,181.256C265.018,191.181 270.933,198.625 278.189,198.625C285.496,198.625 291.411,191.181 291.411,181.256C291.411,171.592 285.496,164.214 278.189,164.214C270.933,164.214 265.018,171.592 265.018,181.256ZM268.497,181.256C268.497,173.747 272.871,168.197 278.189,168.197C283.558,168.197 287.932,173.747 287.932,181.256C287.932,188.896 283.558,194.642 278.189,194.642C272.871,194.642 268.497,188.896 268.497,181.256Z" style="fill:rgb(254,245,144);fill-rule:nonzero;"/>
        </g>
        <g transform="matrix(0.965701,0,0,0.735106,-102.775,216.633)">
            <path d="M298.966,185.892C298.966,194.511 301.352,198.625 307.167,198.625C313.38,198.625 316.412,192.618 317.059,190.202L317.158,190.202L317.158,190.855C317.158,191.312 317.108,191.834 317.108,192.552L317.108,194.185C317.108,196.731 317.953,197.841 320.091,197.841L324.315,197.841L324.315,194.25L321.482,194.25C320.737,194.25 320.389,193.793 320.389,192.814L320.389,164.997L312.535,164.997L312.535,168.654L317.009,168.654L317.009,180.603C317.009,187.72 313.43,194.511 307.813,194.511C302.942,194.511 302.346,190.006 302.346,184.782L302.346,164.997L294.493,164.997L294.493,168.654L298.966,168.654L298.966,185.892Z" style="fill:rgb(254,245,144);fill-rule:nonzero;"/>
        </g>
        <g transform="matrix(0.965701,0,0,0.735106,-102.775,216.633)">
            <path d="M328.242,190.855C328.242,195.817 333.064,198.625 337.686,198.625C343.253,198.625 347.13,195.034 347.13,189.353C347.13,183.476 342.855,181.256 338.978,179.493C335.648,177.926 332.666,176.424 332.666,172.833C332.666,169.633 335.151,168.066 337.935,168.066C340.569,168.066 343.054,169.568 343.054,171.984L343.054,174.4L346.136,174.4L346.136,170.613C346.136,166.107 341.215,164.214 337.835,164.214C333.66,164.214 329.187,166.956 329.187,172.963C329.187,178.775 333.213,180.799 336.941,182.758C340.519,184.521 343.7,185.827 343.7,189.614C343.7,193.009 341.016,194.772 337.835,194.772C334.952,194.772 331.324,193.401 331.324,190.006L331.324,187.655L328.242,187.655L328.242,190.855Z" style="fill:rgb(254,245,144);fill-rule:nonzero;"/>
        </g>
        <g transform="matrix(0.965701,0,0,0.735106,-102.775,216.633)">
            <path d="M374.269,204.045C370.491,195.164 368.652,185.696 368.652,175.836C368.652,166.63 370.64,158.206 374.269,150.175L371.088,150.175C367.509,157.815 365.521,166.368 365.521,175.836C365.521,186.219 367.658,196.144 371.088,204.045L374.269,204.045Z" style="fill:rgb(254,245,144);fill-rule:nonzero;"/>
        </g>
        <g transform="matrix(0.965701,0,0,0.735106,-102.775,216.633)">
            <path d="M379.289,197.841L390.423,197.841L390.423,194.185L386.546,194.185L386.546,183.933C386.546,177.404 388.832,169.111 394.449,169.111C394.896,169.111 395.195,169.111 395.344,169.176C395.493,169.241 395.592,169.241 395.741,169.241L395.741,164.867L395.294,164.736C395.045,164.671 394.698,164.671 394.35,164.671C390.423,164.671 387.689,168.458 386.447,173.42L386.347,173.42C386.347,173.225 386.347,172.963 386.397,172.702C386.447,172.245 386.447,171.657 386.447,170.939L386.447,168.719C386.447,166.107 385.552,164.997 383.415,164.997L378.693,164.997L378.693,168.654L382.072,168.654C382.818,168.654 383.166,169.111 383.166,170.09L383.166,194.185L379.289,194.185L379.289,197.841Z" style="fill:rgb(254,245,144);fill-rule:nonzero;"/>
        </g>
        <g transform="matrix(0.965701,0,0,0.735106,-102.775,216.633)">
            <path d="M398.624,181.452C398.624,191.573 404.291,198.625 411.697,198.625C414.53,198.625 416.866,197.58 418.456,196.34C419.401,195.621 420.196,194.903 420.942,194.054L419.401,190.724C418.804,191.442 418.108,192.095 417.313,192.683C415.971,193.662 414.132,194.642 411.796,194.642C406.627,194.642 402.253,189.875 402.104,181.452L421.29,181.452L421.389,180.668C421.439,180.211 421.439,179.82 421.439,179.362C421.439,171.2 417.86,164.214 410.951,164.214C404.191,164.214 398.624,170.678 398.624,181.452ZM402.253,178.187C403.048,171.527 406.676,167.936 410.852,167.936C414.53,167.936 417.761,171.2 417.91,178.187L402.253,178.187Z" style="fill:rgb(254,245,144);fill-rule:nonzero;"/>
        </g>
        <g transform="matrix(0.965701,0,0,0.735106,-102.775,216.633)">
            <path d="M429.342,204.045C432.871,196.144 434.958,186.219 434.958,175.836C434.958,166.368 432.921,157.815 429.342,150.175L426.21,150.175C429.789,158.206 431.827,166.63 431.827,175.836C431.827,185.696 429.988,195.164 426.21,204.045L429.342,204.045Z" style="fill:rgb(254,245,144);fill-rule:nonzero;"/>
        </g>
        <g transform="matrix(0.965701,0,0,0.735106,-102.775,216.633)">
            <path d="M440.973,181.517C440.973,191.965 446.987,198.625 454.144,198.625C459.91,198.625 463.39,194.185 463.887,193.532L462.445,190.136C462.097,190.593 459.065,194.642 454.244,194.642C448.876,194.642 444.452,189.549 444.452,181.387C444.452,173.42 448.677,168.197 454.095,168.197C456.381,168.197 460.159,169.568 460.159,172.506L460.159,174.922L463.29,174.922L463.29,171.331C463.29,165.911 457.226,164.214 454.045,164.214C446.838,164.214 440.973,171.331 440.973,181.517Z" style="fill:rgb(254,245,144);fill-rule:nonzero;"/>
        </g>
        <g transform="matrix(0.965701,0,0,0.735106,-102.775,216.633)">
            <path d="M468.261,181.256C468.261,191.181 474.176,198.625 481.432,198.625C488.739,198.625 494.654,191.181 494.654,181.256C494.654,171.592 488.739,164.214 481.432,164.214C474.176,164.214 468.261,171.592 468.261,181.256ZM471.74,181.256C471.74,173.747 476.114,168.197 481.432,168.197C486.801,168.197 491.175,173.747 491.175,181.256C491.175,188.896 486.801,194.642 481.432,194.642C476.114,194.642 471.74,188.896 471.74,181.256Z" style="fill:rgb(254,245,144);fill-rule:nonzero;"/>
        </g>
        <g transform="matrix(0.965701,0,0,0.735106,-102.775,216.633)">
            <path d="M499.177,197.841L511.007,197.841L511.007,194.185L506.782,194.185L506.782,182.04C506.782,174.792 510.709,168.393 516.276,168.393C521.097,168.393 521.743,172.898 521.743,178.122L521.743,197.841L529.348,197.841L529.348,194.185L525.123,194.185L525.123,176.946C525.123,168.85 522.986,164.214 516.822,164.214C510.609,164.214 507.279,170.482 506.633,172.898L506.533,172.898L506.633,172.18C506.682,171.723 506.732,171.266 506.732,170.547L506.732,168.654C506.732,166.238 505.738,164.997 503.7,164.997L498.929,164.997L498.929,168.654L502.308,168.654C503.054,168.654 503.402,169.111 503.402,170.09L503.402,194.185L499.177,194.185L499.177,197.841Z" style="fill:rgb(254,245,144);fill-rule:nonzero;"/>
        </g>
        <g transform="matrix(0.965701,0,0,0.735106,-102.775,216.633)">
            <path d="M532.678,197.841L544.508,197.841L544.508,194.185L540.283,194.185L540.283,182.04C540.283,174.792 544.21,168.393 549.777,168.393C554.598,168.393 555.244,172.898 555.244,178.122L555.244,197.841L562.849,197.841L562.849,194.185L558.624,194.185L558.624,176.946C558.624,168.85 556.487,164.214 550.323,164.214C544.11,164.214 540.78,170.482 540.134,172.898L540.034,172.898L540.134,172.18C540.184,171.723 540.233,171.266 540.233,170.547L540.233,168.654C540.233,166.238 539.239,164.997 537.201,164.997L532.43,164.997L532.43,168.654L535.809,168.654C536.555,168.654 536.903,169.111 536.903,170.09L536.903,194.185L532.678,194.185L532.678,197.841Z" style="fill:rgb(254,245,144);fill-rule:nonzero;"/>
        </g>
        <g transform="matrix(0.965701,0,0,0.735106,-102.775,216.633)">
            <path d="M566.229,181.452C566.229,191.573 571.895,198.625 579.301,198.625C582.134,198.625 584.471,197.58 586.061,196.34C587.005,195.621 587.801,194.903 588.546,194.054L587.005,190.724C586.409,191.442 585.713,192.095 584.918,192.683C583.576,193.662 581.737,194.642 579.401,194.642C574.231,194.642 569.857,189.875 569.708,181.452L588.894,181.452L588.994,180.668C589.043,180.211 589.043,179.82 589.043,179.362C589.043,171.2 585.465,164.214 578.556,164.214C571.796,164.214 566.229,170.678 566.229,181.452ZM569.857,178.187C570.653,171.527 574.281,167.936 578.456,167.936C582.134,167.936 585.365,171.2 585.514,178.187L569.857,178.187Z" style="fill:rgb(254,245,144);fill-rule:nonzero;"/>
        </g>
        <g transform="matrix(0.965701,0,0,0.735106,-102.775,216.633)">
            <path d="M593.616,181.517C593.616,191.965 599.63,198.625 606.788,198.625C612.554,198.625 616.033,194.185 616.53,193.532L615.089,190.136C614.741,190.593 611.709,194.642 606.887,194.642C601.519,194.642 597.096,189.549 597.096,181.387C597.096,173.42 601.32,168.197 606.738,168.197C609.025,168.197 612.802,169.568 612.802,172.506L612.802,174.922L615.934,174.922L615.934,171.331C615.934,165.911 609.87,164.214 606.689,164.214C599.481,164.214 593.616,171.331 593.616,181.517Z" style="fill:rgb(254,245,144);fill-rule:nonzero;"/>
        </g>
        <g transform="matrix(0.965701,0,0,0.735106,-102.775,216.633)">
            <path d="M624.036,185.892C624.036,196.862 629.901,198.103 632.784,198.103C633.33,198.103 633.678,198.103 633.827,198.037C633.977,197.972 634.076,197.972 634.225,197.972L634.225,194.12C634.175,194.12 634.076,194.12 633.927,194.185C633.778,194.25 633.529,194.25 633.082,194.25C631.143,194.25 627.415,193.14 627.415,185.5L627.415,168.654L633.728,168.654L633.728,164.997L627.415,164.997L627.415,155.921L624.085,155.921L624.085,164.997L619.562,164.997L619.562,168.654L624.036,168.654L624.036,185.892Z" style="fill:rgb(254,245,144);fill-rule:nonzero;"/>
        </g>
        <g transform="matrix(0.965701,0,0,0.735106,-102.775,216.633)">
            <path d="M637.853,181.452C637.853,191.573 643.52,198.625 650.926,198.625C653.759,198.625 656.095,197.58 657.686,196.34C658.63,195.621 659.425,194.903 660.171,194.054L658.63,190.724C658.034,191.442 657.338,192.095 656.543,192.683C655.2,193.662 653.361,194.642 651.025,194.642C645.856,194.642 641.482,189.875 641.333,181.452L660.519,181.452L660.618,180.668C660.668,180.211 660.668,179.82 660.668,179.362C660.668,171.2 657.089,164.214 650.18,164.214C643.42,164.214 637.853,170.678 637.853,181.452ZM641.482,178.187C642.277,171.527 645.906,167.936 650.081,167.936C653.759,167.936 656.99,171.2 657.139,178.187L641.482,178.187Z" style="fill:rgb(254,245,144);fill-rule:nonzero;"/>
        </g>
        <g transform="matrix(0.965701,0,0,0.735106,-102.775,216.633)">
            <path d="M665.489,197.841L676.623,197.841L676.623,194.185L672.746,194.185L672.746,183.933C672.746,177.404 675.033,169.111 680.649,169.111C681.097,169.111 681.395,169.111 681.544,169.176C681.693,169.241 681.793,169.241 681.942,169.241L681.942,164.867L681.494,164.736C681.246,164.671 680.898,164.671 680.55,164.671C676.623,164.671 673.889,168.458 672.647,173.42L672.547,173.42C672.547,173.225 672.547,172.963 672.597,172.702C672.647,172.245 672.647,171.657 672.647,170.939L672.647,168.719C672.647,166.107 671.752,164.997 669.615,164.997L664.893,164.997L664.893,168.654L668.273,168.654C669.018,168.654 669.366,169.111 669.366,170.09L669.366,194.185L665.489,194.185L665.489,197.841Z" style="fill:rgb(254,245,144);fill-rule:nonzero;"/>
        </g>
    </g>
    <g transform="matrix(2.52666,0,0,2.52666,-5.61968,-517.982)">
        <g transform="matrix(0.965701,0,0,0.735106,-102.775,216.633)">
            <path d="M110.237,283.511C110.237,290.236 114.462,293.305 118.587,293.305C121.818,293.305 123.906,291.412 125.248,289.518C126.043,288.408 126.689,287.167 127.136,285.796L127.236,285.796C127.236,285.992 127.236,286.188 127.186,286.449C127.136,286.906 127.087,287.559 127.087,288.343L127.087,288.93C127.087,291.281 127.932,292.522 130.069,292.522L134.145,292.522L134.145,288.865L131.411,288.865C130.666,288.865 130.318,288.408 130.318,287.429L130.318,271.235C130.318,263.073 127.236,258.894 121.122,258.894C118.289,258.894 116.003,259.743 114.462,260.722C113.567,261.245 112.772,261.897 112.076,262.616L113.666,265.946C114.263,265.358 114.959,264.771 115.704,264.313C117.046,263.53 118.786,262.746 120.923,262.746C124.403,262.746 126.938,264.901 126.938,271.039L126.938,272.41L125.297,272.41C121.072,272.41 110.237,272.867 110.237,283.511ZM113.716,283.054C113.716,275.479 123.458,275.74 125.496,275.74L126.938,275.74L126.938,277.308C126.938,283.054 124.104,289.649 119.084,289.649C115.605,289.649 113.716,286.449 113.716,283.054ZM119.979,254.388L123.558,254.388L118.687,246.618L114.362,246.618L119.979,254.388Z" style="fill:rgb(254,245,144);fill-rule:nonzero;"/>
        </g>
        <g transform="matrix(0.965701,0,0,0.735106,-102.775,216.633)">
            <path d="M148.311,263.334L151.591,263.334L160.091,292.522L163.719,292.522L172.219,263.334L175.499,263.334L175.499,259.677L165.161,259.677L165.161,263.334L168.739,263.334L162.477,285.339C162.327,285.927 162.228,286.514 162.079,287.037C162.029,287.363 161.98,287.624 161.98,287.886L161.83,287.886C161.83,287.624 161.781,287.363 161.731,287.037C161.582,286.514 161.532,285.927 161.333,285.339L155.071,263.334L158.649,263.334L158.649,259.677L148.311,259.677L148.311,263.334Z" style="fill:rgb(254,245,144);fill-rule:nonzero;"/>
        </g>
        <g transform="matrix(0.965701,0,0,0.735106,-102.775,216.633)">
            <path d="M178.134,275.936C178.134,285.861 184.048,293.305 191.305,293.305C198.612,293.305 204.527,285.861 204.527,275.936C204.527,266.272 198.612,258.894 191.305,258.894C184.048,258.894 178.134,266.272 178.134,275.936ZM181.613,275.936C181.613,268.427 185.987,262.877 191.305,262.877C196.674,262.877 201.048,268.427 201.048,275.936C201.048,283.576 196.674,289.322 191.305,289.322C185.987,289.322 181.613,283.576 181.613,275.936Z" style="fill:rgb(254,245,144);fill-rule:nonzero;"/>
        </g>
        <g transform="matrix(0.965701,0,0,0.735106,-102.775,216.633)">
            <path d="M212.132,280.572C212.132,291.542 217.997,292.783 220.88,292.783C221.427,292.783 221.774,292.783 221.924,292.718C222.073,292.652 222.172,292.652 222.321,292.652L222.321,288.8C222.271,288.8 222.172,288.8 222.023,288.865C221.874,288.93 221.625,288.93 221.178,288.93C219.24,288.93 215.512,287.82 215.512,280.181L215.512,263.334L221.824,263.334L221.824,259.677L215.512,259.677L215.512,250.601L212.181,250.601L212.181,259.677L207.658,259.677L207.658,263.334L212.132,263.334L212.132,280.572Z" style="fill:rgb(254,245,144);fill-rule:nonzero;"/>
        </g>
        <g transform="matrix(0.965701,0,0,0.735106,-102.775,216.633)">
            <path d="M226.148,292.522L237.282,292.522L237.282,288.865L233.405,288.865L233.405,278.613C233.405,272.084 235.692,263.791 241.308,263.791C241.756,263.791 242.054,263.791 242.203,263.856C242.352,263.922 242.452,263.922 242.601,263.922L242.601,259.547L242.153,259.416C241.905,259.351 241.557,259.351 241.209,259.351C237.282,259.351 234.549,263.138 233.306,268.101L233.207,268.101C233.207,267.905 233.207,267.644 233.256,267.382C233.306,266.925 233.306,266.338 233.306,265.619L233.306,263.399C233.306,260.787 232.411,259.677 230.274,259.677L225.552,259.677L225.552,263.334L228.932,263.334C229.678,263.334 230.025,263.791 230.025,264.771L230.025,288.865L226.148,288.865L226.148,292.522Z" style="fill:rgb(254,245,144);fill-rule:nonzero;"/>
        </g>
        <g transform="matrix(0.965701,0,0,0.735106,-102.775,216.633)">
            <path d="M245.484,276.132C245.484,286.253 251.15,293.305 258.556,293.305C261.389,293.305 263.725,292.26 265.316,291.02C266.26,290.302 267.056,289.583 267.801,288.734L266.26,285.404C265.664,286.123 264.968,286.776 264.173,287.363C262.831,288.343 260.992,289.322 258.655,289.322C253.486,289.322 249.112,284.555 248.963,276.132L268.149,276.132L268.248,275.349C268.298,274.892 268.298,274.5 268.298,274.043C268.298,265.881 264.719,258.894 257.81,258.894C251.051,258.894 245.484,265.358 245.484,276.132ZM249.112,272.867C249.907,266.207 253.536,262.616 257.711,262.616C261.389,262.616 264.62,265.881 264.769,272.867L249.112,272.867Z" style="fill:rgb(254,245,144);fill-rule:nonzero;"/>
        </g>
        <g transform="matrix(0.965701,0,0,0.735106,-102.775,216.633)">
            <path d="M284.701,275.936C284.701,286.645 291.262,293.305 298.668,293.305C303.539,293.305 307.416,290.302 309.156,288.147L306.919,282.27C305.527,283.707 302.594,286.318 299.016,286.318C294.691,286.318 291.063,282.597 291.063,275.74C291.063,269.668 293.896,265.489 298.519,265.489C300.656,265.489 303.241,266.468 303.241,268.754L303.241,270.974L308.708,270.974L308.708,266.403C308.708,260.526 302.545,258.437 298.32,258.437C290.516,258.437 284.701,266.011 284.701,275.936Z" style="fill:rgb(254,245,144);fill-rule:nonzero;"/>
        </g>
        <g transform="matrix(0.965701,0,0,0.735106,-102.775,216.633)">
            <path d="M313.032,292.522L326.652,292.522L326.652,286.318L323.023,286.318L323.023,279.071C323.023,272.802 325.31,266.925 330.429,266.925C330.877,266.925 331.175,266.925 331.523,266.991C331.672,267.056 331.821,267.056 331.97,267.056L331.97,258.894C331.871,258.894 331.771,258.894 331.622,258.829C331.423,258.763 331.175,258.763 330.827,258.763C326.9,258.763 323.968,262.55 322.775,267.317L322.675,267.317C322.675,267.121 322.675,266.925 322.725,266.729C322.775,266.272 322.775,265.815 322.775,265.228L322.775,263.269C322.775,260.592 321.631,259.22 319.395,259.22L312.784,259.22L312.784,265.424L315.617,265.424C316.363,265.424 316.711,265.881 316.711,266.86L316.711,286.318L313.032,286.318L313.032,292.522Z" style="fill:rgb(254,245,144);fill-rule:nonzero;"/>
        </g>
        <g transform="matrix(0.965701,0,0,0.735106,-102.775,216.633)">
            <path d="M343.849,255.107L349.367,255.107L356.077,246.226L349.218,246.226L343.849,255.107ZM334.604,275.871C334.604,285.274 339.823,293.305 348.224,293.305C351.405,293.305 353.94,292.195 355.729,290.955C356.773,290.236 357.717,289.518 358.463,288.669L356.027,282.792C355.381,283.445 354.685,284.033 353.89,284.555C352.548,285.535 350.808,286.318 348.671,286.318C344.844,286.318 341.464,283.119 341.066,277.046L358.612,277.046L358.711,276.002C358.761,275.414 358.761,274.696 358.761,274.239C358.761,265.424 354.785,258.437 347.478,258.437C339.873,258.437 334.604,265.619 334.604,275.871ZM341.215,272.149C341.812,267.709 344.098,264.836 347.329,264.836C350.063,264.836 352.1,267.513 352.25,272.149L341.215,272.149Z" style="fill:rgb(254,245,144);fill-rule:nonzero;"/>
        </g>
        <g transform="matrix(0.965701,0,0,0.735106,-102.775,216.633)">
            <path d="M361.992,283.184C361.992,289.975 366.018,293.305 370.392,293.305C373.374,293.305 375.263,291.738 376.605,290.106C377.351,289.126 377.947,288.081 378.394,286.906L378.494,286.906C378.494,287.037 378.494,287.167 378.444,287.363C378.394,287.69 378.345,288.081 378.345,288.604L378.345,288.996C378.345,290.889 379.239,292.522 381.575,292.522L387.54,292.522L387.54,286.318L385.254,286.318C384.508,286.318 384.16,285.861 384.16,284.882L384.16,271.561C384.16,263.008 380.532,258.437 373.722,258.437C370.69,258.437 368.155,259.416 366.415,260.461C365.372,261.049 364.477,261.767 363.682,262.55L366.018,268.297C366.664,267.709 367.41,267.121 368.205,266.664C369.547,265.881 371.237,265.097 373.175,265.097C375.81,265.097 377.848,266.599 377.848,270.843L377.848,271.953L376.257,271.953C372.181,271.953 361.992,272.998 361.992,283.184ZM368.354,282.531C368.354,277.503 374.319,276.981 376.853,276.981L377.897,276.981L377.897,278.091C377.897,282.27 375.462,287.102 372.032,287.102C369.696,287.102 368.354,285.078 368.354,282.531Z" style="fill:rgb(254,245,144);fill-rule:nonzero;"/>
        </g>
        <g transform="matrix(0.965701,0,0,0.735106,-102.775,216.633)">
            <path d="M393.206,280.311C393.206,291.477 400.215,292.848 403.793,292.848C404.39,292.848 404.837,292.848 405.185,292.783L405.732,292.652L405.732,285.861L405.434,285.861C405.235,285.861 404.937,285.927 404.589,285.927C402.799,285.927 399.519,285.208 399.519,279.462L399.519,265.424L405.285,265.424L405.285,259.22L399.519,259.22L399.519,250.144L393.405,250.144L393.405,259.22L389.329,259.22L389.329,265.424L393.206,265.424L393.206,280.311Z" style="fill:rgb(254,245,144);fill-rule:nonzero;"/>
        </g>
        <g transform="matrix(0.965701,0,0,0.735106,-102.775,216.633)">
            <path d="M413.188,253.54L419.55,253.54L419.55,246.161L413.188,246.161L413.188,253.54ZM409.559,292.522L423.178,292.522L423.178,286.318L419.55,286.318L419.55,259.22L409.311,259.22L409.311,265.424L413.237,265.424L413.237,286.318L409.559,286.318L409.559,292.522Z" style="fill:rgb(254,245,144);fill-rule:nonzero;"/>
        </g>
        <g transform="matrix(0.965701,0,0,0.735106,-102.775,216.633)">
            <path d="M424.769,265.424L427.851,265.424L435.555,292.522L442.812,292.522L450.566,265.424L453.598,265.424L453.598,259.22L441.42,259.22L441.42,265.424L444.303,265.424L439.879,281.878C439.68,282.727 439.581,283.641 439.432,284.36L439.283,285.535L439.134,285.535L438.985,284.36C438.835,283.641 438.736,282.727 438.487,281.878L434.113,265.424L436.947,265.424L436.947,259.22L424.769,259.22L424.769,265.424Z" style="fill:rgb(254,245,144);fill-rule:nonzero;"/>
        </g>
        <g transform="matrix(0.965701,0,0,0.735106,-102.775,216.633)">
            <path d="M460.01,253.54L466.372,253.54L466.372,246.161L460.01,246.161L460.01,253.54ZM456.381,292.522L470,292.522L470,286.318L466.372,286.318L466.372,259.22L456.133,259.22L456.133,265.424L460.059,265.424L460.059,286.318L456.381,286.318L456.381,292.522Z" style="fill:rgb(254,245,144);fill-rule:nonzero;"/>
        </g>
        <g transform="matrix(0.965701,0,0,0.735106,-102.775,216.633)">
            <path d="M476.064,280.311C476.064,291.477 483.073,292.848 486.651,292.848C487.248,292.848 487.695,292.848 488.043,292.783L488.59,292.652L488.59,285.861L488.292,285.861C488.093,285.861 487.795,285.927 487.447,285.927C485.657,285.927 482.377,285.208 482.377,279.462L482.377,265.424L488.143,265.424L488.143,259.22L482.377,259.22L482.377,250.144L476.263,250.144L476.263,259.22L472.187,259.22L472.187,265.424L476.064,265.424L476.064,280.311Z" style="fill:rgb(254,245,144);fill-rule:nonzero;"/>
        </g>
        <g transform="matrix(0.965701,0,0,0.735106,-102.775,216.633)">
            <path d="M501.116,255.107L506.633,255.107L513.343,246.226L506.484,246.226L501.116,255.107ZM491.87,275.871C491.87,285.274 497.089,293.305 505.49,293.305C508.671,293.305 511.206,292.195 512.995,290.955C514.039,290.236 514.983,289.518 515.729,288.669L513.293,282.792C512.647,283.445 511.951,284.033 511.156,284.555C509.814,285.535 508.074,286.318 505.937,286.318C502.11,286.318 498.73,283.119 498.332,277.046L515.878,277.046L515.977,276.002C516.027,275.414 516.027,274.696 516.027,274.239C516.027,265.424 512.051,258.437 504.744,258.437C497.139,258.437 491.87,265.619 491.87,275.871ZM498.481,272.149C499.078,267.709 501.364,264.836 504.595,264.836C507.329,264.836 509.367,267.513 509.516,272.149L498.481,272.149Z" style="fill:rgb(254,245,144);fill-rule:nonzero;"/>
        </g>
        <g transform="matrix(0.965701,0,0,0.735106,-102.775,216.633)">
            <path d="M521.693,279.136L527.211,279.136L527.757,246.161L521.196,246.161L521.693,279.136ZM521.445,292.522L527.558,292.522L527.558,284.751L521.445,284.751L521.445,292.522Z" style="fill:rgb(254,245,144);fill-rule:nonzero;"/>
        </g>
    </g>
    <g transform="matrix(0.538988,0,0,0.418483,546.408,196.451)">
        <path d="M117.009,173.601C117.009,242.173 157.767,295.324 213.555,295.324C238.774,295.324 287.939,284.825 287.939,249.063L287.939,211.332L247.181,211.332L247.181,229.377C247.181,243.485 225.019,246.11 216.867,246.11C186.553,246.11 164.136,218.878 164.136,170.32C164.136,127.012 184.77,102.077 214.319,102.077C226.547,102.077 245.143,105.686 245.143,118.81L245.143,136.855L285.901,136.855L285.901,99.781C285.901,61.722 234.444,52.863 212.282,52.863C159.041,52.863 117.009,103.718 117.009,173.601Z" style="fill:rgb(254,245,144);fill-rule:nonzero;"/>
        <path d="M308.828,291.387L388.561,291.387L388.561,250.375L370.729,250.375L370.729,225.768C370.729,194.599 382.447,174.914 406.902,174.914C409.704,174.914 411.487,174.914 413.271,175.242L415.818,175.898L415.818,120.122C415.563,120.122 415.054,120.122 414.29,119.794C413.525,119.466 412.506,119.466 410.723,119.466C391.108,119.466 374.55,138.496 368.946,161.462L368.437,161.462C368.437,160.806 368.437,160.15 368.691,159.165C368.946,158.181 368.946,155.884 368.946,152.932L368.946,144.073C368.946,128.653 362.323,122.419 350.35,122.419L308.828,122.419L308.828,163.431L321.055,163.431C324.876,163.431 326.659,165.727 326.659,170.649L326.659,250.375L308.828,250.375L308.828,291.387Z" style="fill:rgb(254,245,144);fill-rule:nonzero;"/>
        <path d="M426.517,206.739C426.517,251.687 451.736,295.324 498.608,295.324C516.695,295.324 530.196,289.746 540.131,283.512C545.735,279.903 550.83,275.966 555.16,271.701L539.112,232.33C535.8,235.283 531.979,237.907 527.903,240.204C521.025,244.141 512.109,248.406 502.175,248.406C487.909,248.406 474.917,239.22 471.606,217.238L554.906,217.238L555.415,210.676C555.67,207.067 555.924,202.802 555.924,200.177C555.924,153.26 534.017,118.482 494.787,118.482C452.5,118.482 426.517,157.197 426.517,206.739ZM472.625,186.069C474.917,172.945 480.776,161.134 493.768,161.134C503.703,161.134 510.326,172.617 510.326,186.069L472.625,186.069ZM471.351,106.014L507.524,106.014L545.99,56.801L500.901,56.801L471.351,106.014Z" style="fill:rgb(254,245,144);fill-rule:nonzero;"/>
        <path d="M569.68,206.739C569.68,251.687 594.9,295.324 641.771,295.324C659.858,295.324 673.359,289.746 683.294,283.512C688.898,279.903 693.993,275.966 698.324,271.701L682.275,232.33C678.963,235.283 675.142,237.907 671.066,240.204C664.189,244.141 655.273,248.406 645.338,248.406C631.072,248.406 618.081,239.22 614.769,217.238L698.069,217.238L698.578,210.676C698.833,207.067 699.088,202.802 699.088,200.177C699.088,153.26 677.18,118.482 637.95,118.482C595.664,118.482 569.68,157.197 569.68,206.739ZM615.788,186.069C618.081,172.945 623.94,161.134 636.931,161.134C646.866,161.134 653.489,172.617 653.489,186.069L615.788,186.069Z" style="fill:rgb(254,245,144);fill-rule:nonzero;"/>
        <path d="M716.41,291.387L796.143,291.387L796.143,250.375L778.312,250.375L778.312,225.768C778.312,194.599 790.03,174.914 814.485,174.914C817.287,174.914 819.07,174.914 820.853,175.242L823.4,175.898L823.4,120.122C823.146,120.122 822.636,120.122 821.872,119.794C821.108,119.466 820.089,119.466 818.306,119.466C798.691,119.466 782.133,138.496 776.528,161.462L776.019,161.462C776.019,160.806 776.019,160.15 776.274,159.165C776.528,158.181 776.528,155.884 776.528,152.932L776.528,144.073C776.528,128.653 769.905,122.419 757.932,122.419L716.41,122.419L716.41,163.431L728.637,163.431C732.459,163.431 734.242,165.727 734.242,170.649L734.242,250.375L716.41,250.375L716.41,291.387Z" style="fill:rgb(254,245,144);fill-rule:nonzero;"/>
        <rect x="840.977" y="237.579" width="41.777" height="53.807" style="fill:rgb(254,245,144);fill-rule:nonzero;"/>
    </g>
</svg>
