<?xml version="1.0" encoding="UTF-8" standalone="no"?>
<!DOCTYPE svg PUBLIC "-//W3C//DTD SVG 1.1//EN" "http://www.w3.org/Graphics/SVG/1.1/DTD/svg11.dtd">
<svg width="100%" height="100%" viewBox="0 0 1024 600" version="1.1" xmlns="http://www.w3.org/2000/svg" xmlns:xlink="http://www.w3.org/1999/xlink" xml:space="preserve" xmlns:serif="http://www.serif.com/" style="fill-rule:evenodd;clip-rule:evenodd;stroke-linejoin:round;stroke-miterlimit:2;">
    <g transform="matrix(1,0,0,1,-116.652,-55.8005)">
        <g transform="matrix(182,0,0,182,108.348,185.293)">
            <path d="M0.053,-0L0.328,-0L0.328,-0.078L0.241,-0.078L0.241,-0.285L0.325,-0.285C0.368,-0.285 0.381,-0.276 0.399,-0.246L0.508,-0.053C0.532,-0.011 0.546,-0 0.606,-0L0.666,-0L0.666,-0.078L0.645,-0.078C0.62,-0.078 0.607,-0.082 0.596,-0.101L0.496,-0.275C0.484,-0.298 0.466,-0.308 0.466,-0.308L0.466,-0.31C0.556,-0.333 0.612,-0.406 0.612,-0.508C0.612,-0.604 0.563,-0.666 0.489,-0.691C0.45,-0.704 0.409,-0.706 0.359,-0.706L0.053,-0.706L0.053,-0.629L0.141,-0.629L0.141,-0.078L0.053,-0.078L0.053,-0ZM0.241,-0.367L0.241,-0.624L0.358,-0.624C0.392,-0.624 0.422,-0.62 0.445,-0.611C0.489,-0.593 0.511,-0.555 0.511,-0.5C0.511,-0.417 0.46,-0.367 0.383,-0.367L0.241,-0.367Z" style="fill-rule:nonzero;"/>
        </g>
        <g transform="matrix(182,0,0,182,234.11,185.293)">
            <path d="M0.041,-0.253C0.041,-0.103 0.15,0.012 0.309,0.012C0.43,0.012 0.506,-0.058 0.506,-0.058L0.466,-0.129C0.466,-0.129 0.403,-0.072 0.315,-0.072C0.225,-0.072 0.146,-0.132 0.14,-0.244L0.51,-0.244C0.51,-0.244 0.513,-0.268 0.513,-0.281C0.513,-0.412 0.438,-0.518 0.294,-0.518C0.15,-0.518 0.041,-0.414 0.041,-0.253ZM0.144,-0.306C0.158,-0.391 0.218,-0.441 0.292,-0.441C0.356,-0.441 0.41,-0.395 0.413,-0.306L0.144,-0.306Z" style="fill-rule:nonzero;"/>
        </g>
        <g transform="matrix(182,0,0,182,335.12,185.293)">
            <path d="M0.04,-0.109C0.04,-0.029 0.146,0.012 0.238,0.012C0.353,0.012 0.441,-0.041 0.441,-0.137C0.441,-0.231 0.352,-0.264 0.274,-0.29C0.213,-0.311 0.157,-0.331 0.157,-0.379C0.157,-0.42 0.199,-0.44 0.247,-0.44C0.296,-0.44 0.336,-0.419 0.336,-0.388L0.336,-0.355L0.421,-0.355L0.421,-0.416C0.421,-0.49 0.317,-0.518 0.246,-0.518C0.158,-0.518 0.059,-0.478 0.059,-0.378C0.059,-0.286 0.142,-0.252 0.217,-0.224C0.287,-0.199 0.343,-0.183 0.343,-0.132C0.343,-0.09 0.298,-0.067 0.241,-0.067C0.185,-0.067 0.125,-0.087 0.125,-0.13L0.125,-0.163L0.04,-0.163L0.04,-0.109Z" style="fill-rule:nonzero;"/>
        </g>
        <g transform="matrix(182,0,0,182,422.662,185.293)">
            <path d="M0.034,0.125L0.034,0.2L0.29,0.2L0.29,0.125L0.21,0.125L0.21,-0.03C0.21,-0.056 0.207,-0.074 0.207,-0.074L0.209,-0.074C0.209,-0.074 0.255,0.012 0.366,0.012C0.498,0.012 0.595,-0.092 0.595,-0.253C0.595,-0.41 0.509,-0.518 0.373,-0.518C0.245,-0.518 0.203,-0.423 0.203,-0.423L0.201,-0.423C0.201,-0.423 0.203,-0.436 0.203,-0.452L0.203,-0.456C0.203,-0.486 0.186,-0.506 0.141,-0.506L0.029,-0.506L0.029,-0.431L0.091,-0.431C0.105,-0.431 0.113,-0.424 0.113,-0.409L0.113,0.125L0.034,0.125ZM0.208,-0.251C0.208,-0.38 0.278,-0.433 0.353,-0.433C0.438,-0.433 0.497,-0.362 0.497,-0.252C0.497,-0.137 0.431,-0.072 0.351,-0.072C0.257,-0.072 0.208,-0.161 0.208,-0.251Z" style="fill-rule:nonzero;"/>
        </g>
        <g transform="matrix(182,0,0,182,538.596,185.293)">
            <path d="M0.125,-0.607L0.227,-0.607L0.227,-0.706L0.125,-0.706L0.125,-0.607ZM0.048,-0L0.304,-0L0.304,-0.075L0.224,-0.075L0.224,-0.506L0.043,-0.506L0.043,-0.431L0.127,-0.431L0.127,-0.075L0.048,-0.075L0.048,-0Z" style="fill-rule:nonzero;"/>
        </g>
        <g transform="matrix(182,0,0,182,599.748,185.293)">
            <path d="M0.05,-0L0.298,-0L0.298,-0.075L0.223,-0.075L0.223,-0.209C0.223,-0.308 0.269,-0.417 0.377,-0.417C0.393,-0.417 0.405,-0.414 0.405,-0.414L0.405,-0.51C0.405,-0.51 0.393,-0.512 0.38,-0.512C0.302,-0.512 0.243,-0.454 0.22,-0.38L0.218,-0.38C0.218,-0.38 0.22,-0.395 0.22,-0.415L0.22,-0.447C0.22,-0.488 0.199,-0.506 0.155,-0.506L0.041,-0.506L0.041,-0.431L0.104,-0.431C0.118,-0.431 0.126,-0.424 0.126,-0.409L0.126,-0.075L0.05,-0.075L0.05,-0Z" style="fill-rule:nonzero;"/>
        </g>
        <g transform="matrix(182,0,0,182,676.734,185.293)">
            <path d="M0.041,-0.253C0.041,-0.103 0.15,0.012 0.309,0.012C0.43,0.012 0.506,-0.058 0.506,-0.058L0.466,-0.129C0.466,-0.129 0.403,-0.072 0.315,-0.072C0.225,-0.072 0.146,-0.132 0.14,-0.244L0.51,-0.244C0.51,-0.244 0.513,-0.268 0.513,-0.281C0.513,-0.412 0.438,-0.518 0.294,-0.518C0.15,-0.518 0.041,-0.414 0.041,-0.253ZM0.144,-0.306C0.158,-0.391 0.218,-0.441 0.292,-0.441C0.356,-0.441 0.41,-0.395 0.413,-0.306L0.144,-0.306Z" style="fill-rule:nonzero;"/>
        </g>
        <g transform="matrix(182,0,0,182,777.744,185.293)">
            <path d="M0.05,-0L0.298,-0L0.298,-0.075L0.223,-0.075L0.223,-0.209C0.223,-0.308 0.269,-0.417 0.377,-0.417C0.393,-0.417 0.405,-0.414 0.405,-0.414L0.405,-0.51C0.405,-0.51 0.393,-0.512 0.38,-0.512C0.302,-0.512 0.243,-0.454 0.22,-0.38L0.218,-0.38C0.218,-0.38 0.22,-0.395 0.22,-0.415L0.22,-0.447C0.22,-0.488 0.199,-0.506 0.155,-0.506L0.041,-0.506L0.041,-0.431L0.104,-0.431C0.118,-0.431 0.126,-0.424 0.126,-0.409L0.126,-0.075L0.05,-0.075L0.05,-0Z" style="fill-rule:nonzero;"/>
        </g>
        <g transform="matrix(182,0,0,182,854.73,185.293)">
            <rect x="0.076" y="-0.105" width="0.104" height="0.105" style="fill-rule:nonzero;"/>
        </g>
    </g>
    <g transform="matrix(1,0,0,1,-113.652,100.335)">
        <g transform="matrix(116,0,0,116,108.348,138.349)">
            <path d="M0.272,-0.752L0.344,-0.752L0.457,-0.871L0.37,-0.871L0.272,-0.752ZM0.054,-0L0.569,-0L0.569,-0.151L0.506,-0.151L0.506,-0.06L0.216,-0.06L0.216,-0.324L0.482,-0.324L0.482,-0.384L0.216,-0.384L0.216,-0.643L0.487,-0.643L0.487,-0.557L0.551,-0.557L0.551,-0.703L0.054,-0.703L0.054,-0.645L0.146,-0.645L0.146,-0.058L0.054,-0.058L0.054,-0Z" style="fill-rule:nonzero;"/>
        </g>
        <g transform="matrix(116,0,0,116,180.964,138.349)">
            <path d="M0.046,-0.25C0.046,-0.09 0.167,0.012 0.311,0.012C0.427,0.012 0.497,-0.056 0.507,-0.066L0.478,-0.118C0.471,-0.111 0.41,-0.049 0.313,-0.049C0.205,-0.049 0.116,-0.127 0.116,-0.252C0.116,-0.374 0.201,-0.454 0.31,-0.454C0.356,-0.454 0.432,-0.433 0.432,-0.388L0.432,-0.351L0.495,-0.351L0.495,-0.406C0.495,-0.489 0.373,-0.515 0.309,-0.515C0.164,-0.515 0.046,-0.406 0.046,-0.25Z" style="fill-rule:nonzero;"/>
        </g>
        <g transform="matrix(116,0,0,116,244.764,138.349)">
            <path d="M0.045,-0.254C0.045,-0.102 0.164,0.012 0.31,0.012C0.457,0.012 0.576,-0.102 0.576,-0.254C0.576,-0.402 0.457,-0.515 0.31,-0.515C0.164,-0.515 0.045,-0.402 0.045,-0.254ZM0.115,-0.254C0.115,-0.369 0.203,-0.454 0.31,-0.454C0.418,-0.454 0.506,-0.369 0.506,-0.254C0.506,-0.137 0.418,-0.049 0.31,-0.049C0.203,-0.049 0.115,-0.137 0.115,-0.254Z" style="fill-rule:nonzero;"/>
        </g>
        <g transform="matrix(116,0,0,116,316.8,138.349)">
            <path d="M0.107,-0.183C0.107,-0.051 0.155,0.012 0.272,0.012C0.397,0.012 0.458,-0.08 0.471,-0.117L0.473,-0.117L0.473,-0.107C0.473,-0.1 0.472,-0.092 0.472,-0.081L0.472,-0.056C0.472,-0.017 0.489,-0 0.532,-0L0.617,-0L0.617,-0.055L0.56,-0.055C0.545,-0.055 0.538,-0.062 0.538,-0.077L0.538,-0.503L0.38,-0.503L0.38,-0.447L0.47,-0.447L0.47,-0.264C0.47,-0.155 0.398,-0.051 0.285,-0.051C0.187,-0.051 0.175,-0.12 0.175,-0.2L0.175,-0.503L0.017,-0.503L0.017,-0.447L0.107,-0.447L0.107,-0.183Z" style="fill-rule:nonzero;"/>
        </g>
        <g transform="matrix(116,0,0,116,391.736,138.349)">
            <path d="M0.108,-0.183C0.108,-0.015 0.226,0.004 0.284,0.004C0.295,0.004 0.302,0.004 0.305,0.003C0.308,0.002 0.31,0.002 0.313,0.002L0.313,-0.057C0.312,-0.057 0.31,-0.057 0.307,-0.056C0.304,-0.055 0.299,-0.055 0.29,-0.055C0.251,-0.055 0.176,-0.072 0.176,-0.189L0.176,-0.447L0.303,-0.447L0.303,-0.503L0.176,-0.503L0.176,-0.642L0.109,-0.642L0.109,-0.503L0.018,-0.503L0.018,-0.447L0.108,-0.447L0.108,-0.183Z" style="fill-rule:nonzero;"/>
        </g>
        <g transform="matrix(116,0,0,116,431.06,138.349)">
            <path d="M0.047,-0.251C0.047,-0.096 0.161,0.012 0.31,0.012C0.367,0.012 0.414,-0.004 0.446,-0.023C0.465,-0.034 0.481,-0.045 0.496,-0.058L0.465,-0.109C0.453,-0.098 0.439,-0.088 0.423,-0.079C0.396,-0.064 0.359,-0.049 0.312,-0.049C0.208,-0.049 0.12,-0.122 0.117,-0.251L0.503,-0.251L0.505,-0.263C0.506,-0.27 0.506,-0.276 0.506,-0.283C0.506,-0.408 0.434,-0.515 0.295,-0.515C0.159,-0.515 0.047,-0.416 0.047,-0.251ZM0.12,-0.301C0.136,-0.403 0.209,-0.458 0.293,-0.458C0.367,-0.458 0.432,-0.408 0.435,-0.301L0.12,-0.301Z" style="fill-rule:nonzero;"/>
        </g>
        <g transform="matrix(116,0,0,116,495.092,138.349)">
            <path d="M0.051,-0L0.275,-0L0.275,-0.056L0.197,-0.056L0.197,-0.213C0.197,-0.313 0.243,-0.44 0.356,-0.44C0.365,-0.44 0.371,-0.44 0.374,-0.439C0.377,-0.438 0.379,-0.438 0.382,-0.438L0.382,-0.505L0.373,-0.507C0.368,-0.508 0.361,-0.508 0.354,-0.508C0.275,-0.508 0.22,-0.45 0.195,-0.374L0.193,-0.374C0.193,-0.377 0.193,-0.381 0.194,-0.385C0.195,-0.392 0.195,-0.401 0.195,-0.412L0.195,-0.446C0.195,-0.486 0.177,-0.503 0.134,-0.503L0.039,-0.503L0.039,-0.447L0.107,-0.447C0.122,-0.447 0.129,-0.44 0.129,-0.425L0.129,-0.056L0.051,-0.056L0.051,-0Z" style="fill-rule:nonzero;"/>
        </g>
        <g transform="matrix(116,0,0,116,541.376,138.349)">
            <rect x="0.081" y="-0.083" width="0.081" height="0.083" style="fill-rule:nonzero;"/>
        </g>
    </g>
    <g transform="matrix(1,0,0,1,-106.491,201.586)">
        <g transform="matrix(21.7,0,0,21.7,108.348,72.2075)">
            <path d="M0.054,-0L0.308,-0L0.308,-0.058L0.216,-0.058L0.216,-0.645L0.308,-0.645L0.308,-0.703L0.054,-0.703L0.054,-0.645L0.146,-0.645L0.146,-0.058L0.054,-0.058L0.054,-0Z" style="fill-rule:nonzero;"/>
        </g>
        <g transform="matrix(21.7,0,0,21.7,116.203,72.2075)">
            <path d="M0.089,-0.126C0.089,-0.03 0.136,0.003 0.203,0.003C0.214,0.003 0.223,0.003 0.23,0.002L0.242,-0L0.242,-0.058C0.24,-0.058 0.238,-0.058 0.235,-0.057C0.232,-0.056 0.225,-0.056 0.214,-0.056C0.169,-0.056 0.157,-0.09 0.157,-0.131L0.157,-0.703L0,-0.703L0,-0.647L0.089,-0.647L0.089,-0.126Z" style="fill-rule:nonzero;"/>
        </g>
        <g transform="matrix(21.7,0,0,21.7,127.509,72.2075)">
            <path d="M0.047,-0.251C0.047,-0.096 0.161,0.012 0.31,0.012C0.367,0.012 0.414,-0.004 0.446,-0.023C0.465,-0.034 0.481,-0.045 0.496,-0.058L0.465,-0.109C0.453,-0.098 0.439,-0.088 0.423,-0.079C0.396,-0.064 0.359,-0.049 0.312,-0.049C0.208,-0.049 0.12,-0.122 0.117,-0.251L0.503,-0.251L0.505,-0.263C0.506,-0.27 0.506,-0.276 0.506,-0.283C0.506,-0.408 0.434,-0.515 0.295,-0.515C0.159,-0.515 0.047,-0.416 0.047,-0.251ZM0.12,-0.301C0.136,-0.403 0.209,-0.458 0.293,-0.458C0.367,-0.458 0.432,-0.408 0.435,-0.301L0.12,-0.301Z" style="fill-rule:nonzero;"/>
        </g>
        <g transform="matrix(21.7,0,0,21.7,139.488,72.2075)">
            <path d="M0.045,-0.107C0.045,-0.031 0.142,0.012 0.235,0.012C0.347,0.012 0.425,-0.043 0.425,-0.13C0.425,-0.22 0.339,-0.254 0.261,-0.281C0.194,-0.305 0.134,-0.328 0.134,-0.383C0.134,-0.432 0.184,-0.456 0.24,-0.456C0.293,-0.456 0.343,-0.433 0.343,-0.396L0.343,-0.359L0.405,-0.359L0.405,-0.417C0.405,-0.486 0.306,-0.515 0.238,-0.515C0.154,-0.515 0.064,-0.473 0.064,-0.381C0.064,-0.292 0.145,-0.261 0.22,-0.231C0.292,-0.204 0.356,-0.184 0.356,-0.126C0.356,-0.074 0.302,-0.047 0.238,-0.047C0.18,-0.047 0.107,-0.068 0.107,-0.12L0.107,-0.156L0.045,-0.156L0.045,-0.107Z" style="fill-rule:nonzero;"/>
        </g>
        <g transform="matrix(21.7,0,0,21.7,149.687,72.2075)">
            <path d="M0.108,-0.183C0.108,-0.015 0.226,0.004 0.284,0.004C0.295,0.004 0.302,0.004 0.305,0.003C0.308,0.002 0.31,0.002 0.313,0.002L0.313,-0.057C0.312,-0.057 0.31,-0.057 0.307,-0.056C0.304,-0.055 0.299,-0.055 0.29,-0.055C0.251,-0.055 0.176,-0.072 0.176,-0.189L0.176,-0.447L0.303,-0.447L0.303,-0.503L0.176,-0.503L0.176,-0.642L0.109,-0.642L0.109,-0.503L0.018,-0.503L0.018,-0.447L0.108,-0.447L0.108,-0.183Z" style="fill-rule:nonzero;"/>
        </g>
        <g transform="matrix(21.7,0,0,21.7,162.468,72.2075)">
            <path d="M0.108,-0.183C0.108,-0.015 0.226,0.004 0.284,0.004C0.295,0.004 0.302,0.004 0.305,0.003C0.308,0.002 0.31,0.002 0.313,0.002L0.313,-0.057C0.312,-0.057 0.31,-0.057 0.307,-0.056C0.304,-0.055 0.299,-0.055 0.29,-0.055C0.251,-0.055 0.176,-0.072 0.176,-0.189L0.176,-0.447L0.303,-0.447L0.303,-0.503L0.176,-0.503L0.176,-0.642L0.109,-0.642L0.109,-0.503L0.018,-0.503L0.018,-0.447L0.108,-0.447L0.108,-0.183Z" style="fill-rule:nonzero;"/>
        </g>
        <g transform="matrix(21.7,0,0,21.7,169.824,72.2075)">
            <path d="M0.047,-0.251C0.047,-0.096 0.161,0.012 0.31,0.012C0.367,0.012 0.414,-0.004 0.446,-0.023C0.465,-0.034 0.481,-0.045 0.496,-0.058L0.465,-0.109C0.453,-0.098 0.439,-0.088 0.423,-0.079C0.396,-0.064 0.359,-0.049 0.312,-0.049C0.208,-0.049 0.12,-0.122 0.117,-0.251L0.503,-0.251L0.505,-0.263C0.506,-0.27 0.506,-0.276 0.506,-0.283C0.506,-0.408 0.434,-0.515 0.295,-0.515C0.159,-0.515 0.047,-0.416 0.047,-0.251ZM0.12,-0.301C0.136,-0.403 0.209,-0.458 0.293,-0.458C0.367,-0.458 0.432,-0.408 0.435,-0.301L0.12,-0.301Z" style="fill-rule:nonzero;"/>
        </g>
        <g transform="matrix(21.7,0,0,21.7,181.803,72.2075)">
            <path d="M0.046,-0L0.284,-0L0.284,-0.056L0.199,-0.056L0.199,-0.239C0.199,-0.344 0.268,-0.453 0.371,-0.453C0.467,-0.453 0.477,-0.38 0.477,-0.303L0.477,-0L0.63,-0L0.63,-0.056L0.545,-0.056L0.545,-0.241C0.545,-0.345 0.612,-0.453 0.714,-0.453C0.805,-0.453 0.822,-0.385 0.822,-0.303L0.822,-0L0.975,-0L0.975,-0.056L0.89,-0.056L0.89,-0.32C0.89,-0.445 0.845,-0.515 0.724,-0.515C0.638,-0.515 0.567,-0.453 0.538,-0.387L0.536,-0.387C0.521,-0.472 0.475,-0.515 0.383,-0.515C0.302,-0.515 0.222,-0.45 0.196,-0.382L0.194,-0.382L0.196,-0.393C0.197,-0.4 0.198,-0.407 0.198,-0.418L0.198,-0.447C0.198,-0.484 0.178,-0.503 0.137,-0.503L0.041,-0.503L0.041,-0.447L0.109,-0.447C0.124,-0.447 0.131,-0.44 0.131,-0.425L0.131,-0.056L0.046,-0.056L0.046,-0Z" style="fill-rule:nonzero;"/>
        </g>
        <g transform="matrix(21.7,0,0,21.7,203.416,72.2075)">
            <path d="M0.031,0.144L0.031,0.2L0.269,0.2L0.269,0.144L0.184,0.144L0.184,-0.044C0.184,-0.057 0.184,-0.068 0.183,-0.076L0.181,-0.088L0.183,-0.088C0.193,-0.069 0.206,-0.053 0.221,-0.038C0.248,-0.013 0.289,0.012 0.349,0.012C0.48,0.012 0.575,-0.091 0.575,-0.251C0.575,-0.407 0.492,-0.515 0.356,-0.515C0.288,-0.515 0.244,-0.49 0.217,-0.463C0.201,-0.448 0.189,-0.43 0.18,-0.411L0.178,-0.411L0.18,-0.421C0.181,-0.428 0.181,-0.435 0.181,-0.446L0.181,-0.45C0.181,-0.485 0.164,-0.503 0.121,-0.503L0.026,-0.503L0.026,-0.447L0.094,-0.447C0.109,-0.447 0.116,-0.44 0.116,-0.425L0.116,0.144L0.031,0.144ZM0.183,-0.25C0.183,-0.393 0.261,-0.453 0.345,-0.453C0.438,-0.453 0.505,-0.374 0.505,-0.251C0.505,-0.123 0.431,-0.049 0.342,-0.049C0.239,-0.049 0.183,-0.149 0.183,-0.25Z" style="fill-rule:nonzero;"/>
        </g>
        <g transform="matrix(21.7,0,0,21.7,216.935,72.2075)">
            <path d="M0.045,-0.107C0.045,-0.031 0.142,0.012 0.235,0.012C0.347,0.012 0.425,-0.043 0.425,-0.13C0.425,-0.22 0.339,-0.254 0.261,-0.281C0.194,-0.305 0.134,-0.328 0.134,-0.383C0.134,-0.432 0.184,-0.456 0.24,-0.456C0.293,-0.456 0.343,-0.433 0.343,-0.396L0.343,-0.359L0.405,-0.359L0.405,-0.417C0.405,-0.486 0.306,-0.515 0.238,-0.515C0.154,-0.515 0.064,-0.473 0.064,-0.381C0.064,-0.292 0.145,-0.261 0.22,-0.231C0.292,-0.204 0.356,-0.184 0.356,-0.126C0.356,-0.074 0.302,-0.047 0.238,-0.047C0.18,-0.047 0.107,-0.068 0.107,-0.12L0.107,-0.156L0.045,-0.156L0.045,-0.107Z" style="fill-rule:nonzero;"/>
        </g>
        <g transform="matrix(21.7,0,0,21.7,232.559,72.2075)">
            <path d="M0.048,-0.251C0.048,-0.096 0.131,0.012 0.266,0.012C0.334,0.012 0.377,-0.015 0.405,-0.042C0.422,-0.058 0.434,-0.076 0.443,-0.095L0.445,-0.095L0.443,-0.087C0.442,-0.08 0.441,-0.073 0.441,-0.064L0.441,-0.055C0.441,-0.019 0.458,-0 0.501,-0L0.584,-0L0.584,-0.056L0.528,-0.056C0.513,-0.056 0.506,-0.063 0.506,-0.078L0.506,-0.703L0.348,-0.703L0.348,-0.647L0.438,-0.647L0.438,-0.456C0.438,-0.445 0.439,-0.435 0.44,-0.428C0.441,-0.424 0.441,-0.42 0.441,-0.417L0.439,-0.417C0.43,-0.435 0.417,-0.451 0.402,-0.466C0.375,-0.491 0.335,-0.515 0.275,-0.515C0.141,-0.515 0.048,-0.412 0.048,-0.251ZM0.118,-0.251C0.118,-0.379 0.191,-0.453 0.281,-0.453C0.388,-0.453 0.44,-0.354 0.44,-0.251C0.44,-0.109 0.361,-0.049 0.277,-0.049C0.183,-0.049 0.118,-0.128 0.118,-0.251Z" style="fill-rule:nonzero;"/>
        </g>
        <g transform="matrix(21.7,0,0,21.7,245.883,72.2075)">
            <path d="M0.047,-0.251C0.047,-0.096 0.161,0.012 0.31,0.012C0.367,0.012 0.414,-0.004 0.446,-0.023C0.465,-0.034 0.481,-0.045 0.496,-0.058L0.465,-0.109C0.453,-0.098 0.439,-0.088 0.423,-0.079C0.396,-0.064 0.359,-0.049 0.312,-0.049C0.208,-0.049 0.12,-0.122 0.117,-0.251L0.503,-0.251L0.505,-0.263C0.506,-0.27 0.506,-0.276 0.506,-0.283C0.506,-0.408 0.434,-0.515 0.295,-0.515C0.159,-0.515 0.047,-0.416 0.047,-0.251ZM0.12,-0.301C0.136,-0.403 0.209,-0.458 0.293,-0.458C0.367,-0.458 0.432,-0.408 0.435,-0.301L0.12,-0.301Z" style="fill-rule:nonzero;"/>
        </g>
        <g transform="matrix(21.7,0,0,21.7,263.286,72.2075)">
            <path d="M0.046,-0L0.333,-0L0.333,-0.095L0.247,-0.095L0.247,-0.415L0.362,-0.415L0.362,-0.51L0.247,-0.51L0.247,-0.536C0.247,-0.611 0.305,-0.616 0.333,-0.616C0.346,-0.616 0.355,-0.616 0.362,-0.615L0.372,-0.613L0.372,-0.715L0.357,-0.717C0.348,-0.718 0.335,-0.719 0.32,-0.719C0.252,-0.719 0.12,-0.697 0.12,-0.533L0.12,-0.51L0.041,-0.51L0.041,-0.415L0.12,-0.415L0.12,-0.095L0.046,-0.095L0.046,-0Z" style="fill-rule:nonzero;"/>
        </g>
        <g transform="matrix(21.7,0,0,21.7,271.771,72.2075)">
            <path d="M0.028,-0.143C0.028,-0.039 0.109,0.012 0.197,0.012C0.257,0.012 0.295,-0.012 0.322,-0.037C0.337,-0.052 0.349,-0.068 0.358,-0.086L0.36,-0.086C0.36,-0.084 0.36,-0.082 0.359,-0.079C0.358,-0.074 0.357,-0.068 0.357,-0.06L0.357,-0.054C0.357,-0.025 0.375,-0 0.422,-0L0.542,-0L0.542,-0.095L0.496,-0.095C0.481,-0.095 0.474,-0.102 0.474,-0.117L0.474,-0.321C0.474,-0.452 0.401,-0.522 0.264,-0.522C0.203,-0.522 0.152,-0.507 0.117,-0.491C0.096,-0.482 0.078,-0.471 0.062,-0.459L0.109,-0.371C0.122,-0.38 0.137,-0.389 0.153,-0.396C0.18,-0.408 0.214,-0.42 0.253,-0.42C0.306,-0.42 0.347,-0.397 0.347,-0.332L0.347,-0.315L0.315,-0.315C0.233,-0.315 0.028,-0.299 0.028,-0.143ZM0.156,-0.153C0.156,-0.23 0.276,-0.238 0.327,-0.238L0.348,-0.238L0.348,-0.221C0.348,-0.157 0.299,-0.083 0.23,-0.083C0.183,-0.083 0.156,-0.114 0.156,-0.153Z" style="fill-rule:nonzero;"/>
        </g>
        <g transform="matrix(21.7,0,0,21.7,284.031,72.2075)">
            <path d="M0.119,-0.597L0.247,-0.597L0.247,-0.71L0.119,-0.71L0.119,-0.597ZM0.046,-0L0.32,-0L0.32,-0.095L0.247,-0.095L0.247,-0.51L0.041,-0.51L0.041,-0.415L0.12,-0.415L0.12,-0.095L0.046,-0.095L0.046,-0Z" style="fill-rule:nonzero;"/>
        </g>
        <g transform="matrix(21.7,0,0,21.7,291.626,72.2075)">
            <path d="M0.046,-0L0.32,-0L0.32,-0.095L0.247,-0.095L0.247,-0.206C0.247,-0.302 0.293,-0.392 0.396,-0.392C0.405,-0.392 0.411,-0.392 0.418,-0.391C0.421,-0.39 0.424,-0.39 0.427,-0.39L0.427,-0.515C0.425,-0.515 0.423,-0.515 0.42,-0.516C0.416,-0.517 0.411,-0.517 0.404,-0.517C0.325,-0.517 0.266,-0.459 0.242,-0.386L0.24,-0.386C0.24,-0.389 0.24,-0.392 0.241,-0.395C0.242,-0.402 0.242,-0.409 0.242,-0.418L0.242,-0.448C0.242,-0.489 0.219,-0.51 0.174,-0.51L0.041,-0.51L0.041,-0.415L0.098,-0.415C0.113,-0.415 0.12,-0.408 0.12,-0.393L0.12,-0.095L0.046,-0.095L0.046,-0Z" style="fill-rule:nonzero;"/>
        </g>
        <g transform="matrix(21.7,0,0,21.7,301.283,72.2075)">
            <path d="M0.035,-0.255C0.035,-0.111 0.14,0.012 0.309,0.012C0.373,0.012 0.424,-0.005 0.46,-0.024C0.481,-0.035 0.5,-0.046 0.515,-0.059L0.466,-0.149C0.453,-0.139 0.439,-0.13 0.423,-0.122C0.396,-0.107 0.361,-0.095 0.318,-0.095C0.241,-0.095 0.173,-0.144 0.165,-0.237L0.518,-0.237L0.52,-0.253C0.521,-0.262 0.521,-0.273 0.521,-0.28C0.521,-0.415 0.441,-0.522 0.294,-0.522C0.141,-0.522 0.035,-0.412 0.035,-0.255ZM0.168,-0.312C0.18,-0.38 0.226,-0.424 0.291,-0.424C0.346,-0.424 0.387,-0.383 0.39,-0.312L0.168,-0.312Z" style="fill-rule:nonzero;"/>
        </g>
        <g transform="matrix(21.7,0,0,21.7,318.816,72.2075)">
            <path d="M0.101,-0.182C0.101,-0.043 0.167,0.012 0.268,0.012C0.395,0.012 0.448,-0.083 0.454,-0.1L0.456,-0.1L0.456,-0.093C0.456,-0.089 0.455,-0.083 0.455,-0.076L0.455,-0.057C0.455,-0.021 0.476,-0 0.521,-0L0.647,-0L0.647,-0.094L0.598,-0.094C0.583,-0.094 0.576,-0.101 0.576,-0.116L0.576,-0.51L0.371,-0.51L0.371,-0.415L0.449,-0.415L0.449,-0.283C0.449,-0.191 0.396,-0.101 0.308,-0.101C0.244,-0.101 0.228,-0.143 0.228,-0.204L0.228,-0.51L0.022,-0.51L0.022,-0.415L0.101,-0.415L0.101,-0.182Z" style="fill-rule:nonzero;"/>
        </g>
        <g transform="matrix(21.7,0,0,21.7,333.507,72.2075)">
            <path d="M0.046,-0L0.32,-0L0.32,-0.095L0.247,-0.095L0.247,-0.229C0.247,-0.318 0.301,-0.406 0.393,-0.406C0.457,-0.406 0.474,-0.365 0.474,-0.302L0.474,-0L0.674,-0L0.674,-0.095L0.6,-0.095L0.6,-0.328C0.6,-0.464 0.538,-0.522 0.429,-0.522C0.302,-0.522 0.246,-0.424 0.241,-0.408L0.239,-0.408C0.239,-0.41 0.239,-0.412 0.24,-0.415C0.241,-0.419 0.241,-0.425 0.241,-0.43L0.241,-0.453C0.241,-0.489 0.22,-0.51 0.175,-0.51L0.041,-0.51L0.041,-0.415L0.098,-0.415C0.113,-0.415 0.12,-0.408 0.12,-0.393L0.12,-0.095L0.046,-0.095L0.046,-0Z" style="fill-rule:nonzero;"/>
        </g>
        <g transform="matrix(21.7,0,0,21.7,348.632,72.2075)">
            <path d="M0.035,-0.255C0.035,-0.111 0.14,0.012 0.309,0.012C0.373,0.012 0.424,-0.005 0.46,-0.024C0.481,-0.035 0.5,-0.046 0.515,-0.059L0.466,-0.149C0.453,-0.139 0.439,-0.13 0.423,-0.122C0.396,-0.107 0.361,-0.095 0.318,-0.095C0.241,-0.095 0.173,-0.144 0.165,-0.237L0.518,-0.237L0.52,-0.253C0.521,-0.262 0.521,-0.273 0.521,-0.28C0.521,-0.415 0.441,-0.522 0.294,-0.522C0.141,-0.522 0.035,-0.412 0.035,-0.255ZM0.168,-0.312C0.18,-0.38 0.226,-0.424 0.291,-0.424C0.346,-0.424 0.387,-0.383 0.39,-0.312L0.168,-0.312Z" style="fill-rule:nonzero;"/>
        </g>
        <g transform="matrix(21.7,0,0,21.7,366.166,72.2075)">
            <path d="M0.034,0.105L0.034,0.2L0.309,0.2L0.309,0.105L0.235,0.105L0.235,-0.016C0.235,-0.029 0.235,-0.04 0.234,-0.048L0.232,-0.06L0.234,-0.06C0.244,-0.047 0.256,-0.035 0.27,-0.024C0.294,-0.005 0.33,0.012 0.381,0.012C0.515,0.012 0.614,-0.093 0.614,-0.255C0.614,-0.413 0.526,-0.522 0.388,-0.522C0.328,-0.522 0.288,-0.502 0.261,-0.479C0.246,-0.466 0.233,-0.452 0.224,-0.436L0.222,-0.436C0.223,-0.438 0.223,-0.44 0.223,-0.443L0.223,-0.462C0.223,-0.489 0.207,-0.51 0.16,-0.51L0.029,-0.51L0.029,-0.415L0.086,-0.415C0.101,-0.415 0.108,-0.408 0.108,-0.393L0.108,0.105L0.034,0.105ZM0.231,-0.252C0.231,-0.364 0.292,-0.413 0.359,-0.413C0.435,-0.413 0.486,-0.35 0.486,-0.253C0.486,-0.152 0.428,-0.095 0.358,-0.095C0.274,-0.095 0.231,-0.173 0.231,-0.252Z" style="fill-rule:nonzero;"/>
        </g>
        <g transform="matrix(21.7,0,0,21.7,380.271,72.2075)">
            <path d="M0.028,-0.143C0.028,-0.039 0.109,0.012 0.197,0.012C0.257,0.012 0.295,-0.012 0.322,-0.037C0.337,-0.052 0.349,-0.068 0.358,-0.086L0.36,-0.086C0.36,-0.084 0.36,-0.082 0.359,-0.079C0.358,-0.074 0.357,-0.068 0.357,-0.06L0.357,-0.054C0.357,-0.025 0.375,-0 0.422,-0L0.542,-0L0.542,-0.095L0.496,-0.095C0.481,-0.095 0.474,-0.102 0.474,-0.117L0.474,-0.321C0.474,-0.452 0.401,-0.522 0.264,-0.522C0.203,-0.522 0.152,-0.507 0.117,-0.491C0.096,-0.482 0.078,-0.471 0.062,-0.459L0.109,-0.371C0.122,-0.38 0.137,-0.389 0.153,-0.396C0.18,-0.408 0.214,-0.42 0.253,-0.42C0.306,-0.42 0.347,-0.397 0.347,-0.332L0.347,-0.315L0.315,-0.315C0.233,-0.315 0.028,-0.299 0.028,-0.143ZM0.156,-0.153C0.156,-0.23 0.276,-0.238 0.327,-0.238L0.348,-0.238L0.348,-0.221C0.348,-0.157 0.299,-0.083 0.23,-0.083C0.183,-0.083 0.156,-0.114 0.156,-0.153Z" style="fill-rule:nonzero;"/>
        </g>
        <g transform="matrix(21.7,0,0,21.7,392.379,72.2075)">
            <path d="M0.101,-0.182C0.101,-0.043 0.167,0.012 0.268,0.012C0.395,0.012 0.448,-0.083 0.454,-0.1L0.456,-0.1L0.456,-0.093C0.456,-0.089 0.455,-0.083 0.455,-0.076L0.455,-0.057C0.455,-0.021 0.476,-0 0.521,-0L0.647,-0L0.647,-0.094L0.598,-0.094C0.583,-0.094 0.576,-0.101 0.576,-0.116L0.576,-0.51L0.371,-0.51L0.371,-0.415L0.449,-0.415L0.449,-0.283C0.449,-0.191 0.396,-0.101 0.308,-0.101C0.244,-0.101 0.228,-0.143 0.228,-0.204L0.228,-0.51L0.022,-0.51L0.022,-0.415L0.101,-0.415L0.101,-0.182Z" style="fill-rule:nonzero;"/>
        </g>
        <g transform="matrix(21.7,0,0,21.7,407.07,72.2075)">
            <path d="M0.035,-0.111C0.035,-0.028 0.15,0.012 0.242,0.012C0.359,0.012 0.457,-0.039 0.457,-0.143C0.457,-0.243 0.365,-0.276 0.287,-0.3C0.23,-0.316 0.18,-0.334 0.18,-0.376C0.18,-0.408 0.214,-0.422 0.254,-0.422C0.299,-0.422 0.329,-0.407 0.329,-0.38L0.329,-0.351L0.438,-0.351L0.438,-0.416C0.438,-0.493 0.328,-0.522 0.254,-0.522C0.162,-0.522 0.053,-0.484 0.053,-0.376C0.053,-0.278 0.14,-0.245 0.214,-0.218C0.282,-0.194 0.33,-0.181 0.33,-0.139C0.33,-0.104 0.294,-0.087 0.243,-0.087C0.19,-0.087 0.143,-0.105 0.143,-0.14L0.143,-0.17L0.035,-0.17L0.035,-0.111Z" style="fill-rule:nonzero;"/>
        </g>
        <g transform="matrix(21.7,0,0,21.7,417.768,72.2075)">
            <path d="M0.035,-0.255C0.035,-0.111 0.14,0.012 0.309,0.012C0.373,0.012 0.424,-0.005 0.46,-0.024C0.481,-0.035 0.5,-0.046 0.515,-0.059L0.466,-0.149C0.453,-0.139 0.439,-0.13 0.423,-0.122C0.396,-0.107 0.361,-0.095 0.318,-0.095C0.241,-0.095 0.173,-0.144 0.165,-0.237L0.518,-0.237L0.52,-0.253C0.521,-0.262 0.521,-0.273 0.521,-0.28C0.521,-0.415 0.441,-0.522 0.294,-0.522C0.141,-0.522 0.035,-0.412 0.035,-0.255ZM0.168,-0.312C0.18,-0.38 0.226,-0.424 0.291,-0.424C0.346,-0.424 0.387,-0.383 0.39,-0.312L0.168,-0.312Z" style="fill-rule:nonzero;"/>
        </g>
        <g transform="matrix(21.7,0,0,21.7,435.302,72.2075)">
            <path d="M0.031,0.144L0.031,0.2L0.269,0.2L0.269,0.144L0.184,0.144L0.184,-0.044C0.184,-0.057 0.184,-0.068 0.183,-0.076L0.181,-0.088L0.183,-0.088C0.193,-0.069 0.206,-0.053 0.221,-0.038C0.248,-0.013 0.289,0.012 0.349,0.012C0.48,0.012 0.575,-0.091 0.575,-0.251C0.575,-0.407 0.492,-0.515 0.356,-0.515C0.288,-0.515 0.244,-0.49 0.217,-0.463C0.201,-0.448 0.189,-0.43 0.18,-0.411L0.178,-0.411L0.18,-0.421C0.181,-0.428 0.181,-0.435 0.181,-0.446L0.181,-0.45C0.181,-0.485 0.164,-0.503 0.121,-0.503L0.026,-0.503L0.026,-0.447L0.094,-0.447C0.109,-0.447 0.116,-0.44 0.116,-0.425L0.116,0.144L0.031,0.144ZM0.183,-0.25C0.183,-0.393 0.261,-0.453 0.345,-0.453C0.438,-0.453 0.505,-0.374 0.505,-0.251C0.505,-0.123 0.431,-0.049 0.342,-0.049C0.239,-0.049 0.183,-0.149 0.183,-0.25Z" style="fill-rule:nonzero;"/>
        </g>
        <g transform="matrix(21.7,0,0,21.7,448.821,72.2075)">
            <path d="M0.045,-0.254C0.045,-0.102 0.164,0.012 0.31,0.012C0.457,0.012 0.576,-0.102 0.576,-0.254C0.576,-0.402 0.457,-0.515 0.31,-0.515C0.164,-0.515 0.045,-0.402 0.045,-0.254ZM0.115,-0.254C0.115,-0.369 0.203,-0.454 0.31,-0.454C0.418,-0.454 0.506,-0.369 0.506,-0.254C0.506,-0.137 0.418,-0.049 0.31,-0.049C0.203,-0.049 0.115,-0.137 0.115,-0.254Z" style="fill-rule:nonzero;"/>
        </g>
        <g transform="matrix(21.7,0,0,21.7,462.297,72.2075)">
            <path d="M0.107,-0.183C0.107,-0.051 0.155,0.012 0.272,0.012C0.397,0.012 0.458,-0.08 0.471,-0.117L0.473,-0.117L0.473,-0.107C0.473,-0.1 0.472,-0.092 0.472,-0.081L0.472,-0.056C0.472,-0.017 0.489,-0 0.532,-0L0.617,-0L0.617,-0.055L0.56,-0.055C0.545,-0.055 0.538,-0.062 0.538,-0.077L0.538,-0.503L0.38,-0.503L0.38,-0.447L0.47,-0.447L0.47,-0.264C0.47,-0.155 0.398,-0.051 0.285,-0.051C0.187,-0.051 0.175,-0.12 0.175,-0.2L0.175,-0.503L0.017,-0.503L0.017,-0.447L0.107,-0.447L0.107,-0.183Z" style="fill-rule:nonzero;"/>
        </g>
        <g transform="matrix(21.7,0,0,21.7,476.423,72.2075)">
            <path d="M0.051,-0L0.275,-0L0.275,-0.056L0.197,-0.056L0.197,-0.213C0.197,-0.313 0.243,-0.44 0.356,-0.44C0.365,-0.44 0.371,-0.44 0.374,-0.439C0.377,-0.438 0.379,-0.438 0.382,-0.438L0.382,-0.505L0.373,-0.507C0.368,-0.508 0.361,-0.508 0.354,-0.508C0.275,-0.508 0.22,-0.45 0.195,-0.374L0.193,-0.374C0.193,-0.377 0.193,-0.381 0.194,-0.385C0.195,-0.392 0.195,-0.401 0.195,-0.412L0.195,-0.446C0.195,-0.486 0.177,-0.503 0.134,-0.503L0.039,-0.503L0.039,-0.447L0.107,-0.447C0.122,-0.447 0.129,-0.44 0.129,-0.425L0.129,-0.056L0.051,-0.056L0.051,-0Z" style="fill-rule:nonzero;"/>
        </g>
        <g transform="matrix(21.7,0,0,21.7,490.507,72.2075)">
            <path d="M0.008,-0.447L0.074,-0.447L0.245,-0L0.318,-0L0.489,-0.447L0.555,-0.447L0.555,-0.503L0.347,-0.503L0.347,-0.447L0.419,-0.447L0.293,-0.11C0.29,-0.101 0.288,-0.092 0.285,-0.084C0.284,-0.079 0.283,-0.075 0.283,-0.071L0.28,-0.071C0.28,-0.075 0.279,-0.079 0.278,-0.084C0.275,-0.092 0.274,-0.101 0.27,-0.11L0.144,-0.447L0.216,-0.447L0.216,-0.503L0.008,-0.503L0.008,-0.447Z" style="fill-rule:nonzero;"/>
        </g>
        <g transform="matrix(21.7,0,0,21.7,502.724,72.2075)">
            <path d="M0.045,-0.254C0.045,-0.102 0.164,0.012 0.31,0.012C0.457,0.012 0.576,-0.102 0.576,-0.254C0.576,-0.402 0.457,-0.515 0.31,-0.515C0.164,-0.515 0.045,-0.402 0.045,-0.254ZM0.115,-0.254C0.115,-0.369 0.203,-0.454 0.31,-0.454C0.418,-0.454 0.506,-0.369 0.506,-0.254C0.506,-0.137 0.418,-0.049 0.31,-0.049C0.203,-0.049 0.115,-0.137 0.115,-0.254Z" style="fill-rule:nonzero;"/>
        </g>
        <g transform="matrix(21.7,0,0,21.7,516.2,72.2075)">
            <path d="M0.107,-0.183C0.107,-0.051 0.155,0.012 0.272,0.012C0.397,0.012 0.458,-0.08 0.471,-0.117L0.473,-0.117L0.473,-0.107C0.473,-0.1 0.472,-0.092 0.472,-0.081L0.472,-0.056C0.472,-0.017 0.489,-0 0.532,-0L0.617,-0L0.617,-0.055L0.56,-0.055C0.545,-0.055 0.538,-0.062 0.538,-0.077L0.538,-0.503L0.38,-0.503L0.38,-0.447L0.47,-0.447L0.47,-0.264C0.47,-0.155 0.398,-0.051 0.285,-0.051C0.187,-0.051 0.175,-0.12 0.175,-0.2L0.175,-0.503L0.017,-0.503L0.017,-0.447L0.107,-0.447L0.107,-0.183Z" style="fill-rule:nonzero;"/>
        </g>
        <g transform="matrix(21.7,0,0,21.7,530.326,72.2075)">
            <path d="M0.045,-0.107C0.045,-0.031 0.142,0.012 0.235,0.012C0.347,0.012 0.425,-0.043 0.425,-0.13C0.425,-0.22 0.339,-0.254 0.261,-0.281C0.194,-0.305 0.134,-0.328 0.134,-0.383C0.134,-0.432 0.184,-0.456 0.24,-0.456C0.293,-0.456 0.343,-0.433 0.343,-0.396L0.343,-0.359L0.405,-0.359L0.405,-0.417C0.405,-0.486 0.306,-0.515 0.238,-0.515C0.154,-0.515 0.064,-0.473 0.064,-0.381C0.064,-0.292 0.145,-0.261 0.22,-0.231C0.292,-0.204 0.356,-0.184 0.356,-0.126C0.356,-0.074 0.302,-0.047 0.238,-0.047C0.18,-0.047 0.107,-0.068 0.107,-0.12L0.107,-0.156L0.045,-0.156L0.045,-0.107Z" style="fill-rule:nonzero;"/>
        </g>
        <g transform="matrix(21.7,0,0,21.7,545.95,72.2075)">
            <path d="M0.251,0.095C0.175,-0.041 0.138,-0.186 0.138,-0.337C0.138,-0.478 0.178,-0.607 0.251,-0.73L0.187,-0.73C0.115,-0.613 0.075,-0.482 0.075,-0.337C0.075,-0.178 0.118,-0.026 0.187,0.095L0.251,0.095Z" style="fill-rule:nonzero;"/>
        </g>
        <g transform="matrix(21.7,0,0,21.7,552.482,72.2075)">
            <path d="M0.051,-0L0.275,-0L0.275,-0.056L0.197,-0.056L0.197,-0.213C0.197,-0.313 0.243,-0.44 0.356,-0.44C0.365,-0.44 0.371,-0.44 0.374,-0.439C0.377,-0.438 0.379,-0.438 0.382,-0.438L0.382,-0.505L0.373,-0.507C0.368,-0.508 0.361,-0.508 0.354,-0.508C0.275,-0.508 0.22,-0.45 0.195,-0.374L0.193,-0.374C0.193,-0.377 0.193,-0.381 0.194,-0.385C0.195,-0.392 0.195,-0.401 0.195,-0.412L0.195,-0.446C0.195,-0.486 0.177,-0.503 0.134,-0.503L0.039,-0.503L0.039,-0.447L0.107,-0.447C0.122,-0.447 0.129,-0.44 0.129,-0.425L0.129,-0.056L0.051,-0.056L0.051,-0Z" style="fill-rule:nonzero;"/>
        </g>
        <g transform="matrix(21.7,0,0,21.7,561.01,72.2075)">
            <path d="M0.047,-0.251C0.047,-0.096 0.161,0.012 0.31,0.012C0.367,0.012 0.414,-0.004 0.446,-0.023C0.465,-0.034 0.481,-0.045 0.496,-0.058L0.465,-0.109C0.453,-0.098 0.439,-0.088 0.423,-0.079C0.396,-0.064 0.359,-0.049 0.312,-0.049C0.208,-0.049 0.12,-0.122 0.117,-0.251L0.503,-0.251L0.505,-0.263C0.506,-0.27 0.506,-0.276 0.506,-0.283C0.506,-0.408 0.434,-0.515 0.295,-0.515C0.159,-0.515 0.047,-0.416 0.047,-0.251ZM0.12,-0.301C0.136,-0.403 0.209,-0.458 0.293,-0.458C0.367,-0.458 0.432,-0.408 0.435,-0.301L0.12,-0.301Z" style="fill-rule:nonzero;"/>
        </g>
        <g transform="matrix(21.7,0,0,21.7,572.988,72.2075)">
            <path d="M0.113,0.095C0.184,-0.026 0.226,-0.178 0.226,-0.337C0.226,-0.482 0.185,-0.613 0.113,-0.73L0.05,-0.73C0.122,-0.607 0.163,-0.478 0.163,-0.337C0.163,-0.186 0.126,-0.041 0.05,0.095L0.113,0.095Z" style="fill-rule:nonzero;"/>
        </g>
        <g transform="matrix(21.7,0,0,21.7,579.52,72.2075)">
            <path d="M0.046,-0.25C0.046,-0.09 0.167,0.012 0.311,0.012C0.427,0.012 0.497,-0.056 0.507,-0.066L0.478,-0.118C0.471,-0.111 0.41,-0.049 0.313,-0.049C0.205,-0.049 0.116,-0.127 0.116,-0.252C0.116,-0.374 0.201,-0.454 0.31,-0.454C0.356,-0.454 0.432,-0.433 0.432,-0.388L0.432,-0.351L0.495,-0.351L0.495,-0.406C0.495,-0.489 0.373,-0.515 0.309,-0.515C0.164,-0.515 0.046,-0.406 0.046,-0.25Z" style="fill-rule:nonzero;"/>
        </g>
        <g transform="matrix(21.7,0,0,21.7,591.455,72.2075)">
            <path d="M0.045,-0.254C0.045,-0.102 0.164,0.012 0.31,0.012C0.457,0.012 0.576,-0.102 0.576,-0.254C0.576,-0.402 0.457,-0.515 0.31,-0.515C0.164,-0.515 0.045,-0.402 0.045,-0.254ZM0.115,-0.254C0.115,-0.369 0.203,-0.454 0.31,-0.454C0.418,-0.454 0.506,-0.369 0.506,-0.254C0.506,-0.137 0.418,-0.049 0.31,-0.049C0.203,-0.049 0.115,-0.137 0.115,-0.254Z" style="fill-rule:nonzero;"/>
        </g>
        <g transform="matrix(21.7,0,0,21.7,604.931,72.2075)">
            <path d="M0.046,-0L0.284,-0L0.284,-0.056L0.199,-0.056L0.199,-0.242C0.199,-0.353 0.278,-0.451 0.39,-0.451C0.487,-0.451 0.5,-0.382 0.5,-0.302L0.5,-0L0.653,-0L0.653,-0.056L0.568,-0.056L0.568,-0.32C0.568,-0.444 0.525,-0.515 0.401,-0.515C0.276,-0.515 0.209,-0.419 0.196,-0.382L0.194,-0.382L0.196,-0.393C0.197,-0.4 0.198,-0.407 0.198,-0.418L0.198,-0.447C0.198,-0.484 0.178,-0.503 0.137,-0.503L0.041,-0.503L0.041,-0.447L0.109,-0.447C0.124,-0.447 0.131,-0.44 0.131,-0.425L0.131,-0.056L0.046,-0.056L0.046,-0Z" style="fill-rule:nonzero;"/>
        </g>
        <g transform="matrix(21.7,0,0,21.7,619.557,72.2075)">
            <path d="M0.046,-0L0.284,-0L0.284,-0.056L0.199,-0.056L0.199,-0.242C0.199,-0.353 0.278,-0.451 0.39,-0.451C0.487,-0.451 0.5,-0.382 0.5,-0.302L0.5,-0L0.653,-0L0.653,-0.056L0.568,-0.056L0.568,-0.32C0.568,-0.444 0.525,-0.515 0.401,-0.515C0.276,-0.515 0.209,-0.419 0.196,-0.382L0.194,-0.382L0.196,-0.393C0.197,-0.4 0.198,-0.407 0.198,-0.418L0.198,-0.447C0.198,-0.484 0.178,-0.503 0.137,-0.503L0.041,-0.503L0.041,-0.447L0.109,-0.447C0.124,-0.447 0.131,-0.44 0.131,-0.425L0.131,-0.056L0.046,-0.056L0.046,-0Z" style="fill-rule:nonzero;"/>
        </g>
        <g transform="matrix(21.7,0,0,21.7,634.182,72.2075)">
            <path d="M0.047,-0.251C0.047,-0.096 0.161,0.012 0.31,0.012C0.367,0.012 0.414,-0.004 0.446,-0.023C0.465,-0.034 0.481,-0.045 0.496,-0.058L0.465,-0.109C0.453,-0.098 0.439,-0.088 0.423,-0.079C0.396,-0.064 0.359,-0.049 0.312,-0.049C0.208,-0.049 0.12,-0.122 0.117,-0.251L0.503,-0.251L0.505,-0.263C0.506,-0.27 0.506,-0.276 0.506,-0.283C0.506,-0.408 0.434,-0.515 0.295,-0.515C0.159,-0.515 0.047,-0.416 0.047,-0.251ZM0.12,-0.301C0.136,-0.403 0.209,-0.458 0.293,-0.458C0.367,-0.458 0.432,-0.408 0.435,-0.301L0.12,-0.301Z" style="fill-rule:nonzero;"/>
        </g>
        <g transform="matrix(21.7,0,0,21.7,646.161,72.2075)">
            <path d="M0.046,-0.25C0.046,-0.09 0.167,0.012 0.311,0.012C0.427,0.012 0.497,-0.056 0.507,-0.066L0.478,-0.118C0.471,-0.111 0.41,-0.049 0.313,-0.049C0.205,-0.049 0.116,-0.127 0.116,-0.252C0.116,-0.374 0.201,-0.454 0.31,-0.454C0.356,-0.454 0.432,-0.433 0.432,-0.388L0.432,-0.351L0.495,-0.351L0.495,-0.406C0.495,-0.489 0.373,-0.515 0.309,-0.515C0.164,-0.515 0.046,-0.406 0.046,-0.25Z" style="fill-rule:nonzero;"/>
        </g>
        <g transform="matrix(21.7,0,0,21.7,658.096,72.2075)">
            <path d="M0.108,-0.183C0.108,-0.015 0.226,0.004 0.284,0.004C0.295,0.004 0.302,0.004 0.305,0.003C0.308,0.002 0.31,0.002 0.313,0.002L0.313,-0.057C0.312,-0.057 0.31,-0.057 0.307,-0.056C0.304,-0.055 0.299,-0.055 0.29,-0.055C0.251,-0.055 0.176,-0.072 0.176,-0.189L0.176,-0.447L0.303,-0.447L0.303,-0.503L0.176,-0.503L0.176,-0.642L0.109,-0.642L0.109,-0.503L0.018,-0.503L0.018,-0.447L0.108,-0.447L0.108,-0.183Z" style="fill-rule:nonzero;"/>
        </g>
        <g transform="matrix(21.7,0,0,21.7,665.452,72.2075)">
            <path d="M0.047,-0.251C0.047,-0.096 0.161,0.012 0.31,0.012C0.367,0.012 0.414,-0.004 0.446,-0.023C0.465,-0.034 0.481,-0.045 0.496,-0.058L0.465,-0.109C0.453,-0.098 0.439,-0.088 0.423,-0.079C0.396,-0.064 0.359,-0.049 0.312,-0.049C0.208,-0.049 0.12,-0.122 0.117,-0.251L0.503,-0.251L0.505,-0.263C0.506,-0.27 0.506,-0.276 0.506,-0.283C0.506,-0.408 0.434,-0.515 0.295,-0.515C0.159,-0.515 0.047,-0.416 0.047,-0.251ZM0.12,-0.301C0.136,-0.403 0.209,-0.458 0.293,-0.458C0.367,-0.458 0.432,-0.408 0.435,-0.301L0.12,-0.301Z" style="fill-rule:nonzero;"/>
        </g>
        <g transform="matrix(21.7,0,0,21.7,677.431,72.2075)">
            <path d="M0.051,-0L0.275,-0L0.275,-0.056L0.197,-0.056L0.197,-0.213C0.197,-0.313 0.243,-0.44 0.356,-0.44C0.365,-0.44 0.371,-0.44 0.374,-0.439C0.377,-0.438 0.379,-0.438 0.382,-0.438L0.382,-0.505L0.373,-0.507C0.368,-0.508 0.361,-0.508 0.354,-0.508C0.275,-0.508 0.22,-0.45 0.195,-0.374L0.193,-0.374C0.193,-0.377 0.193,-0.381 0.194,-0.385C0.195,-0.392 0.195,-0.401 0.195,-0.412L0.195,-0.446C0.195,-0.486 0.177,-0.503 0.134,-0.503L0.039,-0.503L0.039,-0.447L0.107,-0.447C0.122,-0.447 0.129,-0.44 0.129,-0.425L0.129,-0.056L0.051,-0.056L0.051,-0Z" style="fill-rule:nonzero;"/>
        </g>
        <g transform="matrix(21.7,0,0,21.7,691.514,72.2075)">
            <path d="M0.038,-0.138C0.038,-0.035 0.123,0.012 0.206,0.012C0.271,0.012 0.313,-0.017 0.34,-0.046C0.356,-0.063 0.369,-0.082 0.378,-0.103L0.38,-0.103C0.38,-0.1 0.38,-0.097 0.379,-0.093C0.378,-0.086 0.377,-0.076 0.377,-0.064L0.377,-0.055C0.377,-0.019 0.394,-0 0.437,-0L0.519,-0L0.519,-0.056L0.464,-0.056C0.449,-0.056 0.442,-0.063 0.442,-0.078L0.442,-0.326C0.442,-0.451 0.38,-0.515 0.257,-0.515C0.2,-0.515 0.154,-0.502 0.123,-0.487C0.105,-0.479 0.089,-0.469 0.075,-0.458L0.107,-0.407C0.119,-0.416 0.133,-0.425 0.148,-0.432C0.175,-0.444 0.21,-0.456 0.253,-0.456C0.323,-0.456 0.374,-0.423 0.374,-0.329L0.374,-0.308L0.341,-0.308C0.256,-0.308 0.038,-0.301 0.038,-0.138ZM0.108,-0.145C0.108,-0.261 0.304,-0.257 0.345,-0.257L0.374,-0.257L0.374,-0.233C0.374,-0.145 0.317,-0.044 0.216,-0.044C0.146,-0.044 0.108,-0.093 0.108,-0.145ZM0.234,-0.584L0.306,-0.584L0.208,-0.703L0.121,-0.703L0.234,-0.584Z" style="fill-rule:nonzero;"/>
        </g>
        <g transform="matrix(21.7,0,0,21.7,708.787,72.2075)">
            <path d="M0.008,-0.447L0.074,-0.447L0.245,-0L0.318,-0L0.489,-0.447L0.555,-0.447L0.555,-0.503L0.347,-0.503L0.347,-0.447L0.419,-0.447L0.293,-0.11C0.29,-0.101 0.288,-0.092 0.285,-0.084C0.284,-0.079 0.283,-0.075 0.283,-0.071L0.28,-0.071C0.28,-0.075 0.279,-0.079 0.278,-0.084C0.275,-0.092 0.274,-0.101 0.27,-0.11L0.144,-0.447L0.216,-0.447L0.216,-0.503L0.008,-0.503L0.008,-0.447Z" style="fill-rule:nonzero;"/>
        </g>
        <g transform="matrix(21.7,0,0,21.7,721.004,72.2075)">
            <path d="M0.045,-0.254C0.045,-0.102 0.164,0.012 0.31,0.012C0.457,0.012 0.576,-0.102 0.576,-0.254C0.576,-0.402 0.457,-0.515 0.31,-0.515C0.164,-0.515 0.045,-0.402 0.045,-0.254ZM0.115,-0.254C0.115,-0.369 0.203,-0.454 0.31,-0.454C0.418,-0.454 0.506,-0.369 0.506,-0.254C0.506,-0.137 0.418,-0.049 0.31,-0.049C0.203,-0.049 0.115,-0.137 0.115,-0.254Z" style="fill-rule:nonzero;"/>
        </g>
        <g transform="matrix(21.7,0,0,21.7,734.48,72.2075)">
            <path d="M0.108,-0.183C0.108,-0.015 0.226,0.004 0.284,0.004C0.295,0.004 0.302,0.004 0.305,0.003C0.308,0.002 0.31,0.002 0.313,0.002L0.313,-0.057C0.312,-0.057 0.31,-0.057 0.307,-0.056C0.304,-0.055 0.299,-0.055 0.29,-0.055C0.251,-0.055 0.176,-0.072 0.176,-0.189L0.176,-0.447L0.303,-0.447L0.303,-0.503L0.176,-0.503L0.176,-0.642L0.109,-0.642L0.109,-0.503L0.018,-0.503L0.018,-0.447L0.108,-0.447L0.108,-0.183Z" style="fill-rule:nonzero;"/>
        </g>
        <g transform="matrix(21.7,0,0,21.7,741.836,72.2075)">
            <path d="M0.051,-0L0.275,-0L0.275,-0.056L0.197,-0.056L0.197,-0.213C0.197,-0.313 0.243,-0.44 0.356,-0.44C0.365,-0.44 0.371,-0.44 0.374,-0.439C0.377,-0.438 0.379,-0.438 0.382,-0.438L0.382,-0.505L0.373,-0.507C0.368,-0.508 0.361,-0.508 0.354,-0.508C0.275,-0.508 0.22,-0.45 0.195,-0.374L0.193,-0.374C0.193,-0.377 0.193,-0.381 0.194,-0.385C0.195,-0.392 0.195,-0.401 0.195,-0.412L0.195,-0.446C0.195,-0.486 0.177,-0.503 0.134,-0.503L0.039,-0.503L0.039,-0.447L0.107,-0.447C0.122,-0.447 0.129,-0.44 0.129,-0.425L0.129,-0.056L0.051,-0.056L0.051,-0Z" style="fill-rule:nonzero;"/>
        </g>
        <g transform="matrix(21.7,0,0,21.7,750.364,72.2075)">
            <path d="M0.047,-0.251C0.047,-0.096 0.161,0.012 0.31,0.012C0.367,0.012 0.414,-0.004 0.446,-0.023C0.465,-0.034 0.481,-0.045 0.496,-0.058L0.465,-0.109C0.453,-0.098 0.439,-0.088 0.423,-0.079C0.396,-0.064 0.359,-0.049 0.312,-0.049C0.208,-0.049 0.12,-0.122 0.117,-0.251L0.503,-0.251L0.505,-0.263C0.506,-0.27 0.506,-0.276 0.506,-0.283C0.506,-0.408 0.434,-0.515 0.295,-0.515C0.159,-0.515 0.047,-0.416 0.047,-0.251ZM0.12,-0.301C0.136,-0.403 0.209,-0.458 0.293,-0.458C0.367,-0.458 0.432,-0.408 0.435,-0.301L0.12,-0.301Z" style="fill-rule:nonzero;"/>
        </g>
        <g transform="matrix(21.7,0,0,21.7,767.768,72.2075)">
            <path d="M0.034,-0.254C0.034,-0.09 0.166,0.012 0.315,0.012C0.413,0.012 0.491,-0.034 0.526,-0.067L0.481,-0.157C0.453,-0.135 0.394,-0.095 0.322,-0.095C0.235,-0.095 0.162,-0.152 0.162,-0.257C0.162,-0.35 0.219,-0.414 0.312,-0.414C0.355,-0.414 0.407,-0.399 0.407,-0.364L0.407,-0.33L0.517,-0.33L0.517,-0.4C0.517,-0.49 0.393,-0.522 0.308,-0.522C0.151,-0.522 0.034,-0.406 0.034,-0.254Z" style="fill-rule:nonzero;"/>
        </g>
        <g transform="matrix(21.7,0,0,21.7,779.876,72.2075)">
            <path d="M0.046,-0L0.32,-0L0.32,-0.095L0.247,-0.095L0.247,-0.206C0.247,-0.302 0.293,-0.392 0.396,-0.392C0.405,-0.392 0.411,-0.392 0.418,-0.391C0.421,-0.39 0.424,-0.39 0.427,-0.39L0.427,-0.515C0.425,-0.515 0.423,-0.515 0.42,-0.516C0.416,-0.517 0.411,-0.517 0.404,-0.517C0.325,-0.517 0.266,-0.459 0.242,-0.386L0.24,-0.386C0.24,-0.389 0.24,-0.392 0.241,-0.395C0.242,-0.402 0.242,-0.409 0.242,-0.418L0.242,-0.448C0.242,-0.489 0.219,-0.51 0.174,-0.51L0.041,-0.51L0.041,-0.415L0.098,-0.415C0.113,-0.415 0.12,-0.408 0.12,-0.393L0.12,-0.095L0.046,-0.095L0.046,-0Z" style="fill-rule:nonzero;"/>
        </g>
        <g transform="matrix(21.7,0,0,21.7,789.533,72.2075)">
            <path d="M0.221,-0.573L0.332,-0.573L0.467,-0.709L0.329,-0.709L0.221,-0.573ZM0.035,-0.255C0.035,-0.111 0.14,0.012 0.309,0.012C0.373,0.012 0.424,-0.005 0.46,-0.024C0.481,-0.035 0.5,-0.046 0.515,-0.059L0.466,-0.149C0.453,-0.139 0.439,-0.13 0.423,-0.122C0.396,-0.107 0.361,-0.095 0.318,-0.095C0.241,-0.095 0.173,-0.144 0.165,-0.237L0.518,-0.237L0.52,-0.253C0.521,-0.262 0.521,-0.273 0.521,-0.28C0.521,-0.415 0.441,-0.522 0.294,-0.522C0.141,-0.522 0.035,-0.412 0.035,-0.255ZM0.168,-0.312C0.18,-0.38 0.226,-0.424 0.291,-0.424C0.346,-0.424 0.387,-0.383 0.39,-0.312L0.168,-0.312Z" style="fill-rule:nonzero;"/>
        </g>
        <g transform="matrix(21.7,0,0,21.7,801.641,72.2075)">
            <path d="M0.028,-0.143C0.028,-0.039 0.109,0.012 0.197,0.012C0.257,0.012 0.295,-0.012 0.322,-0.037C0.337,-0.052 0.349,-0.068 0.358,-0.086L0.36,-0.086C0.36,-0.084 0.36,-0.082 0.359,-0.079C0.358,-0.074 0.357,-0.068 0.357,-0.06L0.357,-0.054C0.357,-0.025 0.375,-0 0.422,-0L0.542,-0L0.542,-0.095L0.496,-0.095C0.481,-0.095 0.474,-0.102 0.474,-0.117L0.474,-0.321C0.474,-0.452 0.401,-0.522 0.264,-0.522C0.203,-0.522 0.152,-0.507 0.117,-0.491C0.096,-0.482 0.078,-0.471 0.062,-0.459L0.109,-0.371C0.122,-0.38 0.137,-0.389 0.153,-0.396C0.18,-0.408 0.214,-0.42 0.253,-0.42C0.306,-0.42 0.347,-0.397 0.347,-0.332L0.347,-0.315L0.315,-0.315C0.233,-0.315 0.028,-0.299 0.028,-0.143ZM0.156,-0.153C0.156,-0.23 0.276,-0.238 0.327,-0.238L0.348,-0.238L0.348,-0.221C0.348,-0.157 0.299,-0.083 0.23,-0.083C0.183,-0.083 0.156,-0.114 0.156,-0.153Z" style="fill-rule:nonzero;"/>
        </g>
        <g transform="matrix(21.7,0,0,21.7,813.75,72.2075)">
            <path d="M0.098,-0.187C0.098,-0.016 0.239,0.005 0.311,0.005C0.323,0.005 0.332,0.005 0.339,0.004L0.35,0.002L0.35,-0.102L0.344,-0.102C0.34,-0.102 0.334,-0.101 0.327,-0.101C0.291,-0.101 0.225,-0.112 0.225,-0.2L0.225,-0.415L0.341,-0.415L0.341,-0.51L0.225,-0.51L0.225,-0.649L0.102,-0.649L0.102,-0.51L0.02,-0.51L0.02,-0.415L0.098,-0.415L0.098,-0.187Z" style="fill-rule:nonzero;"/>
        </g>
        <g transform="matrix(21.7,0,0,21.7,822.018,72.2075)">
            <path d="M0.119,-0.597L0.247,-0.597L0.247,-0.71L0.119,-0.71L0.119,-0.597ZM0.046,-0L0.32,-0L0.32,-0.095L0.247,-0.095L0.247,-0.51L0.041,-0.51L0.041,-0.415L0.12,-0.415L0.12,-0.095L0.046,-0.095L0.046,-0Z" style="fill-rule:nonzero;"/>
        </g>
        <g transform="matrix(21.7,0,0,21.7,829.439,72.2075)">
            <path d="M0.01,-0.415L0.072,-0.415L0.227,-0L0.373,-0L0.529,-0.415L0.59,-0.415L0.59,-0.51L0.345,-0.51L0.345,-0.415L0.403,-0.415L0.314,-0.163C0.31,-0.15 0.308,-0.136 0.305,-0.125L0.302,-0.107L0.299,-0.107L0.296,-0.125C0.293,-0.136 0.291,-0.15 0.286,-0.163L0.198,-0.415L0.255,-0.415L0.255,-0.51L0.01,-0.51L0.01,-0.415Z" style="fill-rule:nonzero;"/>
        </g>
        <g transform="matrix(21.7,0,0,21.7,842.459,72.2075)">
            <path d="M0.119,-0.597L0.247,-0.597L0.247,-0.71L0.119,-0.71L0.119,-0.597ZM0.046,-0L0.32,-0L0.32,-0.095L0.247,-0.095L0.247,-0.51L0.041,-0.51L0.041,-0.415L0.12,-0.415L0.12,-0.095L0.046,-0.095L0.046,-0Z" style="fill-rule:nonzero;"/>
        </g>
        <g transform="matrix(21.7,0,0,21.7,849.924,72.2075)">
            <path d="M0.098,-0.187C0.098,-0.016 0.239,0.005 0.311,0.005C0.323,0.005 0.332,0.005 0.339,0.004L0.35,0.002L0.35,-0.102L0.344,-0.102C0.34,-0.102 0.334,-0.101 0.327,-0.101C0.291,-0.101 0.225,-0.112 0.225,-0.2L0.225,-0.415L0.341,-0.415L0.341,-0.51L0.225,-0.51L0.225,-0.649L0.102,-0.649L0.102,-0.51L0.02,-0.51L0.02,-0.415L0.098,-0.415L0.098,-0.187Z" style="fill-rule:nonzero;"/>
        </g>
        <g transform="matrix(21.7,0,0,21.7,858.192,72.2075)">
            <path d="M0.221,-0.573L0.332,-0.573L0.467,-0.709L0.329,-0.709L0.221,-0.573ZM0.035,-0.255C0.035,-0.111 0.14,0.012 0.309,0.012C0.373,0.012 0.424,-0.005 0.46,-0.024C0.481,-0.035 0.5,-0.046 0.515,-0.059L0.466,-0.149C0.453,-0.139 0.439,-0.13 0.423,-0.122C0.396,-0.107 0.361,-0.095 0.318,-0.095C0.241,-0.095 0.173,-0.144 0.165,-0.237L0.518,-0.237L0.52,-0.253C0.521,-0.262 0.521,-0.273 0.521,-0.28C0.521,-0.415 0.441,-0.522 0.294,-0.522C0.141,-0.522 0.035,-0.412 0.035,-0.255ZM0.168,-0.312C0.18,-0.38 0.226,-0.424 0.291,-0.424C0.346,-0.424 0.387,-0.383 0.39,-0.312L0.168,-0.312Z" style="fill-rule:nonzero;"/>
        </g>
        <g transform="matrix(21.7,0,0,21.7,870.3,72.2075)">
            <path d="M0.077,-0.205L0.188,-0.205L0.199,-0.71L0.067,-0.71L0.077,-0.205ZM0.072,-0L0.195,-0L0.195,-0.119L0.072,-0.119L0.072,-0Z" style="fill-rule:nonzero;"/>
        </g>
    </g>
    <g transform="matrix(1,0,0,1,347.802,107.523)">
        <g transform="matrix(103.5,0,0,103.5,108.348,130.803)">
            <path d="M0.034,-0.359C0.034,-0.15 0.194,0.012 0.413,0.012C0.512,0.012 0.705,-0.02 0.705,-0.129L0.705,-0.244L0.545,-0.244L0.545,-0.189C0.545,-0.146 0.458,-0.138 0.426,-0.138C0.307,-0.138 0.219,-0.221 0.219,-0.369C0.219,-0.501 0.3,-0.577 0.416,-0.577C0.464,-0.577 0.537,-0.566 0.537,-0.526L0.537,-0.471L0.697,-0.471L0.697,-0.584C0.697,-0.7 0.495,-0.727 0.408,-0.727C0.199,-0.727 0.034,-0.572 0.034,-0.359Z" style="fill-rule:nonzero;"/>
        </g>
        <g transform="matrix(103.5,0,0,103.5,185.766,130.803)">
            <path d="M0.039,-0L0.352,-0L0.352,-0.125L0.282,-0.125L0.282,-0.2C0.282,-0.295 0.328,-0.355 0.424,-0.355C0.435,-0.355 0.442,-0.355 0.449,-0.354L0.459,-0.352L0.459,-0.522C0.458,-0.522 0.456,-0.522 0.453,-0.523C0.45,-0.524 0.446,-0.524 0.439,-0.524C0.362,-0.524 0.297,-0.466 0.275,-0.396L0.273,-0.396C0.273,-0.398 0.273,-0.4 0.274,-0.403C0.275,-0.406 0.275,-0.413 0.275,-0.422L0.275,-0.449C0.275,-0.496 0.249,-0.515 0.202,-0.515L0.039,-0.515L0.039,-0.39L0.087,-0.39C0.102,-0.39 0.109,-0.383 0.109,-0.368L0.109,-0.125L0.039,-0.125L0.039,-0Z" style="fill-rule:nonzero;"/>
        </g>
        <g transform="matrix(103.5,0,0,103.5,235.032,130.803)">
            <path d="M0.025,-0.258C0.025,-0.121 0.124,0.012 0.308,0.012C0.379,0.012 0.432,-0.005 0.471,-0.024C0.493,-0.035 0.513,-0.047 0.53,-0.06L0.467,-0.18C0.454,-0.171 0.439,-0.163 0.423,-0.156C0.396,-0.144 0.361,-0.131 0.322,-0.131C0.266,-0.131 0.215,-0.159 0.202,-0.226L0.529,-0.226L0.531,-0.246C0.532,-0.257 0.533,-0.27 0.533,-0.278C0.533,-0.421 0.447,-0.527 0.293,-0.527C0.127,-0.527 0.025,-0.409 0.025,-0.258ZM0.206,-0.321C0.215,-0.361 0.238,-0.397 0.289,-0.397C0.328,-0.397 0.354,-0.362 0.354,-0.321L0.206,-0.321ZM0.201,-0.565L0.343,-0.565L0.494,-0.715L0.317,-0.715L0.201,-0.565Z" style="fill-rule:nonzero;"/>
        </g>
        <g transform="matrix(103.5,0,0,103.5,293.199,130.803)">
            <path d="M0.025,-0.258C0.025,-0.121 0.124,0.012 0.308,0.012C0.379,0.012 0.432,-0.005 0.471,-0.024C0.493,-0.035 0.513,-0.047 0.53,-0.06L0.467,-0.18C0.454,-0.171 0.439,-0.163 0.423,-0.156C0.396,-0.144 0.361,-0.131 0.322,-0.131C0.266,-0.131 0.215,-0.159 0.202,-0.226L0.529,-0.226L0.531,-0.246C0.532,-0.257 0.533,-0.27 0.533,-0.278C0.533,-0.421 0.447,-0.527 0.293,-0.527C0.127,-0.527 0.025,-0.409 0.025,-0.258ZM0.206,-0.321C0.215,-0.361 0.238,-0.397 0.289,-0.397C0.328,-0.397 0.354,-0.362 0.354,-0.321L0.206,-0.321Z" style="fill-rule:nonzero;"/>
        </g>
        <g transform="matrix(103.5,0,0,103.5,351.366,130.803)">
            <path d="M0.039,-0L0.352,-0L0.352,-0.125L0.282,-0.125L0.282,-0.2C0.282,-0.295 0.328,-0.355 0.424,-0.355C0.435,-0.355 0.442,-0.355 0.449,-0.354L0.459,-0.352L0.459,-0.522C0.458,-0.522 0.456,-0.522 0.453,-0.523C0.45,-0.524 0.446,-0.524 0.439,-0.524C0.362,-0.524 0.297,-0.466 0.275,-0.396L0.273,-0.396C0.273,-0.398 0.273,-0.4 0.274,-0.403C0.275,-0.406 0.275,-0.413 0.275,-0.422L0.275,-0.449C0.275,-0.496 0.249,-0.515 0.202,-0.515L0.039,-0.515L0.039,-0.39L0.087,-0.39C0.102,-0.39 0.109,-0.383 0.109,-0.368L0.109,-0.125L0.039,-0.125L0.039,-0Z" style="fill-rule:nonzero;"/>
        </g>
        <g transform="matrix(103.5,0,0,103.5,399.804,130.803)">
            <rect x="0.06" y="-0.164" width="0.164" height="0.164" style="fill-rule:nonzero;"/>
        </g>
    </g>
</svg>
