<?xml version="1.0" encoding="UTF-8" standalone="no"?>
<!DOCTYPE svg PUBLIC "-//W3C//DTD SVG 1.1//EN" "http://www.w3.org/Graphics/SVG/1.1/DTD/svg11.dtd">
<svg width="100%" height="100%" fill="#FEF590" viewBox="0 0 1024 600" version="1.1" xmlns="http://www.w3.org/2000/svg" xmlns:xlink="http://www.w3.org/1999/xlink" xml:space="preserve" xmlns:serif="http://www.serif.com/" style="fill-rule:evenodd;clip-rule:evenodd;stroke-linejoin:round;stroke-miterlimit:2;">
    <g transform="matrix(1,0,0,1,-116.652,-55.8005)">
        <text x="108.348px" y="185.293px" class="slab300" style="font-size:182px;">R<tspan x="234.11px " y="185.293px ">e</tspan>spirer.</text>
    </g>
    <g transform="matrix(1,0,0,1,-113.652,100.335)">
        <text x="108.348px" y="138.349px" class="slab300" style="font-size:116px;">Écou<tspan x="391.736px 431.06px " y="138.349px 138.349px ">te</tspan>r.</text>
    </g>
    <g transform="matrix(1,0,0,1,-106.491,201.586)">
        <text x="108.348px" y="72.208px" class="slab500" style="font-size:21.7px;">Il est temps de</text>
        <text x="263.286px" y="72.208px" class="slab300" style="font-size:21.7px;">faire une pa<tspan x="392.379px 407.07px " y="72.208px 72.208px ">us</tspan>e</text>
        <text x="435.302px" y="72.208px" class="slab300" style="font-size:21.7px;">pour vous (r<tspan x="561.01px 572.988px " y="72.208px 72.208px ">e)</tspan>connecter à votr<tspan x="750.364px " y="72.208px ">e</tspan></text>
        <text x="767.768px" y="72.208px" class="slab300" style="font-size:21.7px;">créa<tspan x="813.75px 822.018px 829.439px 842.459px 849.924px 858.192px " y="72.208px 72.208px 72.208px 72.208px 72.208px 72.208px ">tivité</tspan>!</text>
    </g>
    <g transform="matrix(1,0,0,1,347.802,107.523)">
        <text x="108.348px" y="130.803px" style="font-family:'MuseoSlab-900', 'Museo Slab';font-size:103.5px;">Créer<tspan x="399.804px " y="130.803px ">.</tspan></text>
    </g>
</svg>
