<?xml version="1.0" encoding="UTF-8" standalone="no"?>
<!DOCTYPE svg PUBLIC "-//W3C//DTD SVG 1.1//EN" "http://www.w3.org/Graphics/SVG/1.1/DTD/svg11.dtd">
<svg width="100%" height="100%" viewBox="0 0 160 160" version="1.1" xmlns="http://www.w3.org/2000/svg" xmlns:xlink="http://www.w3.org/1999/xlink" xml:space="preserve" xmlns:serif="http://www.serif.com/" style="fill-rule:evenodd;clip-rule:evenodd;stroke-miterlimit:10;">
    <g transform="matrix(1.68187,0,0,1.68187,11.5594,114.202)">
        <path d="M0,-40.524C4.72,-46.463 6.937,-48.024 13.875,-49.899C20.812,-51.774 26.812,-53.837 32.625,-55.337C38.485,-56.849 46.125,-58.336 52.406,-58.711C58.302,-59.063 63,-58.711 66.188,-58.524C70.497,-58.271 76.125,-57.961 81.938,-51.399C87.75,-44.836 88.607,-32.494 87.188,-23.18C85.688,-13.337 79.594,-1.239 70.969,6.355C64.048,12.448 56.394,16.933 48.375,17.789C41.344,18.539 38.816,17.687 35.063,17.789C28.125,17.976 17.625,15.351 12,11.789C6.375,8.226 -0.997,3.562 -4.312,-5.086C-8.625,-16.337 -5.812,-33.212 0,-40.524Z" style="fill:none;fill-rule:nonzero;stroke:rgb(29,29,27);stroke-width:0.71px;"/>
    </g>
</svg>
