<?xml version="1.0" encoding="UTF-8" standalone="no"?><!DOCTYPE svg PUBLIC "-//W3C//DTD SVG 1.1//EN" "http://www.w3.org/Graphics/SVG/1.1/DTD/svg11.dtd"><svg width="100%" height="100%" viewBox="0 0 800 80" version="1.1" xmlns="http://www.w3.org/2000/svg" xmlns:xlink="http://www.w3.org/1999/xlink" xml:space="preserve" xmlns:serif="http://www.serif.com/" style="fill-rule:evenodd;clip-rule:evenodd;stroke-linecap:round;stroke-linejoin:round;stroke-miterlimit:1.5;"><path d="M0,35.099l0,64.901l800,0l0,-60c0,0 -97.674,-29.108 -245.587,-29.108c-135.73,0 -252.559,47.187 -364.843,47.187c-112.284,0 -189.57,-22.98 -189.57,-22.98Z" style="fill:#fef590;"/><g id="Layer1"><path d="M809.081,48.301c-17.822,5.193 -56.492,7.37 -105.748,18.468c-40.012,9.015 -136.784,6.352 -184.666,3.345c-38.603,-2.425 -134.892,-13.882 -163.85,-21.813c-21.824,-5.978 -45.117,-10.664 -70.464,-17.192c-26.248,-6.76 -51.741,-8.359 -83.314,-9.575c-31.698,-1.222 -70.758,-2.082 -109.985,4.895c-29.81,5.303 -63.248,8.899 -100.135,16.651" style="fill:none;stroke:#000;stroke-width:1px;"/></g></svg>