<?xml version="1.0" encoding="UTF-8" standalone="no"?>
<!DOCTYPE svg PUBLIC "-//W3C//DTD SVG 1.1//EN" "http://www.w3.org/Graphics/SVG/1.1/DTD/svg11.dtd">
<svg width="100%" height="100%" viewBox="0 0 1024 100" version="1.1" xmlns="http://www.w3.org/2000/svg" xmlns:xlink="http://www.w3.org/1999/xlink" xml:space="preserve" xmlns:serif="http://www.serif.com/" style="fill-rule:evenodd;clip-rule:evenodd;stroke-linecap:round;stroke-linejoin:round;stroke-miterlimit:1.5;">
    <g transform="matrix(-1.3011,0,0,1.17454,1032.31,-28.6993)">
        <path d="M0,55.099L0,804.223C282.352,763.409 527.226,925.63 800,811.176L800,60C800,60 748.064,34.049 670.304,26.239C635.686,22.762 599.499,24.309 554.413,30.892C468.978,43.366 415.266,92.428 338.291,102.731C296.795,108.284 230.684,86.163 189.57,78.079C152.168,70.726 99.979,79.106 71.574,75.697C16.305,69.064 0,55.099 0,55.099Z" style="fill:rgb(246,172,187);"/>
    </g>
    <g transform="matrix(-1.28194,0,0,0.829793,1038.46,-39.6562)">
        <path d="M811.628,76.531C771.274,99.464 724.331,116.883 637.399,119.848C581.273,121.762 489.483,90.917 412.077,92.337C345.86,93.551 297.536,161.019 229.579,159.797C175.077,158.816 123.196,36.739 -5.371,70.225" style="fill:none;stroke:black;stroke-width:1.85px;"/>
    </g>
</svg>
