<?xml version="1.0" encoding="UTF-8" standalone="no"?>
<!DOCTYPE svg PUBLIC "-//W3C//DTD SVG 1.1//EN" "http://www.w3.org/Graphics/SVG/1.1/DTD/svg11.dtd">
<svg width="100%" height="100%" viewBox="0 0 800 40" version="1.1" xmlns="http://www.w3.org/2000/svg" xmlns:xlink="http://www.w3.org/1999/xlink" xml:space="preserve" xmlns:serif="http://www.serif.com/" style="fill-rule:evenodd;clip-rule:evenodd;stroke-linecap:round;stroke-linejoin:round;stroke-miterlimit:1.5;">
    <g transform="matrix(-1.00355,0,0,0.457763,801.604,-10.6807)">
        <path d="M0,55.099L0,120L800,120L800,80C800,80 692.762,22.204 554.413,27.726C417.161,33.204 301.441,111.727 189.57,78.079C82.044,45.739 0,55.099 0,55.099Z" style="fill:rgb(254,245,144);"/>
    </g>
    <g transform="matrix(-0.988258,0,0,0.466266,781.279,-12.8751)">
        <g id="Layer1">
            <path d="M812.791,75.446C794.968,80.639 756.299,82.817 707.043,93.915C667.031,102.929 570.258,100.266 522.377,97.259C483.773,94.835 387.485,83.377 358.527,75.446C336.703,69.469 313.41,64.782 288.062,58.255C261.815,51.495 236.322,49.896 204.748,48.679C173.05,47.458 133.99,46.598 94.764,53.575C64.953,58.877 -1.319,71.755 -43.185,84.713" style="fill:none;stroke:black;stroke-width:1.29px;"/>
        </g>
    </g>
</svg>
