<?xml version="1.0" encoding="UTF-8" standalone="no"?><!DOCTYPE svg PUBLIC "-//W3C//DTD SVG 1.1//EN" "http://www.w3.org/Graphics/SVG/1.1/DTD/svg11.dtd"><svg width="100%" height="100%" viewBox="0 0 16 12" version="1.1" xmlns="http://www.w3.org/2000/svg" xmlns:xlink="http://www.w3.org/1999/xlink" xml:space="preserve" style="fill-rule:evenodd;clip-rule:evenodd;stroke-linejoin:round;stroke-miterlimit:2;"><g><g id="arrow"><path d="M8.57,1.86c0,0 0,0 0,0.001c0,-0 1.771,0.738 3.187,1.824c0.429,0.33 0.827,0.69 1.114,1.076c0.203,0.274 0.357,0.554 0.357,0.85c-0,0.295 -0.154,0.575 -0.357,0.849c-0.287,0.386 -0.685,0.747 -1.114,1.076c-1.416,1.086 -3.187,1.825 -3.187,1.825c-0.499,0.209 -0.733,0.778 -0.521,1.27c0.212,0.492 0.789,0.722 1.288,0.513c0,0 0.001,0 0.001,0c-0,0 2.762,-1.164 4.423,-2.759c0.873,-0.838 1.432,-1.808 1.432,-2.774c0,-0.966 -0.559,-1.936 -1.432,-2.775c-1.661,-1.594 -4.423,-2.759 -4.423,-2.759c-0,0 -0.001,0 -0.001,0c-0.499,-0.209 -1.076,0.021 -1.288,0.514c-0.212,0.492 0.022,1.061 0.521,1.269Z" style="fill:#333;"/><path d="M9.308,6.924c0.735,-0 1.332,-0.588 1.332,-1.313c-0,-0.725 -0.597,-1.313 -1.332,-1.313c-0.736,-0 -1.332,0.588 -1.332,1.313c0,0.725 0.596,1.313 1.332,1.313Z" style="fill:#333;fill-rule:nonzero;"/><path d="M5.32,6.924c0.735,-0 1.332,-0.588 1.332,-1.313c-0,-0.725 -0.597,-1.313 -1.332,-1.313c-0.736,-0 -1.332,0.588 -1.332,1.313c0,0.725 0.596,1.313 1.332,1.313Z" style="fill:#333;fill-rule:nonzero;"/><path d="M1.332,6.924c0.735,-0 1.332,-0.588 1.332,-1.313c-0,-0.725 -0.597,-1.313 -1.332,-1.313c-0.736,-0 -1.332,0.588 -1.332,1.313c0,0.725 0.596,1.313 1.332,1.313Z" style="fill:#333;fill-rule:nonzero;"/></g></g></svg>